G75*
%MOIN*%
%OFA0B0*%
%FSLAX25Y25*%
%IPPOS*%
%LPD*%
%AMOC8*
5,1,8,0,0,1.08239X$1,22.5*
%
%ADD10C,0.16548*%
%ADD11C,0.08200*%
%ADD12R,0.04737X0.06312*%
%ADD13C,0.05950*%
%ADD14C,0.12611*%
%ADD15OC8,0.05950*%
%ADD16C,0.13595*%
%ADD17C,0.06800*%
%ADD18R,0.06312X0.05131*%
%ADD19R,0.04762X0.04762*%
%ADD20C,0.07099*%
%ADD21C,0.15824*%
D10*
X0110000Y0142345D03*
D11*
X0090000Y0071951D03*
X0080000Y0071951D03*
X0101791Y0062030D03*
X0111791Y0062030D03*
D12*
X0110315Y0067935D03*
X0114055Y0076597D03*
X0106575Y0076597D03*
D13*
X0055000Y0096951D03*
X0055000Y0106951D03*
X0055000Y0116951D03*
X0055000Y0126951D03*
X0055000Y0136951D03*
X0055000Y0146951D03*
X0055000Y0156951D03*
X0055000Y0166951D03*
X0055000Y0176951D03*
X0055000Y0186951D03*
X0055000Y0196951D03*
X0055000Y0206951D03*
X0055000Y0216951D03*
X0055000Y0226951D03*
X0055000Y0236951D03*
X0105000Y0175534D03*
X0115000Y0175534D03*
X0125000Y0175534D03*
X0165000Y0176951D03*
X0165000Y0166951D03*
X0165000Y0156951D03*
X0165000Y0146951D03*
X0165000Y0136951D03*
X0165000Y0126951D03*
X0165000Y0116951D03*
X0165000Y0106951D03*
X0165000Y0096951D03*
X0165000Y0186951D03*
X0165000Y0196951D03*
X0165000Y0206951D03*
X0165000Y0216951D03*
X0165000Y0226951D03*
X0165000Y0236951D03*
D14*
X0159213Y0269313D03*
X0060787Y0269313D03*
X0060787Y0064589D03*
X0159213Y0064589D03*
D15*
X0095000Y0175534D03*
D16*
X0110000Y0271991D03*
D17*
X0058000Y0086951D02*
X0052000Y0086951D01*
X0052000Y0076951D02*
X0058000Y0076951D01*
D18*
X0099193Y0089294D03*
X0099193Y0096183D03*
D19*
X0070453Y0121872D03*
X0131083Y0098250D03*
X0138169Y0135258D03*
D20*
X0118750Y0095701D03*
D21*
X0060667Y0064608D03*
X0109903Y0142325D03*
X0158876Y0064608D03*
X0158876Y0269308D03*
X0109903Y0271853D03*
X0060667Y0269308D03*
M02*
