G75*
%MOIN*%
%OFA0B0*%
%FSLAX25Y25*%
%IPPOS*%
%LPD*%
%AMOC8*
5,1,8,0,0,1.08239X$1,22.5*
%
%ADD10C,0.00000*%
%ADD11C,0.00800*%
%ADD12C,0.00600*%
%ADD13R,0.05000X0.02500*%
%ADD14R,0.02500X0.05000*%
%ADD15C,0.00100*%
%ADD16C,0.00500*%
%ADD17C,0.00400*%
%ADD18C,0.01000*%
%ADD19C,0.00700*%
D10*
X0042500Y0051400D02*
X0042500Y0317306D01*
X0177421Y0317306D01*
X0177421Y0051400D01*
X0042500Y0051400D01*
X0054881Y0074038D02*
X0054883Y0074191D01*
X0054889Y0074345D01*
X0054899Y0074498D01*
X0054913Y0074650D01*
X0054931Y0074803D01*
X0054953Y0074954D01*
X0054978Y0075105D01*
X0055008Y0075256D01*
X0055042Y0075406D01*
X0055079Y0075554D01*
X0055120Y0075702D01*
X0055165Y0075848D01*
X0055214Y0075994D01*
X0055267Y0076138D01*
X0055323Y0076280D01*
X0055383Y0076421D01*
X0055447Y0076561D01*
X0055514Y0076699D01*
X0055585Y0076835D01*
X0055660Y0076969D01*
X0055737Y0077101D01*
X0055819Y0077231D01*
X0055903Y0077359D01*
X0055991Y0077485D01*
X0056082Y0077608D01*
X0056176Y0077729D01*
X0056274Y0077847D01*
X0056374Y0077963D01*
X0056478Y0078076D01*
X0056584Y0078187D01*
X0056693Y0078295D01*
X0056805Y0078400D01*
X0056919Y0078501D01*
X0057037Y0078600D01*
X0057156Y0078696D01*
X0057278Y0078789D01*
X0057403Y0078878D01*
X0057530Y0078965D01*
X0057659Y0079047D01*
X0057790Y0079127D01*
X0057923Y0079203D01*
X0058058Y0079276D01*
X0058195Y0079345D01*
X0058334Y0079410D01*
X0058474Y0079472D01*
X0058616Y0079530D01*
X0058759Y0079585D01*
X0058904Y0079636D01*
X0059050Y0079683D01*
X0059197Y0079726D01*
X0059345Y0079765D01*
X0059494Y0079801D01*
X0059644Y0079832D01*
X0059795Y0079860D01*
X0059946Y0079884D01*
X0060099Y0079904D01*
X0060251Y0079920D01*
X0060404Y0079932D01*
X0060557Y0079940D01*
X0060710Y0079944D01*
X0060864Y0079944D01*
X0061017Y0079940D01*
X0061170Y0079932D01*
X0061323Y0079920D01*
X0061475Y0079904D01*
X0061628Y0079884D01*
X0061779Y0079860D01*
X0061930Y0079832D01*
X0062080Y0079801D01*
X0062229Y0079765D01*
X0062377Y0079726D01*
X0062524Y0079683D01*
X0062670Y0079636D01*
X0062815Y0079585D01*
X0062958Y0079530D01*
X0063100Y0079472D01*
X0063240Y0079410D01*
X0063379Y0079345D01*
X0063516Y0079276D01*
X0063651Y0079203D01*
X0063784Y0079127D01*
X0063915Y0079047D01*
X0064044Y0078965D01*
X0064171Y0078878D01*
X0064296Y0078789D01*
X0064418Y0078696D01*
X0064537Y0078600D01*
X0064655Y0078501D01*
X0064769Y0078400D01*
X0064881Y0078295D01*
X0064990Y0078187D01*
X0065096Y0078076D01*
X0065200Y0077963D01*
X0065300Y0077847D01*
X0065398Y0077729D01*
X0065492Y0077608D01*
X0065583Y0077485D01*
X0065671Y0077359D01*
X0065755Y0077231D01*
X0065837Y0077101D01*
X0065914Y0076969D01*
X0065989Y0076835D01*
X0066060Y0076699D01*
X0066127Y0076561D01*
X0066191Y0076421D01*
X0066251Y0076280D01*
X0066307Y0076138D01*
X0066360Y0075994D01*
X0066409Y0075848D01*
X0066454Y0075702D01*
X0066495Y0075554D01*
X0066532Y0075406D01*
X0066566Y0075256D01*
X0066596Y0075105D01*
X0066621Y0074954D01*
X0066643Y0074803D01*
X0066661Y0074650D01*
X0066675Y0074498D01*
X0066685Y0074345D01*
X0066691Y0074191D01*
X0066693Y0074038D01*
X0066691Y0073885D01*
X0066685Y0073731D01*
X0066675Y0073578D01*
X0066661Y0073426D01*
X0066643Y0073273D01*
X0066621Y0073122D01*
X0066596Y0072971D01*
X0066566Y0072820D01*
X0066532Y0072670D01*
X0066495Y0072522D01*
X0066454Y0072374D01*
X0066409Y0072228D01*
X0066360Y0072082D01*
X0066307Y0071938D01*
X0066251Y0071796D01*
X0066191Y0071655D01*
X0066127Y0071515D01*
X0066060Y0071377D01*
X0065989Y0071241D01*
X0065914Y0071107D01*
X0065837Y0070975D01*
X0065755Y0070845D01*
X0065671Y0070717D01*
X0065583Y0070591D01*
X0065492Y0070468D01*
X0065398Y0070347D01*
X0065300Y0070229D01*
X0065200Y0070113D01*
X0065096Y0070000D01*
X0064990Y0069889D01*
X0064881Y0069781D01*
X0064769Y0069676D01*
X0064655Y0069575D01*
X0064537Y0069476D01*
X0064418Y0069380D01*
X0064296Y0069287D01*
X0064171Y0069198D01*
X0064044Y0069111D01*
X0063915Y0069029D01*
X0063784Y0068949D01*
X0063651Y0068873D01*
X0063516Y0068800D01*
X0063379Y0068731D01*
X0063240Y0068666D01*
X0063100Y0068604D01*
X0062958Y0068546D01*
X0062815Y0068491D01*
X0062670Y0068440D01*
X0062524Y0068393D01*
X0062377Y0068350D01*
X0062229Y0068311D01*
X0062080Y0068275D01*
X0061930Y0068244D01*
X0061779Y0068216D01*
X0061628Y0068192D01*
X0061475Y0068172D01*
X0061323Y0068156D01*
X0061170Y0068144D01*
X0061017Y0068136D01*
X0060864Y0068132D01*
X0060710Y0068132D01*
X0060557Y0068136D01*
X0060404Y0068144D01*
X0060251Y0068156D01*
X0060099Y0068172D01*
X0059946Y0068192D01*
X0059795Y0068216D01*
X0059644Y0068244D01*
X0059494Y0068275D01*
X0059345Y0068311D01*
X0059197Y0068350D01*
X0059050Y0068393D01*
X0058904Y0068440D01*
X0058759Y0068491D01*
X0058616Y0068546D01*
X0058474Y0068604D01*
X0058334Y0068666D01*
X0058195Y0068731D01*
X0058058Y0068800D01*
X0057923Y0068873D01*
X0057790Y0068949D01*
X0057659Y0069029D01*
X0057530Y0069111D01*
X0057403Y0069198D01*
X0057278Y0069287D01*
X0057156Y0069380D01*
X0057037Y0069476D01*
X0056919Y0069575D01*
X0056805Y0069676D01*
X0056693Y0069781D01*
X0056584Y0069889D01*
X0056478Y0070000D01*
X0056374Y0070113D01*
X0056274Y0070229D01*
X0056176Y0070347D01*
X0056082Y0070468D01*
X0055991Y0070591D01*
X0055903Y0070717D01*
X0055819Y0070845D01*
X0055737Y0070975D01*
X0055660Y0071107D01*
X0055585Y0071241D01*
X0055514Y0071377D01*
X0055447Y0071515D01*
X0055383Y0071655D01*
X0055323Y0071796D01*
X0055267Y0071938D01*
X0055214Y0072082D01*
X0055165Y0072228D01*
X0055120Y0072374D01*
X0055079Y0072522D01*
X0055042Y0072670D01*
X0055008Y0072820D01*
X0054978Y0072971D01*
X0054953Y0073122D01*
X0054931Y0073273D01*
X0054913Y0073426D01*
X0054899Y0073578D01*
X0054889Y0073731D01*
X0054883Y0073885D01*
X0054881Y0074038D01*
X0102126Y0151794D02*
X0102128Y0151987D01*
X0102135Y0152180D01*
X0102147Y0152373D01*
X0102164Y0152566D01*
X0102185Y0152758D01*
X0102211Y0152949D01*
X0102242Y0153140D01*
X0102277Y0153330D01*
X0102317Y0153519D01*
X0102362Y0153707D01*
X0102411Y0153894D01*
X0102465Y0154080D01*
X0102523Y0154264D01*
X0102586Y0154447D01*
X0102654Y0154628D01*
X0102725Y0154807D01*
X0102802Y0154985D01*
X0102882Y0155161D01*
X0102967Y0155334D01*
X0103056Y0155506D01*
X0103149Y0155675D01*
X0103246Y0155842D01*
X0103348Y0156007D01*
X0103453Y0156169D01*
X0103562Y0156328D01*
X0103676Y0156485D01*
X0103793Y0156638D01*
X0103913Y0156789D01*
X0104038Y0156937D01*
X0104166Y0157082D01*
X0104297Y0157223D01*
X0104432Y0157362D01*
X0104571Y0157497D01*
X0104712Y0157628D01*
X0104857Y0157756D01*
X0105005Y0157881D01*
X0105156Y0158001D01*
X0105309Y0158118D01*
X0105466Y0158232D01*
X0105625Y0158341D01*
X0105787Y0158446D01*
X0105952Y0158548D01*
X0106119Y0158645D01*
X0106288Y0158738D01*
X0106460Y0158827D01*
X0106633Y0158912D01*
X0106809Y0158992D01*
X0106987Y0159069D01*
X0107166Y0159140D01*
X0107347Y0159208D01*
X0107530Y0159271D01*
X0107714Y0159329D01*
X0107900Y0159383D01*
X0108087Y0159432D01*
X0108275Y0159477D01*
X0108464Y0159517D01*
X0108654Y0159552D01*
X0108845Y0159583D01*
X0109036Y0159609D01*
X0109228Y0159630D01*
X0109421Y0159647D01*
X0109614Y0159659D01*
X0109807Y0159666D01*
X0110000Y0159668D01*
X0110193Y0159666D01*
X0110386Y0159659D01*
X0110579Y0159647D01*
X0110772Y0159630D01*
X0110964Y0159609D01*
X0111155Y0159583D01*
X0111346Y0159552D01*
X0111536Y0159517D01*
X0111725Y0159477D01*
X0111913Y0159432D01*
X0112100Y0159383D01*
X0112286Y0159329D01*
X0112470Y0159271D01*
X0112653Y0159208D01*
X0112834Y0159140D01*
X0113013Y0159069D01*
X0113191Y0158992D01*
X0113367Y0158912D01*
X0113540Y0158827D01*
X0113712Y0158738D01*
X0113881Y0158645D01*
X0114048Y0158548D01*
X0114213Y0158446D01*
X0114375Y0158341D01*
X0114534Y0158232D01*
X0114691Y0158118D01*
X0114844Y0158001D01*
X0114995Y0157881D01*
X0115143Y0157756D01*
X0115288Y0157628D01*
X0115429Y0157497D01*
X0115568Y0157362D01*
X0115703Y0157223D01*
X0115834Y0157082D01*
X0115962Y0156937D01*
X0116087Y0156789D01*
X0116207Y0156638D01*
X0116324Y0156485D01*
X0116438Y0156328D01*
X0116547Y0156169D01*
X0116652Y0156007D01*
X0116754Y0155842D01*
X0116851Y0155675D01*
X0116944Y0155506D01*
X0117033Y0155334D01*
X0117118Y0155161D01*
X0117198Y0154985D01*
X0117275Y0154807D01*
X0117346Y0154628D01*
X0117414Y0154447D01*
X0117477Y0154264D01*
X0117535Y0154080D01*
X0117589Y0153894D01*
X0117638Y0153707D01*
X0117683Y0153519D01*
X0117723Y0153330D01*
X0117758Y0153140D01*
X0117789Y0152949D01*
X0117815Y0152758D01*
X0117836Y0152566D01*
X0117853Y0152373D01*
X0117865Y0152180D01*
X0117872Y0151987D01*
X0117874Y0151794D01*
X0117872Y0151601D01*
X0117865Y0151408D01*
X0117853Y0151215D01*
X0117836Y0151022D01*
X0117815Y0150830D01*
X0117789Y0150639D01*
X0117758Y0150448D01*
X0117723Y0150258D01*
X0117683Y0150069D01*
X0117638Y0149881D01*
X0117589Y0149694D01*
X0117535Y0149508D01*
X0117477Y0149324D01*
X0117414Y0149141D01*
X0117346Y0148960D01*
X0117275Y0148781D01*
X0117198Y0148603D01*
X0117118Y0148427D01*
X0117033Y0148254D01*
X0116944Y0148082D01*
X0116851Y0147913D01*
X0116754Y0147746D01*
X0116652Y0147581D01*
X0116547Y0147419D01*
X0116438Y0147260D01*
X0116324Y0147103D01*
X0116207Y0146950D01*
X0116087Y0146799D01*
X0115962Y0146651D01*
X0115834Y0146506D01*
X0115703Y0146365D01*
X0115568Y0146226D01*
X0115429Y0146091D01*
X0115288Y0145960D01*
X0115143Y0145832D01*
X0114995Y0145707D01*
X0114844Y0145587D01*
X0114691Y0145470D01*
X0114534Y0145356D01*
X0114375Y0145247D01*
X0114213Y0145142D01*
X0114048Y0145040D01*
X0113881Y0144943D01*
X0113712Y0144850D01*
X0113540Y0144761D01*
X0113367Y0144676D01*
X0113191Y0144596D01*
X0113013Y0144519D01*
X0112834Y0144448D01*
X0112653Y0144380D01*
X0112470Y0144317D01*
X0112286Y0144259D01*
X0112100Y0144205D01*
X0111913Y0144156D01*
X0111725Y0144111D01*
X0111536Y0144071D01*
X0111346Y0144036D01*
X0111155Y0144005D01*
X0110964Y0143979D01*
X0110772Y0143958D01*
X0110579Y0143941D01*
X0110386Y0143929D01*
X0110193Y0143922D01*
X0110000Y0143920D01*
X0109807Y0143922D01*
X0109614Y0143929D01*
X0109421Y0143941D01*
X0109228Y0143958D01*
X0109036Y0143979D01*
X0108845Y0144005D01*
X0108654Y0144036D01*
X0108464Y0144071D01*
X0108275Y0144111D01*
X0108087Y0144156D01*
X0107900Y0144205D01*
X0107714Y0144259D01*
X0107530Y0144317D01*
X0107347Y0144380D01*
X0107166Y0144448D01*
X0106987Y0144519D01*
X0106809Y0144596D01*
X0106633Y0144676D01*
X0106460Y0144761D01*
X0106288Y0144850D01*
X0106119Y0144943D01*
X0105952Y0145040D01*
X0105787Y0145142D01*
X0105625Y0145247D01*
X0105466Y0145356D01*
X0105309Y0145470D01*
X0105156Y0145587D01*
X0105005Y0145707D01*
X0104857Y0145832D01*
X0104712Y0145960D01*
X0104571Y0146091D01*
X0104432Y0146226D01*
X0104297Y0146365D01*
X0104166Y0146506D01*
X0104038Y0146651D01*
X0103913Y0146799D01*
X0103793Y0146950D01*
X0103676Y0147103D01*
X0103562Y0147260D01*
X0103453Y0147419D01*
X0103348Y0147581D01*
X0103246Y0147746D01*
X0103149Y0147913D01*
X0103056Y0148082D01*
X0102967Y0148254D01*
X0102882Y0148427D01*
X0102802Y0148603D01*
X0102725Y0148781D01*
X0102654Y0148960D01*
X0102586Y0149141D01*
X0102523Y0149324D01*
X0102465Y0149508D01*
X0102411Y0149694D01*
X0102362Y0149881D01*
X0102317Y0150069D01*
X0102277Y0150258D01*
X0102242Y0150448D01*
X0102211Y0150639D01*
X0102185Y0150830D01*
X0102164Y0151022D01*
X0102147Y0151215D01*
X0102135Y0151408D01*
X0102128Y0151601D01*
X0102126Y0151794D01*
X0153307Y0074038D02*
X0153309Y0074191D01*
X0153315Y0074345D01*
X0153325Y0074498D01*
X0153339Y0074650D01*
X0153357Y0074803D01*
X0153379Y0074954D01*
X0153404Y0075105D01*
X0153434Y0075256D01*
X0153468Y0075406D01*
X0153505Y0075554D01*
X0153546Y0075702D01*
X0153591Y0075848D01*
X0153640Y0075994D01*
X0153693Y0076138D01*
X0153749Y0076280D01*
X0153809Y0076421D01*
X0153873Y0076561D01*
X0153940Y0076699D01*
X0154011Y0076835D01*
X0154086Y0076969D01*
X0154163Y0077101D01*
X0154245Y0077231D01*
X0154329Y0077359D01*
X0154417Y0077485D01*
X0154508Y0077608D01*
X0154602Y0077729D01*
X0154700Y0077847D01*
X0154800Y0077963D01*
X0154904Y0078076D01*
X0155010Y0078187D01*
X0155119Y0078295D01*
X0155231Y0078400D01*
X0155345Y0078501D01*
X0155463Y0078600D01*
X0155582Y0078696D01*
X0155704Y0078789D01*
X0155829Y0078878D01*
X0155956Y0078965D01*
X0156085Y0079047D01*
X0156216Y0079127D01*
X0156349Y0079203D01*
X0156484Y0079276D01*
X0156621Y0079345D01*
X0156760Y0079410D01*
X0156900Y0079472D01*
X0157042Y0079530D01*
X0157185Y0079585D01*
X0157330Y0079636D01*
X0157476Y0079683D01*
X0157623Y0079726D01*
X0157771Y0079765D01*
X0157920Y0079801D01*
X0158070Y0079832D01*
X0158221Y0079860D01*
X0158372Y0079884D01*
X0158525Y0079904D01*
X0158677Y0079920D01*
X0158830Y0079932D01*
X0158983Y0079940D01*
X0159136Y0079944D01*
X0159290Y0079944D01*
X0159443Y0079940D01*
X0159596Y0079932D01*
X0159749Y0079920D01*
X0159901Y0079904D01*
X0160054Y0079884D01*
X0160205Y0079860D01*
X0160356Y0079832D01*
X0160506Y0079801D01*
X0160655Y0079765D01*
X0160803Y0079726D01*
X0160950Y0079683D01*
X0161096Y0079636D01*
X0161241Y0079585D01*
X0161384Y0079530D01*
X0161526Y0079472D01*
X0161666Y0079410D01*
X0161805Y0079345D01*
X0161942Y0079276D01*
X0162077Y0079203D01*
X0162210Y0079127D01*
X0162341Y0079047D01*
X0162470Y0078965D01*
X0162597Y0078878D01*
X0162722Y0078789D01*
X0162844Y0078696D01*
X0162963Y0078600D01*
X0163081Y0078501D01*
X0163195Y0078400D01*
X0163307Y0078295D01*
X0163416Y0078187D01*
X0163522Y0078076D01*
X0163626Y0077963D01*
X0163726Y0077847D01*
X0163824Y0077729D01*
X0163918Y0077608D01*
X0164009Y0077485D01*
X0164097Y0077359D01*
X0164181Y0077231D01*
X0164263Y0077101D01*
X0164340Y0076969D01*
X0164415Y0076835D01*
X0164486Y0076699D01*
X0164553Y0076561D01*
X0164617Y0076421D01*
X0164677Y0076280D01*
X0164733Y0076138D01*
X0164786Y0075994D01*
X0164835Y0075848D01*
X0164880Y0075702D01*
X0164921Y0075554D01*
X0164958Y0075406D01*
X0164992Y0075256D01*
X0165022Y0075105D01*
X0165047Y0074954D01*
X0165069Y0074803D01*
X0165087Y0074650D01*
X0165101Y0074498D01*
X0165111Y0074345D01*
X0165117Y0074191D01*
X0165119Y0074038D01*
X0165117Y0073885D01*
X0165111Y0073731D01*
X0165101Y0073578D01*
X0165087Y0073426D01*
X0165069Y0073273D01*
X0165047Y0073122D01*
X0165022Y0072971D01*
X0164992Y0072820D01*
X0164958Y0072670D01*
X0164921Y0072522D01*
X0164880Y0072374D01*
X0164835Y0072228D01*
X0164786Y0072082D01*
X0164733Y0071938D01*
X0164677Y0071796D01*
X0164617Y0071655D01*
X0164553Y0071515D01*
X0164486Y0071377D01*
X0164415Y0071241D01*
X0164340Y0071107D01*
X0164263Y0070975D01*
X0164181Y0070845D01*
X0164097Y0070717D01*
X0164009Y0070591D01*
X0163918Y0070468D01*
X0163824Y0070347D01*
X0163726Y0070229D01*
X0163626Y0070113D01*
X0163522Y0070000D01*
X0163416Y0069889D01*
X0163307Y0069781D01*
X0163195Y0069676D01*
X0163081Y0069575D01*
X0162963Y0069476D01*
X0162844Y0069380D01*
X0162722Y0069287D01*
X0162597Y0069198D01*
X0162470Y0069111D01*
X0162341Y0069029D01*
X0162210Y0068949D01*
X0162077Y0068873D01*
X0161942Y0068800D01*
X0161805Y0068731D01*
X0161666Y0068666D01*
X0161526Y0068604D01*
X0161384Y0068546D01*
X0161241Y0068491D01*
X0161096Y0068440D01*
X0160950Y0068393D01*
X0160803Y0068350D01*
X0160655Y0068311D01*
X0160506Y0068275D01*
X0160356Y0068244D01*
X0160205Y0068216D01*
X0160054Y0068192D01*
X0159901Y0068172D01*
X0159749Y0068156D01*
X0159596Y0068144D01*
X0159443Y0068136D01*
X0159290Y0068132D01*
X0159136Y0068132D01*
X0158983Y0068136D01*
X0158830Y0068144D01*
X0158677Y0068156D01*
X0158525Y0068172D01*
X0158372Y0068192D01*
X0158221Y0068216D01*
X0158070Y0068244D01*
X0157920Y0068275D01*
X0157771Y0068311D01*
X0157623Y0068350D01*
X0157476Y0068393D01*
X0157330Y0068440D01*
X0157185Y0068491D01*
X0157042Y0068546D01*
X0156900Y0068604D01*
X0156760Y0068666D01*
X0156621Y0068731D01*
X0156484Y0068800D01*
X0156349Y0068873D01*
X0156216Y0068949D01*
X0156085Y0069029D01*
X0155956Y0069111D01*
X0155829Y0069198D01*
X0155704Y0069287D01*
X0155582Y0069380D01*
X0155463Y0069476D01*
X0155345Y0069575D01*
X0155231Y0069676D01*
X0155119Y0069781D01*
X0155010Y0069889D01*
X0154904Y0070000D01*
X0154800Y0070113D01*
X0154700Y0070229D01*
X0154602Y0070347D01*
X0154508Y0070468D01*
X0154417Y0070591D01*
X0154329Y0070717D01*
X0154245Y0070845D01*
X0154163Y0070975D01*
X0154086Y0071107D01*
X0154011Y0071241D01*
X0153940Y0071377D01*
X0153873Y0071515D01*
X0153809Y0071655D01*
X0153749Y0071796D01*
X0153693Y0071938D01*
X0153640Y0072082D01*
X0153591Y0072228D01*
X0153546Y0072374D01*
X0153505Y0072522D01*
X0153468Y0072670D01*
X0153434Y0072820D01*
X0153404Y0072971D01*
X0153379Y0073122D01*
X0153357Y0073273D01*
X0153339Y0073426D01*
X0153325Y0073578D01*
X0153315Y0073731D01*
X0153309Y0073885D01*
X0153307Y0074038D01*
X0153307Y0278762D02*
X0153309Y0278915D01*
X0153315Y0279069D01*
X0153325Y0279222D01*
X0153339Y0279374D01*
X0153357Y0279527D01*
X0153379Y0279678D01*
X0153404Y0279829D01*
X0153434Y0279980D01*
X0153468Y0280130D01*
X0153505Y0280278D01*
X0153546Y0280426D01*
X0153591Y0280572D01*
X0153640Y0280718D01*
X0153693Y0280862D01*
X0153749Y0281004D01*
X0153809Y0281145D01*
X0153873Y0281285D01*
X0153940Y0281423D01*
X0154011Y0281559D01*
X0154086Y0281693D01*
X0154163Y0281825D01*
X0154245Y0281955D01*
X0154329Y0282083D01*
X0154417Y0282209D01*
X0154508Y0282332D01*
X0154602Y0282453D01*
X0154700Y0282571D01*
X0154800Y0282687D01*
X0154904Y0282800D01*
X0155010Y0282911D01*
X0155119Y0283019D01*
X0155231Y0283124D01*
X0155345Y0283225D01*
X0155463Y0283324D01*
X0155582Y0283420D01*
X0155704Y0283513D01*
X0155829Y0283602D01*
X0155956Y0283689D01*
X0156085Y0283771D01*
X0156216Y0283851D01*
X0156349Y0283927D01*
X0156484Y0284000D01*
X0156621Y0284069D01*
X0156760Y0284134D01*
X0156900Y0284196D01*
X0157042Y0284254D01*
X0157185Y0284309D01*
X0157330Y0284360D01*
X0157476Y0284407D01*
X0157623Y0284450D01*
X0157771Y0284489D01*
X0157920Y0284525D01*
X0158070Y0284556D01*
X0158221Y0284584D01*
X0158372Y0284608D01*
X0158525Y0284628D01*
X0158677Y0284644D01*
X0158830Y0284656D01*
X0158983Y0284664D01*
X0159136Y0284668D01*
X0159290Y0284668D01*
X0159443Y0284664D01*
X0159596Y0284656D01*
X0159749Y0284644D01*
X0159901Y0284628D01*
X0160054Y0284608D01*
X0160205Y0284584D01*
X0160356Y0284556D01*
X0160506Y0284525D01*
X0160655Y0284489D01*
X0160803Y0284450D01*
X0160950Y0284407D01*
X0161096Y0284360D01*
X0161241Y0284309D01*
X0161384Y0284254D01*
X0161526Y0284196D01*
X0161666Y0284134D01*
X0161805Y0284069D01*
X0161942Y0284000D01*
X0162077Y0283927D01*
X0162210Y0283851D01*
X0162341Y0283771D01*
X0162470Y0283689D01*
X0162597Y0283602D01*
X0162722Y0283513D01*
X0162844Y0283420D01*
X0162963Y0283324D01*
X0163081Y0283225D01*
X0163195Y0283124D01*
X0163307Y0283019D01*
X0163416Y0282911D01*
X0163522Y0282800D01*
X0163626Y0282687D01*
X0163726Y0282571D01*
X0163824Y0282453D01*
X0163918Y0282332D01*
X0164009Y0282209D01*
X0164097Y0282083D01*
X0164181Y0281955D01*
X0164263Y0281825D01*
X0164340Y0281693D01*
X0164415Y0281559D01*
X0164486Y0281423D01*
X0164553Y0281285D01*
X0164617Y0281145D01*
X0164677Y0281004D01*
X0164733Y0280862D01*
X0164786Y0280718D01*
X0164835Y0280572D01*
X0164880Y0280426D01*
X0164921Y0280278D01*
X0164958Y0280130D01*
X0164992Y0279980D01*
X0165022Y0279829D01*
X0165047Y0279678D01*
X0165069Y0279527D01*
X0165087Y0279374D01*
X0165101Y0279222D01*
X0165111Y0279069D01*
X0165117Y0278915D01*
X0165119Y0278762D01*
X0165117Y0278609D01*
X0165111Y0278455D01*
X0165101Y0278302D01*
X0165087Y0278150D01*
X0165069Y0277997D01*
X0165047Y0277846D01*
X0165022Y0277695D01*
X0164992Y0277544D01*
X0164958Y0277394D01*
X0164921Y0277246D01*
X0164880Y0277098D01*
X0164835Y0276952D01*
X0164786Y0276806D01*
X0164733Y0276662D01*
X0164677Y0276520D01*
X0164617Y0276379D01*
X0164553Y0276239D01*
X0164486Y0276101D01*
X0164415Y0275965D01*
X0164340Y0275831D01*
X0164263Y0275699D01*
X0164181Y0275569D01*
X0164097Y0275441D01*
X0164009Y0275315D01*
X0163918Y0275192D01*
X0163824Y0275071D01*
X0163726Y0274953D01*
X0163626Y0274837D01*
X0163522Y0274724D01*
X0163416Y0274613D01*
X0163307Y0274505D01*
X0163195Y0274400D01*
X0163081Y0274299D01*
X0162963Y0274200D01*
X0162844Y0274104D01*
X0162722Y0274011D01*
X0162597Y0273922D01*
X0162470Y0273835D01*
X0162341Y0273753D01*
X0162210Y0273673D01*
X0162077Y0273597D01*
X0161942Y0273524D01*
X0161805Y0273455D01*
X0161666Y0273390D01*
X0161526Y0273328D01*
X0161384Y0273270D01*
X0161241Y0273215D01*
X0161096Y0273164D01*
X0160950Y0273117D01*
X0160803Y0273074D01*
X0160655Y0273035D01*
X0160506Y0272999D01*
X0160356Y0272968D01*
X0160205Y0272940D01*
X0160054Y0272916D01*
X0159901Y0272896D01*
X0159749Y0272880D01*
X0159596Y0272868D01*
X0159443Y0272860D01*
X0159290Y0272856D01*
X0159136Y0272856D01*
X0158983Y0272860D01*
X0158830Y0272868D01*
X0158677Y0272880D01*
X0158525Y0272896D01*
X0158372Y0272916D01*
X0158221Y0272940D01*
X0158070Y0272968D01*
X0157920Y0272999D01*
X0157771Y0273035D01*
X0157623Y0273074D01*
X0157476Y0273117D01*
X0157330Y0273164D01*
X0157185Y0273215D01*
X0157042Y0273270D01*
X0156900Y0273328D01*
X0156760Y0273390D01*
X0156621Y0273455D01*
X0156484Y0273524D01*
X0156349Y0273597D01*
X0156216Y0273673D01*
X0156085Y0273753D01*
X0155956Y0273835D01*
X0155829Y0273922D01*
X0155704Y0274011D01*
X0155582Y0274104D01*
X0155463Y0274200D01*
X0155345Y0274299D01*
X0155231Y0274400D01*
X0155119Y0274505D01*
X0155010Y0274613D01*
X0154904Y0274724D01*
X0154800Y0274837D01*
X0154700Y0274953D01*
X0154602Y0275071D01*
X0154508Y0275192D01*
X0154417Y0275315D01*
X0154329Y0275441D01*
X0154245Y0275569D01*
X0154163Y0275699D01*
X0154086Y0275831D01*
X0154011Y0275965D01*
X0153940Y0276101D01*
X0153873Y0276239D01*
X0153809Y0276379D01*
X0153749Y0276520D01*
X0153693Y0276662D01*
X0153640Y0276806D01*
X0153591Y0276952D01*
X0153546Y0277098D01*
X0153505Y0277246D01*
X0153468Y0277394D01*
X0153434Y0277544D01*
X0153404Y0277695D01*
X0153379Y0277846D01*
X0153357Y0277997D01*
X0153339Y0278150D01*
X0153325Y0278302D01*
X0153315Y0278455D01*
X0153309Y0278609D01*
X0153307Y0278762D01*
X0103602Y0292857D02*
X0103604Y0293017D01*
X0103610Y0293176D01*
X0103620Y0293335D01*
X0103634Y0293494D01*
X0103652Y0293653D01*
X0103673Y0293811D01*
X0103699Y0293968D01*
X0103729Y0294125D01*
X0103762Y0294281D01*
X0103800Y0294436D01*
X0103841Y0294590D01*
X0103886Y0294743D01*
X0103935Y0294895D01*
X0103988Y0295045D01*
X0104044Y0295194D01*
X0104104Y0295342D01*
X0104168Y0295488D01*
X0104236Y0295633D01*
X0104307Y0295776D01*
X0104381Y0295917D01*
X0104459Y0296056D01*
X0104541Y0296193D01*
X0104626Y0296328D01*
X0104714Y0296461D01*
X0104805Y0296592D01*
X0104900Y0296720D01*
X0104998Y0296846D01*
X0105099Y0296970D01*
X0105203Y0297090D01*
X0105310Y0297209D01*
X0105420Y0297324D01*
X0105533Y0297437D01*
X0105648Y0297547D01*
X0105767Y0297654D01*
X0105887Y0297758D01*
X0106011Y0297859D01*
X0106137Y0297957D01*
X0106265Y0298052D01*
X0106396Y0298143D01*
X0106529Y0298231D01*
X0106664Y0298316D01*
X0106801Y0298398D01*
X0106940Y0298476D01*
X0107081Y0298550D01*
X0107224Y0298621D01*
X0107369Y0298689D01*
X0107515Y0298753D01*
X0107663Y0298813D01*
X0107812Y0298869D01*
X0107962Y0298922D01*
X0108114Y0298971D01*
X0108267Y0299016D01*
X0108421Y0299057D01*
X0108576Y0299095D01*
X0108732Y0299128D01*
X0108889Y0299158D01*
X0109046Y0299184D01*
X0109204Y0299205D01*
X0109363Y0299223D01*
X0109522Y0299237D01*
X0109681Y0299247D01*
X0109840Y0299253D01*
X0110000Y0299255D01*
X0110160Y0299253D01*
X0110319Y0299247D01*
X0110478Y0299237D01*
X0110637Y0299223D01*
X0110796Y0299205D01*
X0110954Y0299184D01*
X0111111Y0299158D01*
X0111268Y0299128D01*
X0111424Y0299095D01*
X0111579Y0299057D01*
X0111733Y0299016D01*
X0111886Y0298971D01*
X0112038Y0298922D01*
X0112188Y0298869D01*
X0112337Y0298813D01*
X0112485Y0298753D01*
X0112631Y0298689D01*
X0112776Y0298621D01*
X0112919Y0298550D01*
X0113060Y0298476D01*
X0113199Y0298398D01*
X0113336Y0298316D01*
X0113471Y0298231D01*
X0113604Y0298143D01*
X0113735Y0298052D01*
X0113863Y0297957D01*
X0113989Y0297859D01*
X0114113Y0297758D01*
X0114233Y0297654D01*
X0114352Y0297547D01*
X0114467Y0297437D01*
X0114580Y0297324D01*
X0114690Y0297209D01*
X0114797Y0297090D01*
X0114901Y0296970D01*
X0115002Y0296846D01*
X0115100Y0296720D01*
X0115195Y0296592D01*
X0115286Y0296461D01*
X0115374Y0296328D01*
X0115459Y0296193D01*
X0115541Y0296056D01*
X0115619Y0295917D01*
X0115693Y0295776D01*
X0115764Y0295633D01*
X0115832Y0295488D01*
X0115896Y0295342D01*
X0115956Y0295194D01*
X0116012Y0295045D01*
X0116065Y0294895D01*
X0116114Y0294743D01*
X0116159Y0294590D01*
X0116200Y0294436D01*
X0116238Y0294281D01*
X0116271Y0294125D01*
X0116301Y0293968D01*
X0116327Y0293811D01*
X0116348Y0293653D01*
X0116366Y0293494D01*
X0116380Y0293335D01*
X0116390Y0293176D01*
X0116396Y0293017D01*
X0116398Y0292857D01*
X0116396Y0292697D01*
X0116390Y0292538D01*
X0116380Y0292379D01*
X0116366Y0292220D01*
X0116348Y0292061D01*
X0116327Y0291903D01*
X0116301Y0291746D01*
X0116271Y0291589D01*
X0116238Y0291433D01*
X0116200Y0291278D01*
X0116159Y0291124D01*
X0116114Y0290971D01*
X0116065Y0290819D01*
X0116012Y0290669D01*
X0115956Y0290520D01*
X0115896Y0290372D01*
X0115832Y0290226D01*
X0115764Y0290081D01*
X0115693Y0289938D01*
X0115619Y0289797D01*
X0115541Y0289658D01*
X0115459Y0289521D01*
X0115374Y0289386D01*
X0115286Y0289253D01*
X0115195Y0289122D01*
X0115100Y0288994D01*
X0115002Y0288868D01*
X0114901Y0288744D01*
X0114797Y0288624D01*
X0114690Y0288505D01*
X0114580Y0288390D01*
X0114467Y0288277D01*
X0114352Y0288167D01*
X0114233Y0288060D01*
X0114113Y0287956D01*
X0113989Y0287855D01*
X0113863Y0287757D01*
X0113735Y0287662D01*
X0113604Y0287571D01*
X0113471Y0287483D01*
X0113336Y0287398D01*
X0113199Y0287316D01*
X0113060Y0287238D01*
X0112919Y0287164D01*
X0112776Y0287093D01*
X0112631Y0287025D01*
X0112485Y0286961D01*
X0112337Y0286901D01*
X0112188Y0286845D01*
X0112038Y0286792D01*
X0111886Y0286743D01*
X0111733Y0286698D01*
X0111579Y0286657D01*
X0111424Y0286619D01*
X0111268Y0286586D01*
X0111111Y0286556D01*
X0110954Y0286530D01*
X0110796Y0286509D01*
X0110637Y0286491D01*
X0110478Y0286477D01*
X0110319Y0286467D01*
X0110160Y0286461D01*
X0110000Y0286459D01*
X0109840Y0286461D01*
X0109681Y0286467D01*
X0109522Y0286477D01*
X0109363Y0286491D01*
X0109204Y0286509D01*
X0109046Y0286530D01*
X0108889Y0286556D01*
X0108732Y0286586D01*
X0108576Y0286619D01*
X0108421Y0286657D01*
X0108267Y0286698D01*
X0108114Y0286743D01*
X0107962Y0286792D01*
X0107812Y0286845D01*
X0107663Y0286901D01*
X0107515Y0286961D01*
X0107369Y0287025D01*
X0107224Y0287093D01*
X0107081Y0287164D01*
X0106940Y0287238D01*
X0106801Y0287316D01*
X0106664Y0287398D01*
X0106529Y0287483D01*
X0106396Y0287571D01*
X0106265Y0287662D01*
X0106137Y0287757D01*
X0106011Y0287855D01*
X0105887Y0287956D01*
X0105767Y0288060D01*
X0105648Y0288167D01*
X0105533Y0288277D01*
X0105420Y0288390D01*
X0105310Y0288505D01*
X0105203Y0288624D01*
X0105099Y0288744D01*
X0104998Y0288868D01*
X0104900Y0288994D01*
X0104805Y0289122D01*
X0104714Y0289253D01*
X0104626Y0289386D01*
X0104541Y0289521D01*
X0104459Y0289658D01*
X0104381Y0289797D01*
X0104307Y0289938D01*
X0104236Y0290081D01*
X0104168Y0290226D01*
X0104104Y0290372D01*
X0104044Y0290520D01*
X0103988Y0290669D01*
X0103935Y0290819D01*
X0103886Y0290971D01*
X0103841Y0291124D01*
X0103800Y0291278D01*
X0103762Y0291433D01*
X0103729Y0291589D01*
X0103699Y0291746D01*
X0103673Y0291903D01*
X0103652Y0292061D01*
X0103634Y0292220D01*
X0103620Y0292379D01*
X0103610Y0292538D01*
X0103604Y0292697D01*
X0103602Y0292857D01*
X0054881Y0278762D02*
X0054883Y0278915D01*
X0054889Y0279069D01*
X0054899Y0279222D01*
X0054913Y0279374D01*
X0054931Y0279527D01*
X0054953Y0279678D01*
X0054978Y0279829D01*
X0055008Y0279980D01*
X0055042Y0280130D01*
X0055079Y0280278D01*
X0055120Y0280426D01*
X0055165Y0280572D01*
X0055214Y0280718D01*
X0055267Y0280862D01*
X0055323Y0281004D01*
X0055383Y0281145D01*
X0055447Y0281285D01*
X0055514Y0281423D01*
X0055585Y0281559D01*
X0055660Y0281693D01*
X0055737Y0281825D01*
X0055819Y0281955D01*
X0055903Y0282083D01*
X0055991Y0282209D01*
X0056082Y0282332D01*
X0056176Y0282453D01*
X0056274Y0282571D01*
X0056374Y0282687D01*
X0056478Y0282800D01*
X0056584Y0282911D01*
X0056693Y0283019D01*
X0056805Y0283124D01*
X0056919Y0283225D01*
X0057037Y0283324D01*
X0057156Y0283420D01*
X0057278Y0283513D01*
X0057403Y0283602D01*
X0057530Y0283689D01*
X0057659Y0283771D01*
X0057790Y0283851D01*
X0057923Y0283927D01*
X0058058Y0284000D01*
X0058195Y0284069D01*
X0058334Y0284134D01*
X0058474Y0284196D01*
X0058616Y0284254D01*
X0058759Y0284309D01*
X0058904Y0284360D01*
X0059050Y0284407D01*
X0059197Y0284450D01*
X0059345Y0284489D01*
X0059494Y0284525D01*
X0059644Y0284556D01*
X0059795Y0284584D01*
X0059946Y0284608D01*
X0060099Y0284628D01*
X0060251Y0284644D01*
X0060404Y0284656D01*
X0060557Y0284664D01*
X0060710Y0284668D01*
X0060864Y0284668D01*
X0061017Y0284664D01*
X0061170Y0284656D01*
X0061323Y0284644D01*
X0061475Y0284628D01*
X0061628Y0284608D01*
X0061779Y0284584D01*
X0061930Y0284556D01*
X0062080Y0284525D01*
X0062229Y0284489D01*
X0062377Y0284450D01*
X0062524Y0284407D01*
X0062670Y0284360D01*
X0062815Y0284309D01*
X0062958Y0284254D01*
X0063100Y0284196D01*
X0063240Y0284134D01*
X0063379Y0284069D01*
X0063516Y0284000D01*
X0063651Y0283927D01*
X0063784Y0283851D01*
X0063915Y0283771D01*
X0064044Y0283689D01*
X0064171Y0283602D01*
X0064296Y0283513D01*
X0064418Y0283420D01*
X0064537Y0283324D01*
X0064655Y0283225D01*
X0064769Y0283124D01*
X0064881Y0283019D01*
X0064990Y0282911D01*
X0065096Y0282800D01*
X0065200Y0282687D01*
X0065300Y0282571D01*
X0065398Y0282453D01*
X0065492Y0282332D01*
X0065583Y0282209D01*
X0065671Y0282083D01*
X0065755Y0281955D01*
X0065837Y0281825D01*
X0065914Y0281693D01*
X0065989Y0281559D01*
X0066060Y0281423D01*
X0066127Y0281285D01*
X0066191Y0281145D01*
X0066251Y0281004D01*
X0066307Y0280862D01*
X0066360Y0280718D01*
X0066409Y0280572D01*
X0066454Y0280426D01*
X0066495Y0280278D01*
X0066532Y0280130D01*
X0066566Y0279980D01*
X0066596Y0279829D01*
X0066621Y0279678D01*
X0066643Y0279527D01*
X0066661Y0279374D01*
X0066675Y0279222D01*
X0066685Y0279069D01*
X0066691Y0278915D01*
X0066693Y0278762D01*
X0066691Y0278609D01*
X0066685Y0278455D01*
X0066675Y0278302D01*
X0066661Y0278150D01*
X0066643Y0277997D01*
X0066621Y0277846D01*
X0066596Y0277695D01*
X0066566Y0277544D01*
X0066532Y0277394D01*
X0066495Y0277246D01*
X0066454Y0277098D01*
X0066409Y0276952D01*
X0066360Y0276806D01*
X0066307Y0276662D01*
X0066251Y0276520D01*
X0066191Y0276379D01*
X0066127Y0276239D01*
X0066060Y0276101D01*
X0065989Y0275965D01*
X0065914Y0275831D01*
X0065837Y0275699D01*
X0065755Y0275569D01*
X0065671Y0275441D01*
X0065583Y0275315D01*
X0065492Y0275192D01*
X0065398Y0275071D01*
X0065300Y0274953D01*
X0065200Y0274837D01*
X0065096Y0274724D01*
X0064990Y0274613D01*
X0064881Y0274505D01*
X0064769Y0274400D01*
X0064655Y0274299D01*
X0064537Y0274200D01*
X0064418Y0274104D01*
X0064296Y0274011D01*
X0064171Y0273922D01*
X0064044Y0273835D01*
X0063915Y0273753D01*
X0063784Y0273673D01*
X0063651Y0273597D01*
X0063516Y0273524D01*
X0063379Y0273455D01*
X0063240Y0273390D01*
X0063100Y0273328D01*
X0062958Y0273270D01*
X0062815Y0273215D01*
X0062670Y0273164D01*
X0062524Y0273117D01*
X0062377Y0273074D01*
X0062229Y0273035D01*
X0062080Y0272999D01*
X0061930Y0272968D01*
X0061779Y0272940D01*
X0061628Y0272916D01*
X0061475Y0272896D01*
X0061323Y0272880D01*
X0061170Y0272868D01*
X0061017Y0272860D01*
X0060864Y0272856D01*
X0060710Y0272856D01*
X0060557Y0272860D01*
X0060404Y0272868D01*
X0060251Y0272880D01*
X0060099Y0272896D01*
X0059946Y0272916D01*
X0059795Y0272940D01*
X0059644Y0272968D01*
X0059494Y0272999D01*
X0059345Y0273035D01*
X0059197Y0273074D01*
X0059050Y0273117D01*
X0058904Y0273164D01*
X0058759Y0273215D01*
X0058616Y0273270D01*
X0058474Y0273328D01*
X0058334Y0273390D01*
X0058195Y0273455D01*
X0058058Y0273524D01*
X0057923Y0273597D01*
X0057790Y0273673D01*
X0057659Y0273753D01*
X0057530Y0273835D01*
X0057403Y0273922D01*
X0057278Y0274011D01*
X0057156Y0274104D01*
X0057037Y0274200D01*
X0056919Y0274299D01*
X0056805Y0274400D01*
X0056693Y0274505D01*
X0056584Y0274613D01*
X0056478Y0274724D01*
X0056374Y0274837D01*
X0056274Y0274953D01*
X0056176Y0275071D01*
X0056082Y0275192D01*
X0055991Y0275315D01*
X0055903Y0275441D01*
X0055819Y0275569D01*
X0055737Y0275699D01*
X0055660Y0275831D01*
X0055585Y0275965D01*
X0055514Y0276101D01*
X0055447Y0276239D01*
X0055383Y0276379D01*
X0055323Y0276520D01*
X0055267Y0276662D01*
X0055214Y0276806D01*
X0055165Y0276952D01*
X0055120Y0277098D01*
X0055079Y0277246D01*
X0055042Y0277394D01*
X0055008Y0277544D01*
X0054978Y0277695D01*
X0054953Y0277846D01*
X0054931Y0277997D01*
X0054913Y0278150D01*
X0054899Y0278302D01*
X0054889Y0278455D01*
X0054883Y0278609D01*
X0054881Y0278762D01*
D11*
X0087500Y0303802D02*
X0132500Y0303802D01*
X0088543Y0123959D02*
X0083031Y0123959D01*
X0083031Y0118841D01*
X0088543Y0118841D01*
X0083031Y0118841D02*
X0081457Y0118841D01*
X0081457Y0123959D02*
X0083031Y0123959D01*
X0089055Y0102109D02*
X0070945Y0102109D01*
X0070945Y0100337D01*
X0076063Y0100337D02*
X0076063Y0092463D01*
X0077500Y0086400D02*
X0082500Y0086400D01*
X0085000Y0083900D01*
X0087500Y0086400D01*
X0092500Y0086400D01*
X0095000Y0083900D01*
X0095000Y0078900D01*
X0092500Y0076400D01*
X0087500Y0076400D01*
X0085000Y0078900D01*
X0082500Y0076400D01*
X0077500Y0076400D01*
X0075000Y0078900D01*
X0075000Y0083900D01*
X0077500Y0086400D01*
X0070945Y0090691D02*
X0070945Y0092463D01*
X0070945Y0090691D02*
X0089055Y0090691D01*
X0089055Y0092463D01*
X0089055Y0100337D02*
X0089055Y0102109D01*
X0137707Y0113841D02*
X0143219Y0113841D01*
X0143219Y0118959D01*
X0137707Y0118959D01*
X0143219Y0118959D02*
X0144793Y0118959D01*
X0144793Y0113841D02*
X0143219Y0113841D01*
D12*
X0128885Y0106103D02*
X0126617Y0106103D01*
X0126617Y0104401D01*
X0127751Y0104969D01*
X0128318Y0104969D01*
X0128885Y0104401D01*
X0128885Y0103267D01*
X0128318Y0102700D01*
X0127184Y0102700D01*
X0126617Y0103267D01*
X0125202Y0102700D02*
X0124068Y0103834D01*
X0124635Y0103834D02*
X0122934Y0103834D01*
X0122934Y0102700D02*
X0122934Y0106103D01*
X0124635Y0106103D01*
X0125202Y0105536D01*
X0125202Y0104401D01*
X0124635Y0103834D01*
X0119717Y0100499D02*
X0115446Y0100499D01*
X0117581Y0100499D02*
X0117581Y0106905D01*
X0115446Y0104770D01*
X0113271Y0105837D02*
X0113271Y0101567D01*
X0112204Y0100499D01*
X0110068Y0100499D01*
X0109001Y0101567D01*
X0109001Y0105837D01*
X0110068Y0106905D01*
X0112204Y0106905D01*
X0113271Y0105837D01*
X0111136Y0102634D02*
X0113271Y0100499D01*
X0122934Y0096103D02*
X0124635Y0096103D01*
X0125202Y0095536D01*
X0125202Y0094401D01*
X0124635Y0093834D01*
X0122934Y0093834D01*
X0122934Y0092700D02*
X0122934Y0096103D01*
X0124068Y0093834D02*
X0125202Y0092700D01*
X0126617Y0092700D02*
X0128885Y0092700D01*
X0127751Y0092700D02*
X0127751Y0096103D01*
X0126617Y0094969D01*
X0115625Y0113900D02*
X0114375Y0113900D01*
X0109375Y0115775D02*
X0109375Y0118900D01*
X0111875Y0118900D01*
X0118125Y0118900D02*
X0120625Y0118900D01*
X0120625Y0115775D01*
X0102502Y0114536D02*
X0101935Y0115103D01*
X0100800Y0115103D01*
X0100233Y0114536D01*
X0098819Y0114536D02*
X0098251Y0115103D01*
X0096550Y0115103D01*
X0096550Y0111700D01*
X0096550Y0112834D02*
X0098251Y0112834D01*
X0098819Y0113401D01*
X0098819Y0114536D01*
X0097684Y0112834D02*
X0098819Y0111700D01*
X0100233Y0111700D02*
X0102502Y0113969D01*
X0102502Y0114536D01*
X0102502Y0111700D02*
X0100233Y0111700D01*
X0072635Y0128267D02*
X0072068Y0127700D01*
X0070934Y0127700D01*
X0070367Y0128267D01*
X0068952Y0127700D02*
X0067818Y0128834D01*
X0068385Y0128834D02*
X0066684Y0128834D01*
X0066684Y0127700D02*
X0066684Y0131103D01*
X0068385Y0131103D01*
X0068952Y0130536D01*
X0068952Y0129401D01*
X0068385Y0128834D01*
X0070367Y0130536D02*
X0070934Y0131103D01*
X0072068Y0131103D01*
X0072635Y0130536D01*
X0072635Y0129969D01*
X0072068Y0129401D01*
X0072635Y0128834D01*
X0072635Y0128267D01*
X0072068Y0129401D02*
X0071501Y0129401D01*
X0071617Y0132700D02*
X0071617Y0133267D01*
X0073885Y0135536D01*
X0073885Y0136103D01*
X0071617Y0136103D01*
X0070202Y0135536D02*
X0069635Y0136103D01*
X0068501Y0136103D01*
X0067934Y0135536D01*
X0067934Y0133267D01*
X0068501Y0132700D01*
X0069635Y0132700D01*
X0070202Y0133267D01*
X0060950Y0127085D02*
X0060950Y0125950D01*
X0060383Y0125383D01*
X0059249Y0125383D01*
X0059249Y0127085D01*
X0059816Y0127652D01*
X0060383Y0127652D01*
X0060950Y0127085D01*
X0059249Y0125383D02*
X0058114Y0126517D01*
X0057547Y0127652D01*
X0058114Y0123969D02*
X0057547Y0123401D01*
X0057547Y0122267D01*
X0058114Y0121700D01*
X0060383Y0121700D01*
X0060950Y0122267D01*
X0060950Y0123401D01*
X0060383Y0123969D01*
X0096550Y0151700D02*
X0096550Y0155103D01*
X0098251Y0155103D01*
X0098819Y0154536D01*
X0098819Y0153401D01*
X0098251Y0152834D01*
X0096550Y0152834D01*
X0097684Y0152834D02*
X0098819Y0151700D01*
X0100233Y0153401D02*
X0102502Y0153401D01*
X0101935Y0151700D02*
X0101935Y0155103D01*
X0100233Y0153401D01*
X0120867Y0181700D02*
X0122001Y0181700D01*
X0122569Y0182267D01*
X0123983Y0181700D02*
X0126252Y0181700D01*
X0125117Y0181700D02*
X0125117Y0185103D01*
X0123983Y0183969D01*
X0122569Y0184536D02*
X0122001Y0185103D01*
X0120867Y0185103D01*
X0120300Y0184536D01*
X0120300Y0182267D01*
X0120867Y0181700D01*
X0097635Y0183267D02*
X0097635Y0183834D01*
X0097068Y0184401D01*
X0095367Y0184401D01*
X0095367Y0183267D01*
X0095934Y0182700D01*
X0097068Y0182700D01*
X0097635Y0183267D01*
X0095367Y0184401D02*
X0096501Y0185536D01*
X0097635Y0186103D01*
X0093952Y0185536D02*
X0093952Y0184401D01*
X0093385Y0183834D01*
X0091684Y0183834D01*
X0091684Y0182700D02*
X0091684Y0186103D01*
X0093385Y0186103D01*
X0093952Y0185536D01*
X0092818Y0183834D02*
X0093952Y0182700D01*
D13*
X0066250Y0111400D03*
D14*
X0085000Y0141400D03*
X0110000Y0176400D03*
D15*
X0083524Y0126951D02*
X0083524Y0125450D01*
X0084024Y0125450D02*
X0083023Y0125450D01*
X0082551Y0125700D02*
X0082551Y0126701D01*
X0082301Y0126951D01*
X0081550Y0126951D01*
X0081550Y0125450D01*
X0082301Y0125450D01*
X0082551Y0125700D01*
X0083023Y0126451D02*
X0083524Y0126951D01*
X0111550Y0125701D02*
X0111800Y0125951D01*
X0112301Y0125951D01*
X0112551Y0125701D01*
X0112551Y0124700D01*
X0112301Y0124450D01*
X0111800Y0124450D01*
X0111550Y0124700D01*
X0111550Y0125701D01*
X0112050Y0124950D02*
X0112551Y0124450D01*
X0113023Y0124450D02*
X0114024Y0125451D01*
X0114024Y0125701D01*
X0113774Y0125951D01*
X0113273Y0125951D01*
X0113023Y0125701D01*
X0113023Y0124450D02*
X0114024Y0124450D01*
X0141853Y0112351D02*
X0141853Y0110850D01*
X0142604Y0110850D01*
X0142854Y0111100D01*
X0142854Y0112101D01*
X0142604Y0112351D01*
X0141853Y0112351D01*
X0143327Y0111601D02*
X0144328Y0111601D01*
X0144077Y0112351D02*
X0143327Y0111601D01*
X0144077Y0112351D02*
X0144077Y0110850D01*
X0088578Y0089851D02*
X0087577Y0089851D01*
X0087577Y0089101D01*
X0088077Y0089351D01*
X0088327Y0089351D01*
X0088578Y0089101D01*
X0088578Y0088600D01*
X0088327Y0088350D01*
X0087827Y0088350D01*
X0087577Y0088600D01*
X0087104Y0088600D02*
X0087104Y0089601D01*
X0086854Y0089851D01*
X0086103Y0089851D01*
X0086103Y0088350D01*
X0086854Y0088350D01*
X0087104Y0088600D01*
D16*
X0086378Y0085849D02*
X0086378Y0070101D01*
X0070630Y0070101D01*
X0070630Y0085849D01*
X0086378Y0085849D01*
X0086342Y0073954D02*
X0088594Y0073954D01*
X0089345Y0073203D01*
X0089345Y0071702D01*
X0088594Y0070951D01*
X0086342Y0070951D01*
X0086342Y0069450D02*
X0086342Y0073954D01*
X0084741Y0073954D02*
X0083239Y0073954D01*
X0083990Y0073954D02*
X0083990Y0070201D01*
X0083239Y0069450D01*
X0082489Y0069450D01*
X0081738Y0070201D01*
X0090946Y0070201D02*
X0091697Y0069450D01*
X0093198Y0069450D01*
X0093949Y0070201D01*
X0093949Y0071702D01*
X0093198Y0072453D01*
X0092447Y0072453D01*
X0090946Y0071702D01*
X0090946Y0073954D01*
X0093949Y0073954D01*
X0092283Y0062227D02*
X0092283Y0056400D01*
X0127717Y0056400D01*
X0127717Y0062227D01*
X0092283Y0062227D01*
X0050945Y0062227D01*
X0050821Y0062229D01*
X0050698Y0062235D01*
X0050574Y0062244D01*
X0050452Y0062258D01*
X0050329Y0062275D01*
X0050207Y0062297D01*
X0050086Y0062322D01*
X0049966Y0062351D01*
X0049847Y0062383D01*
X0049728Y0062420D01*
X0049611Y0062460D01*
X0049496Y0062503D01*
X0049381Y0062551D01*
X0049269Y0062602D01*
X0049158Y0062656D01*
X0049048Y0062714D01*
X0048941Y0062775D01*
X0048835Y0062840D01*
X0048732Y0062908D01*
X0048631Y0062979D01*
X0048532Y0063053D01*
X0048435Y0063130D01*
X0048341Y0063211D01*
X0048250Y0063294D01*
X0048161Y0063380D01*
X0048075Y0063469D01*
X0047992Y0063560D01*
X0047911Y0063654D01*
X0047834Y0063751D01*
X0047760Y0063850D01*
X0047689Y0063951D01*
X0047621Y0064054D01*
X0047556Y0064160D01*
X0047495Y0064267D01*
X0047437Y0064377D01*
X0047383Y0064488D01*
X0047332Y0064600D01*
X0047284Y0064715D01*
X0047241Y0064830D01*
X0047201Y0064947D01*
X0047164Y0065066D01*
X0047132Y0065185D01*
X0047103Y0065305D01*
X0047078Y0065426D01*
X0047056Y0065548D01*
X0047039Y0065671D01*
X0047025Y0065793D01*
X0047016Y0065917D01*
X0047010Y0066040D01*
X0047008Y0066164D01*
X0047008Y0286636D01*
X0047010Y0286760D01*
X0047016Y0286883D01*
X0047025Y0287007D01*
X0047039Y0287129D01*
X0047056Y0287252D01*
X0047078Y0287374D01*
X0047103Y0287495D01*
X0047132Y0287615D01*
X0047164Y0287734D01*
X0047201Y0287853D01*
X0047241Y0287970D01*
X0047284Y0288085D01*
X0047332Y0288200D01*
X0047383Y0288312D01*
X0047437Y0288423D01*
X0047495Y0288533D01*
X0047556Y0288640D01*
X0047621Y0288746D01*
X0047689Y0288849D01*
X0047760Y0288950D01*
X0047834Y0289049D01*
X0047911Y0289146D01*
X0047992Y0289240D01*
X0048075Y0289331D01*
X0048161Y0289420D01*
X0048250Y0289506D01*
X0048341Y0289589D01*
X0048435Y0289670D01*
X0048532Y0289747D01*
X0048631Y0289821D01*
X0048732Y0289892D01*
X0048835Y0289960D01*
X0048941Y0290025D01*
X0049048Y0290086D01*
X0049158Y0290144D01*
X0049269Y0290198D01*
X0049381Y0290249D01*
X0049496Y0290297D01*
X0049611Y0290340D01*
X0049728Y0290380D01*
X0049847Y0290417D01*
X0049966Y0290449D01*
X0050086Y0290478D01*
X0050207Y0290503D01*
X0050329Y0290525D01*
X0050452Y0290542D01*
X0050574Y0290556D01*
X0050698Y0290565D01*
X0050821Y0290571D01*
X0050945Y0290573D01*
X0169055Y0290573D01*
X0169179Y0290571D01*
X0169302Y0290565D01*
X0169426Y0290556D01*
X0169548Y0290542D01*
X0169671Y0290525D01*
X0169793Y0290503D01*
X0169914Y0290478D01*
X0170034Y0290449D01*
X0170153Y0290417D01*
X0170272Y0290380D01*
X0170389Y0290340D01*
X0170504Y0290297D01*
X0170619Y0290249D01*
X0170731Y0290198D01*
X0170842Y0290144D01*
X0170952Y0290086D01*
X0171059Y0290025D01*
X0171165Y0289960D01*
X0171268Y0289892D01*
X0171369Y0289821D01*
X0171468Y0289747D01*
X0171565Y0289670D01*
X0171659Y0289589D01*
X0171750Y0289506D01*
X0171839Y0289420D01*
X0171925Y0289331D01*
X0172008Y0289240D01*
X0172089Y0289146D01*
X0172166Y0289049D01*
X0172240Y0288950D01*
X0172311Y0288849D01*
X0172379Y0288746D01*
X0172444Y0288640D01*
X0172505Y0288533D01*
X0172563Y0288423D01*
X0172617Y0288312D01*
X0172668Y0288200D01*
X0172716Y0288085D01*
X0172759Y0287970D01*
X0172799Y0287853D01*
X0172836Y0287734D01*
X0172868Y0287615D01*
X0172897Y0287495D01*
X0172922Y0287374D01*
X0172944Y0287252D01*
X0172961Y0287129D01*
X0172975Y0287007D01*
X0172984Y0286883D01*
X0172990Y0286760D01*
X0172992Y0286636D01*
X0172992Y0066164D01*
X0172990Y0066040D01*
X0172984Y0065917D01*
X0172975Y0065793D01*
X0172961Y0065671D01*
X0172944Y0065548D01*
X0172922Y0065426D01*
X0172897Y0065305D01*
X0172868Y0065185D01*
X0172836Y0065066D01*
X0172799Y0064947D01*
X0172759Y0064830D01*
X0172716Y0064715D01*
X0172668Y0064600D01*
X0172617Y0064488D01*
X0172563Y0064377D01*
X0172505Y0064267D01*
X0172444Y0064160D01*
X0172379Y0064054D01*
X0172311Y0063951D01*
X0172240Y0063850D01*
X0172166Y0063751D01*
X0172089Y0063654D01*
X0172008Y0063560D01*
X0171925Y0063469D01*
X0171839Y0063380D01*
X0171750Y0063294D01*
X0171659Y0063211D01*
X0171565Y0063130D01*
X0171468Y0063053D01*
X0171369Y0062979D01*
X0171268Y0062908D01*
X0171165Y0062840D01*
X0171059Y0062775D01*
X0170952Y0062714D01*
X0170842Y0062656D01*
X0170731Y0062602D01*
X0170619Y0062551D01*
X0170504Y0062503D01*
X0170389Y0062460D01*
X0170272Y0062420D01*
X0170153Y0062383D01*
X0170034Y0062351D01*
X0169914Y0062322D01*
X0169793Y0062297D01*
X0169671Y0062275D01*
X0169548Y0062258D01*
X0169426Y0062244D01*
X0169302Y0062235D01*
X0169179Y0062229D01*
X0169055Y0062227D01*
X0127717Y0062227D01*
X0133622Y0070101D02*
X0133622Y0085849D01*
X0149370Y0085849D01*
X0149370Y0070101D01*
X0133622Y0070101D01*
X0125000Y0201400D02*
X0125000Y0206400D01*
X0115000Y0206400D02*
X0115000Y0201400D01*
X0105000Y0201400D02*
X0105000Y0206400D01*
X0095000Y0206400D02*
X0095000Y0201400D01*
X0080276Y0206243D02*
X0080276Y0284983D01*
X0089331Y0303093D01*
X0130669Y0303093D01*
X0139724Y0284983D01*
X0080276Y0284983D01*
X0085000Y0281400D02*
X0085000Y0261400D01*
X0095000Y0261400D01*
X0095000Y0281400D01*
X0105000Y0281400D01*
X0105000Y0261400D01*
X0115000Y0261400D01*
X0115000Y0281400D01*
X0125000Y0281400D01*
X0125000Y0261400D01*
X0135000Y0261400D01*
X0135000Y0281400D01*
X0139724Y0284983D02*
X0139724Y0206243D01*
X0080276Y0206243D01*
D17*
X0085196Y0216600D02*
X0089033Y0216600D01*
X0089800Y0217367D01*
X0089800Y0218902D01*
X0089033Y0219669D01*
X0085196Y0219669D01*
X0086731Y0221204D02*
X0085196Y0222739D01*
X0089800Y0222739D01*
X0089800Y0224273D02*
X0089800Y0221204D01*
X0109291Y0096459D02*
X0109291Y0091341D01*
X0113622Y0091341D02*
X0116378Y0091341D01*
X0120709Y0091341D02*
X0120709Y0096459D01*
X0117362Y0096459D01*
X0112638Y0096459D02*
X0109291Y0096459D01*
X0066406Y0087291D02*
X0066406Y0084889D01*
X0066406Y0086090D02*
X0062803Y0086090D01*
X0064004Y0084889D01*
X0062803Y0083608D02*
X0062803Y0082407D01*
X0062803Y0083007D02*
X0065805Y0083007D01*
X0066406Y0082407D01*
X0066406Y0081806D01*
X0065805Y0081206D01*
D18*
X0047500Y0081400D02*
X0047500Y0083900D01*
X0045000Y0083900D01*
X0045000Y0088900D01*
X0047500Y0088900D01*
X0047500Y0093900D01*
X0045000Y0093900D01*
X0045000Y0098900D01*
X0047500Y0098900D01*
X0047500Y0101400D01*
X0035000Y0101400D01*
X0035000Y0097900D01*
X0010500Y0097900D01*
X0009100Y0096600D01*
X0003500Y0096400D02*
X0001500Y0095400D01*
X0001500Y0091600D01*
X0001500Y0091200D01*
X0001500Y0091600D02*
X0001500Y0087400D01*
X0003500Y0086400D01*
X0035000Y0086400D01*
X0035000Y0081400D01*
X0047500Y0081400D01*
X0035000Y0084900D02*
X0010500Y0084900D01*
X0009100Y0086200D01*
X0003500Y0096400D02*
X0035000Y0096400D01*
X0035000Y0097900D02*
X0035000Y0086400D01*
D19*
X0037352Y0086525D02*
X0038787Y0087960D01*
X0038787Y0083656D01*
X0040221Y0083656D02*
X0037352Y0083656D01*
X0037852Y0093456D02*
X0040721Y0096325D01*
X0040721Y0097042D01*
X0040004Y0097760D01*
X0038569Y0097760D01*
X0037852Y0097042D01*
X0037852Y0093456D02*
X0040721Y0093456D01*
M02*
