G75*
%MOIN*%
%OFA0B0*%
%FSLAX25Y25*%
%IPPOS*%
%LPD*%
%AMOC8*
5,1,8,0,0,1.08239X$1,22.5*
%
%ADD10C,0.16548*%
%ADD11R,0.05721X0.04737*%
%ADD12R,0.04737X0.05721*%
%ADD13R,0.03280X0.04068*%
%ADD14R,0.05800X0.06587*%
%ADD15C,0.08200*%
%ADD16R,0.03950X0.04343*%
%ADD17R,0.04737X0.06312*%
%ADD18R,0.05131X0.06312*%
%ADD19C,0.05950*%
%ADD20C,0.12611*%
%ADD21OC8,0.05950*%
%ADD22C,0.13595*%
%ADD23C,0.06800*%
%ADD24R,0.04762X0.04762*%
%ADD25C,0.07099*%
%ADD26C,0.15824*%
D10*
X0110000Y0142345D03*
D11*
X0066250Y0105888D03*
X0066250Y0098014D03*
D12*
X0081063Y0131951D03*
X0088937Y0131951D03*
X0106063Y0157109D03*
X0113937Y0157109D03*
D13*
X0089528Y0111951D03*
X0080472Y0111951D03*
X0143415Y0108526D03*
X0152470Y0108526D03*
D14*
X0095945Y0087739D03*
X0079016Y0087739D03*
D15*
X0080000Y0071951D03*
X0090000Y0071951D03*
D16*
X0111260Y0080514D03*
X0118740Y0080514D03*
X0115000Y0088388D03*
D17*
X0111260Y0102620D03*
X0118740Y0102620D03*
X0115000Y0111282D03*
D18*
X0088445Y0101951D03*
X0081555Y0101951D03*
X0081555Y0121951D03*
X0088445Y0121951D03*
X0088445Y0141951D03*
X0081555Y0141951D03*
X0106555Y0166321D03*
X0113445Y0166321D03*
X0144498Y0098526D03*
X0151388Y0098526D03*
X0151388Y0088526D03*
X0144498Y0088526D03*
D19*
X0165000Y0096951D03*
X0165000Y0106951D03*
X0165000Y0116951D03*
X0165000Y0126951D03*
X0165000Y0136951D03*
X0165000Y0146951D03*
X0165000Y0156951D03*
X0165000Y0166951D03*
X0165000Y0176951D03*
X0165000Y0186951D03*
X0165000Y0196951D03*
X0165000Y0206951D03*
X0165000Y0216951D03*
X0165000Y0226951D03*
X0165000Y0236951D03*
X0125000Y0175534D03*
X0115000Y0175534D03*
X0105000Y0175534D03*
X0055000Y0176951D03*
X0055000Y0166951D03*
X0055000Y0156951D03*
X0055000Y0146951D03*
X0055000Y0136951D03*
X0055000Y0126951D03*
X0055000Y0116951D03*
X0055000Y0106951D03*
X0055000Y0096951D03*
X0055000Y0186951D03*
X0055000Y0196951D03*
X0055000Y0206951D03*
X0055000Y0216951D03*
X0055000Y0226951D03*
X0055000Y0236951D03*
D20*
X0060787Y0269313D03*
X0159213Y0269313D03*
X0159213Y0064589D03*
X0060787Y0064589D03*
D21*
X0095000Y0175534D03*
D22*
X0110000Y0271991D03*
D23*
X0058000Y0086951D02*
X0052000Y0086951D01*
X0052000Y0076951D02*
X0058000Y0076951D01*
D24*
X0070453Y0121872D03*
X0131083Y0098250D03*
X0138169Y0135258D03*
D25*
X0118750Y0095701D03*
D26*
X0060667Y0064608D03*
X0109903Y0142325D03*
X0158876Y0064608D03*
X0158876Y0269308D03*
X0109903Y0271853D03*
X0060667Y0269308D03*
M02*
