G75*
%MOIN*%
%OFA0B0*%
%FSLAX25Y25*%
%IPPOS*%
%LPD*%
%AMOC8*
5,1,8,0,0,1.08239X$1,22.5*
%
%ADD10C,0.02700*%
%ADD11C,0.07400*%
%ADD12R,0.03937X0.05512*%
%ADD13C,0.05150*%
%ADD14OC8,0.05150*%
%ADD15C,0.06000*%
%ADD16C,0.03200*%
%ADD17R,0.03962X0.03962*%
%ADD18C,0.00800*%
%ADD19C,0.06299*%
%ADD20C,0.15024*%
D10*
X0111280Y0211818D02*
X0111280Y0224128D01*
X0110296Y0231451D02*
X0106193Y0231451D01*
X0104141Y0233503D01*
X0104141Y0243762D01*
X0098536Y0243762D02*
X0098536Y0235555D01*
X0094433Y0231451D01*
X0090329Y0235555D01*
X0090329Y0243762D01*
X0084725Y0243762D02*
X0080621Y0243762D01*
X0082673Y0243762D02*
X0082673Y0231451D01*
X0084725Y0231451D02*
X0080621Y0231451D01*
X0110296Y0231451D02*
X0112348Y0233503D01*
X0112348Y0243762D01*
X0126160Y0243762D02*
X0126160Y0231451D01*
X0117953Y0231451D01*
X0119487Y0224128D02*
X0111280Y0211818D01*
X0119487Y0211818D02*
X0119487Y0224128D01*
X0125091Y0222077D02*
X0127143Y0224128D01*
X0131247Y0224128D01*
X0133298Y0222077D01*
X0133298Y0213870D01*
X0131247Y0211818D01*
X0127143Y0211818D01*
X0125091Y0213870D01*
X0125091Y0222077D01*
X0138153Y0213870D02*
X0138153Y0211818D01*
X0140204Y0211818D01*
X0140204Y0213870D01*
X0138153Y0213870D01*
X0139972Y0231451D02*
X0139972Y0243762D01*
X0133816Y0243762D01*
X0131765Y0241710D01*
X0131765Y0237607D01*
X0133816Y0235555D01*
X0139972Y0235555D01*
D11*
X0090000Y0071951D03*
X0080000Y0071951D03*
D12*
X0106575Y0076597D03*
X0114055Y0076597D03*
X0110315Y0067935D03*
D13*
X0165000Y0096951D03*
X0165000Y0106951D03*
X0165000Y0116951D03*
X0165000Y0126951D03*
X0165000Y0136951D03*
X0165000Y0146951D03*
X0165000Y0156951D03*
X0165000Y0166951D03*
X0165000Y0176951D03*
X0165000Y0186951D03*
X0165000Y0196951D03*
X0165000Y0206951D03*
X0165000Y0216951D03*
X0165000Y0226951D03*
X0165000Y0236951D03*
X0125000Y0175534D03*
X0115000Y0175534D03*
X0105000Y0175534D03*
X0055000Y0176951D03*
X0055000Y0166951D03*
X0055000Y0156951D03*
X0055000Y0146951D03*
X0055000Y0136951D03*
X0055000Y0126951D03*
X0055000Y0116951D03*
X0055000Y0106951D03*
X0055000Y0096951D03*
X0055000Y0186951D03*
X0055000Y0196951D03*
X0055000Y0206951D03*
X0055000Y0216951D03*
X0055000Y0226951D03*
X0055000Y0236951D03*
D14*
X0095000Y0175534D03*
D15*
X0058000Y0086951D02*
X0052000Y0086951D01*
X0052000Y0076951D02*
X0058000Y0076951D01*
D16*
X0077500Y0074451D02*
X0077500Y0081951D01*
X0062500Y0096951D01*
X0055000Y0096951D01*
X0070453Y0121872D02*
X0064547Y0127778D01*
X0064547Y0158093D01*
X0070059Y0163605D01*
X0133839Y0163605D01*
X0140492Y0156951D01*
X0165000Y0156951D01*
X0165000Y0146951D02*
X0156555Y0146951D01*
X0151949Y0142345D01*
X0151949Y0128565D01*
X0142894Y0119510D01*
X0132657Y0119510D01*
X0131083Y0117935D01*
X0131083Y0098250D01*
X0131083Y0093624D01*
X0114055Y0076597D01*
X0106575Y0076597D02*
X0094646Y0076597D01*
X0090000Y0071951D01*
X0080000Y0071951D02*
X0077500Y0074451D01*
X0118750Y0095701D02*
X0118750Y0124894D01*
X0121634Y0127778D01*
X0130689Y0127778D01*
X0138169Y0135258D01*
X0151949Y0166951D02*
X0151949Y0177384D01*
X0144075Y0185258D01*
X0107854Y0185258D01*
X0105000Y0182404D01*
X0105000Y0175534D01*
X0095000Y0175534D02*
X0094862Y0175672D01*
X0094862Y0185258D01*
X0104311Y0194707D01*
X0147224Y0194707D01*
X0154980Y0186951D01*
X0165000Y0186951D01*
X0165000Y0166951D02*
X0151949Y0166951D01*
D17*
X0138169Y0135258D03*
X0131083Y0098250D03*
X0070453Y0121872D03*
D18*
X0045300Y0054200D02*
X0045300Y0280647D01*
X0104512Y0280647D01*
X0103572Y0280105D01*
X0101652Y0278185D01*
X0100294Y0275833D01*
X0099592Y0273211D01*
X0099592Y0270495D01*
X0100294Y0267873D01*
X0101652Y0265521D01*
X0103572Y0263602D01*
X0105923Y0262244D01*
X0108546Y0261541D01*
X0111261Y0261541D01*
X0113884Y0262244D01*
X0116235Y0263602D01*
X0118155Y0265521D01*
X0119512Y0267873D01*
X0120215Y0270495D01*
X0120215Y0273211D01*
X0119512Y0275833D01*
X0118155Y0278185D01*
X0116235Y0280105D01*
X0115295Y0280647D01*
X0174621Y0280647D01*
X0174621Y0054200D01*
X0045300Y0054200D01*
X0045300Y0054594D02*
X0058197Y0054594D01*
X0059310Y0054296D02*
X0062025Y0054296D01*
X0064648Y0054999D01*
X0066999Y0056356D01*
X0068919Y0058276D01*
X0070276Y0060628D01*
X0070979Y0063250D01*
X0070979Y0065965D01*
X0070276Y0068588D01*
X0068919Y0070939D01*
X0066999Y0072859D01*
X0064648Y0074217D01*
X0062025Y0074920D01*
X0059310Y0074920D01*
X0056687Y0074217D01*
X0054336Y0072859D01*
X0052416Y0070939D01*
X0051058Y0068588D01*
X0050355Y0065965D01*
X0050355Y0063250D01*
X0051058Y0060628D01*
X0052416Y0058276D01*
X0054336Y0056356D01*
X0056687Y0054999D01*
X0059310Y0054296D01*
X0056005Y0055393D02*
X0045300Y0055393D01*
X0045300Y0056191D02*
X0054622Y0056191D01*
X0053702Y0056990D02*
X0045300Y0056990D01*
X0045300Y0057788D02*
X0052904Y0057788D01*
X0052237Y0058587D02*
X0045300Y0058587D01*
X0045300Y0059385D02*
X0051776Y0059385D01*
X0051315Y0060184D02*
X0045300Y0060184D01*
X0045300Y0060982D02*
X0050963Y0060982D01*
X0050749Y0061781D02*
X0045300Y0061781D01*
X0045300Y0062579D02*
X0050535Y0062579D01*
X0050355Y0063378D02*
X0045300Y0063378D01*
X0045300Y0064176D02*
X0050355Y0064176D01*
X0050355Y0064975D02*
X0045300Y0064975D01*
X0045300Y0065773D02*
X0050355Y0065773D01*
X0050518Y0066572D02*
X0045300Y0066572D01*
X0045300Y0067370D02*
X0050732Y0067370D01*
X0050946Y0068169D02*
X0045300Y0068169D01*
X0045300Y0068967D02*
X0051277Y0068967D01*
X0051738Y0069766D02*
X0045300Y0069766D01*
X0045300Y0070564D02*
X0052199Y0070564D01*
X0052839Y0071363D02*
X0045300Y0071363D01*
X0045300Y0072161D02*
X0053638Y0072161D01*
X0054510Y0072960D02*
X0045300Y0072960D01*
X0045300Y0073758D02*
X0055893Y0073758D01*
X0057956Y0074557D02*
X0045300Y0074557D01*
X0045300Y0075355D02*
X0073100Y0075355D01*
X0073100Y0074557D02*
X0063379Y0074557D01*
X0065442Y0073758D02*
X0073100Y0073758D01*
X0073100Y0073576D02*
X0073500Y0072610D01*
X0073500Y0070658D01*
X0074490Y0068269D01*
X0076318Y0066441D01*
X0078707Y0065451D01*
X0081293Y0065451D01*
X0083682Y0066441D01*
X0085000Y0067759D01*
X0086318Y0066441D01*
X0088707Y0065451D01*
X0091293Y0065451D01*
X0093682Y0066441D01*
X0095510Y0068269D01*
X0096500Y0070658D01*
X0096500Y0072197D01*
X0102291Y0072197D01*
X0103020Y0071467D01*
X0104049Y0071041D01*
X0109100Y0071041D01*
X0110129Y0071467D01*
X0110315Y0071653D01*
X0110501Y0071467D01*
X0111530Y0071041D01*
X0116581Y0071041D01*
X0117610Y0071467D01*
X0118397Y0072255D01*
X0118824Y0073284D01*
X0118824Y0075143D01*
X0134813Y0091132D01*
X0135483Y0092749D01*
X0135483Y0094792D01*
X0135864Y0095712D01*
X0135864Y0100788D01*
X0135483Y0101709D01*
X0135483Y0115110D01*
X0143769Y0115110D01*
X0145386Y0115780D01*
X0146624Y0117018D01*
X0155679Y0126073D01*
X0156349Y0127690D01*
X0156349Y0140522D01*
X0158378Y0142551D01*
X0161799Y0142551D01*
X0161955Y0142395D01*
X0163026Y0141951D01*
X0161955Y0141508D01*
X0160443Y0139996D01*
X0159625Y0138020D01*
X0159625Y0135882D01*
X0160443Y0133907D01*
X0161955Y0132395D01*
X0163026Y0131951D01*
X0161955Y0131508D01*
X0160443Y0129996D01*
X0159625Y0128020D01*
X0159625Y0125882D01*
X0160443Y0123907D01*
X0161955Y0122395D01*
X0163026Y0121951D01*
X0161955Y0121508D01*
X0160443Y0119996D01*
X0159625Y0118020D01*
X0159625Y0115882D01*
X0160443Y0113907D01*
X0161955Y0112395D01*
X0163931Y0111576D01*
X0166069Y0111576D01*
X0168045Y0112395D01*
X0169557Y0113907D01*
X0170375Y0115882D01*
X0170375Y0118020D01*
X0169557Y0119996D01*
X0168045Y0121508D01*
X0166974Y0121951D01*
X0168045Y0122395D01*
X0169557Y0123907D01*
X0170375Y0125882D01*
X0170375Y0128020D01*
X0169557Y0129996D01*
X0168045Y0131508D01*
X0166974Y0131951D01*
X0168045Y0132395D01*
X0169557Y0133907D01*
X0170375Y0135882D01*
X0170375Y0138020D01*
X0169557Y0139996D01*
X0168045Y0141508D01*
X0166974Y0141951D01*
X0168045Y0142395D01*
X0169557Y0143907D01*
X0170375Y0145882D01*
X0170375Y0148020D01*
X0174621Y0148020D01*
X0174621Y0148818D02*
X0170044Y0148818D01*
X0170375Y0148020D02*
X0169557Y0149996D01*
X0168045Y0151508D01*
X0166974Y0151951D01*
X0168045Y0152395D01*
X0169557Y0153907D01*
X0170375Y0155882D01*
X0170375Y0158020D01*
X0169557Y0159996D01*
X0168045Y0161508D01*
X0166974Y0161951D01*
X0168045Y0162395D01*
X0169557Y0163907D01*
X0170375Y0165882D01*
X0170375Y0168020D01*
X0169557Y0169996D01*
X0168045Y0171508D01*
X0166069Y0172326D01*
X0163931Y0172326D01*
X0161955Y0171508D01*
X0161799Y0171351D01*
X0156349Y0171351D01*
X0156349Y0178259D01*
X0155679Y0179877D01*
X0154441Y0181114D01*
X0146567Y0188988D01*
X0144950Y0189658D01*
X0106979Y0189658D01*
X0105362Y0188988D01*
X0104124Y0187751D01*
X0104124Y0187751D01*
X0101270Y0184896D01*
X0100600Y0183279D01*
X0100600Y0178735D01*
X0100443Y0178578D01*
X0100184Y0177951D01*
X0099262Y0178873D01*
X0099262Y0183436D01*
X0106134Y0190307D01*
X0145402Y0190307D01*
X0151250Y0184459D01*
X0152488Y0183221D01*
X0154105Y0182551D01*
X0161799Y0182551D01*
X0161955Y0182395D01*
X0163931Y0181576D01*
X0166069Y0181576D01*
X0168045Y0182395D01*
X0169557Y0183907D01*
X0170375Y0185882D01*
X0170375Y0188020D01*
X0169557Y0189996D01*
X0168045Y0191508D01*
X0166974Y0191951D01*
X0168045Y0192395D01*
X0169557Y0193907D01*
X0170375Y0195882D01*
X0170375Y0198020D01*
X0169557Y0199996D01*
X0168045Y0201508D01*
X0166974Y0201951D01*
X0168045Y0202395D01*
X0169557Y0203907D01*
X0170375Y0205882D01*
X0170375Y0208020D01*
X0169557Y0209996D01*
X0168045Y0211508D01*
X0166974Y0211951D01*
X0168045Y0212395D01*
X0169557Y0213907D01*
X0170375Y0215882D01*
X0170375Y0218020D01*
X0169557Y0219996D01*
X0168045Y0221508D01*
X0166974Y0221951D01*
X0168045Y0222395D01*
X0169557Y0223907D01*
X0170375Y0225882D01*
X0170375Y0228020D01*
X0169557Y0229996D01*
X0168045Y0231508D01*
X0166974Y0231951D01*
X0168045Y0232395D01*
X0169557Y0233907D01*
X0170375Y0235882D01*
X0170375Y0238020D01*
X0169557Y0239996D01*
X0168045Y0241508D01*
X0166069Y0242326D01*
X0163931Y0242326D01*
X0161955Y0241508D01*
X0160443Y0239996D01*
X0159625Y0238020D01*
X0159625Y0235882D01*
X0160443Y0233907D01*
X0161955Y0232395D01*
X0163026Y0231951D01*
X0161955Y0231508D01*
X0160443Y0229996D01*
X0159625Y0228020D01*
X0159625Y0225882D01*
X0160443Y0223907D01*
X0161955Y0222395D01*
X0163026Y0221951D01*
X0161955Y0221508D01*
X0160443Y0219996D01*
X0159625Y0218020D01*
X0159625Y0215882D01*
X0160443Y0213907D01*
X0161955Y0212395D01*
X0163026Y0211951D01*
X0161955Y0211508D01*
X0160443Y0209996D01*
X0159625Y0208020D01*
X0159625Y0205882D01*
X0160443Y0203907D01*
X0161955Y0202395D01*
X0163026Y0201951D01*
X0161955Y0201508D01*
X0160443Y0199996D01*
X0159625Y0198020D01*
X0159625Y0195882D01*
X0160443Y0193907D01*
X0161955Y0192395D01*
X0163026Y0191951D01*
X0161955Y0191508D01*
X0161799Y0191351D01*
X0156803Y0191351D01*
X0149717Y0198437D01*
X0148100Y0199107D01*
X0146349Y0199107D01*
X0105186Y0199107D01*
X0103436Y0199107D01*
X0101819Y0198437D01*
X0092370Y0188988D01*
X0091132Y0187751D01*
X0090462Y0186133D01*
X0090462Y0178597D01*
X0089625Y0177760D01*
X0089625Y0173308D01*
X0092774Y0170159D01*
X0097226Y0170159D01*
X0100184Y0173116D01*
X0100443Y0172489D01*
X0101955Y0170977D01*
X0103931Y0170159D01*
X0106069Y0170159D01*
X0108045Y0170977D01*
X0109557Y0172489D01*
X0110000Y0173560D01*
X0110443Y0172489D01*
X0111955Y0170977D01*
X0113931Y0170159D01*
X0116069Y0170159D01*
X0118045Y0170977D01*
X0119557Y0172489D01*
X0120375Y0174465D01*
X0120375Y0176603D01*
X0119557Y0178578D01*
X0118045Y0180090D01*
X0116191Y0180858D01*
X0142252Y0180858D01*
X0147549Y0175562D01*
X0147549Y0166076D01*
X0148219Y0164459D01*
X0149456Y0163221D01*
X0151074Y0162551D01*
X0161799Y0162551D01*
X0161955Y0162395D01*
X0163026Y0161951D01*
X0161955Y0161508D01*
X0161799Y0161351D01*
X0142315Y0161351D01*
X0136331Y0167335D01*
X0134714Y0168005D01*
X0069184Y0168005D01*
X0067567Y0167335D01*
X0062055Y0161823D01*
X0060817Y0160585D01*
X0060147Y0158968D01*
X0060147Y0158570D01*
X0059557Y0159996D01*
X0058045Y0161508D01*
X0056974Y0161951D01*
X0058045Y0162395D01*
X0059557Y0163907D01*
X0060375Y0165882D01*
X0060375Y0168020D01*
X0059557Y0169996D01*
X0058045Y0171508D01*
X0056974Y0171951D01*
X0058045Y0172395D01*
X0059557Y0173907D01*
X0060375Y0175882D01*
X0060375Y0178020D01*
X0059557Y0179996D01*
X0058045Y0181508D01*
X0056974Y0181951D01*
X0058045Y0182395D01*
X0059557Y0183907D01*
X0060375Y0185882D01*
X0060375Y0188020D01*
X0059557Y0189996D01*
X0058045Y0191508D01*
X0056974Y0191951D01*
X0058045Y0192395D01*
X0059557Y0193907D01*
X0060375Y0195882D01*
X0060375Y0198020D01*
X0059557Y0199996D01*
X0058045Y0201508D01*
X0056974Y0201951D01*
X0058045Y0202395D01*
X0059557Y0203907D01*
X0060375Y0205882D01*
X0060375Y0208020D01*
X0059557Y0209996D01*
X0058045Y0211508D01*
X0056974Y0211951D01*
X0058045Y0212395D01*
X0059557Y0213907D01*
X0060375Y0215882D01*
X0060375Y0218020D01*
X0059557Y0219996D01*
X0058045Y0221508D01*
X0056974Y0221951D01*
X0058045Y0222395D01*
X0059557Y0223907D01*
X0060375Y0225882D01*
X0060375Y0228020D01*
X0059557Y0229996D01*
X0058045Y0231508D01*
X0056974Y0231951D01*
X0058045Y0232395D01*
X0059557Y0233907D01*
X0060375Y0235882D01*
X0060375Y0238020D01*
X0059557Y0239996D01*
X0058045Y0241508D01*
X0056069Y0242326D01*
X0053931Y0242326D01*
X0051955Y0241508D01*
X0050443Y0239996D01*
X0049625Y0238020D01*
X0049625Y0235882D01*
X0050443Y0233907D01*
X0051955Y0232395D01*
X0053026Y0231951D01*
X0051955Y0231508D01*
X0050443Y0229996D01*
X0049625Y0228020D01*
X0049625Y0225882D01*
X0050443Y0223907D01*
X0051955Y0222395D01*
X0053026Y0221951D01*
X0051955Y0221508D01*
X0050443Y0219996D01*
X0049625Y0218020D01*
X0049625Y0215882D01*
X0050443Y0213907D01*
X0051955Y0212395D01*
X0053026Y0211951D01*
X0051955Y0211508D01*
X0050443Y0209996D01*
X0049625Y0208020D01*
X0049625Y0205882D01*
X0050443Y0203907D01*
X0051955Y0202395D01*
X0053026Y0201951D01*
X0051955Y0201508D01*
X0050443Y0199996D01*
X0049625Y0198020D01*
X0049625Y0195882D01*
X0050443Y0193907D01*
X0051955Y0192395D01*
X0053026Y0191951D01*
X0051955Y0191508D01*
X0050443Y0189996D01*
X0049625Y0188020D01*
X0049625Y0185882D01*
X0050443Y0183907D01*
X0051955Y0182395D01*
X0053026Y0181951D01*
X0051955Y0181508D01*
X0050443Y0179996D01*
X0049625Y0178020D01*
X0049625Y0175882D01*
X0050443Y0173907D01*
X0051955Y0172395D01*
X0053026Y0171951D01*
X0051955Y0171508D01*
X0050443Y0169996D01*
X0049625Y0168020D01*
X0049625Y0165882D01*
X0050443Y0163907D01*
X0051955Y0162395D01*
X0053026Y0161951D01*
X0051955Y0161508D01*
X0050443Y0159996D01*
X0049625Y0158020D01*
X0049625Y0155882D01*
X0050443Y0153907D01*
X0051955Y0152395D01*
X0053026Y0151951D01*
X0051955Y0151508D01*
X0050443Y0149996D01*
X0049625Y0148020D01*
X0045300Y0148020D01*
X0045300Y0148818D02*
X0049956Y0148818D01*
X0049625Y0148020D02*
X0049625Y0145882D01*
X0050443Y0143907D01*
X0051955Y0142395D01*
X0053026Y0141951D01*
X0051955Y0141508D01*
X0050443Y0139996D01*
X0049625Y0138020D01*
X0049625Y0135882D01*
X0050443Y0133907D01*
X0051955Y0132395D01*
X0053026Y0131951D01*
X0051955Y0131508D01*
X0050443Y0129996D01*
X0049625Y0128020D01*
X0049625Y0125882D01*
X0050443Y0123907D01*
X0051955Y0122395D01*
X0053026Y0121951D01*
X0051955Y0121508D01*
X0050443Y0119996D01*
X0049625Y0118020D01*
X0049625Y0115882D01*
X0050443Y0113907D01*
X0051955Y0112395D01*
X0053026Y0111951D01*
X0051955Y0111508D01*
X0050443Y0109996D01*
X0049625Y0108020D01*
X0049625Y0105882D01*
X0050443Y0103907D01*
X0051955Y0102395D01*
X0053026Y0101951D01*
X0051955Y0101508D01*
X0050443Y0099996D01*
X0049625Y0098020D01*
X0049625Y0095882D01*
X0050443Y0093907D01*
X0051599Y0092751D01*
X0050846Y0092751D01*
X0048715Y0091868D01*
X0047083Y0090237D01*
X0046200Y0088105D01*
X0046200Y0085797D01*
X0047083Y0083666D01*
X0048715Y0082034D01*
X0050846Y0081151D01*
X0059154Y0081151D01*
X0061285Y0082034D01*
X0062917Y0083666D01*
X0063800Y0085797D01*
X0063800Y0088105D01*
X0062917Y0090237D01*
X0061285Y0091868D01*
X0059636Y0092551D01*
X0060677Y0092551D01*
X0073100Y0080129D01*
X0073100Y0073576D01*
X0073355Y0072960D02*
X0066825Y0072960D01*
X0067697Y0072161D02*
X0073500Y0072161D01*
X0073500Y0071363D02*
X0068495Y0071363D01*
X0069135Y0070564D02*
X0073539Y0070564D01*
X0073870Y0069766D02*
X0069596Y0069766D01*
X0070057Y0068967D02*
X0074200Y0068967D01*
X0074590Y0068169D02*
X0070389Y0068169D01*
X0070603Y0067370D02*
X0075389Y0067370D01*
X0076187Y0066572D02*
X0070817Y0066572D01*
X0070979Y0065773D02*
X0077930Y0065773D01*
X0082070Y0065773D02*
X0087930Y0065773D01*
X0086187Y0066572D02*
X0083813Y0066572D01*
X0084611Y0067370D02*
X0085389Y0067370D01*
X0092070Y0065773D02*
X0148564Y0065773D01*
X0148564Y0065965D02*
X0148564Y0063250D01*
X0149267Y0060628D01*
X0150625Y0058276D01*
X0152545Y0056356D01*
X0154896Y0054999D01*
X0157519Y0054296D01*
X0160234Y0054296D01*
X0162856Y0054999D01*
X0165208Y0056356D01*
X0167128Y0058276D01*
X0168485Y0060628D01*
X0169188Y0063250D01*
X0169188Y0065965D01*
X0168485Y0068588D01*
X0167128Y0070939D01*
X0165208Y0072859D01*
X0162856Y0074217D01*
X0160234Y0074920D01*
X0157519Y0074920D01*
X0154896Y0074217D01*
X0152545Y0072859D01*
X0150625Y0070939D01*
X0149267Y0068588D01*
X0148564Y0065965D01*
X0148727Y0066572D02*
X0093813Y0066572D01*
X0094611Y0067370D02*
X0148941Y0067370D01*
X0149155Y0068169D02*
X0095410Y0068169D01*
X0095800Y0068967D02*
X0149486Y0068967D01*
X0149947Y0069766D02*
X0096130Y0069766D01*
X0096461Y0070564D02*
X0150408Y0070564D01*
X0151048Y0071363D02*
X0117358Y0071363D01*
X0118304Y0072161D02*
X0151847Y0072161D01*
X0152719Y0072960D02*
X0118689Y0072960D01*
X0118824Y0073758D02*
X0154102Y0073758D01*
X0156165Y0074557D02*
X0118824Y0074557D01*
X0119036Y0075355D02*
X0174621Y0075355D01*
X0174621Y0074557D02*
X0161588Y0074557D01*
X0163651Y0073758D02*
X0174621Y0073758D01*
X0174621Y0072960D02*
X0165034Y0072960D01*
X0165906Y0072161D02*
X0174621Y0072161D01*
X0174621Y0071363D02*
X0166704Y0071363D01*
X0167344Y0070564D02*
X0174621Y0070564D01*
X0174621Y0069766D02*
X0167805Y0069766D01*
X0168266Y0068967D02*
X0174621Y0068967D01*
X0174621Y0068169D02*
X0168598Y0068169D01*
X0168812Y0067370D02*
X0174621Y0067370D01*
X0174621Y0066572D02*
X0169025Y0066572D01*
X0169188Y0065773D02*
X0174621Y0065773D01*
X0174621Y0064975D02*
X0169188Y0064975D01*
X0169188Y0064176D02*
X0174621Y0064176D01*
X0174621Y0063378D02*
X0169188Y0063378D01*
X0169008Y0062579D02*
X0174621Y0062579D01*
X0174621Y0061781D02*
X0168794Y0061781D01*
X0168580Y0060982D02*
X0174621Y0060982D01*
X0174621Y0060184D02*
X0168229Y0060184D01*
X0167768Y0059385D02*
X0174621Y0059385D01*
X0174621Y0058587D02*
X0167307Y0058587D01*
X0166640Y0057788D02*
X0174621Y0057788D01*
X0174621Y0056990D02*
X0165841Y0056990D01*
X0164922Y0056191D02*
X0174621Y0056191D01*
X0174621Y0055393D02*
X0163538Y0055393D01*
X0161346Y0054594D02*
X0174621Y0054594D01*
X0156406Y0054594D02*
X0063137Y0054594D01*
X0065330Y0055393D02*
X0154214Y0055393D01*
X0152831Y0056191D02*
X0066713Y0056191D01*
X0067632Y0056990D02*
X0151911Y0056990D01*
X0151113Y0057788D02*
X0068431Y0057788D01*
X0069098Y0058587D02*
X0150445Y0058587D01*
X0149984Y0059385D02*
X0069559Y0059385D01*
X0070020Y0060184D02*
X0149523Y0060184D01*
X0149172Y0060982D02*
X0070371Y0060982D01*
X0070585Y0061781D02*
X0148958Y0061781D01*
X0148744Y0062579D02*
X0070799Y0062579D01*
X0070979Y0063378D02*
X0148564Y0063378D01*
X0148564Y0064176D02*
X0070979Y0064176D01*
X0070979Y0064975D02*
X0148564Y0064975D01*
X0128618Y0084937D02*
X0174621Y0084937D01*
X0174621Y0084139D02*
X0127820Y0084139D01*
X0127021Y0083340D02*
X0174621Y0083340D01*
X0174621Y0082542D02*
X0126223Y0082542D01*
X0125424Y0081743D02*
X0174621Y0081743D01*
X0174621Y0080945D02*
X0124626Y0080945D01*
X0123827Y0080146D02*
X0174621Y0080146D01*
X0174621Y0079348D02*
X0123029Y0079348D01*
X0122230Y0078549D02*
X0174621Y0078549D01*
X0174621Y0077751D02*
X0121432Y0077751D01*
X0120633Y0076952D02*
X0174621Y0076952D01*
X0174621Y0076154D02*
X0119835Y0076154D01*
X0113778Y0082542D02*
X0081900Y0082542D01*
X0081900Y0082826D02*
X0081230Y0084444D01*
X0064992Y0100681D01*
X0063375Y0101351D01*
X0061625Y0101351D01*
X0058201Y0101351D01*
X0058045Y0101508D01*
X0056974Y0101951D01*
X0058045Y0102395D01*
X0059557Y0103907D01*
X0060375Y0105882D01*
X0060375Y0108020D01*
X0059557Y0109996D01*
X0058045Y0111508D01*
X0056974Y0111951D01*
X0058045Y0112395D01*
X0059557Y0113907D01*
X0060375Y0115882D01*
X0060375Y0118020D01*
X0059557Y0119996D01*
X0058045Y0121508D01*
X0056974Y0121951D01*
X0058045Y0122395D01*
X0059557Y0123907D01*
X0060375Y0125882D01*
X0060375Y0126353D01*
X0060817Y0125286D01*
X0065672Y0120431D01*
X0065672Y0119334D01*
X0066098Y0118305D01*
X0066886Y0117518D01*
X0067915Y0117091D01*
X0072991Y0117091D01*
X0074020Y0117518D01*
X0074808Y0118305D01*
X0075234Y0119334D01*
X0075234Y0124410D01*
X0074808Y0125440D01*
X0074020Y0126227D01*
X0072991Y0126654D01*
X0071894Y0126654D01*
X0068947Y0129600D01*
X0068947Y0156270D01*
X0071882Y0159205D01*
X0132016Y0159205D01*
X0138000Y0153221D01*
X0139617Y0152551D01*
X0161799Y0152551D01*
X0161955Y0152395D01*
X0163026Y0151951D01*
X0161955Y0151508D01*
X0161799Y0151351D01*
X0155680Y0151351D01*
X0154063Y0150681D01*
X0149456Y0146075D01*
X0148219Y0144837D01*
X0147549Y0143220D01*
X0147549Y0130388D01*
X0141071Y0123910D01*
X0131782Y0123910D01*
X0130165Y0123240D01*
X0128590Y0121666D01*
X0127353Y0120428D01*
X0126683Y0118811D01*
X0126683Y0101709D01*
X0126302Y0100788D01*
X0126302Y0095712D01*
X0126491Y0095255D01*
X0113388Y0082153D01*
X0111530Y0082153D01*
X0110501Y0081726D01*
X0110315Y0081541D01*
X0110129Y0081726D01*
X0109100Y0082153D01*
X0104049Y0082153D01*
X0103020Y0081726D01*
X0102291Y0080997D01*
X0093770Y0080997D01*
X0092153Y0080327D01*
X0090277Y0078451D01*
X0088707Y0078451D01*
X0086318Y0077462D01*
X0085000Y0076144D01*
X0083682Y0077462D01*
X0081900Y0078200D01*
X0081900Y0082826D01*
X0081687Y0083340D02*
X0114576Y0083340D01*
X0115375Y0084139D02*
X0081356Y0084139D01*
X0080736Y0084937D02*
X0116173Y0084937D01*
X0116972Y0085736D02*
X0079938Y0085736D01*
X0079139Y0086534D02*
X0117770Y0086534D01*
X0118569Y0087333D02*
X0078341Y0087333D01*
X0077542Y0088132D02*
X0119367Y0088132D01*
X0120166Y0088930D02*
X0076744Y0088930D01*
X0075945Y0089729D02*
X0120964Y0089729D01*
X0121763Y0090527D02*
X0075147Y0090527D01*
X0074348Y0091326D02*
X0122561Y0091326D01*
X0123360Y0092124D02*
X0073550Y0092124D01*
X0072751Y0092923D02*
X0124158Y0092923D01*
X0124957Y0093721D02*
X0071953Y0093721D01*
X0071154Y0094520D02*
X0125755Y0094520D01*
X0126465Y0095318D02*
X0070356Y0095318D01*
X0069557Y0096117D02*
X0126302Y0096117D01*
X0126302Y0096915D02*
X0068759Y0096915D01*
X0067960Y0097714D02*
X0126302Y0097714D01*
X0126302Y0098512D02*
X0067162Y0098512D01*
X0066363Y0099311D02*
X0126302Y0099311D01*
X0126302Y0100109D02*
X0065565Y0100109D01*
X0064446Y0100908D02*
X0126351Y0100908D01*
X0126682Y0101706D02*
X0057565Y0101706D01*
X0058155Y0102505D02*
X0126683Y0102505D01*
X0126683Y0103303D02*
X0058953Y0103303D01*
X0059637Y0104102D02*
X0126683Y0104102D01*
X0126683Y0104900D02*
X0059968Y0104900D01*
X0060299Y0105699D02*
X0126683Y0105699D01*
X0126683Y0106497D02*
X0060375Y0106497D01*
X0060375Y0107296D02*
X0126683Y0107296D01*
X0126683Y0108094D02*
X0060344Y0108094D01*
X0060013Y0108893D02*
X0126683Y0108893D01*
X0126683Y0109691D02*
X0059683Y0109691D01*
X0059062Y0110490D02*
X0126683Y0110490D01*
X0126683Y0111288D02*
X0058264Y0111288D01*
X0057302Y0112087D02*
X0126683Y0112087D01*
X0126683Y0112885D02*
X0058535Y0112885D01*
X0059334Y0113684D02*
X0126683Y0113684D01*
X0126683Y0114482D02*
X0059795Y0114482D01*
X0060126Y0115281D02*
X0126683Y0115281D01*
X0126683Y0116079D02*
X0060375Y0116079D01*
X0060375Y0116878D02*
X0126683Y0116878D01*
X0126683Y0117676D02*
X0074179Y0117676D01*
X0074878Y0118475D02*
X0126683Y0118475D01*
X0126874Y0119273D02*
X0075209Y0119273D01*
X0075234Y0120072D02*
X0127205Y0120072D01*
X0127795Y0120870D02*
X0075234Y0120870D01*
X0075234Y0121669D02*
X0128594Y0121669D01*
X0129392Y0122468D02*
X0075234Y0122468D01*
X0075234Y0123266D02*
X0130227Y0123266D01*
X0135483Y0114482D02*
X0160205Y0114482D01*
X0159874Y0115281D02*
X0144181Y0115281D01*
X0145685Y0116079D02*
X0159625Y0116079D01*
X0159625Y0116878D02*
X0146484Y0116878D01*
X0147282Y0117676D02*
X0159625Y0117676D01*
X0159814Y0118475D02*
X0148081Y0118475D01*
X0148879Y0119273D02*
X0160144Y0119273D01*
X0160520Y0120072D02*
X0149678Y0120072D01*
X0150476Y0120870D02*
X0161318Y0120870D01*
X0162345Y0121669D02*
X0151275Y0121669D01*
X0152074Y0122468D02*
X0161883Y0122468D01*
X0161084Y0123266D02*
X0152872Y0123266D01*
X0153671Y0124065D02*
X0160378Y0124065D01*
X0160047Y0124863D02*
X0154469Y0124863D01*
X0155268Y0125662D02*
X0159717Y0125662D01*
X0159625Y0126460D02*
X0155839Y0126460D01*
X0156170Y0127259D02*
X0159625Y0127259D01*
X0159640Y0128057D02*
X0156349Y0128057D01*
X0156349Y0128856D02*
X0159971Y0128856D01*
X0160302Y0129654D02*
X0156349Y0129654D01*
X0156349Y0130453D02*
X0160900Y0130453D01*
X0161699Y0131251D02*
X0156349Y0131251D01*
X0156349Y0132050D02*
X0162788Y0132050D01*
X0161502Y0132848D02*
X0156349Y0132848D01*
X0156349Y0133647D02*
X0160703Y0133647D01*
X0160220Y0134445D02*
X0156349Y0134445D01*
X0156349Y0135244D02*
X0159890Y0135244D01*
X0159625Y0136042D02*
X0156349Y0136042D01*
X0156349Y0136841D02*
X0159625Y0136841D01*
X0159625Y0137639D02*
X0156349Y0137639D01*
X0156349Y0138438D02*
X0159798Y0138438D01*
X0160129Y0139236D02*
X0156349Y0139236D01*
X0156349Y0140035D02*
X0160482Y0140035D01*
X0161281Y0140833D02*
X0156660Y0140833D01*
X0157458Y0141632D02*
X0162255Y0141632D01*
X0161920Y0142430D02*
X0158257Y0142430D01*
X0152200Y0148818D02*
X0118588Y0148818D01*
X0118541Y0148899D02*
X0116554Y0150886D01*
X0114120Y0152291D01*
X0111405Y0153019D01*
X0108595Y0153019D01*
X0105880Y0152291D01*
X0103446Y0150886D01*
X0101459Y0148899D01*
X0100053Y0146465D01*
X0099326Y0143750D01*
X0099326Y0140940D01*
X0100053Y0138225D01*
X0101459Y0135791D01*
X0103446Y0133804D01*
X0105880Y0132398D01*
X0108595Y0131671D01*
X0111405Y0131671D01*
X0114120Y0132398D01*
X0116554Y0133804D01*
X0118541Y0135791D01*
X0119947Y0138225D01*
X0120674Y0140940D01*
X0120674Y0143750D01*
X0119947Y0146465D01*
X0118541Y0148899D01*
X0117823Y0149617D02*
X0152998Y0149617D01*
X0153797Y0150415D02*
X0117025Y0150415D01*
X0115986Y0151214D02*
X0155349Y0151214D01*
X0151401Y0148020D02*
X0119049Y0148020D01*
X0119510Y0147221D02*
X0150603Y0147221D01*
X0149804Y0146423D02*
X0119958Y0146423D01*
X0120172Y0145624D02*
X0149006Y0145624D01*
X0148214Y0144826D02*
X0120386Y0144826D01*
X0120600Y0144027D02*
X0147883Y0144027D01*
X0147552Y0143229D02*
X0120674Y0143229D01*
X0120674Y0142430D02*
X0147549Y0142430D01*
X0147549Y0141632D02*
X0120674Y0141632D01*
X0120645Y0140833D02*
X0147549Y0140833D01*
X0147549Y0140035D02*
X0120432Y0140035D01*
X0120218Y0139236D02*
X0147549Y0139236D01*
X0147549Y0138438D02*
X0120004Y0138438D01*
X0119608Y0137639D02*
X0147549Y0137639D01*
X0147549Y0136841D02*
X0119147Y0136841D01*
X0118686Y0136042D02*
X0147549Y0136042D01*
X0147549Y0135244D02*
X0117994Y0135244D01*
X0117196Y0134445D02*
X0147549Y0134445D01*
X0147549Y0133647D02*
X0116282Y0133647D01*
X0114899Y0132848D02*
X0147549Y0132848D01*
X0147549Y0132050D02*
X0112819Y0132050D01*
X0107181Y0132050D02*
X0068947Y0132050D01*
X0068947Y0132848D02*
X0105101Y0132848D01*
X0103718Y0133647D02*
X0068947Y0133647D01*
X0068947Y0134445D02*
X0102804Y0134445D01*
X0102006Y0135244D02*
X0068947Y0135244D01*
X0068947Y0136042D02*
X0101314Y0136042D01*
X0100853Y0136841D02*
X0068947Y0136841D01*
X0068947Y0137639D02*
X0100392Y0137639D01*
X0099996Y0138438D02*
X0068947Y0138438D01*
X0068947Y0139236D02*
X0099782Y0139236D01*
X0099568Y0140035D02*
X0068947Y0140035D01*
X0068947Y0140833D02*
X0099354Y0140833D01*
X0099326Y0141632D02*
X0068947Y0141632D01*
X0068947Y0142430D02*
X0099326Y0142430D01*
X0099326Y0143229D02*
X0068947Y0143229D01*
X0068947Y0144027D02*
X0099400Y0144027D01*
X0099614Y0144826D02*
X0068947Y0144826D01*
X0068947Y0145624D02*
X0099828Y0145624D01*
X0100042Y0146423D02*
X0068947Y0146423D01*
X0068947Y0147221D02*
X0100490Y0147221D01*
X0100951Y0148020D02*
X0068947Y0148020D01*
X0068947Y0148818D02*
X0101412Y0148818D01*
X0102177Y0149617D02*
X0068947Y0149617D01*
X0068947Y0150415D02*
X0102975Y0150415D01*
X0104014Y0151214D02*
X0068947Y0151214D01*
X0068947Y0152012D02*
X0105397Y0152012D01*
X0107819Y0152811D02*
X0068947Y0152811D01*
X0068947Y0153609D02*
X0137611Y0153609D01*
X0136813Y0154408D02*
X0068947Y0154408D01*
X0068947Y0155206D02*
X0136014Y0155206D01*
X0135216Y0156005D02*
X0068947Y0156005D01*
X0069480Y0156803D02*
X0134417Y0156803D01*
X0133619Y0157602D02*
X0070279Y0157602D01*
X0071077Y0158401D02*
X0132820Y0158401D01*
X0132022Y0159199D02*
X0071876Y0159199D01*
X0065819Y0165587D02*
X0060253Y0165587D01*
X0060375Y0166386D02*
X0066617Y0166386D01*
X0067416Y0167184D02*
X0060375Y0167184D01*
X0060375Y0167983D02*
X0069131Y0167983D01*
X0065020Y0164789D02*
X0059922Y0164789D01*
X0059591Y0163990D02*
X0064222Y0163990D01*
X0063423Y0163192D02*
X0058842Y0163192D01*
X0058041Y0162393D02*
X0062625Y0162393D01*
X0061826Y0161595D02*
X0057835Y0161595D01*
X0058756Y0160796D02*
X0061028Y0160796D01*
X0060574Y0159998D02*
X0059555Y0159998D01*
X0059887Y0159199D02*
X0060243Y0159199D01*
X0052165Y0161595D02*
X0045300Y0161595D01*
X0045300Y0162393D02*
X0051959Y0162393D01*
X0051158Y0163192D02*
X0045300Y0163192D01*
X0045300Y0163990D02*
X0050409Y0163990D01*
X0050078Y0164789D02*
X0045300Y0164789D01*
X0045300Y0165587D02*
X0049747Y0165587D01*
X0049625Y0166386D02*
X0045300Y0166386D01*
X0045300Y0167184D02*
X0049625Y0167184D01*
X0049625Y0167983D02*
X0045300Y0167983D01*
X0045300Y0168781D02*
X0049940Y0168781D01*
X0050271Y0169580D02*
X0045300Y0169580D01*
X0045300Y0170378D02*
X0050826Y0170378D01*
X0051624Y0171177D02*
X0045300Y0171177D01*
X0045300Y0171975D02*
X0052968Y0171975D01*
X0051576Y0172774D02*
X0045300Y0172774D01*
X0045300Y0173572D02*
X0050778Y0173572D01*
X0050251Y0174371D02*
X0045300Y0174371D01*
X0045300Y0175169D02*
X0049920Y0175169D01*
X0049625Y0175968D02*
X0045300Y0175968D01*
X0045300Y0176766D02*
X0049625Y0176766D01*
X0049625Y0177565D02*
X0045300Y0177565D01*
X0045300Y0178363D02*
X0049767Y0178363D01*
X0050098Y0179162D02*
X0045300Y0179162D01*
X0045300Y0179960D02*
X0050429Y0179960D01*
X0051207Y0180759D02*
X0045300Y0180759D01*
X0045300Y0181557D02*
X0052075Y0181557D01*
X0052049Y0182356D02*
X0045300Y0182356D01*
X0045300Y0183154D02*
X0051196Y0183154D01*
X0050424Y0183953D02*
X0045300Y0183953D01*
X0045300Y0184751D02*
X0050094Y0184751D01*
X0049763Y0185550D02*
X0045300Y0185550D01*
X0045300Y0186348D02*
X0049625Y0186348D01*
X0049625Y0187147D02*
X0045300Y0187147D01*
X0045300Y0187945D02*
X0049625Y0187945D01*
X0049925Y0188744D02*
X0045300Y0188744D01*
X0045300Y0189542D02*
X0050256Y0189542D01*
X0050789Y0190341D02*
X0045300Y0190341D01*
X0045300Y0191139D02*
X0051587Y0191139D01*
X0051614Y0192737D02*
X0045300Y0192737D01*
X0045300Y0193535D02*
X0050815Y0193535D01*
X0050267Y0194334D02*
X0045300Y0194334D01*
X0045300Y0195132D02*
X0049936Y0195132D01*
X0049625Y0195931D02*
X0045300Y0195931D01*
X0045300Y0196729D02*
X0049625Y0196729D01*
X0049625Y0197528D02*
X0045300Y0197528D01*
X0045300Y0198326D02*
X0049752Y0198326D01*
X0050083Y0199125D02*
X0045300Y0199125D01*
X0045300Y0199923D02*
X0050413Y0199923D01*
X0051169Y0200722D02*
X0045300Y0200722D01*
X0045300Y0201520D02*
X0051985Y0201520D01*
X0052139Y0202319D02*
X0045300Y0202319D01*
X0045300Y0203117D02*
X0051233Y0203117D01*
X0050440Y0203916D02*
X0045300Y0203916D01*
X0045300Y0204714D02*
X0050109Y0204714D01*
X0049778Y0205513D02*
X0045300Y0205513D01*
X0045300Y0206311D02*
X0049625Y0206311D01*
X0049625Y0207110D02*
X0045300Y0207110D01*
X0045300Y0207908D02*
X0049625Y0207908D01*
X0049910Y0208707D02*
X0045300Y0208707D01*
X0045300Y0209505D02*
X0050240Y0209505D01*
X0050751Y0210304D02*
X0045300Y0210304D01*
X0045300Y0211102D02*
X0051550Y0211102D01*
X0052904Y0211901D02*
X0045300Y0211901D01*
X0045300Y0212699D02*
X0051651Y0212699D01*
X0050852Y0213498D02*
X0045300Y0213498D01*
X0045300Y0214296D02*
X0050282Y0214296D01*
X0049951Y0215095D02*
X0045300Y0215095D01*
X0045300Y0215893D02*
X0049625Y0215893D01*
X0049625Y0216692D02*
X0045300Y0216692D01*
X0045300Y0217490D02*
X0049625Y0217490D01*
X0049736Y0218289D02*
X0045300Y0218289D01*
X0045300Y0219087D02*
X0050067Y0219087D01*
X0050398Y0219886D02*
X0045300Y0219886D01*
X0045300Y0220684D02*
X0051132Y0220684D01*
X0051931Y0221483D02*
X0045300Y0221483D01*
X0045300Y0222281D02*
X0052229Y0222281D01*
X0051270Y0223080D02*
X0045300Y0223080D01*
X0045300Y0223878D02*
X0050472Y0223878D01*
X0050124Y0224677D02*
X0045300Y0224677D01*
X0045300Y0225475D02*
X0049794Y0225475D01*
X0049625Y0226274D02*
X0045300Y0226274D01*
X0045300Y0227072D02*
X0049625Y0227072D01*
X0049625Y0227871D02*
X0045300Y0227871D01*
X0045300Y0228670D02*
X0049894Y0228670D01*
X0050225Y0229468D02*
X0045300Y0229468D01*
X0045300Y0230267D02*
X0050714Y0230267D01*
X0051513Y0231065D02*
X0045300Y0231065D01*
X0045300Y0231864D02*
X0052815Y0231864D01*
X0051688Y0232662D02*
X0045300Y0232662D01*
X0045300Y0233461D02*
X0050889Y0233461D01*
X0050297Y0234259D02*
X0045300Y0234259D01*
X0045300Y0235058D02*
X0049967Y0235058D01*
X0049636Y0235856D02*
X0045300Y0235856D01*
X0045300Y0236655D02*
X0049625Y0236655D01*
X0049625Y0237453D02*
X0045300Y0237453D01*
X0045300Y0238252D02*
X0049721Y0238252D01*
X0050052Y0239050D02*
X0045300Y0239050D01*
X0045300Y0239849D02*
X0050383Y0239849D01*
X0051095Y0240647D02*
X0045300Y0240647D01*
X0045300Y0241446D02*
X0051893Y0241446D01*
X0053733Y0242244D02*
X0045300Y0242244D01*
X0045300Y0243043D02*
X0076471Y0243043D01*
X0076471Y0242936D02*
X0077103Y0241411D01*
X0078270Y0240244D01*
X0078523Y0240139D01*
X0078523Y0235074D01*
X0078270Y0234969D01*
X0077103Y0233802D01*
X0076471Y0232277D01*
X0076471Y0230626D01*
X0077103Y0229101D01*
X0078270Y0227933D01*
X0079796Y0227301D01*
X0085550Y0227301D01*
X0087075Y0227933D01*
X0088243Y0229101D01*
X0088875Y0230626D01*
X0088875Y0231141D01*
X0092082Y0227933D01*
X0093607Y0227301D01*
X0095258Y0227301D01*
X0096784Y0227933D01*
X0097951Y0229101D01*
X0100441Y0231591D01*
X0100623Y0231152D01*
X0103842Y0227933D01*
X0104754Y0227556D01*
X0105367Y0227301D01*
X0108584Y0227301D01*
X0107761Y0226479D01*
X0107130Y0224954D01*
X0107130Y0212224D01*
X0107048Y0211813D01*
X0107130Y0211407D01*
X0107130Y0210992D01*
X0107290Y0210605D01*
X0107372Y0210194D01*
X0107603Y0209850D01*
X0107761Y0209467D01*
X0108058Y0209171D01*
X0108291Y0208823D01*
X0108636Y0208593D01*
X0108929Y0208300D01*
X0109316Y0208139D01*
X0109664Y0207907D01*
X0110071Y0207826D01*
X0110454Y0207668D01*
X0110873Y0207668D01*
X0111284Y0207587D01*
X0111691Y0207668D01*
X0112105Y0207668D01*
X0112492Y0207828D01*
X0112903Y0207910D01*
X0113247Y0208141D01*
X0113630Y0208300D01*
X0113927Y0208596D01*
X0114275Y0208829D01*
X0114505Y0209174D01*
X0114798Y0209467D01*
X0114958Y0209854D01*
X0115482Y0210640D01*
X0115968Y0209467D01*
X0117136Y0208300D01*
X0118661Y0207668D01*
X0120312Y0207668D01*
X0121837Y0208300D01*
X0123005Y0209467D01*
X0123186Y0209906D01*
X0124792Y0208300D01*
X0125704Y0207922D01*
X0126318Y0207668D01*
X0132072Y0207668D01*
X0133597Y0208300D01*
X0134700Y0209402D01*
X0135802Y0208300D01*
X0137327Y0207668D01*
X0141030Y0207668D01*
X0142555Y0208300D01*
X0143722Y0209467D01*
X0144354Y0210992D01*
X0144354Y0214695D01*
X0143722Y0216220D01*
X0142555Y0217388D01*
X0141030Y0218020D01*
X0137448Y0218020D01*
X0137448Y0222902D01*
X0137179Y0223552D01*
X0136817Y0224427D01*
X0136817Y0224427D01*
X0136792Y0224452D01*
X0133597Y0227647D01*
X0132072Y0228278D01*
X0128856Y0228278D01*
X0129678Y0229101D01*
X0130310Y0230626D01*
X0130310Y0233192D01*
X0131441Y0232061D01*
X0131466Y0232037D01*
X0132341Y0231674D01*
X0132991Y0231405D01*
X0135822Y0231405D01*
X0135822Y0230626D01*
X0136454Y0229101D01*
X0137621Y0227933D01*
X0139146Y0227301D01*
X0140797Y0227301D01*
X0142322Y0227933D01*
X0143490Y0229101D01*
X0144122Y0230626D01*
X0144122Y0244587D01*
X0143490Y0246113D01*
X0142322Y0247280D01*
X0140797Y0247912D01*
X0132991Y0247912D01*
X0131466Y0247280D01*
X0129860Y0245674D01*
X0129678Y0246113D01*
X0128511Y0247280D01*
X0126985Y0247912D01*
X0125334Y0247912D01*
X0123809Y0247280D01*
X0122642Y0246113D01*
X0122010Y0244587D01*
X0122010Y0235601D01*
X0117127Y0235601D01*
X0116498Y0235341D01*
X0116498Y0244587D01*
X0115866Y0246113D01*
X0114699Y0247280D01*
X0113174Y0247912D01*
X0111523Y0247912D01*
X0109997Y0247280D01*
X0108830Y0246113D01*
X0108245Y0244700D01*
X0107659Y0246113D01*
X0106492Y0247280D01*
X0104967Y0247912D01*
X0103316Y0247912D01*
X0101790Y0247280D01*
X0101339Y0246828D01*
X0100887Y0247280D01*
X0099362Y0247912D01*
X0097711Y0247912D01*
X0096186Y0247280D01*
X0095018Y0246113D01*
X0094433Y0244700D01*
X0093847Y0246113D01*
X0092680Y0247280D01*
X0091155Y0247912D01*
X0089504Y0247912D01*
X0087979Y0247280D01*
X0087527Y0246828D01*
X0087075Y0247280D01*
X0085550Y0247912D01*
X0079796Y0247912D01*
X0078270Y0247280D01*
X0077103Y0246113D01*
X0076471Y0244587D01*
X0076471Y0242936D01*
X0076758Y0242244D02*
X0056267Y0242244D01*
X0058107Y0241446D02*
X0077088Y0241446D01*
X0077867Y0240647D02*
X0058905Y0240647D01*
X0059617Y0239849D02*
X0078523Y0239849D01*
X0078523Y0239050D02*
X0059948Y0239050D01*
X0060279Y0238252D02*
X0078523Y0238252D01*
X0078523Y0237453D02*
X0060375Y0237453D01*
X0060375Y0236655D02*
X0078523Y0236655D01*
X0078523Y0235856D02*
X0060364Y0235856D01*
X0060033Y0235058D02*
X0078483Y0235058D01*
X0077560Y0234259D02*
X0059703Y0234259D01*
X0059111Y0233461D02*
X0076961Y0233461D01*
X0076631Y0232662D02*
X0058312Y0232662D01*
X0057185Y0231864D02*
X0076471Y0231864D01*
X0076471Y0231065D02*
X0058487Y0231065D01*
X0059286Y0230267D02*
X0076620Y0230267D01*
X0076951Y0229468D02*
X0059775Y0229468D01*
X0060106Y0228670D02*
X0077534Y0228670D01*
X0078420Y0227871D02*
X0060375Y0227871D01*
X0060375Y0227072D02*
X0108355Y0227072D01*
X0107676Y0226274D02*
X0060375Y0226274D01*
X0060206Y0225475D02*
X0107346Y0225475D01*
X0107130Y0224677D02*
X0059876Y0224677D01*
X0059528Y0223878D02*
X0107130Y0223878D01*
X0107130Y0223080D02*
X0058730Y0223080D01*
X0057771Y0222281D02*
X0107130Y0222281D01*
X0107130Y0221483D02*
X0058069Y0221483D01*
X0058868Y0220684D02*
X0107130Y0220684D01*
X0107130Y0219886D02*
X0059602Y0219886D01*
X0059933Y0219087D02*
X0107130Y0219087D01*
X0107130Y0218289D02*
X0060264Y0218289D01*
X0060375Y0217490D02*
X0107130Y0217490D01*
X0107130Y0216692D02*
X0060375Y0216692D01*
X0060375Y0215893D02*
X0107130Y0215893D01*
X0107130Y0215095D02*
X0060049Y0215095D01*
X0059718Y0214296D02*
X0107130Y0214296D01*
X0107130Y0213498D02*
X0059148Y0213498D01*
X0058349Y0212699D02*
X0107130Y0212699D01*
X0107066Y0211901D02*
X0057096Y0211901D01*
X0058450Y0211102D02*
X0107130Y0211102D01*
X0107350Y0210304D02*
X0059249Y0210304D01*
X0059760Y0209505D02*
X0107746Y0209505D01*
X0108465Y0208707D02*
X0060090Y0208707D01*
X0060375Y0207908D02*
X0109662Y0207908D01*
X0112892Y0207908D02*
X0118081Y0207908D01*
X0116729Y0208707D02*
X0114092Y0208707D01*
X0114814Y0209505D02*
X0115953Y0209505D01*
X0115622Y0210304D02*
X0115258Y0210304D01*
X0120892Y0207908D02*
X0125737Y0207908D01*
X0124385Y0208707D02*
X0122244Y0208707D01*
X0123021Y0209505D02*
X0123587Y0209505D01*
X0132652Y0207908D02*
X0136747Y0207908D01*
X0135395Y0208707D02*
X0134005Y0208707D01*
X0141610Y0207908D02*
X0159625Y0207908D01*
X0159625Y0207110D02*
X0060375Y0207110D01*
X0060375Y0206311D02*
X0159625Y0206311D01*
X0159778Y0205513D02*
X0060222Y0205513D01*
X0059891Y0204714D02*
X0160109Y0204714D01*
X0160440Y0203916D02*
X0059560Y0203916D01*
X0058767Y0203117D02*
X0161233Y0203117D01*
X0162139Y0202319D02*
X0057861Y0202319D01*
X0058015Y0201520D02*
X0161985Y0201520D01*
X0161169Y0200722D02*
X0058831Y0200722D01*
X0059587Y0199923D02*
X0160413Y0199923D01*
X0160083Y0199125D02*
X0059917Y0199125D01*
X0060248Y0198326D02*
X0101707Y0198326D01*
X0100909Y0197528D02*
X0060375Y0197528D01*
X0060375Y0196729D02*
X0100110Y0196729D01*
X0099312Y0195931D02*
X0060375Y0195931D01*
X0060064Y0195132D02*
X0098513Y0195132D01*
X0097715Y0194334D02*
X0059733Y0194334D01*
X0059185Y0193535D02*
X0096916Y0193535D01*
X0096118Y0192737D02*
X0058386Y0192737D01*
X0057006Y0191938D02*
X0095319Y0191938D01*
X0094521Y0191139D02*
X0058413Y0191139D01*
X0059211Y0190341D02*
X0093722Y0190341D01*
X0092924Y0189542D02*
X0059744Y0189542D01*
X0060075Y0188744D02*
X0092125Y0188744D01*
X0091327Y0187945D02*
X0060375Y0187945D01*
X0060375Y0187147D02*
X0090882Y0187147D01*
X0090551Y0186348D02*
X0060375Y0186348D01*
X0060237Y0185550D02*
X0090462Y0185550D01*
X0090462Y0184751D02*
X0059906Y0184751D01*
X0059576Y0183953D02*
X0090462Y0183953D01*
X0090462Y0183154D02*
X0058804Y0183154D01*
X0057951Y0182356D02*
X0090462Y0182356D01*
X0090462Y0181557D02*
X0057925Y0181557D01*
X0058793Y0180759D02*
X0090462Y0180759D01*
X0090462Y0179960D02*
X0059571Y0179960D01*
X0059902Y0179162D02*
X0090462Y0179162D01*
X0090228Y0178363D02*
X0060233Y0178363D01*
X0060375Y0177565D02*
X0089625Y0177565D01*
X0089625Y0176766D02*
X0060375Y0176766D01*
X0060375Y0175968D02*
X0089625Y0175968D01*
X0089625Y0175169D02*
X0060080Y0175169D01*
X0059749Y0174371D02*
X0089625Y0174371D01*
X0089625Y0173572D02*
X0059222Y0173572D01*
X0058424Y0172774D02*
X0090159Y0172774D01*
X0090958Y0171975D02*
X0057032Y0171975D01*
X0058376Y0171177D02*
X0091756Y0171177D01*
X0092555Y0170378D02*
X0059174Y0170378D01*
X0059729Y0169580D02*
X0147549Y0169580D01*
X0147549Y0170378D02*
X0116598Y0170378D01*
X0118244Y0171177D02*
X0147549Y0171177D01*
X0147549Y0171975D02*
X0119042Y0171975D01*
X0119674Y0172774D02*
X0147549Y0172774D01*
X0147549Y0173572D02*
X0120005Y0173572D01*
X0120336Y0174371D02*
X0147549Y0174371D01*
X0147549Y0175169D02*
X0120375Y0175169D01*
X0120375Y0175968D02*
X0147143Y0175968D01*
X0146344Y0176766D02*
X0120307Y0176766D01*
X0119976Y0177565D02*
X0145546Y0177565D01*
X0144747Y0178363D02*
X0119646Y0178363D01*
X0118973Y0179162D02*
X0143949Y0179162D01*
X0143150Y0179960D02*
X0118175Y0179960D01*
X0116431Y0180759D02*
X0142352Y0180759D01*
X0148409Y0187147D02*
X0148562Y0187147D01*
X0149207Y0186348D02*
X0149361Y0186348D01*
X0150006Y0185550D02*
X0150159Y0185550D01*
X0150804Y0184751D02*
X0150958Y0184751D01*
X0151603Y0183953D02*
X0151756Y0183953D01*
X0152401Y0183154D02*
X0152649Y0183154D01*
X0153200Y0182356D02*
X0162049Y0182356D01*
X0155975Y0179162D02*
X0174621Y0179162D01*
X0174621Y0179960D02*
X0155595Y0179960D01*
X0154797Y0180759D02*
X0174621Y0180759D01*
X0174621Y0181557D02*
X0153998Y0181557D01*
X0154441Y0181114D02*
X0154441Y0181114D01*
X0156306Y0178363D02*
X0174621Y0178363D01*
X0174621Y0177565D02*
X0156349Y0177565D01*
X0156349Y0176766D02*
X0174621Y0176766D01*
X0174621Y0175968D02*
X0156349Y0175968D01*
X0156349Y0175169D02*
X0174621Y0175169D01*
X0174621Y0174371D02*
X0156349Y0174371D01*
X0156349Y0173572D02*
X0174621Y0173572D01*
X0174621Y0172774D02*
X0156349Y0172774D01*
X0156349Y0171975D02*
X0163084Y0171975D01*
X0166916Y0171975D02*
X0174621Y0171975D01*
X0174621Y0171177D02*
X0168376Y0171177D01*
X0169174Y0170378D02*
X0174621Y0170378D01*
X0174621Y0169580D02*
X0169729Y0169580D01*
X0170060Y0168781D02*
X0174621Y0168781D01*
X0174621Y0167983D02*
X0170375Y0167983D01*
X0170375Y0167184D02*
X0174621Y0167184D01*
X0174621Y0166386D02*
X0170375Y0166386D01*
X0170253Y0165587D02*
X0174621Y0165587D01*
X0174621Y0164789D02*
X0169922Y0164789D01*
X0169591Y0163990D02*
X0174621Y0163990D01*
X0174621Y0163192D02*
X0168842Y0163192D01*
X0168041Y0162393D02*
X0174621Y0162393D01*
X0174621Y0161595D02*
X0167835Y0161595D01*
X0168756Y0160796D02*
X0174621Y0160796D01*
X0174621Y0159998D02*
X0169555Y0159998D01*
X0169887Y0159199D02*
X0174621Y0159199D01*
X0174621Y0158401D02*
X0170217Y0158401D01*
X0170375Y0157602D02*
X0174621Y0157602D01*
X0174621Y0156803D02*
X0170375Y0156803D01*
X0170375Y0156005D02*
X0174621Y0156005D01*
X0174621Y0155206D02*
X0170095Y0155206D01*
X0169764Y0154408D02*
X0174621Y0154408D01*
X0174621Y0153609D02*
X0169259Y0153609D01*
X0168461Y0152811D02*
X0174621Y0152811D01*
X0174621Y0152012D02*
X0167122Y0152012D01*
X0168338Y0151214D02*
X0174621Y0151214D01*
X0174621Y0150415D02*
X0169137Y0150415D01*
X0169713Y0149617D02*
X0174621Y0149617D01*
X0174621Y0147221D02*
X0170375Y0147221D01*
X0170375Y0146423D02*
X0174621Y0146423D01*
X0174621Y0145624D02*
X0170268Y0145624D01*
X0169937Y0144826D02*
X0174621Y0144826D01*
X0174621Y0144027D02*
X0169607Y0144027D01*
X0168879Y0143229D02*
X0174621Y0143229D01*
X0174621Y0142430D02*
X0168080Y0142430D01*
X0167745Y0141632D02*
X0174621Y0141632D01*
X0174621Y0140833D02*
X0168719Y0140833D01*
X0169518Y0140035D02*
X0174621Y0140035D01*
X0174621Y0139236D02*
X0169871Y0139236D01*
X0170202Y0138438D02*
X0174621Y0138438D01*
X0174621Y0137639D02*
X0170375Y0137639D01*
X0170375Y0136841D02*
X0174621Y0136841D01*
X0174621Y0136042D02*
X0170375Y0136042D01*
X0170110Y0135244D02*
X0174621Y0135244D01*
X0174621Y0134445D02*
X0169780Y0134445D01*
X0169297Y0133647D02*
X0174621Y0133647D01*
X0174621Y0132848D02*
X0168498Y0132848D01*
X0167212Y0132050D02*
X0174621Y0132050D01*
X0174621Y0131251D02*
X0168301Y0131251D01*
X0169100Y0130453D02*
X0174621Y0130453D01*
X0174621Y0129654D02*
X0169698Y0129654D01*
X0170029Y0128856D02*
X0174621Y0128856D01*
X0174621Y0128057D02*
X0170360Y0128057D01*
X0170375Y0127259D02*
X0174621Y0127259D01*
X0174621Y0126460D02*
X0170375Y0126460D01*
X0170283Y0125662D02*
X0174621Y0125662D01*
X0174621Y0124863D02*
X0169953Y0124863D01*
X0169622Y0124065D02*
X0174621Y0124065D01*
X0174621Y0123266D02*
X0168916Y0123266D01*
X0168117Y0122468D02*
X0174621Y0122468D01*
X0174621Y0121669D02*
X0167655Y0121669D01*
X0168682Y0120870D02*
X0174621Y0120870D01*
X0174621Y0120072D02*
X0169480Y0120072D01*
X0169856Y0119273D02*
X0174621Y0119273D01*
X0174621Y0118475D02*
X0170186Y0118475D01*
X0170375Y0117676D02*
X0174621Y0117676D01*
X0174621Y0116878D02*
X0170375Y0116878D01*
X0170375Y0116079D02*
X0174621Y0116079D01*
X0174621Y0115281D02*
X0170126Y0115281D01*
X0169795Y0114482D02*
X0174621Y0114482D01*
X0174621Y0113684D02*
X0169334Y0113684D01*
X0168535Y0112885D02*
X0174621Y0112885D01*
X0174621Y0112087D02*
X0167302Y0112087D01*
X0162698Y0112087D02*
X0135483Y0112087D01*
X0135483Y0112885D02*
X0161465Y0112885D01*
X0160666Y0113684D02*
X0135483Y0113684D01*
X0135483Y0111288D02*
X0174621Y0111288D01*
X0174621Y0110490D02*
X0135483Y0110490D01*
X0135483Y0109691D02*
X0174621Y0109691D01*
X0174621Y0108893D02*
X0135483Y0108893D01*
X0135483Y0108094D02*
X0174621Y0108094D01*
X0174621Y0107296D02*
X0135483Y0107296D01*
X0135483Y0106497D02*
X0174621Y0106497D01*
X0174621Y0105699D02*
X0135483Y0105699D01*
X0135483Y0104900D02*
X0174621Y0104900D01*
X0174621Y0104102D02*
X0135483Y0104102D01*
X0135483Y0103303D02*
X0174621Y0103303D01*
X0174621Y0102505D02*
X0135483Y0102505D01*
X0135484Y0101706D02*
X0162435Y0101706D01*
X0161955Y0101508D02*
X0160443Y0099996D01*
X0159625Y0098020D01*
X0159625Y0095882D01*
X0160443Y0093907D01*
X0161955Y0092395D01*
X0163931Y0091576D01*
X0166069Y0091576D01*
X0168045Y0092395D01*
X0169557Y0093907D01*
X0170375Y0095882D01*
X0170375Y0098020D01*
X0169557Y0099996D01*
X0168045Y0101508D01*
X0166069Y0102326D01*
X0163931Y0102326D01*
X0161955Y0101508D01*
X0161355Y0100908D02*
X0135814Y0100908D01*
X0135864Y0100109D02*
X0160557Y0100109D01*
X0160160Y0099311D02*
X0135864Y0099311D01*
X0135864Y0098512D02*
X0159829Y0098512D01*
X0159625Y0097714D02*
X0135864Y0097714D01*
X0135864Y0096915D02*
X0159625Y0096915D01*
X0159625Y0096117D02*
X0135864Y0096117D01*
X0135700Y0095318D02*
X0159859Y0095318D01*
X0160190Y0094520D02*
X0135483Y0094520D01*
X0135483Y0093721D02*
X0160629Y0093721D01*
X0161427Y0092923D02*
X0135483Y0092923D01*
X0135224Y0092124D02*
X0162609Y0092124D01*
X0167391Y0092124D02*
X0174621Y0092124D01*
X0174621Y0091326D02*
X0134893Y0091326D01*
X0134208Y0090527D02*
X0174621Y0090527D01*
X0174621Y0089729D02*
X0133409Y0089729D01*
X0132611Y0088930D02*
X0174621Y0088930D01*
X0174621Y0088132D02*
X0131812Y0088132D01*
X0131014Y0087333D02*
X0174621Y0087333D01*
X0174621Y0086534D02*
X0130215Y0086534D01*
X0129417Y0085736D02*
X0174621Y0085736D01*
X0174621Y0092923D02*
X0168573Y0092923D01*
X0169371Y0093721D02*
X0174621Y0093721D01*
X0174621Y0094520D02*
X0169810Y0094520D01*
X0170141Y0095318D02*
X0174621Y0095318D01*
X0174621Y0096117D02*
X0170375Y0096117D01*
X0170375Y0096915D02*
X0174621Y0096915D01*
X0174621Y0097714D02*
X0170375Y0097714D01*
X0170171Y0098512D02*
X0174621Y0098512D01*
X0174621Y0099311D02*
X0169840Y0099311D01*
X0169443Y0100109D02*
X0174621Y0100109D01*
X0174621Y0100908D02*
X0168645Y0100908D01*
X0167565Y0101706D02*
X0174621Y0101706D01*
X0143621Y0126460D02*
X0073458Y0126460D01*
X0074586Y0125662D02*
X0142822Y0125662D01*
X0142024Y0124863D02*
X0075046Y0124863D01*
X0075234Y0124065D02*
X0141225Y0124065D01*
X0144420Y0127259D02*
X0071289Y0127259D01*
X0070491Y0128057D02*
X0145218Y0128057D01*
X0146017Y0128856D02*
X0069692Y0128856D01*
X0068947Y0129654D02*
X0146815Y0129654D01*
X0147549Y0130453D02*
X0068947Y0130453D01*
X0068947Y0131251D02*
X0147549Y0131251D01*
X0138990Y0152811D02*
X0112181Y0152811D01*
X0114603Y0152012D02*
X0162878Y0152012D01*
X0162165Y0161595D02*
X0142071Y0161595D01*
X0141273Y0162393D02*
X0161959Y0162393D01*
X0149528Y0163192D02*
X0140474Y0163192D01*
X0139676Y0163990D02*
X0148687Y0163990D01*
X0148082Y0164789D02*
X0138877Y0164789D01*
X0138079Y0165587D02*
X0147751Y0165587D01*
X0147549Y0166386D02*
X0137280Y0166386D01*
X0136482Y0167184D02*
X0147549Y0167184D01*
X0147549Y0167983D02*
X0134767Y0167983D01*
X0147549Y0168781D02*
X0060060Y0168781D01*
X0051244Y0160796D02*
X0045300Y0160796D01*
X0045300Y0159998D02*
X0050445Y0159998D01*
X0050113Y0159199D02*
X0045300Y0159199D01*
X0045300Y0158401D02*
X0049783Y0158401D01*
X0049625Y0157602D02*
X0045300Y0157602D01*
X0045300Y0156803D02*
X0049625Y0156803D01*
X0049625Y0156005D02*
X0045300Y0156005D01*
X0045300Y0155206D02*
X0049905Y0155206D01*
X0050236Y0154408D02*
X0045300Y0154408D01*
X0045300Y0153609D02*
X0050741Y0153609D01*
X0051539Y0152811D02*
X0045300Y0152811D01*
X0045300Y0152012D02*
X0052878Y0152012D01*
X0051662Y0151214D02*
X0045300Y0151214D01*
X0045300Y0150415D02*
X0050863Y0150415D01*
X0050287Y0149617D02*
X0045300Y0149617D01*
X0045300Y0147221D02*
X0049625Y0147221D01*
X0049625Y0146423D02*
X0045300Y0146423D01*
X0045300Y0145624D02*
X0049732Y0145624D01*
X0050063Y0144826D02*
X0045300Y0144826D01*
X0045300Y0144027D02*
X0050393Y0144027D01*
X0051121Y0143229D02*
X0045300Y0143229D01*
X0045300Y0142430D02*
X0051920Y0142430D01*
X0052255Y0141632D02*
X0045300Y0141632D01*
X0045300Y0140833D02*
X0051281Y0140833D01*
X0050482Y0140035D02*
X0045300Y0140035D01*
X0045300Y0139236D02*
X0050129Y0139236D01*
X0049798Y0138438D02*
X0045300Y0138438D01*
X0045300Y0137639D02*
X0049625Y0137639D01*
X0049625Y0136841D02*
X0045300Y0136841D01*
X0045300Y0136042D02*
X0049625Y0136042D01*
X0049890Y0135244D02*
X0045300Y0135244D01*
X0045300Y0134445D02*
X0050220Y0134445D01*
X0050703Y0133647D02*
X0045300Y0133647D01*
X0045300Y0132848D02*
X0051502Y0132848D01*
X0052788Y0132050D02*
X0045300Y0132050D01*
X0045300Y0131251D02*
X0051699Y0131251D01*
X0050900Y0130453D02*
X0045300Y0130453D01*
X0045300Y0129654D02*
X0050302Y0129654D01*
X0049971Y0128856D02*
X0045300Y0128856D01*
X0045300Y0128057D02*
X0049640Y0128057D01*
X0049625Y0127259D02*
X0045300Y0127259D01*
X0045300Y0126460D02*
X0049625Y0126460D01*
X0049717Y0125662D02*
X0045300Y0125662D01*
X0045300Y0124863D02*
X0050047Y0124863D01*
X0050378Y0124065D02*
X0045300Y0124065D01*
X0045300Y0123266D02*
X0051084Y0123266D01*
X0051883Y0122468D02*
X0045300Y0122468D01*
X0045300Y0121669D02*
X0052345Y0121669D01*
X0051318Y0120870D02*
X0045300Y0120870D01*
X0045300Y0120072D02*
X0050520Y0120072D01*
X0050144Y0119273D02*
X0045300Y0119273D01*
X0045300Y0118475D02*
X0049814Y0118475D01*
X0049625Y0117676D02*
X0045300Y0117676D01*
X0045300Y0116878D02*
X0049625Y0116878D01*
X0049625Y0116079D02*
X0045300Y0116079D01*
X0045300Y0115281D02*
X0049874Y0115281D01*
X0050205Y0114482D02*
X0045300Y0114482D01*
X0045300Y0113684D02*
X0050666Y0113684D01*
X0051465Y0112885D02*
X0045300Y0112885D01*
X0045300Y0112087D02*
X0052698Y0112087D01*
X0051736Y0111288D02*
X0045300Y0111288D01*
X0045300Y0110490D02*
X0050938Y0110490D01*
X0050317Y0109691D02*
X0045300Y0109691D01*
X0045300Y0108893D02*
X0049987Y0108893D01*
X0049656Y0108094D02*
X0045300Y0108094D01*
X0045300Y0107296D02*
X0049625Y0107296D01*
X0049625Y0106497D02*
X0045300Y0106497D01*
X0045300Y0105699D02*
X0049701Y0105699D01*
X0050032Y0104900D02*
X0045300Y0104900D01*
X0045300Y0104102D02*
X0050363Y0104102D01*
X0051047Y0103303D02*
X0045300Y0103303D01*
X0045300Y0102505D02*
X0051845Y0102505D01*
X0052435Y0101706D02*
X0045300Y0101706D01*
X0045300Y0100908D02*
X0051355Y0100908D01*
X0050557Y0100109D02*
X0045300Y0100109D01*
X0045300Y0099311D02*
X0050160Y0099311D01*
X0049829Y0098512D02*
X0045300Y0098512D01*
X0045300Y0097714D02*
X0049625Y0097714D01*
X0049625Y0096915D02*
X0045300Y0096915D01*
X0045300Y0096117D02*
X0049625Y0096117D01*
X0049859Y0095318D02*
X0045300Y0095318D01*
X0045300Y0094520D02*
X0050190Y0094520D01*
X0050629Y0093721D02*
X0045300Y0093721D01*
X0045300Y0092923D02*
X0051427Y0092923D01*
X0049332Y0092124D02*
X0045300Y0092124D01*
X0045300Y0091326D02*
X0048172Y0091326D01*
X0047373Y0090527D02*
X0045300Y0090527D01*
X0045300Y0089729D02*
X0046873Y0089729D01*
X0046542Y0088930D02*
X0045300Y0088930D01*
X0045300Y0088132D02*
X0046211Y0088132D01*
X0046200Y0087333D02*
X0045300Y0087333D01*
X0045300Y0086534D02*
X0046200Y0086534D01*
X0046225Y0085736D02*
X0045300Y0085736D01*
X0045300Y0084937D02*
X0046556Y0084937D01*
X0046887Y0084139D02*
X0045300Y0084139D01*
X0045300Y0083340D02*
X0047408Y0083340D01*
X0048207Y0082542D02*
X0045300Y0082542D01*
X0045300Y0081743D02*
X0049416Y0081743D01*
X0045300Y0080945D02*
X0072284Y0080945D01*
X0073082Y0080146D02*
X0045300Y0080146D01*
X0045300Y0079348D02*
X0073100Y0079348D01*
X0073100Y0078549D02*
X0045300Y0078549D01*
X0045300Y0077751D02*
X0073100Y0077751D01*
X0073100Y0076952D02*
X0045300Y0076952D01*
X0045300Y0076154D02*
X0073100Y0076154D01*
X0071485Y0081743D02*
X0060584Y0081743D01*
X0061793Y0082542D02*
X0070687Y0082542D01*
X0069888Y0083340D02*
X0062592Y0083340D01*
X0063113Y0084139D02*
X0069090Y0084139D01*
X0068291Y0084937D02*
X0063444Y0084937D01*
X0063775Y0085736D02*
X0067493Y0085736D01*
X0066694Y0086534D02*
X0063800Y0086534D01*
X0063800Y0087333D02*
X0065896Y0087333D01*
X0065097Y0088132D02*
X0063789Y0088132D01*
X0063458Y0088930D02*
X0064299Y0088930D01*
X0063500Y0089729D02*
X0063127Y0089729D01*
X0062702Y0090527D02*
X0062627Y0090527D01*
X0061903Y0091326D02*
X0061828Y0091326D01*
X0061105Y0092124D02*
X0060668Y0092124D01*
X0081900Y0081743D02*
X0103061Y0081743D01*
X0110088Y0081743D02*
X0110541Y0081743D01*
X0102326Y0072161D02*
X0096500Y0072161D01*
X0096500Y0071363D02*
X0103272Y0071363D01*
X0109877Y0071363D02*
X0110753Y0071363D01*
X0093645Y0080945D02*
X0081900Y0080945D01*
X0081900Y0080146D02*
X0091973Y0080146D01*
X0091174Y0079348D02*
X0081900Y0079348D01*
X0081900Y0078549D02*
X0090376Y0078549D01*
X0087016Y0077751D02*
X0082984Y0077751D01*
X0084191Y0076952D02*
X0085809Y0076952D01*
X0085010Y0076154D02*
X0084990Y0076154D01*
X0066727Y0117676D02*
X0060375Y0117676D01*
X0060186Y0118475D02*
X0066028Y0118475D01*
X0065697Y0119273D02*
X0059856Y0119273D01*
X0059480Y0120072D02*
X0065672Y0120072D01*
X0065232Y0120870D02*
X0058682Y0120870D01*
X0057655Y0121669D02*
X0064434Y0121669D01*
X0063635Y0122468D02*
X0058117Y0122468D01*
X0058916Y0123266D02*
X0062837Y0123266D01*
X0062038Y0124065D02*
X0059622Y0124065D01*
X0059953Y0124863D02*
X0061240Y0124863D01*
X0060661Y0125662D02*
X0060283Y0125662D01*
X0097445Y0170378D02*
X0103402Y0170378D01*
X0101756Y0171177D02*
X0098244Y0171177D01*
X0099042Y0171975D02*
X0100958Y0171975D01*
X0100326Y0172774D02*
X0099841Y0172774D01*
X0106598Y0170378D02*
X0113402Y0170378D01*
X0111756Y0171177D02*
X0108244Y0171177D01*
X0109042Y0171975D02*
X0110958Y0171975D01*
X0110326Y0172774D02*
X0109674Y0172774D01*
X0100354Y0178363D02*
X0099772Y0178363D01*
X0099262Y0179162D02*
X0100600Y0179162D01*
X0100600Y0179960D02*
X0099262Y0179960D01*
X0099262Y0180759D02*
X0100600Y0180759D01*
X0100600Y0181557D02*
X0099262Y0181557D01*
X0099262Y0182356D02*
X0100600Y0182356D01*
X0100600Y0183154D02*
X0099262Y0183154D01*
X0099779Y0183953D02*
X0100879Y0183953D01*
X0100578Y0184751D02*
X0101210Y0184751D01*
X0101376Y0185550D02*
X0101923Y0185550D01*
X0102175Y0186348D02*
X0102722Y0186348D01*
X0102973Y0187147D02*
X0103520Y0187147D01*
X0103772Y0187945D02*
X0104319Y0187945D01*
X0104570Y0188744D02*
X0105117Y0188744D01*
X0105369Y0189542D02*
X0106700Y0189542D01*
X0137448Y0218289D02*
X0159736Y0218289D01*
X0159625Y0217490D02*
X0142307Y0217490D01*
X0143251Y0216692D02*
X0159625Y0216692D01*
X0159625Y0215893D02*
X0143858Y0215893D01*
X0144189Y0215095D02*
X0159951Y0215095D01*
X0160282Y0214296D02*
X0144354Y0214296D01*
X0144354Y0213498D02*
X0160852Y0213498D01*
X0161651Y0212699D02*
X0144354Y0212699D01*
X0144354Y0211901D02*
X0162904Y0211901D01*
X0161550Y0211102D02*
X0144354Y0211102D01*
X0144069Y0210304D02*
X0160751Y0210304D01*
X0160240Y0209505D02*
X0143738Y0209505D01*
X0142962Y0208707D02*
X0159910Y0208707D01*
X0167096Y0211901D02*
X0174621Y0211901D01*
X0174621Y0212699D02*
X0168349Y0212699D01*
X0169148Y0213498D02*
X0174621Y0213498D01*
X0174621Y0214296D02*
X0169718Y0214296D01*
X0170049Y0215095D02*
X0174621Y0215095D01*
X0174621Y0215893D02*
X0170375Y0215893D01*
X0170375Y0216692D02*
X0174621Y0216692D01*
X0174621Y0217490D02*
X0170375Y0217490D01*
X0170264Y0218289D02*
X0174621Y0218289D01*
X0174621Y0219087D02*
X0169933Y0219087D01*
X0169602Y0219886D02*
X0174621Y0219886D01*
X0174621Y0220684D02*
X0168868Y0220684D01*
X0168069Y0221483D02*
X0174621Y0221483D01*
X0174621Y0222281D02*
X0167771Y0222281D01*
X0168730Y0223080D02*
X0174621Y0223080D01*
X0174621Y0223878D02*
X0169528Y0223878D01*
X0169876Y0224677D02*
X0174621Y0224677D01*
X0174621Y0225475D02*
X0170206Y0225475D01*
X0170375Y0226274D02*
X0174621Y0226274D01*
X0174621Y0227072D02*
X0170375Y0227072D01*
X0170375Y0227871D02*
X0174621Y0227871D01*
X0174621Y0228670D02*
X0170106Y0228670D01*
X0169775Y0229468D02*
X0174621Y0229468D01*
X0174621Y0230267D02*
X0169286Y0230267D01*
X0168487Y0231065D02*
X0174621Y0231065D01*
X0174621Y0231864D02*
X0167185Y0231864D01*
X0168312Y0232662D02*
X0174621Y0232662D01*
X0174621Y0233461D02*
X0169111Y0233461D01*
X0169703Y0234259D02*
X0174621Y0234259D01*
X0174621Y0235058D02*
X0170033Y0235058D01*
X0170364Y0235856D02*
X0174621Y0235856D01*
X0174621Y0236655D02*
X0170375Y0236655D01*
X0170375Y0237453D02*
X0174621Y0237453D01*
X0174621Y0238252D02*
X0170279Y0238252D01*
X0169948Y0239050D02*
X0174621Y0239050D01*
X0174621Y0239849D02*
X0169617Y0239849D01*
X0168905Y0240647D02*
X0174621Y0240647D01*
X0174621Y0241446D02*
X0168107Y0241446D01*
X0166267Y0242244D02*
X0174621Y0242244D01*
X0174621Y0243043D02*
X0144122Y0243043D01*
X0144122Y0243841D02*
X0174621Y0243841D01*
X0174621Y0244640D02*
X0144100Y0244640D01*
X0143769Y0245438D02*
X0174621Y0245438D01*
X0174621Y0246237D02*
X0143366Y0246237D01*
X0142567Y0247035D02*
X0174621Y0247035D01*
X0174621Y0247834D02*
X0140986Y0247834D01*
X0144122Y0242244D02*
X0163733Y0242244D01*
X0161893Y0241446D02*
X0144122Y0241446D01*
X0144122Y0240647D02*
X0161095Y0240647D01*
X0160383Y0239849D02*
X0144122Y0239849D01*
X0144122Y0239050D02*
X0160052Y0239050D01*
X0159721Y0238252D02*
X0144122Y0238252D01*
X0144122Y0237453D02*
X0159625Y0237453D01*
X0159625Y0236655D02*
X0144122Y0236655D01*
X0144122Y0235856D02*
X0159636Y0235856D01*
X0159967Y0235058D02*
X0144122Y0235058D01*
X0144122Y0234259D02*
X0160297Y0234259D01*
X0160889Y0233461D02*
X0144122Y0233461D01*
X0144122Y0232662D02*
X0161688Y0232662D01*
X0162815Y0231864D02*
X0144122Y0231864D01*
X0144122Y0231065D02*
X0161513Y0231065D01*
X0160714Y0230267D02*
X0143973Y0230267D01*
X0143642Y0229468D02*
X0160225Y0229468D01*
X0159894Y0228670D02*
X0143059Y0228670D01*
X0142173Y0227871D02*
X0159625Y0227871D01*
X0159625Y0227072D02*
X0134172Y0227072D01*
X0134970Y0226274D02*
X0159625Y0226274D01*
X0159794Y0225475D02*
X0135769Y0225475D01*
X0136567Y0224677D02*
X0160124Y0224677D01*
X0160472Y0223878D02*
X0137044Y0223878D01*
X0137375Y0223080D02*
X0161270Y0223080D01*
X0162229Y0222281D02*
X0137448Y0222281D01*
X0137448Y0221483D02*
X0161931Y0221483D01*
X0161132Y0220684D02*
X0137448Y0220684D01*
X0137448Y0219886D02*
X0160398Y0219886D01*
X0160067Y0219087D02*
X0137448Y0219087D01*
X0137771Y0227871D02*
X0133056Y0227871D01*
X0129830Y0229468D02*
X0136301Y0229468D01*
X0135971Y0230267D02*
X0130161Y0230267D01*
X0130310Y0231065D02*
X0135822Y0231065D01*
X0136885Y0228670D02*
X0129247Y0228670D01*
X0130310Y0231864D02*
X0131883Y0231864D01*
X0131466Y0232037D02*
X0131466Y0232037D01*
X0130840Y0232662D02*
X0130310Y0232662D01*
X0122010Y0235856D02*
X0116498Y0235856D01*
X0116498Y0236655D02*
X0122010Y0236655D01*
X0122010Y0237453D02*
X0116498Y0237453D01*
X0116498Y0238252D02*
X0122010Y0238252D01*
X0122010Y0239050D02*
X0116498Y0239050D01*
X0116498Y0239849D02*
X0122010Y0239849D01*
X0122010Y0240647D02*
X0116498Y0240647D01*
X0116498Y0241446D02*
X0122010Y0241446D01*
X0122010Y0242244D02*
X0116498Y0242244D01*
X0116498Y0243043D02*
X0122010Y0243043D01*
X0122010Y0243841D02*
X0116498Y0243841D01*
X0116476Y0244640D02*
X0122032Y0244640D01*
X0122362Y0245438D02*
X0116146Y0245438D01*
X0115742Y0246237D02*
X0122766Y0246237D01*
X0123564Y0247035D02*
X0114944Y0247035D01*
X0113362Y0247834D02*
X0125146Y0247834D01*
X0127174Y0247834D02*
X0132803Y0247834D01*
X0131221Y0247035D02*
X0128755Y0247035D01*
X0129554Y0246237D02*
X0130422Y0246237D01*
X0111334Y0247834D02*
X0105155Y0247834D01*
X0106737Y0247035D02*
X0109753Y0247035D01*
X0108954Y0246237D02*
X0107535Y0246237D01*
X0107939Y0245438D02*
X0108551Y0245438D01*
X0103127Y0247834D02*
X0099550Y0247834D01*
X0101132Y0247035D02*
X0101546Y0247035D01*
X0097522Y0247834D02*
X0091343Y0247834D01*
X0092925Y0247035D02*
X0095941Y0247035D01*
X0095142Y0246237D02*
X0093723Y0246237D01*
X0094127Y0245438D02*
X0094739Y0245438D01*
X0089315Y0247834D02*
X0085738Y0247834D01*
X0087320Y0247035D02*
X0087734Y0247035D01*
X0079607Y0247834D02*
X0045300Y0247834D01*
X0045300Y0248632D02*
X0174621Y0248632D01*
X0174621Y0249431D02*
X0045300Y0249431D01*
X0045300Y0250229D02*
X0174621Y0250229D01*
X0174621Y0251028D02*
X0045300Y0251028D01*
X0045300Y0251826D02*
X0174621Y0251826D01*
X0174621Y0252625D02*
X0045300Y0252625D01*
X0045300Y0253423D02*
X0174621Y0253423D01*
X0174621Y0254222D02*
X0045300Y0254222D01*
X0045300Y0255020D02*
X0174621Y0255020D01*
X0174621Y0255819D02*
X0045300Y0255819D01*
X0045300Y0256617D02*
X0174621Y0256617D01*
X0174621Y0257416D02*
X0045300Y0257416D01*
X0045300Y0258214D02*
X0174621Y0258214D01*
X0174621Y0259013D02*
X0160298Y0259013D01*
X0160234Y0258996D02*
X0162856Y0259699D01*
X0165208Y0261056D01*
X0167128Y0262976D01*
X0168485Y0265327D01*
X0169188Y0267950D01*
X0169188Y0270665D01*
X0168485Y0273288D01*
X0167128Y0275639D01*
X0165208Y0277559D01*
X0162856Y0278917D01*
X0160234Y0279619D01*
X0157519Y0279619D01*
X0154896Y0278917D01*
X0152545Y0277559D01*
X0150625Y0275639D01*
X0149267Y0273288D01*
X0148564Y0270665D01*
X0148564Y0267950D01*
X0149267Y0265327D01*
X0150625Y0262976D01*
X0152545Y0261056D01*
X0154896Y0259699D01*
X0157519Y0258996D01*
X0160234Y0258996D01*
X0157454Y0259013D02*
X0062089Y0259013D01*
X0062025Y0258996D02*
X0064648Y0259699D01*
X0066999Y0261056D01*
X0068919Y0262976D01*
X0070276Y0265327D01*
X0070979Y0267950D01*
X0070979Y0270665D01*
X0070276Y0273288D01*
X0068919Y0275639D01*
X0066999Y0277559D01*
X0064648Y0278917D01*
X0062025Y0279619D01*
X0059310Y0279619D01*
X0056687Y0278917D01*
X0054336Y0277559D01*
X0052416Y0275639D01*
X0051058Y0273288D01*
X0050355Y0270665D01*
X0050355Y0267950D01*
X0051058Y0265327D01*
X0052416Y0262976D01*
X0054336Y0261056D01*
X0056687Y0259699D01*
X0059310Y0258996D01*
X0062025Y0258996D01*
X0059246Y0259013D02*
X0045300Y0259013D01*
X0045300Y0259811D02*
X0056491Y0259811D01*
X0055108Y0260610D02*
X0045300Y0260610D01*
X0045300Y0261408D02*
X0053983Y0261408D01*
X0053185Y0262207D02*
X0045300Y0262207D01*
X0045300Y0263005D02*
X0052399Y0263005D01*
X0051938Y0263804D02*
X0045300Y0263804D01*
X0045300Y0264603D02*
X0051477Y0264603D01*
X0051038Y0265401D02*
X0045300Y0265401D01*
X0045300Y0266200D02*
X0050825Y0266200D01*
X0050611Y0266998D02*
X0045300Y0266998D01*
X0045300Y0267797D02*
X0050397Y0267797D01*
X0050355Y0268595D02*
X0045300Y0268595D01*
X0045300Y0269394D02*
X0050355Y0269394D01*
X0050355Y0270192D02*
X0045300Y0270192D01*
X0045300Y0270991D02*
X0050443Y0270991D01*
X0050657Y0271789D02*
X0045300Y0271789D01*
X0045300Y0272588D02*
X0050871Y0272588D01*
X0051115Y0273386D02*
X0045300Y0273386D01*
X0045300Y0274185D02*
X0051576Y0274185D01*
X0052037Y0274983D02*
X0045300Y0274983D01*
X0045300Y0275782D02*
X0052558Y0275782D01*
X0053357Y0276580D02*
X0045300Y0276580D01*
X0045300Y0277379D02*
X0054155Y0277379D01*
X0055406Y0278177D02*
X0045300Y0278177D01*
X0045300Y0278976D02*
X0056908Y0278976D01*
X0064427Y0278976D02*
X0102443Y0278976D01*
X0101648Y0278177D02*
X0065928Y0278177D01*
X0067179Y0277379D02*
X0101187Y0277379D01*
X0100726Y0276580D02*
X0067978Y0276580D01*
X0068776Y0275782D02*
X0100280Y0275782D01*
X0100067Y0274983D02*
X0069298Y0274983D01*
X0069759Y0274185D02*
X0099853Y0274185D01*
X0099639Y0273386D02*
X0070220Y0273386D01*
X0070464Y0272588D02*
X0099592Y0272588D01*
X0099592Y0271789D02*
X0070678Y0271789D01*
X0070892Y0270991D02*
X0099592Y0270991D01*
X0099673Y0270192D02*
X0070979Y0270192D01*
X0070979Y0269394D02*
X0099887Y0269394D01*
X0100101Y0268595D02*
X0070979Y0268595D01*
X0070938Y0267797D02*
X0100338Y0267797D01*
X0100799Y0266998D02*
X0070724Y0266998D01*
X0070510Y0266200D02*
X0101260Y0266200D01*
X0101772Y0265401D02*
X0070296Y0265401D01*
X0069858Y0264603D02*
X0102571Y0264603D01*
X0103369Y0263804D02*
X0069397Y0263804D01*
X0068936Y0263005D02*
X0104604Y0263005D01*
X0106061Y0262207D02*
X0068150Y0262207D01*
X0067351Y0261408D02*
X0152192Y0261408D01*
X0151394Y0262207D02*
X0113746Y0262207D01*
X0115203Y0263005D02*
X0150608Y0263005D01*
X0150147Y0263804D02*
X0116437Y0263804D01*
X0117236Y0264603D02*
X0149686Y0264603D01*
X0149247Y0265401D02*
X0118034Y0265401D01*
X0118546Y0266200D02*
X0149033Y0266200D01*
X0148819Y0266998D02*
X0119007Y0266998D01*
X0119468Y0267797D02*
X0148605Y0267797D01*
X0148564Y0268595D02*
X0119706Y0268595D01*
X0119920Y0269394D02*
X0148564Y0269394D01*
X0148564Y0270192D02*
X0120134Y0270192D01*
X0120215Y0270991D02*
X0148652Y0270991D01*
X0148865Y0271789D02*
X0120215Y0271789D01*
X0120215Y0272588D02*
X0149079Y0272588D01*
X0149324Y0273386D02*
X0120168Y0273386D01*
X0119954Y0274185D02*
X0149785Y0274185D01*
X0150246Y0274983D02*
X0119740Y0274983D01*
X0119526Y0275782D02*
X0150767Y0275782D01*
X0151566Y0276580D02*
X0119081Y0276580D01*
X0118620Y0277379D02*
X0152364Y0277379D01*
X0153615Y0278177D02*
X0118159Y0278177D01*
X0117364Y0278976D02*
X0155116Y0278976D01*
X0162636Y0278976D02*
X0174621Y0278976D01*
X0174621Y0279774D02*
X0116565Y0279774D01*
X0115424Y0280573D02*
X0174621Y0280573D01*
X0174621Y0278177D02*
X0164137Y0278177D01*
X0165388Y0277379D02*
X0174621Y0277379D01*
X0174621Y0276580D02*
X0166187Y0276580D01*
X0166985Y0275782D02*
X0174621Y0275782D01*
X0174621Y0274983D02*
X0167506Y0274983D01*
X0167967Y0274185D02*
X0174621Y0274185D01*
X0174621Y0273386D02*
X0168428Y0273386D01*
X0168673Y0272588D02*
X0174621Y0272588D01*
X0174621Y0271789D02*
X0168887Y0271789D01*
X0169101Y0270991D02*
X0174621Y0270991D01*
X0174621Y0270192D02*
X0169188Y0270192D01*
X0169188Y0269394D02*
X0174621Y0269394D01*
X0174621Y0268595D02*
X0169188Y0268595D01*
X0169147Y0267797D02*
X0174621Y0267797D01*
X0174621Y0266998D02*
X0168933Y0266998D01*
X0168719Y0266200D02*
X0174621Y0266200D01*
X0174621Y0265401D02*
X0168505Y0265401D01*
X0168067Y0264603D02*
X0174621Y0264603D01*
X0174621Y0263804D02*
X0167606Y0263804D01*
X0167145Y0263005D02*
X0174621Y0263005D01*
X0174621Y0262207D02*
X0166359Y0262207D01*
X0165560Y0261408D02*
X0174621Y0261408D01*
X0174621Y0260610D02*
X0164435Y0260610D01*
X0163052Y0259811D02*
X0174621Y0259811D01*
X0154700Y0259811D02*
X0064843Y0259811D01*
X0066226Y0260610D02*
X0153317Y0260610D01*
X0104383Y0280573D02*
X0045300Y0280573D01*
X0045300Y0279774D02*
X0103241Y0279774D01*
X0078025Y0247035D02*
X0045300Y0247035D01*
X0045300Y0246237D02*
X0077227Y0246237D01*
X0076823Y0245438D02*
X0045300Y0245438D01*
X0045300Y0244640D02*
X0076493Y0244640D01*
X0076471Y0243841D02*
X0045300Y0243841D01*
X0086925Y0227871D02*
X0092232Y0227871D01*
X0091346Y0228670D02*
X0087812Y0228670D01*
X0088395Y0229468D02*
X0090547Y0229468D01*
X0089749Y0230267D02*
X0088726Y0230267D01*
X0088875Y0231065D02*
X0088950Y0231065D01*
X0096634Y0227871D02*
X0103992Y0227871D01*
X0103106Y0228670D02*
X0097520Y0228670D01*
X0098318Y0229468D02*
X0102307Y0229468D01*
X0101509Y0230267D02*
X0099117Y0230267D01*
X0099916Y0231065D02*
X0100710Y0231065D01*
X0149828Y0198326D02*
X0159752Y0198326D01*
X0159625Y0197528D02*
X0150626Y0197528D01*
X0151425Y0196729D02*
X0159625Y0196729D01*
X0159625Y0195931D02*
X0152223Y0195931D01*
X0153022Y0195132D02*
X0159936Y0195132D01*
X0160267Y0194334D02*
X0153820Y0194334D01*
X0154619Y0193535D02*
X0160815Y0193535D01*
X0161614Y0192737D02*
X0155418Y0192737D01*
X0156216Y0191938D02*
X0162994Y0191938D01*
X0167006Y0191938D02*
X0174621Y0191938D01*
X0174621Y0192737D02*
X0168386Y0192737D01*
X0169185Y0193535D02*
X0174621Y0193535D01*
X0174621Y0194334D02*
X0169733Y0194334D01*
X0170064Y0195132D02*
X0174621Y0195132D01*
X0174621Y0195931D02*
X0170375Y0195931D01*
X0170375Y0196729D02*
X0174621Y0196729D01*
X0174621Y0197528D02*
X0170375Y0197528D01*
X0170248Y0198326D02*
X0174621Y0198326D01*
X0174621Y0199125D02*
X0169917Y0199125D01*
X0169587Y0199923D02*
X0174621Y0199923D01*
X0174621Y0200722D02*
X0168831Y0200722D01*
X0168015Y0201520D02*
X0174621Y0201520D01*
X0174621Y0202319D02*
X0167861Y0202319D01*
X0168767Y0203117D02*
X0174621Y0203117D01*
X0174621Y0203916D02*
X0169560Y0203916D01*
X0169891Y0204714D02*
X0174621Y0204714D01*
X0174621Y0205513D02*
X0170222Y0205513D01*
X0170375Y0206311D02*
X0174621Y0206311D01*
X0174621Y0207110D02*
X0170375Y0207110D01*
X0170375Y0207908D02*
X0174621Y0207908D01*
X0174621Y0208707D02*
X0170090Y0208707D01*
X0169760Y0209505D02*
X0174621Y0209505D01*
X0174621Y0210304D02*
X0169249Y0210304D01*
X0168450Y0211102D02*
X0174621Y0211102D01*
X0174621Y0191139D02*
X0168413Y0191139D01*
X0169211Y0190341D02*
X0174621Y0190341D01*
X0174621Y0189542D02*
X0169744Y0189542D01*
X0170075Y0188744D02*
X0174621Y0188744D01*
X0174621Y0187945D02*
X0170375Y0187945D01*
X0170375Y0187147D02*
X0174621Y0187147D01*
X0174621Y0186348D02*
X0170375Y0186348D01*
X0170237Y0185550D02*
X0174621Y0185550D01*
X0174621Y0184751D02*
X0169906Y0184751D01*
X0169576Y0183953D02*
X0174621Y0183953D01*
X0174621Y0183154D02*
X0168804Y0183154D01*
X0167951Y0182356D02*
X0174621Y0182356D01*
X0147764Y0187945D02*
X0147610Y0187945D01*
X0146965Y0188744D02*
X0146812Y0188744D01*
X0146166Y0189542D02*
X0145230Y0189542D01*
X0052994Y0191938D02*
X0045300Y0191938D01*
D19*
X0118750Y0095701D03*
D20*
X0158876Y0064608D03*
X0109903Y0142325D03*
X0060667Y0064608D03*
X0060667Y0269308D03*
X0109903Y0271853D03*
X0158876Y0269308D03*
M02*
