G75*
G70*
%OFA0B0*%
%FSLAX24Y24*%
%IPPOS*%
%LPD*%
%AMOC8*
5,1,8,0,0,1.08239X$1,22.5*
%
%ADD10C,0.0000*%
%ADD11R,0.0394X0.0492*%
%ADD12R,0.0492X0.0394*%
%ADD13R,0.0945X0.0945*%
%ADD14C,0.0740*%
%ADD15R,0.0787X0.0472*%
%ADD16R,0.0472X0.0787*%
%ADD17R,0.0354X0.0315*%
%ADD18R,0.0551X0.0394*%
%ADD19R,0.0551X0.0433*%
%ADD20R,0.0433X0.0551*%
%ADD21R,0.1024X0.0551*%
%ADD22R,0.1000X0.0500*%
%ADD23R,0.1260X0.0472*%
%ADD24C,0.0240*%
%ADD25C,0.1000*%
%ADD26C,0.0160*%
D10*
X004180Y005180D02*
X004180Y033550D01*
X029172Y033550D01*
X029172Y005180D01*
X004180Y005180D01*
D11*
X016786Y017680D03*
X017574Y017680D03*
X009574Y024180D03*
X008786Y024180D03*
D12*
X016680Y026786D03*
X016680Y027574D03*
X022680Y007574D03*
X022680Y006786D03*
D13*
X016180Y023314D03*
X016180Y025046D03*
X014680Y028814D03*
X014680Y030546D03*
X010046Y026180D03*
X008314Y026180D03*
D14*
X007180Y028680D03*
X007180Y029680D03*
D15*
X014302Y014893D03*
X014302Y014105D03*
X014302Y013318D03*
X014302Y012530D03*
X014302Y011743D03*
X014302Y010956D03*
X014302Y010168D03*
X014302Y009381D03*
X020680Y009381D03*
X020680Y010168D03*
X020680Y010956D03*
X020680Y011743D03*
X020680Y012530D03*
X020680Y013318D03*
X020680Y014105D03*
X020680Y014893D03*
D16*
X019499Y015680D03*
X018711Y015680D03*
X017924Y015680D03*
X017137Y015680D03*
X016349Y015680D03*
X015562Y015680D03*
D17*
X013074Y026806D03*
X013074Y027554D03*
X012286Y027180D03*
D18*
X014747Y027180D03*
X015613Y026806D03*
X015613Y027554D03*
X007613Y031306D03*
X007613Y032054D03*
X006747Y031680D03*
D19*
X012680Y030024D03*
X012680Y029336D03*
X013680Y024524D03*
X013680Y023836D03*
X017680Y026836D03*
X017680Y027524D03*
X018180Y024524D03*
X018180Y023836D03*
D20*
X010524Y031680D03*
X009836Y031680D03*
X011336Y014680D03*
X012024Y014680D03*
X012024Y013180D03*
X011336Y013180D03*
X011336Y012180D03*
X012024Y012180D03*
X024836Y011180D03*
X025524Y011180D03*
D21*
X017987Y019680D03*
X016373Y019680D03*
D22*
X007680Y013180D03*
X007680Y012180D03*
X007680Y011180D03*
X007680Y010180D03*
X007680Y009180D03*
X007680Y008180D03*
D23*
X024841Y007967D03*
X024841Y006393D03*
X027519Y006393D03*
X027519Y007967D03*
D24*
X024841Y007967D01*
X024841Y008019D01*
X023479Y009381D01*
X022680Y009381D01*
X022680Y007574D01*
X022680Y009381D02*
X020680Y009381D01*
X020680Y010956D02*
X023456Y010956D01*
X023680Y011180D01*
X024836Y011180D01*
X025524Y011180D02*
X025524Y013336D01*
X023180Y015680D01*
X020680Y015680D01*
X020680Y014893D01*
X020680Y015680D02*
X020680Y016680D01*
X019680Y017680D01*
X018180Y017680D01*
X017987Y017873D01*
X017987Y019680D01*
X017987Y020373D01*
X017180Y021180D01*
X009180Y021180D01*
X005680Y017680D01*
X005680Y014680D01*
X009180Y014680D01*
X010680Y013180D01*
X011336Y013180D01*
X012024Y013180D02*
X012180Y013180D01*
X012318Y013318D01*
X014302Y013318D01*
X014302Y014105D02*
X013255Y014105D01*
X012680Y014680D01*
X012024Y014680D01*
X013030Y012530D02*
X012680Y012180D01*
X012024Y012180D01*
X013030Y012530D02*
X014302Y012530D01*
X014302Y010168D02*
X011692Y010168D01*
X009680Y012180D01*
X007680Y012180D01*
X007680Y011180D02*
X009180Y011180D01*
X010979Y009381D01*
X014302Y009381D01*
X007680Y010180D02*
X006180Y010180D01*
X005680Y010680D01*
X005680Y014680D01*
X009180Y021680D02*
X008786Y022074D01*
X008786Y024180D01*
X008314Y024652D01*
X008314Y026180D01*
X007180Y027314D01*
X007180Y028680D01*
X007180Y029680D02*
X007613Y030113D01*
X007613Y030180D01*
X008458Y029336D01*
X012680Y029336D01*
X013074Y028942D01*
X013074Y027554D01*
X013074Y026806D02*
X014373Y026806D01*
X014747Y027180D01*
X014680Y027247D01*
X014680Y028814D01*
X014158Y030024D02*
X014680Y030546D01*
X014158Y030024D02*
X012680Y030024D01*
X012336Y030024D01*
X010680Y031680D01*
X010524Y031680D01*
X009836Y031680D02*
X009461Y032054D01*
X007613Y032054D01*
X007613Y031306D02*
X007613Y030180D01*
X010046Y026180D02*
X011180Y026180D01*
X012836Y024524D01*
X013680Y024524D01*
X013680Y023836D02*
X014202Y023314D01*
X016180Y023314D01*
X017658Y023314D01*
X017658Y023202D01*
X019180Y021680D01*
X020680Y021680D01*
X018180Y023836D02*
X017658Y023314D01*
X018180Y024524D02*
X017658Y025046D01*
X016180Y025046D01*
X016680Y025046D01*
X016680Y026786D01*
X016680Y026836D01*
X017680Y026836D01*
X016680Y026806D02*
X016680Y026786D01*
X016680Y026806D02*
X015613Y026806D01*
X012286Y027180D02*
X011286Y026180D01*
X011180Y026180D01*
X017574Y017680D02*
X018180Y017680D01*
X020680Y014105D02*
X022755Y014105D01*
D25*
X023680Y013180D01*
X021180Y021180D02*
X020680Y021680D01*
D26*
X019935Y021180D02*
X020682Y020434D01*
X021005Y020300D01*
X021355Y020300D01*
X021678Y020434D01*
X021926Y020682D01*
X022060Y021005D01*
X022060Y021355D01*
X021926Y021678D01*
X021178Y022426D01*
X020855Y022560D01*
X020505Y022560D01*
X020182Y022426D01*
X019935Y022180D01*
X019387Y022180D01*
X018328Y023239D01*
X018531Y023239D01*
X018671Y023297D01*
X018778Y023404D01*
X018836Y023543D01*
X018836Y024128D01*
X018814Y024180D01*
X018836Y024232D01*
X018836Y024817D01*
X018778Y024956D01*
X018671Y025063D01*
X018531Y025121D01*
X018291Y025121D01*
X018082Y025329D01*
X017942Y025470D01*
X017758Y025546D01*
X017180Y025546D01*
X017180Y026306D01*
X017189Y026297D01*
X017329Y026239D01*
X018031Y026239D01*
X018171Y026297D01*
X018278Y026404D01*
X018336Y026543D01*
X018336Y027128D01*
X018278Y027267D01*
X018171Y027374D01*
X018031Y027432D01*
X017329Y027432D01*
X017189Y027374D01*
X017150Y027336D01*
X017068Y027336D01*
X017002Y027363D01*
X016358Y027363D01*
X016220Y027306D01*
X016123Y027306D01*
X016104Y027325D01*
X015964Y027383D01*
X015403Y027383D01*
X015403Y027452D01*
X015345Y027592D01*
X015238Y027699D01*
X015180Y027723D01*
X015180Y027961D01*
X015228Y027961D01*
X015368Y028019D01*
X015475Y028126D01*
X015532Y028266D01*
X015532Y029362D01*
X015475Y029502D01*
X015368Y029608D01*
X015228Y029666D01*
X014507Y029666D01*
X014535Y029694D01*
X015228Y029694D01*
X015368Y029752D01*
X015475Y029858D01*
X015532Y029998D01*
X015532Y031094D01*
X015475Y031234D01*
X015368Y031341D01*
X015228Y031399D01*
X014132Y031399D01*
X013992Y031341D01*
X013885Y031234D01*
X013828Y031094D01*
X013828Y030524D01*
X013210Y030524D01*
X013171Y030563D01*
X013031Y030621D01*
X012446Y030621D01*
X011121Y031946D01*
X011121Y032031D01*
X011063Y032171D01*
X010956Y032278D01*
X010817Y032336D01*
X010232Y032336D01*
X010180Y032314D01*
X010128Y032336D01*
X009887Y032336D01*
X009745Y032478D01*
X009561Y032554D01*
X008123Y032554D01*
X008104Y032573D01*
X007964Y032631D01*
X007262Y032631D01*
X007122Y032573D01*
X007015Y032466D01*
X006957Y032326D01*
X006957Y031782D01*
X007000Y031680D01*
X006957Y031578D01*
X006957Y031034D01*
X007015Y030894D01*
X007113Y030796D01*
X007113Y030430D01*
X007031Y030430D01*
X006755Y030316D01*
X006544Y030105D01*
X006430Y029829D01*
X006430Y029531D01*
X006544Y029255D01*
X006619Y029180D01*
X006544Y029105D01*
X006430Y028829D01*
X006430Y028531D01*
X006544Y028255D01*
X006680Y028119D01*
X006680Y027214D01*
X006756Y027031D01*
X006897Y026890D01*
X007461Y026325D01*
X007461Y025632D01*
X007519Y025492D01*
X007626Y025385D01*
X007766Y025328D01*
X007814Y025328D01*
X007814Y024553D01*
X007890Y024369D01*
X008031Y024229D01*
X008209Y024050D01*
X008209Y023858D01*
X008267Y023719D01*
X008286Y023700D01*
X008286Y021974D01*
X008362Y021790D01*
X008723Y021430D01*
X005256Y017963D01*
X005180Y017779D01*
X005180Y010581D01*
X005256Y010397D01*
X005397Y010256D01*
X005897Y009756D01*
X006081Y009680D01*
X006893Y009680D01*
X006858Y009645D01*
X006800Y009506D01*
X006800Y008854D01*
X006858Y008715D01*
X006965Y008608D01*
X007104Y008550D01*
X008256Y008550D01*
X008395Y008608D01*
X008502Y008715D01*
X008560Y008854D01*
X008560Y009506D01*
X008502Y009645D01*
X008467Y009680D01*
X008502Y009715D01*
X008560Y009854D01*
X008560Y010506D01*
X008502Y010645D01*
X008467Y010680D01*
X008467Y010680D01*
X008973Y010680D01*
X010555Y009098D01*
X010696Y008957D01*
X010880Y008881D01*
X013635Y008881D01*
X013693Y008822D01*
X013800Y008778D01*
X013800Y006104D01*
X013858Y005965D01*
X013965Y005858D01*
X014104Y005800D01*
X020756Y005800D01*
X020895Y005858D01*
X021002Y005965D01*
X021060Y006104D01*
X021060Y008765D01*
X021149Y008765D01*
X021289Y008822D01*
X021347Y008881D01*
X022180Y008881D01*
X022180Y008054D01*
X022112Y007986D01*
X022054Y007846D01*
X022054Y007301D01*
X022112Y007162D01*
X022219Y007055D01*
X022358Y006997D01*
X023002Y006997D01*
X023141Y007055D01*
X023248Y007162D01*
X023306Y007301D01*
X023306Y007846D01*
X023248Y007986D01*
X023180Y008054D01*
X023180Y008881D01*
X023272Y008881D01*
X023844Y008309D01*
X023831Y008279D01*
X023831Y007656D01*
X023889Y007516D01*
X023996Y007409D01*
X024136Y007351D01*
X025547Y007351D01*
X025687Y007409D01*
X025745Y007467D01*
X026615Y007467D01*
X026673Y007409D01*
X026813Y007351D01*
X028224Y007351D01*
X028364Y007409D01*
X028471Y007516D01*
X028529Y007656D01*
X028529Y008279D01*
X028471Y008419D01*
X028364Y008526D01*
X028224Y008584D01*
X026813Y008584D01*
X026673Y008526D01*
X026615Y008467D01*
X025745Y008467D01*
X025687Y008526D01*
X025547Y008584D01*
X024983Y008584D01*
X023762Y009805D01*
X023579Y009881D01*
X021454Y009881D01*
X021454Y010456D01*
X023555Y010456D01*
X023739Y010532D01*
X023887Y010680D01*
X024306Y010680D01*
X024404Y010582D01*
X024543Y010524D01*
X025128Y010524D01*
X025180Y010546D01*
X025232Y010524D01*
X025817Y010524D01*
X025956Y010582D01*
X026063Y010689D01*
X026121Y010829D01*
X026121Y011531D01*
X026063Y011671D01*
X026024Y011710D01*
X026024Y013435D01*
X025948Y013619D01*
X023604Y015963D01*
X023463Y016104D01*
X023279Y016180D01*
X021180Y016180D01*
X021180Y016779D01*
X021104Y016963D01*
X020963Y017104D01*
X019963Y018104D01*
X019779Y018180D01*
X018487Y018180D01*
X018487Y019024D01*
X018574Y019024D01*
X018714Y019082D01*
X018821Y019189D01*
X018879Y019329D01*
X018879Y020031D01*
X018821Y020171D01*
X018714Y020278D01*
X018574Y020336D01*
X018487Y020336D01*
X018487Y020472D01*
X018411Y020656D01*
X017604Y021463D01*
X017463Y021604D01*
X017279Y021680D01*
X009680Y021680D01*
X009680Y021779D01*
X009604Y021963D01*
X009286Y022281D01*
X009286Y023700D01*
X009305Y023719D01*
X009363Y023858D01*
X009363Y024502D01*
X009305Y024641D01*
X009198Y024748D01*
X009059Y024806D01*
X008867Y024806D01*
X008814Y024860D01*
X008814Y025328D01*
X008862Y025328D01*
X009002Y025385D01*
X009108Y025492D01*
X009166Y025632D01*
X009166Y026728D01*
X009108Y026868D01*
X009002Y026975D01*
X008862Y027032D01*
X008169Y027032D01*
X007680Y027521D01*
X007680Y028119D01*
X007816Y028255D01*
X007930Y028531D01*
X007930Y028829D01*
X007816Y029105D01*
X007741Y029180D01*
X007816Y029255D01*
X007820Y029266D01*
X008174Y028912D01*
X008358Y028836D01*
X012150Y028836D01*
X012189Y028797D01*
X012329Y028739D01*
X012569Y028739D01*
X012574Y028735D01*
X012574Y027925D01*
X012517Y027787D01*
X012517Y027717D01*
X012034Y027717D01*
X011894Y027660D01*
X011787Y027553D01*
X011729Y027413D01*
X011729Y027330D01*
X011079Y026680D01*
X010899Y026680D01*
X010899Y026728D01*
X010841Y026868D01*
X010734Y026975D01*
X010594Y027032D01*
X009498Y027032D01*
X009358Y026975D01*
X009252Y026868D01*
X009194Y026728D01*
X009194Y025632D01*
X009252Y025492D01*
X009358Y025385D01*
X009498Y025328D01*
X010594Y025328D01*
X010734Y025385D01*
X010841Y025492D01*
X010899Y025632D01*
X010899Y025680D01*
X010973Y025680D01*
X012552Y024101D01*
X012736Y024024D01*
X013024Y024024D01*
X013024Y023543D01*
X013082Y023404D01*
X013189Y023297D01*
X013329Y023239D01*
X013569Y023239D01*
X013918Y022890D01*
X014102Y022814D01*
X015328Y022814D01*
X015328Y022766D01*
X015385Y022626D01*
X015492Y022519D01*
X015632Y022461D01*
X016728Y022461D01*
X016868Y022519D01*
X016975Y022626D01*
X017032Y022766D01*
X017032Y022814D01*
X017339Y022814D01*
X018756Y021397D01*
X018897Y021256D01*
X019081Y021180D01*
X019935Y021180D01*
X020085Y021030D02*
X018037Y021030D01*
X017879Y021189D02*
X019060Y021189D01*
X018806Y021347D02*
X017720Y021347D01*
X017562Y021506D02*
X018647Y021506D01*
X018489Y021664D02*
X017318Y021664D01*
X017855Y022298D02*
X009286Y022298D01*
X009286Y022457D02*
X017696Y022457D01*
X017538Y022615D02*
X016963Y022615D01*
X017032Y022774D02*
X017379Y022774D01*
X018013Y022140D02*
X009428Y022140D01*
X009586Y021981D02*
X018172Y021981D01*
X018330Y021823D02*
X009662Y021823D01*
X009286Y022615D02*
X015397Y022615D01*
X015328Y022774D02*
X009286Y022774D01*
X009286Y022932D02*
X013876Y022932D01*
X013718Y023091D02*
X009286Y023091D01*
X009286Y023249D02*
X013305Y023249D01*
X013081Y023408D02*
X009286Y023408D01*
X009286Y023566D02*
X013024Y023566D01*
X013024Y023725D02*
X009308Y023725D01*
X009363Y023883D02*
X013024Y023883D01*
X012695Y024042D02*
X009363Y024042D01*
X009363Y024200D02*
X012453Y024200D01*
X012294Y024359D02*
X009363Y024359D01*
X009357Y024517D02*
X012136Y024517D01*
X011977Y024676D02*
X009271Y024676D01*
X008839Y024834D02*
X011819Y024834D01*
X011660Y024993D02*
X008814Y024993D01*
X008814Y025151D02*
X011502Y025151D01*
X011343Y025310D02*
X008814Y025310D01*
X009084Y025468D02*
X009276Y025468D01*
X009196Y025627D02*
X009164Y025627D01*
X009166Y025785D02*
X009194Y025785D01*
X009194Y025944D02*
X009166Y025944D01*
X009166Y026102D02*
X009194Y026102D01*
X009194Y026261D02*
X009166Y026261D01*
X009166Y026419D02*
X009194Y026419D01*
X009194Y026578D02*
X009166Y026578D01*
X009163Y026736D02*
X009197Y026736D01*
X009278Y026895D02*
X009082Y026895D01*
X008148Y027053D02*
X011452Y027053D01*
X011294Y026895D02*
X010814Y026895D01*
X010895Y026736D02*
X011135Y026736D01*
X011611Y027212D02*
X007989Y027212D01*
X007831Y027370D02*
X011729Y027370D01*
X011777Y027529D02*
X007680Y027529D01*
X007680Y027687D02*
X011960Y027687D01*
X012541Y027846D02*
X007680Y027846D01*
X007680Y028004D02*
X012574Y028004D01*
X012574Y028163D02*
X007723Y028163D01*
X007843Y028321D02*
X012574Y028321D01*
X012574Y028480D02*
X007909Y028480D01*
X007930Y028638D02*
X012574Y028638D01*
X012190Y028797D02*
X007930Y028797D01*
X007878Y028955D02*
X008131Y028955D01*
X007972Y029114D02*
X007807Y029114D01*
X006553Y029114D02*
X004660Y029114D01*
X004660Y029272D02*
X006537Y029272D01*
X006472Y029431D02*
X004660Y029431D01*
X004660Y029589D02*
X006430Y029589D01*
X006430Y029748D02*
X004660Y029748D01*
X004660Y029906D02*
X006462Y029906D01*
X006527Y030065D02*
X004660Y030065D01*
X004660Y030223D02*
X006662Y030223D01*
X006914Y030382D02*
X004660Y030382D01*
X004660Y030540D02*
X007113Y030540D01*
X007113Y030699D02*
X004660Y030699D01*
X004660Y030857D02*
X007052Y030857D01*
X006965Y031016D02*
X004660Y031016D01*
X004660Y031174D02*
X006957Y031174D01*
X006957Y031333D02*
X004660Y031333D01*
X004660Y031491D02*
X006957Y031491D01*
X006987Y031650D02*
X004660Y031650D01*
X004660Y031808D02*
X006957Y031808D01*
X006957Y031967D02*
X004660Y031967D01*
X004660Y032125D02*
X006957Y032125D01*
X006957Y032284D02*
X004660Y032284D01*
X004660Y032442D02*
X007005Y032442D01*
X007189Y032601D02*
X004660Y032601D01*
X004660Y032759D02*
X028692Y032759D01*
X028692Y032601D02*
X008037Y032601D01*
X009781Y032442D02*
X028692Y032442D01*
X028692Y032284D02*
X010942Y032284D01*
X011082Y032125D02*
X028692Y032125D01*
X028692Y031967D02*
X011121Y031967D01*
X011259Y031808D02*
X028692Y031808D01*
X028692Y031650D02*
X011418Y031650D01*
X011576Y031491D02*
X028692Y031491D01*
X028692Y031333D02*
X015376Y031333D01*
X015499Y031174D02*
X028692Y031174D01*
X028692Y031016D02*
X015532Y031016D01*
X015532Y030857D02*
X028692Y030857D01*
X028692Y030699D02*
X015532Y030699D01*
X015532Y030540D02*
X028692Y030540D01*
X028692Y030382D02*
X015532Y030382D01*
X015532Y030223D02*
X028692Y030223D01*
X028692Y030065D02*
X015532Y030065D01*
X015494Y029906D02*
X028692Y029906D01*
X028692Y029748D02*
X015358Y029748D01*
X015387Y029589D02*
X028692Y029589D01*
X028692Y029431D02*
X015504Y029431D01*
X015532Y029272D02*
X028692Y029272D01*
X028692Y029114D02*
X015532Y029114D01*
X015532Y028955D02*
X028692Y028955D01*
X028692Y028797D02*
X015532Y028797D01*
X015532Y028638D02*
X028692Y028638D01*
X028692Y028480D02*
X015532Y028480D01*
X015532Y028321D02*
X028692Y028321D01*
X028692Y028163D02*
X015490Y028163D01*
X015331Y028004D02*
X028692Y028004D01*
X028692Y027846D02*
X015180Y027846D01*
X015250Y027687D02*
X028692Y027687D01*
X028692Y027529D02*
X015371Y027529D01*
X015995Y027370D02*
X017185Y027370D01*
X018175Y027370D02*
X028692Y027370D01*
X028692Y027212D02*
X018301Y027212D01*
X018336Y027053D02*
X028692Y027053D01*
X028692Y026895D02*
X018336Y026895D01*
X018336Y026736D02*
X028692Y026736D01*
X028692Y026578D02*
X018336Y026578D01*
X018284Y026419D02*
X028692Y026419D01*
X028692Y026261D02*
X018083Y026261D01*
X017944Y025468D02*
X028692Y025468D01*
X028692Y025310D02*
X018102Y025310D01*
X018261Y025151D02*
X028692Y025151D01*
X028692Y024993D02*
X018741Y024993D01*
X018828Y024834D02*
X028692Y024834D01*
X028692Y024676D02*
X018836Y024676D01*
X018836Y024517D02*
X028692Y024517D01*
X028692Y024359D02*
X018836Y024359D01*
X018822Y024200D02*
X028692Y024200D01*
X028692Y024042D02*
X018836Y024042D01*
X018836Y023883D02*
X028692Y023883D01*
X028692Y023725D02*
X018836Y023725D01*
X018836Y023566D02*
X028692Y023566D01*
X028692Y023408D02*
X018779Y023408D01*
X018555Y023249D02*
X028692Y023249D01*
X028692Y023091D02*
X018477Y023091D01*
X018635Y022932D02*
X028692Y022932D01*
X028692Y022774D02*
X018794Y022774D01*
X018952Y022615D02*
X028692Y022615D01*
X028692Y022457D02*
X021105Y022457D01*
X021306Y022298D02*
X028692Y022298D01*
X028692Y022140D02*
X021465Y022140D01*
X021623Y021981D02*
X028692Y021981D01*
X028692Y021823D02*
X021782Y021823D01*
X021932Y021664D02*
X028692Y021664D01*
X028692Y021506D02*
X021998Y021506D01*
X022060Y021347D02*
X028692Y021347D01*
X028692Y021189D02*
X022060Y021189D01*
X022060Y021030D02*
X028692Y021030D01*
X028692Y020872D02*
X022005Y020872D01*
X021939Y020713D02*
X028692Y020713D01*
X028692Y020555D02*
X021799Y020555D01*
X021587Y020396D02*
X028692Y020396D01*
X028692Y020238D02*
X018754Y020238D01*
X018859Y020079D02*
X028692Y020079D01*
X028692Y019921D02*
X018879Y019921D01*
X018879Y019762D02*
X028692Y019762D01*
X028692Y019604D02*
X018879Y019604D01*
X018879Y019445D02*
X028692Y019445D01*
X028692Y019287D02*
X018861Y019287D01*
X018760Y019128D02*
X028692Y019128D01*
X028692Y018970D02*
X018487Y018970D01*
X018487Y018811D02*
X028692Y018811D01*
X028692Y018653D02*
X018487Y018653D01*
X018487Y018494D02*
X028692Y018494D01*
X028692Y018336D02*
X018487Y018336D01*
X017487Y018336D02*
X007043Y018336D01*
X007201Y018494D02*
X017487Y018494D01*
X017487Y018653D02*
X007360Y018653D01*
X007518Y018811D02*
X017487Y018811D01*
X017487Y018970D02*
X007677Y018970D01*
X007835Y019128D02*
X017214Y019128D01*
X017260Y019082D02*
X017400Y019024D01*
X017487Y019024D01*
X017487Y018306D01*
X017301Y018306D01*
X017162Y018248D01*
X017055Y018141D01*
X016997Y018002D01*
X016997Y017358D01*
X017055Y017219D01*
X017162Y017112D01*
X017301Y017054D01*
X017846Y017054D01*
X017986Y017112D01*
X018054Y017180D01*
X019473Y017180D01*
X020180Y016473D01*
X020180Y015496D01*
X020115Y015469D01*
X020115Y016149D01*
X020057Y016289D01*
X019950Y016396D01*
X019811Y016454D01*
X019187Y016454D01*
X019105Y016420D01*
X019023Y016454D01*
X018400Y016454D01*
X018318Y016420D01*
X018236Y016454D01*
X017612Y016454D01*
X017530Y016420D01*
X017449Y016454D01*
X016825Y016454D01*
X016743Y016420D01*
X016661Y016454D01*
X016037Y016454D01*
X015956Y016420D01*
X015874Y016454D01*
X015250Y016454D01*
X015110Y016396D01*
X015004Y016289D01*
X014946Y016149D01*
X014946Y015211D01*
X015004Y015071D01*
X015110Y014964D01*
X015250Y014906D01*
X015874Y014906D01*
X015956Y014940D01*
X016037Y014906D01*
X016661Y014906D01*
X016743Y014940D01*
X016825Y014906D01*
X017449Y014906D01*
X017530Y014940D01*
X017612Y014906D01*
X018236Y014906D01*
X018318Y014940D01*
X018400Y014906D01*
X019023Y014906D01*
X019105Y014940D01*
X019187Y014906D01*
X019811Y014906D01*
X019906Y014946D01*
X019906Y014581D01*
X019940Y014499D01*
X019906Y014417D01*
X019906Y013793D01*
X019940Y013711D01*
X019906Y013630D01*
X019906Y013006D01*
X019940Y012924D01*
X019906Y012842D01*
X019906Y012219D01*
X019940Y012137D01*
X019906Y012055D01*
X019906Y011431D01*
X019940Y011349D01*
X019906Y011267D01*
X019906Y010644D01*
X019940Y010562D01*
X019906Y010480D01*
X019906Y009856D01*
X019940Y009774D01*
X019906Y009693D01*
X019906Y009310D01*
X015076Y009310D01*
X015076Y009693D01*
X015042Y009774D01*
X015076Y009856D01*
X015076Y010480D01*
X015042Y010562D01*
X015076Y010644D01*
X015076Y011267D01*
X015042Y011349D01*
X015076Y011431D01*
X015076Y012055D01*
X015042Y012137D01*
X015076Y012219D01*
X015076Y012842D01*
X015042Y012924D01*
X015076Y013006D01*
X015076Y013630D01*
X015042Y013711D01*
X015076Y013793D01*
X015076Y014417D01*
X015018Y014557D01*
X014911Y014664D01*
X014771Y014721D01*
X013833Y014721D01*
X013693Y014664D01*
X013635Y014605D01*
X013462Y014605D01*
X013104Y014963D01*
X012963Y015104D01*
X012779Y015180D01*
X012554Y015180D01*
X012456Y015278D01*
X012317Y015336D01*
X011732Y015336D01*
X011593Y015278D01*
X011486Y015171D01*
X011428Y015031D01*
X011428Y014329D01*
X011486Y014189D01*
X011593Y014082D01*
X011732Y014024D01*
X012317Y014024D01*
X012456Y014082D01*
X012513Y014139D01*
X012835Y013818D01*
X012360Y013818D01*
X012317Y013836D01*
X011732Y013836D01*
X011680Y013814D01*
X011628Y013836D01*
X011043Y013836D01*
X010904Y013778D01*
X010847Y013721D01*
X009604Y014963D01*
X009463Y015104D01*
X009279Y015180D01*
X006180Y015180D01*
X006180Y017473D01*
X009387Y020680D01*
X016973Y020680D01*
X017341Y020311D01*
X017260Y020278D01*
X017153Y020171D01*
X017095Y020031D01*
X017095Y019329D01*
X017153Y019189D01*
X017260Y019082D01*
X017113Y019287D02*
X007994Y019287D01*
X008152Y019445D02*
X017095Y019445D01*
X017095Y019604D02*
X008311Y019604D01*
X008469Y019762D02*
X017095Y019762D01*
X017095Y019921D02*
X008628Y019921D01*
X008786Y020079D02*
X017115Y020079D01*
X017220Y020238D02*
X008945Y020238D01*
X009103Y020396D02*
X017257Y020396D01*
X017098Y020555D02*
X009262Y020555D01*
X008481Y021189D02*
X004660Y021189D01*
X004660Y021347D02*
X008640Y021347D01*
X008647Y021506D02*
X004660Y021506D01*
X004660Y021664D02*
X008489Y021664D01*
X008349Y021823D02*
X004660Y021823D01*
X004660Y021981D02*
X008286Y021981D01*
X008286Y022140D02*
X004660Y022140D01*
X004660Y022298D02*
X008286Y022298D01*
X008286Y022457D02*
X004660Y022457D01*
X004660Y022615D02*
X008286Y022615D01*
X008286Y022774D02*
X004660Y022774D01*
X004660Y022932D02*
X008286Y022932D01*
X008286Y023091D02*
X004660Y023091D01*
X004660Y023249D02*
X008286Y023249D01*
X008286Y023408D02*
X004660Y023408D01*
X004660Y023566D02*
X008286Y023566D01*
X008265Y023725D02*
X004660Y023725D01*
X004660Y023883D02*
X008209Y023883D01*
X008209Y024042D02*
X004660Y024042D01*
X004660Y024200D02*
X008059Y024200D01*
X008031Y024229D02*
X008031Y024229D01*
X007901Y024359D02*
X004660Y024359D01*
X004660Y024517D02*
X007829Y024517D01*
X007814Y024676D02*
X004660Y024676D01*
X004660Y024834D02*
X007814Y024834D01*
X007814Y024993D02*
X004660Y024993D01*
X004660Y025151D02*
X007814Y025151D01*
X007814Y025310D02*
X004660Y025310D01*
X004660Y025468D02*
X007544Y025468D01*
X007464Y025627D02*
X004660Y025627D01*
X004660Y025785D02*
X007461Y025785D01*
X007461Y025944D02*
X004660Y025944D01*
X004660Y026102D02*
X007461Y026102D01*
X007461Y026261D02*
X004660Y026261D01*
X004660Y026419D02*
X007368Y026419D01*
X007209Y026578D02*
X004660Y026578D01*
X004660Y026736D02*
X007051Y026736D01*
X006897Y026890D02*
X006897Y026890D01*
X006892Y026895D02*
X004660Y026895D01*
X004660Y027053D02*
X006747Y027053D01*
X006681Y027212D02*
X004660Y027212D01*
X004660Y027370D02*
X006680Y027370D01*
X006680Y027529D02*
X004660Y027529D01*
X004660Y027687D02*
X006680Y027687D01*
X006680Y027846D02*
X004660Y027846D01*
X004660Y028004D02*
X006680Y028004D01*
X006637Y028163D02*
X004660Y028163D01*
X004660Y028321D02*
X006517Y028321D01*
X006451Y028480D02*
X004660Y028480D01*
X004660Y028638D02*
X006430Y028638D01*
X006430Y028797D02*
X004660Y028797D01*
X004660Y028955D02*
X006482Y028955D01*
X004660Y032918D02*
X028692Y032918D01*
X028692Y033070D02*
X004660Y033070D01*
X004660Y005660D01*
X028692Y005660D01*
X028692Y033070D01*
X028692Y026102D02*
X017180Y026102D01*
X017180Y025944D02*
X028692Y025944D01*
X028692Y025785D02*
X017180Y025785D01*
X017180Y025627D02*
X028692Y025627D01*
X020773Y020396D02*
X018487Y020396D01*
X018453Y020555D02*
X020561Y020555D01*
X020402Y020713D02*
X018354Y020713D01*
X018196Y020872D02*
X020244Y020872D01*
X020054Y022298D02*
X019269Y022298D01*
X019111Y022457D02*
X020255Y022457D01*
X017277Y026261D02*
X017180Y026261D01*
X013828Y030540D02*
X013194Y030540D01*
X013828Y030699D02*
X012369Y030699D01*
X012210Y030857D02*
X013828Y030857D01*
X013828Y031016D02*
X012052Y031016D01*
X011893Y031174D02*
X013861Y031174D01*
X013984Y031333D02*
X011735Y031333D01*
X011026Y025627D02*
X010896Y025627D01*
X010816Y025468D02*
X011185Y025468D01*
X008323Y021030D02*
X004660Y021030D01*
X004660Y020872D02*
X008164Y020872D01*
X008006Y020713D02*
X004660Y020713D01*
X004660Y020555D02*
X007847Y020555D01*
X007689Y020396D02*
X004660Y020396D01*
X004660Y020238D02*
X007530Y020238D01*
X007372Y020079D02*
X004660Y020079D01*
X004660Y019921D02*
X007213Y019921D01*
X007055Y019762D02*
X004660Y019762D01*
X004660Y019604D02*
X006896Y019604D01*
X006738Y019445D02*
X004660Y019445D01*
X004660Y019287D02*
X006579Y019287D01*
X006421Y019128D02*
X004660Y019128D01*
X004660Y018970D02*
X006262Y018970D01*
X006104Y018811D02*
X004660Y018811D01*
X004660Y018653D02*
X005945Y018653D01*
X005787Y018494D02*
X004660Y018494D01*
X004660Y018336D02*
X005628Y018336D01*
X005470Y018177D02*
X004660Y018177D01*
X004660Y018019D02*
X005311Y018019D01*
X005213Y017860D02*
X004660Y017860D01*
X004660Y017702D02*
X005180Y017702D01*
X005180Y017543D02*
X004660Y017543D01*
X004660Y017385D02*
X005180Y017385D01*
X005180Y017226D02*
X004660Y017226D01*
X004660Y017068D02*
X005180Y017068D01*
X005180Y016909D02*
X004660Y016909D01*
X004660Y016751D02*
X005180Y016751D01*
X005180Y016592D02*
X004660Y016592D01*
X004660Y016434D02*
X005180Y016434D01*
X005180Y016275D02*
X004660Y016275D01*
X004660Y016117D02*
X005180Y016117D01*
X005180Y015958D02*
X004660Y015958D01*
X004660Y015800D02*
X005180Y015800D01*
X005180Y015641D02*
X004660Y015641D01*
X004660Y015483D02*
X005180Y015483D01*
X005180Y015324D02*
X004660Y015324D01*
X004660Y015166D02*
X005180Y015166D01*
X005180Y015007D02*
X004660Y015007D01*
X004660Y014849D02*
X005180Y014849D01*
X005180Y014690D02*
X004660Y014690D01*
X004660Y014532D02*
X005180Y014532D01*
X005180Y014373D02*
X004660Y014373D01*
X004660Y014215D02*
X005180Y014215D01*
X005180Y014056D02*
X004660Y014056D01*
X004660Y013898D02*
X005180Y013898D01*
X005180Y013739D02*
X004660Y013739D01*
X004660Y013581D02*
X005180Y013581D01*
X005180Y013422D02*
X004660Y013422D01*
X004660Y013264D02*
X005180Y013264D01*
X005180Y013105D02*
X004660Y013105D01*
X004660Y012947D02*
X005180Y012947D01*
X005180Y012788D02*
X004660Y012788D01*
X004660Y012630D02*
X005180Y012630D01*
X005180Y012471D02*
X004660Y012471D01*
X004660Y012313D02*
X005180Y012313D01*
X005180Y012154D02*
X004660Y012154D01*
X004660Y011996D02*
X005180Y011996D01*
X005180Y011837D02*
X004660Y011837D01*
X004660Y011679D02*
X005180Y011679D01*
X005180Y011520D02*
X004660Y011520D01*
X004660Y011362D02*
X005180Y011362D01*
X005180Y011203D02*
X004660Y011203D01*
X004660Y011045D02*
X005180Y011045D01*
X005180Y010886D02*
X004660Y010886D01*
X004660Y010728D02*
X005180Y010728D01*
X005185Y010569D02*
X004660Y010569D01*
X004660Y010411D02*
X005250Y010411D01*
X005401Y010252D02*
X004660Y010252D01*
X004660Y010094D02*
X005559Y010094D01*
X005718Y009935D02*
X004660Y009935D01*
X004660Y009777D02*
X005876Y009777D01*
X006800Y009460D02*
X004660Y009460D01*
X004660Y009618D02*
X006847Y009618D01*
X006893Y009680D02*
X006893Y009680D01*
X006800Y009301D02*
X004660Y009301D01*
X004660Y009143D02*
X006800Y009143D01*
X006800Y008984D02*
X004660Y008984D01*
X004660Y008826D02*
X006812Y008826D01*
X006906Y008667D02*
X004660Y008667D01*
X004660Y008509D02*
X013800Y008509D01*
X013800Y008667D02*
X008454Y008667D01*
X008548Y008826D02*
X013690Y008826D01*
X013800Y008350D02*
X004660Y008350D01*
X004660Y008192D02*
X013800Y008192D01*
X013800Y008033D02*
X004660Y008033D01*
X004660Y007875D02*
X013800Y007875D01*
X013800Y007716D02*
X004660Y007716D01*
X004660Y007558D02*
X013800Y007558D01*
X013800Y007399D02*
X004660Y007399D01*
X004660Y007241D02*
X013800Y007241D01*
X013800Y007082D02*
X004660Y007082D01*
X004660Y006924D02*
X013800Y006924D01*
X013800Y006765D02*
X004660Y006765D01*
X004660Y006607D02*
X013800Y006607D01*
X013800Y006448D02*
X004660Y006448D01*
X004660Y006290D02*
X013800Y006290D01*
X013800Y006131D02*
X004660Y006131D01*
X004660Y005973D02*
X013855Y005973D01*
X014071Y005814D02*
X004660Y005814D01*
X008560Y008984D02*
X010669Y008984D01*
X010510Y009143D02*
X008560Y009143D01*
X008560Y009301D02*
X010352Y009301D01*
X010193Y009460D02*
X008560Y009460D01*
X008513Y009618D02*
X010035Y009618D01*
X009876Y009777D02*
X008528Y009777D01*
X008560Y009935D02*
X009718Y009935D01*
X009559Y010094D02*
X008560Y010094D01*
X008560Y010252D02*
X009401Y010252D01*
X009242Y010411D02*
X008560Y010411D01*
X008534Y010569D02*
X009084Y010569D01*
X010572Y011996D02*
X011428Y011996D01*
X011428Y012154D02*
X010413Y012154D01*
X010255Y012313D02*
X011428Y012313D01*
X011428Y012471D02*
X010096Y012471D01*
X009963Y012604D02*
X009779Y012680D01*
X009581Y012680D01*
X008467Y012680D01*
X008502Y012715D01*
X008560Y012854D01*
X008560Y013506D01*
X008502Y013645D01*
X008395Y013752D01*
X008256Y013810D01*
X007104Y013810D01*
X006965Y013752D01*
X006858Y013645D01*
X006800Y013506D01*
X006800Y012854D01*
X006858Y012715D01*
X006893Y012680D01*
X006858Y012645D01*
X006800Y012506D01*
X006800Y011854D01*
X006858Y011715D01*
X006893Y011680D01*
X006858Y011645D01*
X006800Y011506D01*
X006800Y010854D01*
X006858Y010715D01*
X006893Y010680D01*
X006387Y010680D01*
X006180Y010887D01*
X006180Y014180D01*
X008973Y014180D01*
X010397Y012756D01*
X010581Y012680D01*
X010806Y012680D01*
X010904Y012582D01*
X011043Y012524D01*
X011428Y012524D01*
X011428Y011829D01*
X011486Y011689D01*
X011593Y011582D01*
X011732Y011524D01*
X012317Y011524D01*
X012456Y011582D01*
X012554Y011680D01*
X012779Y011680D01*
X012963Y011756D01*
X013104Y011897D01*
X013238Y012030D01*
X013528Y012030D01*
X013528Y011431D01*
X013562Y011349D01*
X013528Y011267D01*
X013528Y010668D01*
X011899Y010668D01*
X009963Y012604D01*
X009901Y012630D02*
X010856Y012630D01*
X010365Y012788D02*
X008532Y012788D01*
X008467Y012680D02*
X008467Y012680D01*
X008560Y012947D02*
X010206Y012947D01*
X010048Y013105D02*
X008560Y013105D01*
X008560Y013264D02*
X009889Y013264D01*
X009731Y013422D02*
X008560Y013422D01*
X008529Y013581D02*
X009572Y013581D01*
X009414Y013739D02*
X008408Y013739D01*
X009097Y014056D02*
X006180Y014056D01*
X006180Y013898D02*
X009255Y013898D01*
X010036Y014532D02*
X011428Y014532D01*
X011428Y014690D02*
X009877Y014690D01*
X009719Y014849D02*
X011428Y014849D01*
X011428Y015007D02*
X009560Y015007D01*
X009314Y015166D02*
X011484Y015166D01*
X011704Y015324D02*
X006180Y015324D01*
X006180Y015483D02*
X014946Y015483D01*
X014946Y015641D02*
X006180Y015641D01*
X006180Y015800D02*
X014946Y015800D01*
X014946Y015958D02*
X006180Y015958D01*
X006180Y016117D02*
X014946Y016117D01*
X014998Y016275D02*
X006180Y016275D01*
X006180Y016434D02*
X015201Y016434D01*
X015922Y016434D02*
X015989Y016434D01*
X016710Y016434D02*
X016776Y016434D01*
X017497Y016434D02*
X017564Y016434D01*
X018285Y016434D02*
X018351Y016434D01*
X019072Y016434D02*
X019138Y016434D01*
X019859Y016434D02*
X020180Y016434D01*
X020180Y016275D02*
X020063Y016275D01*
X020115Y016117D02*
X020180Y016117D01*
X020180Y015958D02*
X020115Y015958D01*
X020115Y015800D02*
X020180Y015800D01*
X020180Y015641D02*
X020115Y015641D01*
X020115Y015483D02*
X020147Y015483D01*
X019906Y014849D02*
X013219Y014849D01*
X013060Y015007D02*
X015068Y015007D01*
X014964Y015166D02*
X012814Y015166D01*
X013377Y014690D02*
X013757Y014690D01*
X014847Y014690D02*
X019906Y014690D01*
X019927Y014532D02*
X015028Y014532D01*
X015076Y014373D02*
X019906Y014373D01*
X019906Y014215D02*
X015076Y014215D01*
X015076Y014056D02*
X019906Y014056D01*
X019906Y013898D02*
X015076Y013898D01*
X015053Y013739D02*
X019929Y013739D01*
X019906Y013581D02*
X015076Y013581D01*
X015076Y013422D02*
X019906Y013422D01*
X019906Y013264D02*
X015076Y013264D01*
X015076Y013105D02*
X019906Y013105D01*
X019931Y012947D02*
X015051Y012947D01*
X015076Y012788D02*
X019906Y012788D01*
X019906Y012630D02*
X015076Y012630D01*
X015076Y012471D02*
X019906Y012471D01*
X019906Y012313D02*
X015076Y012313D01*
X015049Y012154D02*
X019933Y012154D01*
X019906Y011996D02*
X015076Y011996D01*
X015076Y011837D02*
X019906Y011837D01*
X019906Y011679D02*
X015076Y011679D01*
X015076Y011520D02*
X019906Y011520D01*
X019935Y011362D02*
X015047Y011362D01*
X015076Y011203D02*
X019906Y011203D01*
X019906Y011045D02*
X015076Y011045D01*
X015076Y010886D02*
X019906Y010886D01*
X019906Y010728D02*
X015076Y010728D01*
X015045Y010569D02*
X019937Y010569D01*
X019906Y010411D02*
X015076Y010411D01*
X015076Y010252D02*
X019906Y010252D01*
X019906Y010094D02*
X015076Y010094D01*
X015076Y009935D02*
X019906Y009935D01*
X019939Y009777D02*
X015043Y009777D01*
X015076Y009618D02*
X019906Y009618D01*
X019906Y009460D02*
X015076Y009460D01*
X013528Y010728D02*
X011840Y010728D01*
X011681Y010886D02*
X013528Y010886D01*
X013528Y011045D02*
X011523Y011045D01*
X011364Y011203D02*
X013528Y011203D01*
X013557Y011362D02*
X011206Y011362D01*
X011047Y011520D02*
X013528Y011520D01*
X013528Y011679D02*
X012553Y011679D01*
X013044Y011837D02*
X013528Y011837D01*
X013528Y011996D02*
X013203Y011996D01*
X011496Y011679D02*
X010889Y011679D01*
X010730Y011837D02*
X011428Y011837D01*
X010865Y013739D02*
X010828Y013739D01*
X010670Y013898D02*
X012755Y013898D01*
X012597Y014056D02*
X012393Y014056D01*
X011656Y014056D02*
X010511Y014056D01*
X010353Y014215D02*
X011475Y014215D01*
X011428Y014373D02*
X010194Y014373D01*
X012345Y015324D02*
X014946Y015324D01*
X017052Y017226D02*
X006180Y017226D01*
X006180Y017068D02*
X017268Y017068D01*
X016997Y017385D02*
X006180Y017385D01*
X006250Y017543D02*
X016997Y017543D01*
X016997Y017702D02*
X006409Y017702D01*
X006567Y017860D02*
X016997Y017860D01*
X017004Y018019D02*
X006726Y018019D01*
X006884Y018177D02*
X017090Y018177D01*
X017879Y017068D02*
X019585Y017068D01*
X019744Y016909D02*
X006180Y016909D01*
X006180Y016751D02*
X019902Y016751D01*
X020061Y016592D02*
X006180Y016592D01*
X006180Y013739D02*
X006952Y013739D01*
X006831Y013581D02*
X006180Y013581D01*
X006180Y013422D02*
X006800Y013422D01*
X006800Y013264D02*
X006180Y013264D01*
X006180Y013105D02*
X006800Y013105D01*
X006800Y012947D02*
X006180Y012947D01*
X006180Y012788D02*
X006828Y012788D01*
X006851Y012630D02*
X006180Y012630D01*
X006180Y012471D02*
X006800Y012471D01*
X006800Y012313D02*
X006180Y012313D01*
X006180Y012154D02*
X006800Y012154D01*
X006800Y011996D02*
X006180Y011996D01*
X006180Y011837D02*
X006807Y011837D01*
X006891Y011679D02*
X006180Y011679D01*
X006180Y011520D02*
X006806Y011520D01*
X006800Y011362D02*
X006180Y011362D01*
X006180Y011203D02*
X006800Y011203D01*
X006800Y011045D02*
X006180Y011045D01*
X006181Y010886D02*
X006800Y010886D01*
X006853Y010728D02*
X006340Y010728D01*
X019787Y018177D02*
X028692Y018177D01*
X028692Y018019D02*
X020049Y018019D01*
X020207Y017860D02*
X028692Y017860D01*
X028692Y017702D02*
X020366Y017702D01*
X020524Y017543D02*
X028692Y017543D01*
X028692Y017385D02*
X020683Y017385D01*
X020841Y017226D02*
X028692Y017226D01*
X028692Y017068D02*
X021000Y017068D01*
X021126Y016909D02*
X028692Y016909D01*
X028692Y016751D02*
X021180Y016751D01*
X021180Y016592D02*
X028692Y016592D01*
X028692Y016434D02*
X021180Y016434D01*
X021180Y016275D02*
X028692Y016275D01*
X028692Y016117D02*
X023433Y016117D01*
X023609Y015958D02*
X028692Y015958D01*
X028692Y015800D02*
X023768Y015800D01*
X023926Y015641D02*
X028692Y015641D01*
X028692Y015483D02*
X024085Y015483D01*
X024243Y015324D02*
X028692Y015324D01*
X028692Y015166D02*
X024402Y015166D01*
X024560Y015007D02*
X028692Y015007D01*
X028692Y014849D02*
X024719Y014849D01*
X024877Y014690D02*
X028692Y014690D01*
X028692Y014532D02*
X025036Y014532D01*
X025194Y014373D02*
X028692Y014373D01*
X028692Y014215D02*
X025353Y014215D01*
X025511Y014056D02*
X028692Y014056D01*
X028692Y013898D02*
X025670Y013898D01*
X025828Y013739D02*
X028692Y013739D01*
X028692Y013581D02*
X025964Y013581D01*
X026024Y013422D02*
X028692Y013422D01*
X028692Y013264D02*
X026024Y013264D01*
X026024Y013105D02*
X028692Y013105D01*
X028692Y012947D02*
X026024Y012947D01*
X026024Y012788D02*
X028692Y012788D01*
X028692Y012630D02*
X026024Y012630D01*
X026024Y012471D02*
X028692Y012471D01*
X028692Y012313D02*
X026024Y012313D01*
X026024Y012154D02*
X028692Y012154D01*
X028692Y011996D02*
X026024Y011996D01*
X026024Y011837D02*
X028692Y011837D01*
X028692Y011679D02*
X026056Y011679D01*
X026121Y011520D02*
X028692Y011520D01*
X028692Y011362D02*
X026121Y011362D01*
X026121Y011203D02*
X028692Y011203D01*
X028692Y011045D02*
X026121Y011045D01*
X026121Y010886D02*
X028692Y010886D01*
X028692Y010728D02*
X026079Y010728D01*
X025924Y010569D02*
X028692Y010569D01*
X028692Y010411D02*
X021454Y010411D01*
X021454Y010252D02*
X028692Y010252D01*
X028692Y010094D02*
X021454Y010094D01*
X021454Y009935D02*
X028692Y009935D01*
X028692Y009777D02*
X023791Y009777D01*
X023949Y009618D02*
X028692Y009618D01*
X028692Y009460D02*
X024108Y009460D01*
X024266Y009301D02*
X028692Y009301D01*
X028692Y009143D02*
X024425Y009143D01*
X024583Y008984D02*
X028692Y008984D01*
X028692Y008826D02*
X024742Y008826D01*
X024900Y008667D02*
X028692Y008667D01*
X028692Y008509D02*
X028381Y008509D01*
X028499Y008350D02*
X028692Y008350D01*
X028692Y008192D02*
X028529Y008192D01*
X028529Y008033D02*
X028692Y008033D01*
X028692Y007875D02*
X028529Y007875D01*
X028529Y007716D02*
X028692Y007716D01*
X028692Y007558D02*
X028488Y007558D01*
X028340Y007399D02*
X028692Y007399D01*
X028692Y007241D02*
X023281Y007241D01*
X023306Y007399D02*
X024020Y007399D01*
X023872Y007558D02*
X023306Y007558D01*
X023306Y007716D02*
X023831Y007716D01*
X023831Y007875D02*
X023294Y007875D01*
X023201Y008033D02*
X023831Y008033D01*
X023831Y008192D02*
X023180Y008192D01*
X023180Y008350D02*
X023803Y008350D01*
X023644Y008509D02*
X023180Y008509D01*
X023180Y008667D02*
X023486Y008667D01*
X023327Y008826D02*
X023180Y008826D01*
X022180Y008826D02*
X021292Y008826D01*
X021060Y008667D02*
X022180Y008667D01*
X022180Y008509D02*
X021060Y008509D01*
X021060Y008350D02*
X022180Y008350D01*
X022180Y008192D02*
X021060Y008192D01*
X021060Y008033D02*
X022159Y008033D01*
X022066Y007875D02*
X021060Y007875D01*
X021060Y007716D02*
X022054Y007716D01*
X022054Y007558D02*
X021060Y007558D01*
X021060Y007399D02*
X022054Y007399D01*
X022079Y007241D02*
X021060Y007241D01*
X021060Y007082D02*
X022191Y007082D01*
X023169Y007082D02*
X028692Y007082D01*
X028692Y006924D02*
X021060Y006924D01*
X021060Y006765D02*
X028692Y006765D01*
X028692Y006607D02*
X021060Y006607D01*
X021060Y006448D02*
X028692Y006448D01*
X028692Y006290D02*
X021060Y006290D01*
X021060Y006131D02*
X028692Y006131D01*
X028692Y005973D02*
X021005Y005973D01*
X020789Y005814D02*
X028692Y005814D01*
X026698Y007399D02*
X025662Y007399D01*
X025704Y008509D02*
X026656Y008509D01*
X024436Y010569D02*
X023776Y010569D01*
M02*
