G75*
%MOIN*%
%OFA0B0*%
%FSLAX25Y25*%
%IPPOS*%
%LPD*%
%AMOC8*
5,1,8,0,0,1.08239X$1,22.5*
%
%ADD10C,0.02700*%
%ADD11C,0.07400*%
%ADD12R,0.03937X0.05512*%
%ADD13C,0.05150*%
%ADD14OC8,0.05150*%
%ADD15C,0.06000*%
%ADD16C,0.03200*%
%ADD17R,0.03962X0.03962*%
%ADD18C,0.00800*%
%ADD19C,0.06299*%
%ADD20R,0.06299X0.06299*%
%ADD21C,0.15024*%
D10*
X0111280Y0240952D02*
X0111280Y0253262D01*
X0119487Y0253262D02*
X0111280Y0240952D01*
X0119487Y0240952D02*
X0119487Y0253262D01*
X0125091Y0251210D02*
X0127143Y0253262D01*
X0131247Y0253262D01*
X0133298Y0251210D01*
X0133298Y0243003D01*
X0131247Y0240952D01*
X0127143Y0240952D01*
X0125091Y0243003D01*
X0125091Y0251210D01*
X0138153Y0243003D02*
X0138153Y0240952D01*
X0140204Y0240952D01*
X0140204Y0243003D01*
X0138153Y0243003D01*
X0139184Y0265310D02*
X0139184Y0277620D01*
X0133029Y0277620D01*
X0130977Y0275568D01*
X0130977Y0271465D01*
X0133029Y0269413D01*
X0139184Y0269413D01*
X0125373Y0265310D02*
X0117166Y0265310D01*
X0111561Y0267361D02*
X0109509Y0265310D01*
X0105405Y0265310D01*
X0103354Y0267361D01*
X0103354Y0277620D01*
X0097749Y0277620D02*
X0097749Y0269413D01*
X0093645Y0265310D01*
X0089542Y0269413D01*
X0089542Y0277620D01*
X0083937Y0277620D02*
X0079834Y0277620D01*
X0081885Y0277620D02*
X0081885Y0265310D01*
X0079834Y0265310D02*
X0083937Y0265310D01*
X0111561Y0267361D02*
X0111561Y0277620D01*
X0125373Y0277620D02*
X0125373Y0265310D01*
D11*
X0090000Y0081400D03*
X0080000Y0081400D03*
D12*
X0106575Y0086046D03*
X0114055Y0086046D03*
X0110315Y0077384D03*
D13*
X0165000Y0106400D03*
X0165000Y0116400D03*
X0165000Y0126400D03*
X0165000Y0136400D03*
X0165000Y0146400D03*
X0165000Y0156400D03*
X0165000Y0166400D03*
X0165000Y0176400D03*
X0165000Y0186400D03*
X0165000Y0196400D03*
X0165000Y0206400D03*
X0165000Y0216400D03*
X0165000Y0226400D03*
X0165000Y0236400D03*
X0165000Y0246400D03*
X0125000Y0196400D03*
X0115000Y0196400D03*
X0105000Y0196400D03*
X0055000Y0196400D03*
X0055000Y0186400D03*
X0055000Y0176400D03*
X0055000Y0166400D03*
X0055000Y0156400D03*
X0055000Y0146400D03*
X0055000Y0136400D03*
X0055000Y0126400D03*
X0055000Y0116400D03*
X0055000Y0106400D03*
X0055000Y0206400D03*
X0055000Y0216400D03*
X0055000Y0226400D03*
X0055000Y0236400D03*
X0055000Y0246400D03*
D14*
X0095000Y0196400D03*
D15*
X0058000Y0096400D02*
X0052000Y0096400D01*
X0052000Y0086400D02*
X0058000Y0086400D01*
D16*
X0077500Y0083900D02*
X0077500Y0091400D01*
X0062500Y0106400D01*
X0055000Y0106400D01*
X0077500Y0083900D02*
X0080000Y0081400D01*
X0090000Y0081400D02*
X0094646Y0086046D01*
X0106575Y0086046D01*
X0114055Y0086046D02*
X0119409Y0091400D01*
X0127500Y0091400D01*
X0132500Y0096400D01*
X0132500Y0106400D01*
X0132500Y0123900D01*
X0135000Y0126400D01*
X0155000Y0146400D01*
X0165000Y0146400D01*
X0165000Y0156400D02*
X0150492Y0156400D01*
X0133839Y0173054D01*
X0070059Y0173054D01*
X0064547Y0167542D01*
X0064547Y0137227D01*
X0070453Y0131321D01*
X0120000Y0181400D02*
X0105000Y0196400D01*
X0095000Y0196400D02*
X0094902Y0196402D01*
X0094804Y0196408D01*
X0094706Y0196417D01*
X0094609Y0196431D01*
X0094512Y0196448D01*
X0094416Y0196469D01*
X0094321Y0196494D01*
X0094227Y0196522D01*
X0094135Y0196555D01*
X0094043Y0196590D01*
X0093953Y0196630D01*
X0093865Y0196672D01*
X0093778Y0196719D01*
X0093694Y0196768D01*
X0093611Y0196821D01*
X0093531Y0196877D01*
X0093452Y0196937D01*
X0093376Y0196999D01*
X0093303Y0197064D01*
X0093232Y0197132D01*
X0093164Y0197203D01*
X0093099Y0197276D01*
X0093037Y0197352D01*
X0092977Y0197431D01*
X0092921Y0197511D01*
X0092868Y0197594D01*
X0092819Y0197678D01*
X0092772Y0197765D01*
X0092730Y0197853D01*
X0092690Y0197943D01*
X0092655Y0198035D01*
X0092622Y0198127D01*
X0092594Y0198221D01*
X0092569Y0198316D01*
X0092548Y0198412D01*
X0092531Y0198509D01*
X0092517Y0198606D01*
X0092508Y0198704D01*
X0092502Y0198802D01*
X0092500Y0198900D01*
X0092500Y0211400D01*
X0127500Y0211400D01*
X0142500Y0196400D01*
X0165000Y0196400D01*
X0137500Y0181400D02*
X0120000Y0181400D01*
X0137500Y0181400D02*
X0152500Y0166400D01*
X0165000Y0166400D01*
D17*
X0070453Y0131321D03*
D18*
X0046100Y0093397D02*
X0046100Y0055000D01*
X0173821Y0055000D01*
X0173821Y0313706D01*
X0046100Y0313706D01*
X0046100Y0099403D01*
X0046405Y0100139D01*
X0048261Y0101995D01*
X0049966Y0102701D01*
X0049765Y0102902D01*
X0048825Y0105172D01*
X0048825Y0107628D01*
X0049765Y0109898D01*
X0051268Y0111400D01*
X0049765Y0112902D01*
X0048825Y0115172D01*
X0048825Y0117628D01*
X0049765Y0119898D01*
X0051268Y0121400D01*
X0049765Y0122902D01*
X0048825Y0125172D01*
X0048825Y0127628D01*
X0049765Y0129898D01*
X0051268Y0131400D01*
X0049765Y0132902D01*
X0048825Y0135172D01*
X0048825Y0137628D01*
X0049765Y0139898D01*
X0051268Y0141400D01*
X0049765Y0142902D01*
X0048825Y0145172D01*
X0048825Y0147628D01*
X0049765Y0149898D01*
X0051268Y0151400D01*
X0049765Y0152902D01*
X0048825Y0155172D01*
X0048825Y0157628D01*
X0049765Y0159898D01*
X0051268Y0161400D01*
X0049765Y0162902D01*
X0048825Y0165172D01*
X0048825Y0167628D01*
X0049765Y0169898D01*
X0051268Y0171400D01*
X0049765Y0172902D01*
X0048825Y0175172D01*
X0048825Y0177628D01*
X0049765Y0179898D01*
X0051268Y0181400D01*
X0049765Y0182902D01*
X0048825Y0185172D01*
X0048825Y0187628D01*
X0049765Y0189898D01*
X0051268Y0191400D01*
X0049765Y0192902D01*
X0048825Y0195172D01*
X0048825Y0197628D01*
X0049765Y0199898D01*
X0051268Y0201400D01*
X0049765Y0202902D01*
X0048825Y0205172D01*
X0048825Y0207628D01*
X0049765Y0209898D01*
X0051268Y0211400D01*
X0049765Y0212902D01*
X0048825Y0215172D01*
X0048825Y0217628D01*
X0049765Y0219898D01*
X0051268Y0221400D01*
X0049765Y0222902D01*
X0048825Y0225172D01*
X0048825Y0227628D01*
X0049765Y0229898D01*
X0051268Y0231400D01*
X0049765Y0232902D01*
X0048825Y0235172D01*
X0048825Y0237628D01*
X0049765Y0239898D01*
X0051268Y0241400D01*
X0049765Y0242902D01*
X0048825Y0245172D01*
X0048825Y0247628D01*
X0049765Y0249898D01*
X0051502Y0251635D01*
X0053772Y0252575D01*
X0056228Y0252575D01*
X0058498Y0251635D01*
X0060235Y0249898D01*
X0061175Y0247628D01*
X0061175Y0245172D01*
X0060235Y0242902D01*
X0058732Y0241400D01*
X0060235Y0239898D01*
X0061175Y0237628D01*
X0061175Y0235172D01*
X0060235Y0232902D01*
X0058732Y0231400D01*
X0060235Y0229898D01*
X0061175Y0227628D01*
X0061175Y0225172D01*
X0060235Y0222902D01*
X0058732Y0221400D01*
X0060235Y0219898D01*
X0061175Y0217628D01*
X0061175Y0215172D01*
X0060235Y0212902D01*
X0058732Y0211400D01*
X0060235Y0209898D01*
X0061175Y0207628D01*
X0061175Y0205172D01*
X0060235Y0202902D01*
X0058732Y0201400D01*
X0060235Y0199898D01*
X0061175Y0197628D01*
X0061175Y0195172D01*
X0060235Y0192902D01*
X0058732Y0191400D01*
X0060235Y0189898D01*
X0061175Y0187628D01*
X0061175Y0185172D01*
X0060235Y0182902D01*
X0058732Y0181400D01*
X0060235Y0179898D01*
X0061175Y0177628D01*
X0061175Y0175172D01*
X0060235Y0172902D01*
X0058732Y0171400D01*
X0059994Y0170138D01*
X0060139Y0170487D01*
X0061602Y0171950D01*
X0067113Y0177462D01*
X0069025Y0178254D01*
X0115793Y0178254D01*
X0103821Y0190225D01*
X0103772Y0190225D01*
X0101502Y0191165D01*
X0100000Y0192668D01*
X0097558Y0190225D01*
X0092442Y0190225D01*
X0088825Y0193842D01*
X0088825Y0194185D01*
X0088472Y0194538D01*
X0088472Y0194538D01*
X0087300Y0197368D01*
X0087300Y0212434D01*
X0088092Y0214346D01*
X0089554Y0215808D01*
X0091466Y0216600D01*
X0128534Y0216600D01*
X0130446Y0215808D01*
X0131908Y0214346D01*
X0144654Y0201600D01*
X0161068Y0201600D01*
X0159765Y0202902D01*
X0158825Y0205172D01*
X0158825Y0207628D01*
X0159765Y0209898D01*
X0161268Y0211400D01*
X0159765Y0212902D01*
X0158825Y0215172D01*
X0158825Y0217628D01*
X0159765Y0219898D01*
X0161268Y0221400D01*
X0159765Y0222902D01*
X0158825Y0225172D01*
X0158825Y0227628D01*
X0159765Y0229898D01*
X0161268Y0231400D01*
X0159765Y0232902D01*
X0158825Y0235172D01*
X0158825Y0237628D01*
X0159765Y0239898D01*
X0161268Y0241400D01*
X0159765Y0242902D01*
X0158825Y0245172D01*
X0158825Y0247628D01*
X0159765Y0249898D01*
X0161502Y0251635D01*
X0163772Y0252575D01*
X0166228Y0252575D01*
X0168498Y0251635D01*
X0170235Y0249898D01*
X0171175Y0247628D01*
X0171175Y0245172D01*
X0170235Y0242902D01*
X0168732Y0241400D01*
X0170235Y0239898D01*
X0171175Y0237628D01*
X0171175Y0235172D01*
X0170235Y0232902D01*
X0168732Y0231400D01*
X0170235Y0229898D01*
X0171175Y0227628D01*
X0171175Y0225172D01*
X0170235Y0222902D01*
X0168732Y0221400D01*
X0170235Y0219898D01*
X0171175Y0217628D01*
X0171175Y0215172D01*
X0170235Y0212902D01*
X0168732Y0211400D01*
X0170235Y0209898D01*
X0171175Y0207628D01*
X0171175Y0205172D01*
X0170235Y0202902D01*
X0168732Y0201400D01*
X0170235Y0199898D01*
X0171175Y0197628D01*
X0171175Y0195172D01*
X0170235Y0192902D01*
X0168498Y0191165D01*
X0166228Y0190225D01*
X0163772Y0190225D01*
X0161502Y0191165D01*
X0161468Y0191200D01*
X0141466Y0191200D01*
X0139554Y0191992D01*
X0125346Y0206200D01*
X0097700Y0206200D01*
X0097700Y0202432D01*
X0100000Y0200132D01*
X0101502Y0201635D01*
X0103772Y0202575D01*
X0106228Y0202575D01*
X0108498Y0201635D01*
X0110000Y0200132D01*
X0111502Y0201635D01*
X0113772Y0202575D01*
X0116228Y0202575D01*
X0118498Y0201635D01*
X0120235Y0199898D01*
X0121175Y0197628D01*
X0121175Y0195172D01*
X0120235Y0192902D01*
X0118498Y0191165D01*
X0117855Y0190899D01*
X0122154Y0186600D01*
X0138534Y0186600D01*
X0140446Y0185808D01*
X0141908Y0184346D01*
X0154654Y0171600D01*
X0161068Y0171600D01*
X0159765Y0172902D01*
X0158825Y0175172D01*
X0158825Y0177628D01*
X0159765Y0179898D01*
X0161502Y0181635D01*
X0163772Y0182575D01*
X0166228Y0182575D01*
X0168498Y0181635D01*
X0170235Y0179898D01*
X0171175Y0177628D01*
X0171175Y0175172D01*
X0170235Y0172902D01*
X0168732Y0171400D01*
X0170235Y0169898D01*
X0171175Y0167628D01*
X0171175Y0165172D01*
X0170235Y0162902D01*
X0168732Y0161400D01*
X0170235Y0159898D01*
X0171175Y0157628D01*
X0171175Y0155172D01*
X0170235Y0152902D01*
X0168732Y0151400D01*
X0170235Y0149898D01*
X0171175Y0147628D01*
X0171175Y0145172D01*
X0170235Y0142902D01*
X0168732Y0141400D01*
X0170235Y0139898D01*
X0171175Y0137628D01*
X0171175Y0135172D01*
X0170235Y0132902D01*
X0168732Y0131400D01*
X0170235Y0129898D01*
X0171175Y0127628D01*
X0171175Y0125172D01*
X0170235Y0122902D01*
X0168498Y0121165D01*
X0166228Y0120225D01*
X0163772Y0120225D01*
X0161502Y0121165D01*
X0159765Y0122902D01*
X0158825Y0125172D01*
X0158825Y0127628D01*
X0159765Y0129898D01*
X0161268Y0131400D01*
X0159765Y0132902D01*
X0158825Y0135172D01*
X0158825Y0137628D01*
X0159765Y0139898D01*
X0161068Y0141200D01*
X0157154Y0141200D01*
X0141750Y0125796D01*
X0141750Y0125057D01*
X0140722Y0122577D01*
X0138823Y0120678D01*
X0137700Y0120213D01*
X0137700Y0112590D01*
X0138702Y0111589D01*
X0139250Y0110266D01*
X0139250Y0102534D01*
X0138702Y0101211D01*
X0137700Y0100210D01*
X0137700Y0095366D01*
X0136908Y0093454D01*
X0131908Y0088454D01*
X0130446Y0086992D01*
X0128534Y0086200D01*
X0121563Y0086200D01*
X0119624Y0084260D01*
X0119624Y0082574D01*
X0119076Y0081251D01*
X0118063Y0080238D01*
X0116740Y0079690D01*
X0111371Y0079690D01*
X0110315Y0080127D01*
X0109259Y0079690D01*
X0103890Y0079690D01*
X0102567Y0080238D01*
X0101959Y0080846D01*
X0097300Y0080846D01*
X0097300Y0079948D01*
X0096189Y0077265D01*
X0094135Y0075211D01*
X0091452Y0074100D01*
X0088548Y0074100D01*
X0085865Y0075211D01*
X0085000Y0076076D01*
X0084135Y0075211D01*
X0081452Y0074100D01*
X0078548Y0074100D01*
X0075865Y0075211D01*
X0073811Y0077265D01*
X0072700Y0079948D01*
X0072700Y0081900D01*
X0072300Y0082866D01*
X0072300Y0089246D01*
X0064600Y0096946D01*
X0064600Y0095087D01*
X0063595Y0092661D01*
X0061739Y0090805D01*
X0059313Y0089800D01*
X0050687Y0089800D01*
X0048261Y0090805D01*
X0046405Y0092661D01*
X0046100Y0093397D01*
X0046100Y0092923D02*
X0046297Y0092923D01*
X0046100Y0092124D02*
X0046942Y0092124D01*
X0047741Y0091326D02*
X0046100Y0091326D01*
X0046100Y0090527D02*
X0048932Y0090527D01*
X0046100Y0089729D02*
X0071818Y0089729D01*
X0072300Y0088930D02*
X0046100Y0088930D01*
X0046100Y0088132D02*
X0072300Y0088132D01*
X0072300Y0087333D02*
X0046100Y0087333D01*
X0046100Y0086534D02*
X0072300Y0086534D01*
X0072300Y0085736D02*
X0046100Y0085736D01*
X0046100Y0084937D02*
X0058343Y0084937D01*
X0059204Y0085168D02*
X0056378Y0084411D01*
X0053844Y0082948D01*
X0051776Y0080879D01*
X0050313Y0078346D01*
X0049555Y0075520D01*
X0049555Y0072594D01*
X0050313Y0069768D01*
X0051776Y0067234D01*
X0053844Y0065165D01*
X0056378Y0063702D01*
X0059204Y0062945D01*
X0062130Y0062945D01*
X0064956Y0063702D01*
X0067490Y0065165D01*
X0069559Y0067234D01*
X0071022Y0069768D01*
X0071779Y0072594D01*
X0071779Y0075520D01*
X0071022Y0078346D01*
X0069559Y0080879D01*
X0067490Y0082948D01*
X0064956Y0084411D01*
X0062130Y0085168D01*
X0059204Y0085168D01*
X0055907Y0084139D02*
X0046100Y0084139D01*
X0046100Y0083340D02*
X0054524Y0083340D01*
X0053438Y0082542D02*
X0046100Y0082542D01*
X0046100Y0081743D02*
X0052640Y0081743D01*
X0051841Y0080945D02*
X0046100Y0080945D01*
X0046100Y0080146D02*
X0051352Y0080146D01*
X0050891Y0079348D02*
X0046100Y0079348D01*
X0046100Y0078549D02*
X0050430Y0078549D01*
X0050153Y0077751D02*
X0046100Y0077751D01*
X0046100Y0076952D02*
X0049939Y0076952D01*
X0049725Y0076154D02*
X0046100Y0076154D01*
X0046100Y0075355D02*
X0049555Y0075355D01*
X0049555Y0074557D02*
X0046100Y0074557D01*
X0046100Y0073758D02*
X0049555Y0073758D01*
X0049555Y0072960D02*
X0046100Y0072960D01*
X0046100Y0072161D02*
X0049671Y0072161D01*
X0049885Y0071363D02*
X0046100Y0071363D01*
X0046100Y0070564D02*
X0050099Y0070564D01*
X0050314Y0069766D02*
X0046100Y0069766D01*
X0046100Y0068967D02*
X0050775Y0068967D01*
X0051236Y0068169D02*
X0046100Y0068169D01*
X0046100Y0067370D02*
X0051697Y0067370D01*
X0052438Y0066572D02*
X0046100Y0066572D01*
X0046100Y0065773D02*
X0053236Y0065773D01*
X0054174Y0064975D02*
X0046100Y0064975D01*
X0046100Y0064176D02*
X0055557Y0064176D01*
X0057589Y0063378D02*
X0046100Y0063378D01*
X0046100Y0062579D02*
X0173821Y0062579D01*
X0173821Y0061781D02*
X0046100Y0061781D01*
X0046100Y0060982D02*
X0173821Y0060982D01*
X0173821Y0060184D02*
X0046100Y0060184D01*
X0046100Y0059385D02*
X0173821Y0059385D01*
X0173821Y0058587D02*
X0046100Y0058587D01*
X0046100Y0057788D02*
X0173821Y0057788D01*
X0173821Y0056990D02*
X0046100Y0056990D01*
X0046100Y0056191D02*
X0173821Y0056191D01*
X0173821Y0055393D02*
X0046100Y0055393D01*
X0063746Y0063378D02*
X0155798Y0063378D01*
X0154587Y0063702D02*
X0157413Y0062945D01*
X0160339Y0062945D01*
X0163165Y0063702D01*
X0165699Y0065165D01*
X0167768Y0067234D01*
X0169231Y0069768D01*
X0169988Y0072594D01*
X0169988Y0075520D01*
X0169231Y0078346D01*
X0167768Y0080879D01*
X0165699Y0082948D01*
X0163165Y0084411D01*
X0160339Y0085168D01*
X0157413Y0085168D01*
X0154587Y0084411D01*
X0152053Y0082948D01*
X0149984Y0080879D01*
X0148522Y0078346D01*
X0147764Y0075520D01*
X0147764Y0072594D01*
X0148522Y0069768D01*
X0149984Y0067234D01*
X0152053Y0065165D01*
X0154587Y0063702D01*
X0153766Y0064176D02*
X0065778Y0064176D01*
X0067161Y0064975D02*
X0152383Y0064975D01*
X0151445Y0065773D02*
X0068098Y0065773D01*
X0068897Y0066572D02*
X0150647Y0066572D01*
X0149906Y0067370D02*
X0069638Y0067370D01*
X0070099Y0068169D02*
X0149445Y0068169D01*
X0148984Y0068967D02*
X0070560Y0068967D01*
X0071021Y0069766D02*
X0148523Y0069766D01*
X0148308Y0070564D02*
X0071235Y0070564D01*
X0071449Y0071363D02*
X0148094Y0071363D01*
X0147880Y0072161D02*
X0071663Y0072161D01*
X0071779Y0072960D02*
X0147764Y0072960D01*
X0147764Y0073758D02*
X0071779Y0073758D01*
X0071779Y0074557D02*
X0077445Y0074557D01*
X0075721Y0075355D02*
X0071779Y0075355D01*
X0071609Y0076154D02*
X0074922Y0076154D01*
X0074124Y0076952D02*
X0071395Y0076952D01*
X0071181Y0077751D02*
X0073610Y0077751D01*
X0073279Y0078549D02*
X0070904Y0078549D01*
X0070443Y0079348D02*
X0072949Y0079348D01*
X0072700Y0080146D02*
X0069982Y0080146D01*
X0069493Y0080945D02*
X0072700Y0080945D01*
X0072700Y0081743D02*
X0068695Y0081743D01*
X0067896Y0082542D02*
X0072434Y0082542D01*
X0072300Y0083340D02*
X0066811Y0083340D01*
X0065428Y0084139D02*
X0072300Y0084139D01*
X0072300Y0084937D02*
X0062992Y0084937D01*
X0061068Y0090527D02*
X0071019Y0090527D01*
X0070221Y0091326D02*
X0062259Y0091326D01*
X0063058Y0092124D02*
X0069422Y0092124D01*
X0068623Y0092923D02*
X0063703Y0092923D01*
X0064034Y0093721D02*
X0067825Y0093721D01*
X0067026Y0094520D02*
X0064365Y0094520D01*
X0064600Y0095318D02*
X0066228Y0095318D01*
X0065429Y0096117D02*
X0064600Y0096117D01*
X0064600Y0096915D02*
X0064631Y0096915D01*
X0072152Y0104102D02*
X0125750Y0104102D01*
X0125750Y0104900D02*
X0071354Y0104900D01*
X0070555Y0105699D02*
X0125750Y0105699D01*
X0125750Y0106497D02*
X0069757Y0106497D01*
X0068958Y0107296D02*
X0125750Y0107296D01*
X0125750Y0108094D02*
X0068160Y0108094D01*
X0067361Y0108893D02*
X0125750Y0108893D01*
X0125750Y0109691D02*
X0066563Y0109691D01*
X0065764Y0110490D02*
X0125843Y0110490D01*
X0125750Y0110266D02*
X0125750Y0102534D01*
X0126298Y0101211D01*
X0127300Y0100210D01*
X0127300Y0098554D01*
X0125346Y0096600D01*
X0118375Y0096600D01*
X0116464Y0095808D01*
X0113057Y0092402D01*
X0111371Y0092402D01*
X0110315Y0091964D01*
X0109259Y0092402D01*
X0103890Y0092402D01*
X0102567Y0091853D01*
X0101959Y0091246D01*
X0093611Y0091246D01*
X0091700Y0090454D01*
X0089946Y0088700D01*
X0088548Y0088700D01*
X0085865Y0087589D01*
X0085000Y0086724D01*
X0084135Y0087589D01*
X0082700Y0088183D01*
X0082700Y0092434D01*
X0081908Y0094346D01*
X0080446Y0095808D01*
X0080446Y0095808D01*
X0065446Y0110808D01*
X0063534Y0111600D01*
X0058932Y0111600D01*
X0060235Y0112902D01*
X0061175Y0115172D01*
X0061175Y0117628D01*
X0060235Y0119898D01*
X0058732Y0121400D01*
X0060235Y0122902D01*
X0061175Y0125172D01*
X0061175Y0127628D01*
X0060235Y0129898D01*
X0058732Y0131400D01*
X0060235Y0132902D01*
X0060611Y0133810D01*
X0064872Y0129548D01*
X0064872Y0128624D01*
X0065420Y0127301D01*
X0066432Y0126288D01*
X0067756Y0125740D01*
X0073150Y0125740D01*
X0074473Y0126288D01*
X0075486Y0127301D01*
X0076034Y0128624D01*
X0076034Y0134018D01*
X0075486Y0135342D01*
X0074473Y0136354D01*
X0073150Y0136902D01*
X0072226Y0136902D01*
X0069747Y0139381D01*
X0069747Y0165388D01*
X0072213Y0167854D01*
X0131685Y0167854D01*
X0147547Y0151992D01*
X0149458Y0151200D01*
X0153000Y0151200D01*
X0152054Y0150808D01*
X0134396Y0133150D01*
X0133657Y0133150D01*
X0131177Y0132122D01*
X0129278Y0130223D01*
X0128250Y0127743D01*
X0128250Y0127004D01*
X0128092Y0126846D01*
X0127300Y0124934D01*
X0127300Y0112590D01*
X0126298Y0111589D01*
X0125750Y0110266D01*
X0126174Y0111288D02*
X0064287Y0111288D01*
X0060218Y0112885D02*
X0127300Y0112885D01*
X0127300Y0113684D02*
X0060558Y0113684D01*
X0060889Y0114482D02*
X0127300Y0114482D01*
X0127300Y0115281D02*
X0061175Y0115281D01*
X0061175Y0116079D02*
X0127300Y0116079D01*
X0127300Y0116878D02*
X0061175Y0116878D01*
X0061155Y0117676D02*
X0127300Y0117676D01*
X0127300Y0118475D02*
X0060824Y0118475D01*
X0060493Y0119273D02*
X0127300Y0119273D01*
X0127300Y0120072D02*
X0060060Y0120072D01*
X0059262Y0120870D02*
X0127300Y0120870D01*
X0127300Y0121669D02*
X0059001Y0121669D01*
X0059800Y0122468D02*
X0127300Y0122468D01*
X0127300Y0123266D02*
X0060385Y0123266D01*
X0060716Y0124065D02*
X0127300Y0124065D01*
X0127300Y0124863D02*
X0061047Y0124863D01*
X0061175Y0125662D02*
X0127601Y0125662D01*
X0127932Y0126460D02*
X0074645Y0126460D01*
X0075443Y0127259D02*
X0128250Y0127259D01*
X0128381Y0128057D02*
X0075799Y0128057D01*
X0076034Y0128856D02*
X0128711Y0128856D01*
X0129042Y0129654D02*
X0076034Y0129654D01*
X0076034Y0130453D02*
X0129507Y0130453D01*
X0130306Y0131251D02*
X0076034Y0131251D01*
X0076034Y0132050D02*
X0131104Y0132050D01*
X0132930Y0132848D02*
X0076034Y0132848D01*
X0076034Y0133647D02*
X0134893Y0133647D01*
X0135691Y0134445D02*
X0075857Y0134445D01*
X0075526Y0135244D02*
X0136490Y0135244D01*
X0137288Y0136042D02*
X0074785Y0136042D01*
X0073299Y0136841D02*
X0138087Y0136841D01*
X0138885Y0137639D02*
X0071489Y0137639D01*
X0070690Y0138438D02*
X0139684Y0138438D01*
X0140482Y0139236D02*
X0069892Y0139236D01*
X0069747Y0140035D02*
X0141281Y0140035D01*
X0142079Y0140833D02*
X0113427Y0140833D01*
X0114429Y0141102D02*
X0117045Y0142612D01*
X0119181Y0144748D01*
X0120692Y0147365D01*
X0121474Y0150283D01*
X0121474Y0153304D01*
X0120692Y0156223D01*
X0119181Y0158839D01*
X0117045Y0160975D01*
X0114429Y0162486D01*
X0111511Y0163268D01*
X0108489Y0163268D01*
X0105571Y0162486D01*
X0102955Y0160975D01*
X0100819Y0158839D01*
X0099308Y0156223D01*
X0098526Y0153304D01*
X0098526Y0150283D01*
X0099308Y0147365D01*
X0100819Y0144748D01*
X0102955Y0142612D01*
X0105571Y0141102D01*
X0108489Y0140320D01*
X0111511Y0140320D01*
X0114429Y0141102D01*
X0115347Y0141632D02*
X0142878Y0141632D01*
X0143676Y0142430D02*
X0116730Y0142430D01*
X0117662Y0143229D02*
X0144475Y0143229D01*
X0145273Y0144027D02*
X0118460Y0144027D01*
X0119226Y0144826D02*
X0146072Y0144826D01*
X0146870Y0145624D02*
X0119687Y0145624D01*
X0120148Y0146423D02*
X0147669Y0146423D01*
X0148467Y0147221D02*
X0120609Y0147221D01*
X0120868Y0148020D02*
X0149266Y0148020D01*
X0150064Y0148818D02*
X0121082Y0148818D01*
X0121295Y0149617D02*
X0150863Y0149617D01*
X0151661Y0150415D02*
X0121474Y0150415D01*
X0121474Y0151214D02*
X0149424Y0151214D01*
X0147526Y0152012D02*
X0121474Y0152012D01*
X0121474Y0152811D02*
X0146727Y0152811D01*
X0145929Y0153609D02*
X0121392Y0153609D01*
X0121178Y0154408D02*
X0145130Y0154408D01*
X0144332Y0155206D02*
X0120964Y0155206D01*
X0120750Y0156005D02*
X0143533Y0156005D01*
X0142735Y0156803D02*
X0120357Y0156803D01*
X0119896Y0157602D02*
X0141936Y0157602D01*
X0141138Y0158401D02*
X0119435Y0158401D01*
X0118821Y0159199D02*
X0140339Y0159199D01*
X0139541Y0159998D02*
X0118023Y0159998D01*
X0117224Y0160796D02*
X0138742Y0160796D01*
X0137944Y0161595D02*
X0115972Y0161595D01*
X0114589Y0162393D02*
X0137145Y0162393D01*
X0136347Y0163192D02*
X0111795Y0163192D01*
X0108205Y0163192D02*
X0069747Y0163192D01*
X0069747Y0163990D02*
X0135548Y0163990D01*
X0134750Y0164789D02*
X0069747Y0164789D01*
X0069947Y0165587D02*
X0133951Y0165587D01*
X0133153Y0166386D02*
X0070745Y0166386D01*
X0071544Y0167184D02*
X0132354Y0167184D01*
X0145495Y0180759D02*
X0160626Y0180759D01*
X0159828Y0179960D02*
X0146294Y0179960D01*
X0147092Y0179162D02*
X0159460Y0179162D01*
X0159130Y0178363D02*
X0147891Y0178363D01*
X0148689Y0177565D02*
X0158825Y0177565D01*
X0158825Y0176766D02*
X0149488Y0176766D01*
X0150286Y0175968D02*
X0158825Y0175968D01*
X0158826Y0175169D02*
X0151085Y0175169D01*
X0151883Y0174371D02*
X0159157Y0174371D01*
X0159488Y0173572D02*
X0152682Y0173572D01*
X0153480Y0172774D02*
X0159894Y0172774D01*
X0160692Y0171975D02*
X0154279Y0171975D01*
X0161425Y0181557D02*
X0144697Y0181557D01*
X0143898Y0182356D02*
X0163243Y0182356D01*
X0166757Y0182356D02*
X0173821Y0182356D01*
X0173821Y0183154D02*
X0143100Y0183154D01*
X0142301Y0183953D02*
X0173821Y0183953D01*
X0173821Y0184751D02*
X0141503Y0184751D01*
X0140704Y0185550D02*
X0173821Y0185550D01*
X0173821Y0186348D02*
X0139142Y0186348D01*
X0139684Y0191938D02*
X0119270Y0191938D01*
X0120069Y0192737D02*
X0138810Y0192737D01*
X0138011Y0193535D02*
X0120497Y0193535D01*
X0120828Y0194334D02*
X0137213Y0194334D01*
X0136414Y0195132D02*
X0121158Y0195132D01*
X0121175Y0195931D02*
X0135616Y0195931D01*
X0134817Y0196729D02*
X0121175Y0196729D01*
X0121175Y0197528D02*
X0134019Y0197528D01*
X0133220Y0198326D02*
X0120886Y0198326D01*
X0120555Y0199125D02*
X0132421Y0199125D01*
X0131623Y0199923D02*
X0120209Y0199923D01*
X0119411Y0200722D02*
X0130824Y0200722D01*
X0130026Y0201520D02*
X0118612Y0201520D01*
X0116847Y0202319D02*
X0129227Y0202319D01*
X0128429Y0203117D02*
X0097700Y0203117D01*
X0097700Y0203916D02*
X0127630Y0203916D01*
X0126832Y0204714D02*
X0097700Y0204714D01*
X0097700Y0205513D02*
X0126033Y0205513D01*
X0133555Y0212699D02*
X0159968Y0212699D01*
X0159519Y0213498D02*
X0132756Y0213498D01*
X0131958Y0214296D02*
X0159188Y0214296D01*
X0158857Y0215095D02*
X0131159Y0215095D01*
X0130240Y0215893D02*
X0158825Y0215893D01*
X0158825Y0216692D02*
X0061175Y0216692D01*
X0061175Y0217490D02*
X0158825Y0217490D01*
X0159099Y0218289D02*
X0060901Y0218289D01*
X0060570Y0219087D02*
X0159430Y0219087D01*
X0159760Y0219886D02*
X0060240Y0219886D01*
X0059448Y0220684D02*
X0160552Y0220684D01*
X0161185Y0221483D02*
X0058815Y0221483D01*
X0059614Y0222281D02*
X0160386Y0222281D01*
X0159692Y0223080D02*
X0060308Y0223080D01*
X0060639Y0223878D02*
X0159361Y0223878D01*
X0159030Y0224677D02*
X0060970Y0224677D01*
X0061175Y0225475D02*
X0158825Y0225475D01*
X0158825Y0226274D02*
X0061175Y0226274D01*
X0061175Y0227072D02*
X0158825Y0227072D01*
X0158926Y0227871D02*
X0061074Y0227871D01*
X0060743Y0228670D02*
X0159257Y0228670D01*
X0159587Y0229468D02*
X0060413Y0229468D01*
X0059866Y0230267D02*
X0160134Y0230267D01*
X0160933Y0231065D02*
X0059067Y0231065D01*
X0059196Y0231864D02*
X0160804Y0231864D01*
X0160005Y0232662D02*
X0059995Y0232662D01*
X0060466Y0233461D02*
X0159534Y0233461D01*
X0159203Y0234259D02*
X0060797Y0234259D01*
X0061128Y0235058D02*
X0158872Y0235058D01*
X0158825Y0235856D02*
X0061175Y0235856D01*
X0061175Y0236655D02*
X0108719Y0236655D01*
X0108937Y0236564D02*
X0109353Y0236287D01*
X0109838Y0236191D01*
X0110295Y0236002D01*
X0110795Y0236002D01*
X0111285Y0235905D01*
X0111770Y0236002D01*
X0112264Y0236002D01*
X0112726Y0236193D01*
X0113216Y0236291D01*
X0113627Y0236566D01*
X0114084Y0236755D01*
X0114437Y0237109D01*
X0114852Y0237387D01*
X0115126Y0237798D01*
X0115383Y0238055D01*
X0116683Y0236755D01*
X0118502Y0236002D01*
X0120471Y0236002D01*
X0122291Y0236755D01*
X0123315Y0237780D01*
X0124339Y0236755D01*
X0125426Y0236305D01*
X0126159Y0236002D01*
X0132231Y0236002D01*
X0134051Y0236755D01*
X0134700Y0237404D01*
X0135349Y0236755D01*
X0137168Y0236002D01*
X0141189Y0236002D01*
X0143008Y0236755D01*
X0144401Y0238148D01*
X0145154Y0239967D01*
X0145154Y0243988D01*
X0144401Y0245807D01*
X0143008Y0247200D01*
X0141189Y0247953D01*
X0138248Y0247953D01*
X0138248Y0252195D01*
X0137927Y0252970D01*
X0137495Y0254014D01*
X0137495Y0254014D01*
X0137442Y0254067D01*
X0135443Y0256066D01*
X0134104Y0257406D01*
X0134051Y0257459D01*
X0133312Y0257764D01*
X0132231Y0258212D01*
X0126159Y0258212D01*
X0124339Y0257459D01*
X0123318Y0256437D01*
X0123052Y0256835D01*
X0122640Y0257109D01*
X0122291Y0257459D01*
X0121829Y0257650D01*
X0121413Y0257927D01*
X0120928Y0258023D01*
X0120471Y0258212D01*
X0119972Y0258212D01*
X0119481Y0258309D01*
X0118996Y0258212D01*
X0118502Y0258212D01*
X0118040Y0258021D01*
X0117550Y0257923D01*
X0117139Y0257648D01*
X0116683Y0257459D01*
X0116329Y0257105D01*
X0115914Y0256827D01*
X0115640Y0256416D01*
X0115383Y0256159D01*
X0114084Y0257459D01*
X0112264Y0258212D01*
X0110295Y0258212D01*
X0108476Y0257459D01*
X0107083Y0256066D01*
X0106330Y0254247D01*
X0106330Y0241437D01*
X0106233Y0240946D01*
X0106330Y0240462D01*
X0106330Y0239967D01*
X0106521Y0239505D01*
X0106619Y0239015D01*
X0106894Y0238605D01*
X0107083Y0238148D01*
X0107437Y0237794D01*
X0107715Y0237379D01*
X0108126Y0237105D01*
X0108476Y0236755D01*
X0108937Y0236564D01*
X0107665Y0237453D02*
X0061175Y0237453D01*
X0060917Y0238252D02*
X0107040Y0238252D01*
X0106612Y0239050D02*
X0060586Y0239050D01*
X0060255Y0239849D02*
X0106379Y0239849D01*
X0106292Y0240647D02*
X0059485Y0240647D01*
X0058778Y0241446D02*
X0106330Y0241446D01*
X0106330Y0242244D02*
X0059577Y0242244D01*
X0060293Y0243043D02*
X0106330Y0243043D01*
X0106330Y0243841D02*
X0060624Y0243841D01*
X0060954Y0244640D02*
X0106330Y0244640D01*
X0106330Y0245438D02*
X0061175Y0245438D01*
X0061175Y0246237D02*
X0106330Y0246237D01*
X0106330Y0247035D02*
X0061175Y0247035D01*
X0061090Y0247834D02*
X0106330Y0247834D01*
X0106330Y0248632D02*
X0060759Y0248632D01*
X0060428Y0249431D02*
X0106330Y0249431D01*
X0106330Y0250229D02*
X0059903Y0250229D01*
X0059105Y0251028D02*
X0106330Y0251028D01*
X0106330Y0251826D02*
X0058035Y0251826D01*
X0051965Y0251826D02*
X0046100Y0251826D01*
X0046100Y0251028D02*
X0050895Y0251028D01*
X0050097Y0250229D02*
X0046100Y0250229D01*
X0046100Y0249431D02*
X0049572Y0249431D01*
X0049241Y0248632D02*
X0046100Y0248632D01*
X0046100Y0247834D02*
X0048910Y0247834D01*
X0048825Y0247035D02*
X0046100Y0247035D01*
X0046100Y0246237D02*
X0048825Y0246237D01*
X0048825Y0245438D02*
X0046100Y0245438D01*
X0046100Y0244640D02*
X0049046Y0244640D01*
X0049376Y0243841D02*
X0046100Y0243841D01*
X0046100Y0243043D02*
X0049707Y0243043D01*
X0050423Y0242244D02*
X0046100Y0242244D01*
X0046100Y0241446D02*
X0051222Y0241446D01*
X0050515Y0240647D02*
X0046100Y0240647D01*
X0046100Y0239849D02*
X0049745Y0239849D01*
X0049414Y0239050D02*
X0046100Y0239050D01*
X0046100Y0238252D02*
X0049083Y0238252D01*
X0048825Y0237453D02*
X0046100Y0237453D01*
X0046100Y0236655D02*
X0048825Y0236655D01*
X0048825Y0235856D02*
X0046100Y0235856D01*
X0046100Y0235058D02*
X0048872Y0235058D01*
X0049203Y0234259D02*
X0046100Y0234259D01*
X0046100Y0233461D02*
X0049534Y0233461D01*
X0050005Y0232662D02*
X0046100Y0232662D01*
X0046100Y0231864D02*
X0050804Y0231864D01*
X0050933Y0231065D02*
X0046100Y0231065D01*
X0046100Y0230267D02*
X0050134Y0230267D01*
X0049587Y0229468D02*
X0046100Y0229468D01*
X0046100Y0228670D02*
X0049257Y0228670D01*
X0048926Y0227871D02*
X0046100Y0227871D01*
X0046100Y0227072D02*
X0048825Y0227072D01*
X0048825Y0226274D02*
X0046100Y0226274D01*
X0046100Y0225475D02*
X0048825Y0225475D01*
X0049030Y0224677D02*
X0046100Y0224677D01*
X0046100Y0223878D02*
X0049361Y0223878D01*
X0049692Y0223080D02*
X0046100Y0223080D01*
X0046100Y0222281D02*
X0050386Y0222281D01*
X0051185Y0221483D02*
X0046100Y0221483D01*
X0046100Y0220684D02*
X0050552Y0220684D01*
X0049760Y0219886D02*
X0046100Y0219886D01*
X0046100Y0219087D02*
X0049430Y0219087D01*
X0049099Y0218289D02*
X0046100Y0218289D01*
X0046100Y0217490D02*
X0048825Y0217490D01*
X0048825Y0216692D02*
X0046100Y0216692D01*
X0046100Y0215893D02*
X0048825Y0215893D01*
X0048857Y0215095D02*
X0046100Y0215095D01*
X0046100Y0214296D02*
X0049188Y0214296D01*
X0049519Y0213498D02*
X0046100Y0213498D01*
X0046100Y0212699D02*
X0049968Y0212699D01*
X0050767Y0211901D02*
X0046100Y0211901D01*
X0046100Y0211102D02*
X0050970Y0211102D01*
X0050171Y0210304D02*
X0046100Y0210304D01*
X0046100Y0209505D02*
X0049603Y0209505D01*
X0049272Y0208707D02*
X0046100Y0208707D01*
X0046100Y0207908D02*
X0048941Y0207908D01*
X0048825Y0207110D02*
X0046100Y0207110D01*
X0046100Y0206311D02*
X0048825Y0206311D01*
X0048825Y0205513D02*
X0046100Y0205513D01*
X0046100Y0204714D02*
X0049015Y0204714D01*
X0049345Y0203916D02*
X0046100Y0203916D01*
X0046100Y0203117D02*
X0049676Y0203117D01*
X0050349Y0202319D02*
X0046100Y0202319D01*
X0046100Y0201520D02*
X0051147Y0201520D01*
X0050589Y0200722D02*
X0046100Y0200722D01*
X0046100Y0199923D02*
X0049791Y0199923D01*
X0049445Y0199125D02*
X0046100Y0199125D01*
X0046100Y0198326D02*
X0049114Y0198326D01*
X0048825Y0197528D02*
X0046100Y0197528D01*
X0046100Y0196729D02*
X0048825Y0196729D01*
X0048825Y0195931D02*
X0046100Y0195931D01*
X0046100Y0195132D02*
X0048842Y0195132D01*
X0049172Y0194334D02*
X0046100Y0194334D01*
X0046100Y0193535D02*
X0049503Y0193535D01*
X0049931Y0192737D02*
X0046100Y0192737D01*
X0046100Y0191938D02*
X0050730Y0191938D01*
X0051007Y0191139D02*
X0046100Y0191139D01*
X0046100Y0190341D02*
X0050209Y0190341D01*
X0049618Y0189542D02*
X0046100Y0189542D01*
X0046100Y0188744D02*
X0049287Y0188744D01*
X0048957Y0187945D02*
X0046100Y0187945D01*
X0046100Y0187147D02*
X0048825Y0187147D01*
X0048825Y0186348D02*
X0046100Y0186348D01*
X0046100Y0185550D02*
X0048825Y0185550D01*
X0048999Y0184751D02*
X0046100Y0184751D01*
X0046100Y0183953D02*
X0049330Y0183953D01*
X0049661Y0183154D02*
X0046100Y0183154D01*
X0046100Y0182356D02*
X0050312Y0182356D01*
X0051110Y0181557D02*
X0046100Y0181557D01*
X0046100Y0180759D02*
X0050626Y0180759D01*
X0049828Y0179960D02*
X0046100Y0179960D01*
X0046100Y0179162D02*
X0049460Y0179162D01*
X0049130Y0178363D02*
X0046100Y0178363D01*
X0046100Y0177565D02*
X0048825Y0177565D01*
X0048825Y0176766D02*
X0046100Y0176766D01*
X0046100Y0175968D02*
X0048825Y0175968D01*
X0048826Y0175169D02*
X0046100Y0175169D01*
X0046100Y0174371D02*
X0049157Y0174371D01*
X0049488Y0173572D02*
X0046100Y0173572D01*
X0046100Y0172774D02*
X0049894Y0172774D01*
X0050692Y0171975D02*
X0046100Y0171975D01*
X0046100Y0171177D02*
X0051044Y0171177D01*
X0050246Y0170378D02*
X0046100Y0170378D01*
X0046100Y0169580D02*
X0049634Y0169580D01*
X0049303Y0168781D02*
X0046100Y0168781D01*
X0046100Y0167983D02*
X0048972Y0167983D01*
X0048825Y0167184D02*
X0046100Y0167184D01*
X0046100Y0166386D02*
X0048825Y0166386D01*
X0048825Y0165587D02*
X0046100Y0165587D01*
X0046100Y0164789D02*
X0048984Y0164789D01*
X0049315Y0163990D02*
X0046100Y0163990D01*
X0046100Y0163192D02*
X0049645Y0163192D01*
X0050274Y0162393D02*
X0046100Y0162393D01*
X0046100Y0161595D02*
X0051073Y0161595D01*
X0050664Y0160796D02*
X0046100Y0160796D01*
X0046100Y0159998D02*
X0049865Y0159998D01*
X0049476Y0159199D02*
X0046100Y0159199D01*
X0046100Y0158401D02*
X0049145Y0158401D01*
X0048825Y0157602D02*
X0046100Y0157602D01*
X0046100Y0156803D02*
X0048825Y0156803D01*
X0048825Y0156005D02*
X0046100Y0156005D01*
X0046100Y0155206D02*
X0048825Y0155206D01*
X0049142Y0154408D02*
X0046100Y0154408D01*
X0046100Y0153609D02*
X0049472Y0153609D01*
X0049857Y0152811D02*
X0046100Y0152811D01*
X0046100Y0152012D02*
X0050655Y0152012D01*
X0051081Y0151214D02*
X0046100Y0151214D01*
X0046100Y0150415D02*
X0050283Y0150415D01*
X0049649Y0149617D02*
X0046100Y0149617D01*
X0046100Y0148818D02*
X0049318Y0148818D01*
X0048987Y0148020D02*
X0046100Y0148020D01*
X0046100Y0147221D02*
X0048825Y0147221D01*
X0048825Y0146423D02*
X0046100Y0146423D01*
X0046100Y0145624D02*
X0048825Y0145624D01*
X0048968Y0144826D02*
X0046100Y0144826D01*
X0046100Y0144027D02*
X0049299Y0144027D01*
X0049630Y0143229D02*
X0046100Y0143229D01*
X0046100Y0142430D02*
X0050237Y0142430D01*
X0051036Y0141632D02*
X0046100Y0141632D01*
X0046100Y0140833D02*
X0050701Y0140833D01*
X0049902Y0140035D02*
X0046100Y0140035D01*
X0046100Y0139236D02*
X0049491Y0139236D01*
X0049161Y0138438D02*
X0046100Y0138438D01*
X0046100Y0137639D02*
X0048830Y0137639D01*
X0048825Y0136841D02*
X0046100Y0136841D01*
X0046100Y0136042D02*
X0048825Y0136042D01*
X0048825Y0135244D02*
X0046100Y0135244D01*
X0046100Y0134445D02*
X0049126Y0134445D01*
X0049457Y0133647D02*
X0046100Y0133647D01*
X0046100Y0132848D02*
X0049819Y0132848D01*
X0050618Y0132050D02*
X0046100Y0132050D01*
X0046100Y0131251D02*
X0051119Y0131251D01*
X0050320Y0130453D02*
X0046100Y0130453D01*
X0046100Y0129654D02*
X0049664Y0129654D01*
X0049334Y0128856D02*
X0046100Y0128856D01*
X0046100Y0128057D02*
X0049003Y0128057D01*
X0048825Y0127259D02*
X0046100Y0127259D01*
X0046100Y0126460D02*
X0048825Y0126460D01*
X0048825Y0125662D02*
X0046100Y0125662D01*
X0046100Y0124863D02*
X0048953Y0124863D01*
X0049284Y0124065D02*
X0046100Y0124065D01*
X0046100Y0123266D02*
X0049615Y0123266D01*
X0050200Y0122468D02*
X0046100Y0122468D01*
X0046100Y0121669D02*
X0050999Y0121669D01*
X0050738Y0120870D02*
X0046100Y0120870D01*
X0046100Y0120072D02*
X0049940Y0120072D01*
X0049507Y0119273D02*
X0046100Y0119273D01*
X0046100Y0118475D02*
X0049176Y0118475D01*
X0048845Y0117676D02*
X0046100Y0117676D01*
X0046100Y0116878D02*
X0048825Y0116878D01*
X0048825Y0116079D02*
X0046100Y0116079D01*
X0046100Y0115281D02*
X0048825Y0115281D01*
X0049111Y0114482D02*
X0046100Y0114482D01*
X0046100Y0113684D02*
X0049441Y0113684D01*
X0049782Y0112885D02*
X0046100Y0112885D01*
X0046100Y0112087D02*
X0050581Y0112087D01*
X0051156Y0111288D02*
X0046100Y0111288D01*
X0046100Y0110490D02*
X0050357Y0110490D01*
X0049680Y0109691D02*
X0046100Y0109691D01*
X0046100Y0108893D02*
X0049349Y0108893D01*
X0049018Y0108094D02*
X0046100Y0108094D01*
X0046100Y0107296D02*
X0048825Y0107296D01*
X0048825Y0106497D02*
X0046100Y0106497D01*
X0046100Y0105699D02*
X0048825Y0105699D01*
X0048938Y0104900D02*
X0046100Y0104900D01*
X0046100Y0104102D02*
X0049268Y0104102D01*
X0049599Y0103303D02*
X0046100Y0103303D01*
X0046100Y0102505D02*
X0049492Y0102505D01*
X0047972Y0101706D02*
X0046100Y0101706D01*
X0046100Y0100908D02*
X0047174Y0100908D01*
X0046393Y0100109D02*
X0046100Y0100109D01*
X0059419Y0112087D02*
X0126796Y0112087D01*
X0125750Y0103303D02*
X0072951Y0103303D01*
X0073749Y0102505D02*
X0125763Y0102505D01*
X0126093Y0101706D02*
X0074548Y0101706D01*
X0075346Y0100908D02*
X0126602Y0100908D01*
X0127300Y0100109D02*
X0076145Y0100109D01*
X0076943Y0099311D02*
X0127300Y0099311D01*
X0127258Y0098512D02*
X0077742Y0098512D01*
X0078540Y0097714D02*
X0126460Y0097714D01*
X0125661Y0096915D02*
X0079339Y0096915D01*
X0080137Y0096117D02*
X0117208Y0096117D01*
X0115974Y0095318D02*
X0080936Y0095318D01*
X0081734Y0094520D02*
X0115175Y0094520D01*
X0114377Y0093721D02*
X0082167Y0093721D01*
X0082498Y0092923D02*
X0113578Y0092923D01*
X0110701Y0092124D02*
X0109929Y0092124D01*
X0103220Y0092124D02*
X0082700Y0092124D01*
X0082700Y0091326D02*
X0102039Y0091326D01*
X0091876Y0090527D02*
X0082700Y0090527D01*
X0082700Y0089729D02*
X0090975Y0089729D01*
X0090176Y0088930D02*
X0082700Y0088930D01*
X0082824Y0088132D02*
X0087176Y0088132D01*
X0085609Y0087333D02*
X0084391Y0087333D01*
X0084279Y0075355D02*
X0085721Y0075355D01*
X0087445Y0074557D02*
X0082555Y0074557D01*
X0092555Y0074557D02*
X0147764Y0074557D01*
X0147764Y0075355D02*
X0094279Y0075355D01*
X0095078Y0076154D02*
X0147934Y0076154D01*
X0148148Y0076952D02*
X0095876Y0076952D01*
X0096390Y0077751D02*
X0148362Y0077751D01*
X0148639Y0078549D02*
X0096721Y0078549D01*
X0097051Y0079348D02*
X0149100Y0079348D01*
X0149561Y0080146D02*
X0117842Y0080146D01*
X0118770Y0080945D02*
X0150050Y0080945D01*
X0150848Y0081743D02*
X0119280Y0081743D01*
X0119610Y0082542D02*
X0151647Y0082542D01*
X0152733Y0083340D02*
X0119624Y0083340D01*
X0119624Y0084139D02*
X0154116Y0084139D01*
X0156551Y0084937D02*
X0120301Y0084937D01*
X0121099Y0085736D02*
X0173821Y0085736D01*
X0173821Y0086534D02*
X0129342Y0086534D01*
X0130787Y0087333D02*
X0173821Y0087333D01*
X0173821Y0088132D02*
X0131585Y0088132D01*
X0132384Y0088930D02*
X0173821Y0088930D01*
X0173821Y0089729D02*
X0133182Y0089729D01*
X0133981Y0090527D02*
X0173821Y0090527D01*
X0173821Y0091326D02*
X0134779Y0091326D01*
X0135578Y0092124D02*
X0173821Y0092124D01*
X0173821Y0092923D02*
X0136377Y0092923D01*
X0137019Y0093721D02*
X0173821Y0093721D01*
X0173821Y0094520D02*
X0137350Y0094520D01*
X0137680Y0095318D02*
X0173821Y0095318D01*
X0173821Y0096117D02*
X0137700Y0096117D01*
X0137700Y0096915D02*
X0173821Y0096915D01*
X0173821Y0097714D02*
X0137700Y0097714D01*
X0137700Y0098512D02*
X0173821Y0098512D01*
X0173821Y0099311D02*
X0137700Y0099311D01*
X0137700Y0100109D02*
X0173821Y0100109D01*
X0173821Y0100908D02*
X0167876Y0100908D01*
X0168498Y0101165D02*
X0170235Y0102902D01*
X0171175Y0105172D01*
X0171175Y0107628D01*
X0170235Y0109898D01*
X0168498Y0111635D01*
X0166228Y0112575D01*
X0163772Y0112575D01*
X0161502Y0111635D01*
X0159765Y0109898D01*
X0158825Y0107628D01*
X0158825Y0105172D01*
X0159765Y0102902D01*
X0161502Y0101165D01*
X0163772Y0100225D01*
X0166228Y0100225D01*
X0168498Y0101165D01*
X0169039Y0101706D02*
X0173821Y0101706D01*
X0173821Y0102505D02*
X0169837Y0102505D01*
X0170401Y0103303D02*
X0173821Y0103303D01*
X0173821Y0104102D02*
X0170732Y0104102D01*
X0171062Y0104900D02*
X0173821Y0104900D01*
X0173821Y0105699D02*
X0171175Y0105699D01*
X0171175Y0106497D02*
X0173821Y0106497D01*
X0173821Y0107296D02*
X0171175Y0107296D01*
X0170982Y0108094D02*
X0173821Y0108094D01*
X0173821Y0108893D02*
X0170651Y0108893D01*
X0170320Y0109691D02*
X0173821Y0109691D01*
X0173821Y0110490D02*
X0169643Y0110490D01*
X0168844Y0111288D02*
X0173821Y0111288D01*
X0173821Y0112087D02*
X0167406Y0112087D01*
X0162594Y0112087D02*
X0138204Y0112087D01*
X0137700Y0112885D02*
X0173821Y0112885D01*
X0173821Y0113684D02*
X0137700Y0113684D01*
X0137700Y0114482D02*
X0173821Y0114482D01*
X0173821Y0115281D02*
X0137700Y0115281D01*
X0137700Y0116079D02*
X0173821Y0116079D01*
X0173821Y0116878D02*
X0137700Y0116878D01*
X0137700Y0117676D02*
X0173821Y0117676D01*
X0173821Y0118475D02*
X0137700Y0118475D01*
X0137700Y0119273D02*
X0173821Y0119273D01*
X0173821Y0120072D02*
X0137700Y0120072D01*
X0139016Y0120870D02*
X0162214Y0120870D01*
X0160999Y0121669D02*
X0139814Y0121669D01*
X0140613Y0122468D02*
X0160200Y0122468D01*
X0159615Y0123266D02*
X0141008Y0123266D01*
X0141338Y0124065D02*
X0159284Y0124065D01*
X0158953Y0124863D02*
X0141669Y0124863D01*
X0141750Y0125662D02*
X0158825Y0125662D01*
X0158825Y0126460D02*
X0142414Y0126460D01*
X0143212Y0127259D02*
X0158825Y0127259D01*
X0159003Y0128057D02*
X0144011Y0128057D01*
X0144810Y0128856D02*
X0159334Y0128856D01*
X0159664Y0129654D02*
X0145608Y0129654D01*
X0146407Y0130453D02*
X0160320Y0130453D01*
X0161119Y0131251D02*
X0147205Y0131251D01*
X0148004Y0132050D02*
X0160618Y0132050D01*
X0159819Y0132848D02*
X0148802Y0132848D01*
X0149601Y0133647D02*
X0159457Y0133647D01*
X0159126Y0134445D02*
X0150399Y0134445D01*
X0151198Y0135244D02*
X0158825Y0135244D01*
X0158825Y0136042D02*
X0151996Y0136042D01*
X0152795Y0136841D02*
X0158825Y0136841D01*
X0158830Y0137639D02*
X0153593Y0137639D01*
X0154392Y0138438D02*
X0159161Y0138438D01*
X0159491Y0139236D02*
X0155190Y0139236D01*
X0155989Y0140035D02*
X0159902Y0140035D01*
X0160701Y0140833D02*
X0156787Y0140833D01*
X0168964Y0141632D02*
X0173821Y0141632D01*
X0173821Y0142430D02*
X0169763Y0142430D01*
X0170370Y0143229D02*
X0173821Y0143229D01*
X0173821Y0144027D02*
X0170701Y0144027D01*
X0171031Y0144826D02*
X0173821Y0144826D01*
X0173821Y0145624D02*
X0171175Y0145624D01*
X0171175Y0146423D02*
X0173821Y0146423D01*
X0173821Y0147221D02*
X0171175Y0147221D01*
X0171013Y0148020D02*
X0173821Y0148020D01*
X0173821Y0148818D02*
X0170682Y0148818D01*
X0170351Y0149617D02*
X0173821Y0149617D01*
X0173821Y0150415D02*
X0169717Y0150415D01*
X0168919Y0151214D02*
X0173821Y0151214D01*
X0173821Y0152012D02*
X0169345Y0152012D01*
X0170143Y0152811D02*
X0173821Y0152811D01*
X0173821Y0153609D02*
X0170528Y0153609D01*
X0170858Y0154408D02*
X0173821Y0154408D01*
X0173821Y0155206D02*
X0171175Y0155206D01*
X0171175Y0156005D02*
X0173821Y0156005D01*
X0173821Y0156803D02*
X0171175Y0156803D01*
X0171175Y0157602D02*
X0173821Y0157602D01*
X0173821Y0158401D02*
X0170855Y0158401D01*
X0170524Y0159199D02*
X0173821Y0159199D01*
X0173821Y0159998D02*
X0170135Y0159998D01*
X0169336Y0160796D02*
X0173821Y0160796D01*
X0173821Y0161595D02*
X0168927Y0161595D01*
X0169726Y0162393D02*
X0173821Y0162393D01*
X0173821Y0163192D02*
X0170355Y0163192D01*
X0170685Y0163990D02*
X0173821Y0163990D01*
X0173821Y0164789D02*
X0171016Y0164789D01*
X0171175Y0165587D02*
X0173821Y0165587D01*
X0173821Y0166386D02*
X0171175Y0166386D01*
X0171175Y0167184D02*
X0173821Y0167184D01*
X0173821Y0167983D02*
X0171028Y0167983D01*
X0170697Y0168781D02*
X0173821Y0168781D01*
X0173821Y0169580D02*
X0170366Y0169580D01*
X0169754Y0170378D02*
X0173821Y0170378D01*
X0173821Y0171177D02*
X0168956Y0171177D01*
X0169308Y0171975D02*
X0173821Y0171975D01*
X0173821Y0172774D02*
X0170106Y0172774D01*
X0170512Y0173572D02*
X0173821Y0173572D01*
X0173821Y0174371D02*
X0170843Y0174371D01*
X0171174Y0175169D02*
X0173821Y0175169D01*
X0173821Y0175968D02*
X0171175Y0175968D01*
X0171175Y0176766D02*
X0173821Y0176766D01*
X0173821Y0177565D02*
X0171175Y0177565D01*
X0170870Y0178363D02*
X0173821Y0178363D01*
X0173821Y0179162D02*
X0170540Y0179162D01*
X0170172Y0179960D02*
X0173821Y0179960D01*
X0173821Y0180759D02*
X0169374Y0180759D01*
X0168575Y0181557D02*
X0173821Y0181557D01*
X0173821Y0187147D02*
X0121607Y0187147D01*
X0120808Y0187945D02*
X0173821Y0187945D01*
X0173821Y0188744D02*
X0120010Y0188744D01*
X0119211Y0189542D02*
X0173821Y0189542D01*
X0173821Y0190341D02*
X0166508Y0190341D01*
X0168436Y0191139D02*
X0173821Y0191139D01*
X0173821Y0191938D02*
X0169270Y0191938D01*
X0170069Y0192737D02*
X0173821Y0192737D01*
X0173821Y0193535D02*
X0170497Y0193535D01*
X0170828Y0194334D02*
X0173821Y0194334D01*
X0173821Y0195132D02*
X0171158Y0195132D01*
X0171175Y0195931D02*
X0173821Y0195931D01*
X0173821Y0196729D02*
X0171175Y0196729D01*
X0171175Y0197528D02*
X0173821Y0197528D01*
X0173821Y0198326D02*
X0170886Y0198326D01*
X0170555Y0199125D02*
X0173821Y0199125D01*
X0173821Y0199923D02*
X0170209Y0199923D01*
X0169411Y0200722D02*
X0173821Y0200722D01*
X0173821Y0201520D02*
X0168853Y0201520D01*
X0169651Y0202319D02*
X0173821Y0202319D01*
X0173821Y0203117D02*
X0170324Y0203117D01*
X0170654Y0203916D02*
X0173821Y0203916D01*
X0173821Y0204714D02*
X0170985Y0204714D01*
X0171175Y0205513D02*
X0173821Y0205513D01*
X0173821Y0206311D02*
X0171175Y0206311D01*
X0171175Y0207110D02*
X0173821Y0207110D01*
X0173821Y0207908D02*
X0171059Y0207908D01*
X0170728Y0208707D02*
X0173821Y0208707D01*
X0173821Y0209505D02*
X0170397Y0209505D01*
X0169829Y0210304D02*
X0173821Y0210304D01*
X0173821Y0211102D02*
X0169030Y0211102D01*
X0169233Y0211901D02*
X0173821Y0211901D01*
X0173821Y0212699D02*
X0170032Y0212699D01*
X0170481Y0213498D02*
X0173821Y0213498D01*
X0173821Y0214296D02*
X0170812Y0214296D01*
X0171143Y0215095D02*
X0173821Y0215095D01*
X0173821Y0215893D02*
X0171175Y0215893D01*
X0171175Y0216692D02*
X0173821Y0216692D01*
X0173821Y0217490D02*
X0171175Y0217490D01*
X0170901Y0218289D02*
X0173821Y0218289D01*
X0173821Y0219087D02*
X0170570Y0219087D01*
X0170240Y0219886D02*
X0173821Y0219886D01*
X0173821Y0220684D02*
X0169448Y0220684D01*
X0168815Y0221483D02*
X0173821Y0221483D01*
X0173821Y0222281D02*
X0169614Y0222281D01*
X0170308Y0223080D02*
X0173821Y0223080D01*
X0173821Y0223878D02*
X0170639Y0223878D01*
X0170970Y0224677D02*
X0173821Y0224677D01*
X0173821Y0225475D02*
X0171175Y0225475D01*
X0171175Y0226274D02*
X0173821Y0226274D01*
X0173821Y0227072D02*
X0171175Y0227072D01*
X0171074Y0227871D02*
X0173821Y0227871D01*
X0173821Y0228670D02*
X0170743Y0228670D01*
X0170413Y0229468D02*
X0173821Y0229468D01*
X0173821Y0230267D02*
X0169866Y0230267D01*
X0169067Y0231065D02*
X0173821Y0231065D01*
X0173821Y0231864D02*
X0169196Y0231864D01*
X0169995Y0232662D02*
X0173821Y0232662D01*
X0173821Y0233461D02*
X0170466Y0233461D01*
X0170797Y0234259D02*
X0173821Y0234259D01*
X0173821Y0235058D02*
X0171128Y0235058D01*
X0171175Y0235856D02*
X0173821Y0235856D01*
X0173821Y0236655D02*
X0171175Y0236655D01*
X0171175Y0237453D02*
X0173821Y0237453D01*
X0173821Y0238252D02*
X0170917Y0238252D01*
X0170586Y0239050D02*
X0173821Y0239050D01*
X0173821Y0239849D02*
X0170255Y0239849D01*
X0169485Y0240647D02*
X0173821Y0240647D01*
X0173821Y0241446D02*
X0168778Y0241446D01*
X0169577Y0242244D02*
X0173821Y0242244D01*
X0173821Y0243043D02*
X0170293Y0243043D01*
X0170624Y0243841D02*
X0173821Y0243841D01*
X0173821Y0244640D02*
X0170954Y0244640D01*
X0171175Y0245438D02*
X0173821Y0245438D01*
X0173821Y0246237D02*
X0171175Y0246237D01*
X0171175Y0247035D02*
X0173821Y0247035D01*
X0173821Y0247834D02*
X0171090Y0247834D01*
X0170759Y0248632D02*
X0173821Y0248632D01*
X0173821Y0249431D02*
X0170428Y0249431D01*
X0169903Y0250229D02*
X0173821Y0250229D01*
X0173821Y0251028D02*
X0169105Y0251028D01*
X0168035Y0251826D02*
X0173821Y0251826D01*
X0173821Y0252625D02*
X0138070Y0252625D01*
X0138248Y0251826D02*
X0161965Y0251826D01*
X0160895Y0251028D02*
X0138248Y0251028D01*
X0138248Y0250229D02*
X0160097Y0250229D01*
X0159572Y0249431D02*
X0138248Y0249431D01*
X0138248Y0248632D02*
X0159241Y0248632D01*
X0158910Y0247834D02*
X0141478Y0247834D01*
X0143173Y0247035D02*
X0158825Y0247035D01*
X0158825Y0246237D02*
X0143971Y0246237D01*
X0144554Y0245438D02*
X0158825Y0245438D01*
X0159046Y0244640D02*
X0144884Y0244640D01*
X0145154Y0243841D02*
X0159376Y0243841D01*
X0159707Y0243043D02*
X0145154Y0243043D01*
X0145154Y0242244D02*
X0160423Y0242244D01*
X0161222Y0241446D02*
X0145154Y0241446D01*
X0145154Y0240647D02*
X0160515Y0240647D01*
X0159745Y0239849D02*
X0145105Y0239849D01*
X0144774Y0239050D02*
X0159414Y0239050D01*
X0159083Y0238252D02*
X0144444Y0238252D01*
X0143706Y0237453D02*
X0158825Y0237453D01*
X0158825Y0236655D02*
X0142765Y0236655D01*
X0135592Y0236655D02*
X0133808Y0236655D01*
X0124582Y0236655D02*
X0122048Y0236655D01*
X0122988Y0237453D02*
X0123641Y0237453D01*
X0116926Y0236655D02*
X0113841Y0236655D01*
X0114896Y0237453D02*
X0115985Y0237453D01*
X0106330Y0252625D02*
X0046100Y0252625D01*
X0046100Y0253423D02*
X0106330Y0253423D01*
X0106330Y0254222D02*
X0046100Y0254222D01*
X0046100Y0255020D02*
X0106650Y0255020D01*
X0106981Y0255819D02*
X0046100Y0255819D01*
X0046100Y0256617D02*
X0107634Y0256617D01*
X0108433Y0257416D02*
X0046100Y0257416D01*
X0046100Y0258214D02*
X0119008Y0258214D01*
X0119960Y0258214D02*
X0173821Y0258214D01*
X0173821Y0257416D02*
X0134093Y0257416D01*
X0134051Y0257459D02*
X0134051Y0257459D01*
X0134892Y0256617D02*
X0173821Y0256617D01*
X0173821Y0255819D02*
X0135690Y0255819D01*
X0135443Y0256066D02*
X0135443Y0256066D01*
X0136489Y0255020D02*
X0173821Y0255020D01*
X0173821Y0254222D02*
X0137287Y0254222D01*
X0137740Y0253423D02*
X0173821Y0253423D01*
X0173821Y0259013D02*
X0046100Y0259013D01*
X0046100Y0259811D02*
X0173821Y0259811D01*
X0173821Y0260610D02*
X0140773Y0260610D01*
X0140169Y0260360D02*
X0141988Y0261113D01*
X0143381Y0262506D01*
X0144134Y0264325D01*
X0144134Y0278605D01*
X0143381Y0280424D01*
X0141988Y0281816D01*
X0140169Y0282570D01*
X0132044Y0282570D01*
X0130225Y0281816D01*
X0129201Y0280792D01*
X0128176Y0281816D01*
X0126357Y0282570D01*
X0124388Y0282570D01*
X0122569Y0281816D01*
X0121176Y0280424D01*
X0120423Y0278605D01*
X0120423Y0270260D01*
X0116511Y0270260D01*
X0116511Y0278605D01*
X0115757Y0280424D01*
X0114365Y0281816D01*
X0113493Y0282177D01*
X0114192Y0282365D01*
X0116726Y0283828D01*
X0118795Y0285896D01*
X0120258Y0288430D01*
X0121015Y0291256D01*
X0121015Y0294182D01*
X0120258Y0297008D01*
X0118795Y0299542D01*
X0116726Y0301611D01*
X0114192Y0303074D01*
X0111366Y0303831D01*
X0108440Y0303831D01*
X0105614Y0303074D01*
X0103081Y0301611D01*
X0101012Y0299542D01*
X0099549Y0297008D01*
X0098792Y0294182D01*
X0098792Y0291256D01*
X0099549Y0288430D01*
X0101012Y0285896D01*
X0103081Y0283828D01*
X0105614Y0282365D01*
X0108440Y0281607D01*
X0108548Y0281607D01*
X0107457Y0280517D01*
X0106158Y0281816D01*
X0104338Y0282570D01*
X0102369Y0282570D01*
X0100551Y0281817D01*
X0098734Y0282570D01*
X0096764Y0282570D01*
X0094945Y0281816D01*
X0093645Y0280517D01*
X0092346Y0281816D01*
X0090527Y0282570D01*
X0088557Y0282570D01*
X0086740Y0281817D01*
X0084922Y0282570D01*
X0078849Y0282570D01*
X0077030Y0281816D01*
X0075637Y0280424D01*
X0074884Y0278605D01*
X0074884Y0276635D01*
X0075637Y0274816D01*
X0076935Y0273518D01*
X0076935Y0269412D01*
X0075637Y0268114D01*
X0074884Y0266294D01*
X0074884Y0264325D01*
X0075637Y0262506D01*
X0077030Y0261113D01*
X0078849Y0260360D01*
X0084922Y0260360D01*
X0086741Y0261113D01*
X0088134Y0262506D01*
X0088519Y0263436D01*
X0090841Y0261113D01*
X0092661Y0260360D01*
X0094630Y0260360D01*
X0096449Y0261113D01*
X0097842Y0262506D01*
X0099525Y0264189D01*
X0100550Y0263165D01*
X0102602Y0261113D01*
X0103689Y0260663D01*
X0104421Y0260360D01*
X0110494Y0260360D01*
X0112313Y0261113D01*
X0113337Y0262137D01*
X0114362Y0261113D01*
X0116181Y0260360D01*
X0126357Y0260360D01*
X0128176Y0261113D01*
X0129569Y0262506D01*
X0130323Y0264325D01*
X0130323Y0265176D01*
X0131269Y0264784D01*
X0132044Y0264463D01*
X0134234Y0264463D01*
X0134234Y0264325D01*
X0134988Y0262506D01*
X0136380Y0261113D01*
X0138200Y0260360D01*
X0140169Y0260360D01*
X0142284Y0261408D02*
X0173821Y0261408D01*
X0173821Y0262207D02*
X0143082Y0262207D01*
X0143588Y0263005D02*
X0173821Y0263005D01*
X0173821Y0263804D02*
X0143919Y0263804D01*
X0144134Y0264603D02*
X0173821Y0264603D01*
X0173821Y0265401D02*
X0144134Y0265401D01*
X0144134Y0266200D02*
X0173821Y0266200D01*
X0173821Y0266998D02*
X0144134Y0266998D01*
X0144134Y0267797D02*
X0156846Y0267797D01*
X0157413Y0267645D02*
X0160339Y0267645D01*
X0163165Y0268402D01*
X0165699Y0269865D01*
X0167768Y0271934D01*
X0169231Y0274467D01*
X0169988Y0277294D01*
X0169988Y0280219D01*
X0169231Y0283045D01*
X0167768Y0285579D01*
X0165699Y0287648D01*
X0163165Y0289111D01*
X0160339Y0289868D01*
X0157413Y0289868D01*
X0154587Y0289111D01*
X0152053Y0287648D01*
X0149984Y0285579D01*
X0148522Y0283045D01*
X0147764Y0280219D01*
X0147764Y0277294D01*
X0148522Y0274467D01*
X0149984Y0271934D01*
X0152053Y0269865D01*
X0154587Y0268402D01*
X0157413Y0267645D01*
X0154252Y0268595D02*
X0144134Y0268595D01*
X0144134Y0269394D02*
X0152869Y0269394D01*
X0151726Y0270192D02*
X0144134Y0270192D01*
X0144134Y0270991D02*
X0150927Y0270991D01*
X0150129Y0271789D02*
X0144134Y0271789D01*
X0144134Y0272588D02*
X0149607Y0272588D01*
X0149146Y0273386D02*
X0144134Y0273386D01*
X0144134Y0274185D02*
X0148685Y0274185D01*
X0148383Y0274983D02*
X0144134Y0274983D01*
X0144134Y0275782D02*
X0148169Y0275782D01*
X0147955Y0276580D02*
X0144134Y0276580D01*
X0144134Y0277379D02*
X0147764Y0277379D01*
X0147764Y0278177D02*
X0144134Y0278177D01*
X0143981Y0278976D02*
X0147764Y0278976D01*
X0147764Y0279774D02*
X0143650Y0279774D01*
X0143232Y0280573D02*
X0147859Y0280573D01*
X0148073Y0281371D02*
X0142433Y0281371D01*
X0141135Y0282170D02*
X0148287Y0282170D01*
X0148501Y0282968D02*
X0115238Y0282968D01*
X0116621Y0283767D02*
X0148938Y0283767D01*
X0149399Y0284565D02*
X0117464Y0284565D01*
X0118262Y0285364D02*
X0149860Y0285364D01*
X0150568Y0286162D02*
X0118949Y0286162D01*
X0119410Y0286961D02*
X0151366Y0286961D01*
X0152246Y0287759D02*
X0119871Y0287759D01*
X0120292Y0288558D02*
X0153629Y0288558D01*
X0155503Y0289356D02*
X0120506Y0289356D01*
X0120720Y0290155D02*
X0173821Y0290155D01*
X0173821Y0290953D02*
X0120934Y0290953D01*
X0121015Y0291752D02*
X0173821Y0291752D01*
X0173821Y0292550D02*
X0121015Y0292550D01*
X0121015Y0293349D02*
X0173821Y0293349D01*
X0173821Y0294147D02*
X0121015Y0294147D01*
X0120810Y0294946D02*
X0173821Y0294946D01*
X0173821Y0295744D02*
X0120597Y0295744D01*
X0120383Y0296543D02*
X0173821Y0296543D01*
X0173821Y0297341D02*
X0120065Y0297341D01*
X0119604Y0298140D02*
X0173821Y0298140D01*
X0173821Y0298939D02*
X0119143Y0298939D01*
X0118600Y0299737D02*
X0173821Y0299737D01*
X0173821Y0300536D02*
X0117801Y0300536D01*
X0117003Y0301334D02*
X0173821Y0301334D01*
X0173821Y0302133D02*
X0115823Y0302133D01*
X0114439Y0302931D02*
X0173821Y0302931D01*
X0173821Y0303730D02*
X0111745Y0303730D01*
X0108062Y0303730D02*
X0046100Y0303730D01*
X0046100Y0304528D02*
X0173821Y0304528D01*
X0173821Y0305327D02*
X0046100Y0305327D01*
X0046100Y0306125D02*
X0173821Y0306125D01*
X0173821Y0306924D02*
X0046100Y0306924D01*
X0046100Y0307722D02*
X0173821Y0307722D01*
X0173821Y0308521D02*
X0046100Y0308521D01*
X0046100Y0309319D02*
X0173821Y0309319D01*
X0173821Y0310118D02*
X0046100Y0310118D01*
X0046100Y0310916D02*
X0173821Y0310916D01*
X0173821Y0311715D02*
X0046100Y0311715D01*
X0046100Y0312513D02*
X0173821Y0312513D01*
X0173821Y0313312D02*
X0046100Y0313312D01*
X0046100Y0302931D02*
X0105367Y0302931D01*
X0103984Y0302133D02*
X0046100Y0302133D01*
X0046100Y0301334D02*
X0102804Y0301334D01*
X0102005Y0300536D02*
X0046100Y0300536D01*
X0046100Y0299737D02*
X0101207Y0299737D01*
X0100663Y0298939D02*
X0046100Y0298939D01*
X0046100Y0298140D02*
X0100202Y0298140D01*
X0099741Y0297341D02*
X0046100Y0297341D01*
X0046100Y0296543D02*
X0099424Y0296543D01*
X0099210Y0295744D02*
X0046100Y0295744D01*
X0046100Y0294946D02*
X0098996Y0294946D01*
X0098792Y0294147D02*
X0046100Y0294147D01*
X0046100Y0293349D02*
X0098792Y0293349D01*
X0098792Y0292550D02*
X0046100Y0292550D01*
X0046100Y0291752D02*
X0098792Y0291752D01*
X0098873Y0290953D02*
X0046100Y0290953D01*
X0046100Y0290155D02*
X0099087Y0290155D01*
X0099301Y0289356D02*
X0064040Y0289356D01*
X0064956Y0289111D02*
X0062130Y0289868D01*
X0059204Y0289868D01*
X0056378Y0289111D01*
X0053844Y0287648D01*
X0051776Y0285579D01*
X0050313Y0283045D01*
X0049555Y0280219D01*
X0049555Y0277294D01*
X0050313Y0274467D01*
X0051776Y0271934D01*
X0053844Y0269865D01*
X0056378Y0268402D01*
X0059204Y0267645D01*
X0062130Y0267645D01*
X0064956Y0268402D01*
X0067490Y0269865D01*
X0069559Y0271934D01*
X0071022Y0274467D01*
X0071779Y0277294D01*
X0071779Y0280219D01*
X0071022Y0283045D01*
X0069559Y0285579D01*
X0067490Y0287648D01*
X0064956Y0289111D01*
X0065914Y0288558D02*
X0099515Y0288558D01*
X0099936Y0287759D02*
X0067297Y0287759D01*
X0068177Y0286961D02*
X0100397Y0286961D01*
X0100858Y0286162D02*
X0068976Y0286162D01*
X0069683Y0285364D02*
X0101544Y0285364D01*
X0102343Y0284565D02*
X0070144Y0284565D01*
X0070605Y0283767D02*
X0103186Y0283767D01*
X0104569Y0282968D02*
X0071043Y0282968D01*
X0071256Y0282170D02*
X0077883Y0282170D01*
X0076584Y0281371D02*
X0071470Y0281371D01*
X0071684Y0280573D02*
X0075786Y0280573D01*
X0075368Y0279774D02*
X0071779Y0279774D01*
X0071779Y0278976D02*
X0075037Y0278976D01*
X0074884Y0278177D02*
X0071779Y0278177D01*
X0071779Y0277379D02*
X0074884Y0277379D01*
X0074907Y0276580D02*
X0071588Y0276580D01*
X0071374Y0275782D02*
X0075237Y0275782D01*
X0075568Y0274983D02*
X0071160Y0274983D01*
X0070859Y0274185D02*
X0076269Y0274185D01*
X0076935Y0273386D02*
X0070398Y0273386D01*
X0069937Y0272588D02*
X0076935Y0272588D01*
X0076935Y0271789D02*
X0069414Y0271789D01*
X0068616Y0270991D02*
X0076935Y0270991D01*
X0076935Y0270192D02*
X0067817Y0270192D01*
X0066674Y0269394D02*
X0076917Y0269394D01*
X0076119Y0268595D02*
X0065291Y0268595D01*
X0062697Y0267797D02*
X0075506Y0267797D01*
X0075175Y0266998D02*
X0046100Y0266998D01*
X0046100Y0266200D02*
X0074884Y0266200D01*
X0074884Y0265401D02*
X0046100Y0265401D01*
X0046100Y0264603D02*
X0074884Y0264603D01*
X0075099Y0263804D02*
X0046100Y0263804D01*
X0046100Y0263005D02*
X0075430Y0263005D01*
X0075936Y0262207D02*
X0046100Y0262207D01*
X0046100Y0261408D02*
X0076734Y0261408D01*
X0078244Y0260610D02*
X0046100Y0260610D01*
X0046100Y0267797D02*
X0058637Y0267797D01*
X0056044Y0268595D02*
X0046100Y0268595D01*
X0046100Y0269394D02*
X0054661Y0269394D01*
X0053517Y0270192D02*
X0046100Y0270192D01*
X0046100Y0270991D02*
X0052719Y0270991D01*
X0051920Y0271789D02*
X0046100Y0271789D01*
X0046100Y0272588D02*
X0051398Y0272588D01*
X0050937Y0273386D02*
X0046100Y0273386D01*
X0046100Y0274185D02*
X0050476Y0274185D01*
X0050175Y0274983D02*
X0046100Y0274983D01*
X0046100Y0275782D02*
X0049961Y0275782D01*
X0049747Y0276580D02*
X0046100Y0276580D01*
X0046100Y0277379D02*
X0049555Y0277379D01*
X0049555Y0278177D02*
X0046100Y0278177D01*
X0046100Y0278976D02*
X0049555Y0278976D01*
X0049555Y0279774D02*
X0046100Y0279774D01*
X0046100Y0280573D02*
X0049650Y0280573D01*
X0049864Y0281371D02*
X0046100Y0281371D01*
X0046100Y0282170D02*
X0050078Y0282170D01*
X0050292Y0282968D02*
X0046100Y0282968D01*
X0046100Y0283767D02*
X0050729Y0283767D01*
X0051190Y0284565D02*
X0046100Y0284565D01*
X0046100Y0285364D02*
X0051651Y0285364D01*
X0052359Y0286162D02*
X0046100Y0286162D01*
X0046100Y0286961D02*
X0053157Y0286961D01*
X0054037Y0287759D02*
X0046100Y0287759D01*
X0046100Y0288558D02*
X0055420Y0288558D01*
X0057294Y0289356D02*
X0046100Y0289356D01*
X0085888Y0282170D02*
X0087591Y0282170D01*
X0091493Y0282170D02*
X0095798Y0282170D01*
X0094500Y0281371D02*
X0092791Y0281371D01*
X0093590Y0280573D02*
X0093701Y0280573D01*
X0099700Y0282170D02*
X0101403Y0282170D01*
X0105305Y0282170D02*
X0106342Y0282170D01*
X0106603Y0281371D02*
X0108312Y0281371D01*
X0107513Y0280573D02*
X0107401Y0280573D01*
X0113512Y0282170D02*
X0123421Y0282170D01*
X0122123Y0281371D02*
X0114810Y0281371D01*
X0115608Y0280573D02*
X0121325Y0280573D01*
X0120907Y0279774D02*
X0116026Y0279774D01*
X0116357Y0278976D02*
X0120576Y0278976D01*
X0120423Y0278177D02*
X0116511Y0278177D01*
X0116511Y0277379D02*
X0120423Y0277379D01*
X0120423Y0276580D02*
X0116511Y0276580D01*
X0116511Y0275782D02*
X0120423Y0275782D01*
X0120423Y0274983D02*
X0116511Y0274983D01*
X0116511Y0274185D02*
X0120423Y0274185D01*
X0120423Y0273386D02*
X0116511Y0273386D01*
X0116511Y0272588D02*
X0120423Y0272588D01*
X0120423Y0271789D02*
X0116511Y0271789D01*
X0116511Y0270991D02*
X0120423Y0270991D01*
X0130323Y0264603D02*
X0131708Y0264603D01*
X0130107Y0263804D02*
X0134450Y0263804D01*
X0134781Y0263005D02*
X0129776Y0263005D01*
X0129270Y0262207D02*
X0135287Y0262207D01*
X0136085Y0261408D02*
X0128472Y0261408D01*
X0126962Y0260610D02*
X0137595Y0260610D01*
X0124297Y0257416D02*
X0122333Y0257416D01*
X0123197Y0256617D02*
X0123498Y0256617D01*
X0116640Y0257416D02*
X0114126Y0257416D01*
X0114925Y0256617D02*
X0115774Y0256617D01*
X0115576Y0260610D02*
X0111098Y0260610D01*
X0112608Y0261408D02*
X0114066Y0261408D01*
X0103816Y0260610D02*
X0095235Y0260610D01*
X0096745Y0261408D02*
X0102306Y0261408D01*
X0101508Y0262207D02*
X0097543Y0262207D01*
X0098342Y0263005D02*
X0100709Y0263005D01*
X0100550Y0263165D02*
X0100550Y0263165D01*
X0099911Y0263804D02*
X0099140Y0263804D01*
X0092056Y0260610D02*
X0085526Y0260610D01*
X0087036Y0261408D02*
X0090546Y0261408D01*
X0089748Y0262207D02*
X0087835Y0262207D01*
X0088341Y0263005D02*
X0088949Y0263005D01*
X0127324Y0282170D02*
X0131078Y0282170D01*
X0129780Y0281371D02*
X0128622Y0281371D01*
X0162249Y0289356D02*
X0173821Y0289356D01*
X0173821Y0288558D02*
X0164123Y0288558D01*
X0165506Y0287759D02*
X0173821Y0287759D01*
X0173821Y0286961D02*
X0166386Y0286961D01*
X0167185Y0286162D02*
X0173821Y0286162D01*
X0173821Y0285364D02*
X0167892Y0285364D01*
X0168353Y0284565D02*
X0173821Y0284565D01*
X0173821Y0283767D02*
X0168814Y0283767D01*
X0169251Y0282968D02*
X0173821Y0282968D01*
X0173821Y0282170D02*
X0169465Y0282170D01*
X0169679Y0281371D02*
X0173821Y0281371D01*
X0173821Y0280573D02*
X0169893Y0280573D01*
X0169988Y0279774D02*
X0173821Y0279774D01*
X0173821Y0278976D02*
X0169988Y0278976D01*
X0169988Y0278177D02*
X0173821Y0278177D01*
X0173821Y0277379D02*
X0169988Y0277379D01*
X0169797Y0276580D02*
X0173821Y0276580D01*
X0173821Y0275782D02*
X0169583Y0275782D01*
X0169369Y0274983D02*
X0173821Y0274983D01*
X0173821Y0274185D02*
X0169067Y0274185D01*
X0168606Y0273386D02*
X0173821Y0273386D01*
X0173821Y0272588D02*
X0168145Y0272588D01*
X0167623Y0271789D02*
X0173821Y0271789D01*
X0173821Y0270991D02*
X0166825Y0270991D01*
X0166026Y0270192D02*
X0173821Y0270192D01*
X0173821Y0269394D02*
X0164883Y0269394D01*
X0163500Y0268595D02*
X0173821Y0268595D01*
X0173821Y0267797D02*
X0160906Y0267797D01*
X0160767Y0211901D02*
X0134353Y0211901D01*
X0135152Y0211102D02*
X0160970Y0211102D01*
X0160171Y0210304D02*
X0135950Y0210304D01*
X0136749Y0209505D02*
X0159603Y0209505D01*
X0159272Y0208707D02*
X0137547Y0208707D01*
X0138346Y0207908D02*
X0158941Y0207908D01*
X0158825Y0207110D02*
X0139144Y0207110D01*
X0139943Y0206311D02*
X0158825Y0206311D01*
X0158825Y0205513D02*
X0140741Y0205513D01*
X0141540Y0204714D02*
X0159015Y0204714D01*
X0159345Y0203916D02*
X0142338Y0203916D01*
X0143137Y0203117D02*
X0159676Y0203117D01*
X0160349Y0202319D02*
X0143935Y0202319D01*
X0161564Y0191139D02*
X0118436Y0191139D01*
X0118413Y0190341D02*
X0163492Y0190341D01*
X0115683Y0178363D02*
X0060870Y0178363D01*
X0061175Y0177565D02*
X0067362Y0177565D01*
X0066418Y0176766D02*
X0061175Y0176766D01*
X0061175Y0175968D02*
X0065619Y0175968D01*
X0064821Y0175169D02*
X0061174Y0175169D01*
X0060843Y0174371D02*
X0064022Y0174371D01*
X0063224Y0173572D02*
X0060512Y0173572D01*
X0060106Y0172774D02*
X0062425Y0172774D01*
X0061627Y0171975D02*
X0059308Y0171975D01*
X0058956Y0171177D02*
X0060828Y0171177D01*
X0060094Y0170378D02*
X0059754Y0170378D01*
X0060540Y0179162D02*
X0114884Y0179162D01*
X0114086Y0179960D02*
X0060172Y0179960D01*
X0059374Y0180759D02*
X0113287Y0180759D01*
X0112489Y0181557D02*
X0058890Y0181557D01*
X0059688Y0182356D02*
X0111690Y0182356D01*
X0110892Y0183154D02*
X0060339Y0183154D01*
X0060670Y0183953D02*
X0110093Y0183953D01*
X0109295Y0184751D02*
X0061001Y0184751D01*
X0061175Y0185550D02*
X0108496Y0185550D01*
X0107698Y0186348D02*
X0061175Y0186348D01*
X0061175Y0187147D02*
X0106899Y0187147D01*
X0106101Y0187945D02*
X0061043Y0187945D01*
X0060713Y0188744D02*
X0105302Y0188744D01*
X0104504Y0189542D02*
X0060382Y0189542D01*
X0059791Y0190341D02*
X0092327Y0190341D01*
X0091528Y0191139D02*
X0058993Y0191139D01*
X0059270Y0191938D02*
X0090730Y0191938D01*
X0089931Y0192737D02*
X0060069Y0192737D01*
X0060497Y0193535D02*
X0089132Y0193535D01*
X0088677Y0194334D02*
X0060828Y0194334D01*
X0061158Y0195132D02*
X0088226Y0195132D01*
X0087896Y0195931D02*
X0061175Y0195931D01*
X0061175Y0196729D02*
X0087565Y0196729D01*
X0087300Y0197528D02*
X0061175Y0197528D01*
X0060886Y0198326D02*
X0087300Y0198326D01*
X0087300Y0199125D02*
X0060555Y0199125D01*
X0060209Y0199923D02*
X0087300Y0199923D01*
X0087300Y0200722D02*
X0059411Y0200722D01*
X0058853Y0201520D02*
X0087300Y0201520D01*
X0087300Y0202319D02*
X0059651Y0202319D01*
X0060324Y0203117D02*
X0087300Y0203117D01*
X0087300Y0203916D02*
X0060654Y0203916D01*
X0060985Y0204714D02*
X0087300Y0204714D01*
X0087300Y0205513D02*
X0061175Y0205513D01*
X0061175Y0206311D02*
X0087300Y0206311D01*
X0087300Y0207110D02*
X0061175Y0207110D01*
X0061059Y0207908D02*
X0087300Y0207908D01*
X0087300Y0208707D02*
X0060728Y0208707D01*
X0060397Y0209505D02*
X0087300Y0209505D01*
X0087300Y0210304D02*
X0059829Y0210304D01*
X0059030Y0211102D02*
X0087300Y0211102D01*
X0087300Y0211901D02*
X0059233Y0211901D01*
X0060032Y0212699D02*
X0087410Y0212699D01*
X0087741Y0213498D02*
X0060481Y0213498D01*
X0060812Y0214296D02*
X0088071Y0214296D01*
X0088841Y0215095D02*
X0061143Y0215095D01*
X0061175Y0215893D02*
X0089760Y0215893D01*
X0097814Y0202319D02*
X0103153Y0202319D01*
X0101388Y0201520D02*
X0098612Y0201520D01*
X0099411Y0200722D02*
X0100589Y0200722D01*
X0106847Y0202319D02*
X0113153Y0202319D01*
X0111388Y0201520D02*
X0108612Y0201520D01*
X0109411Y0200722D02*
X0110589Y0200722D01*
X0103492Y0190341D02*
X0097673Y0190341D01*
X0098472Y0191139D02*
X0101564Y0191139D01*
X0100730Y0191938D02*
X0099270Y0191938D01*
X0105411Y0162393D02*
X0069747Y0162393D01*
X0069747Y0161595D02*
X0104028Y0161595D01*
X0102776Y0160796D02*
X0069747Y0160796D01*
X0069747Y0159998D02*
X0101977Y0159998D01*
X0101179Y0159199D02*
X0069747Y0159199D01*
X0069747Y0158401D02*
X0100565Y0158401D01*
X0100104Y0157602D02*
X0069747Y0157602D01*
X0069747Y0156803D02*
X0099643Y0156803D01*
X0099250Y0156005D02*
X0069747Y0156005D01*
X0069747Y0155206D02*
X0099036Y0155206D01*
X0098822Y0154408D02*
X0069747Y0154408D01*
X0069747Y0153609D02*
X0098608Y0153609D01*
X0098526Y0152811D02*
X0069747Y0152811D01*
X0069747Y0152012D02*
X0098526Y0152012D01*
X0098526Y0151214D02*
X0069747Y0151214D01*
X0069747Y0150415D02*
X0098526Y0150415D01*
X0098704Y0149617D02*
X0069747Y0149617D01*
X0069747Y0148818D02*
X0098918Y0148818D01*
X0099132Y0148020D02*
X0069747Y0148020D01*
X0069747Y0147221D02*
X0099391Y0147221D01*
X0099852Y0146423D02*
X0069747Y0146423D01*
X0069747Y0145624D02*
X0100313Y0145624D01*
X0100774Y0144826D02*
X0069747Y0144826D01*
X0069747Y0144027D02*
X0101540Y0144027D01*
X0102338Y0143229D02*
X0069747Y0143229D01*
X0069747Y0142430D02*
X0103270Y0142430D01*
X0104653Y0141632D02*
X0069747Y0141632D01*
X0069747Y0140833D02*
X0106573Y0140833D01*
X0138826Y0111288D02*
X0161156Y0111288D01*
X0160357Y0110490D02*
X0139157Y0110490D01*
X0139250Y0109691D02*
X0159680Y0109691D01*
X0159349Y0108893D02*
X0139250Y0108893D01*
X0139250Y0108094D02*
X0159018Y0108094D01*
X0158825Y0107296D02*
X0139250Y0107296D01*
X0139250Y0106497D02*
X0158825Y0106497D01*
X0158825Y0105699D02*
X0139250Y0105699D01*
X0139250Y0104900D02*
X0158938Y0104900D01*
X0159268Y0104102D02*
X0139250Y0104102D01*
X0139250Y0103303D02*
X0159599Y0103303D01*
X0160163Y0102505D02*
X0139237Y0102505D01*
X0138907Y0101706D02*
X0160961Y0101706D01*
X0162124Y0100908D02*
X0138398Y0100908D01*
X0161201Y0084937D02*
X0173821Y0084937D01*
X0173821Y0084139D02*
X0163637Y0084139D01*
X0165020Y0083340D02*
X0173821Y0083340D01*
X0173821Y0082542D02*
X0166105Y0082542D01*
X0166904Y0081743D02*
X0173821Y0081743D01*
X0173821Y0080945D02*
X0167702Y0080945D01*
X0168191Y0080146D02*
X0173821Y0080146D01*
X0173821Y0079348D02*
X0168652Y0079348D01*
X0169113Y0078549D02*
X0173821Y0078549D01*
X0173821Y0077751D02*
X0169390Y0077751D01*
X0169604Y0076952D02*
X0173821Y0076952D01*
X0173821Y0076154D02*
X0169818Y0076154D01*
X0169988Y0075355D02*
X0173821Y0075355D01*
X0173821Y0074557D02*
X0169988Y0074557D01*
X0169988Y0073758D02*
X0173821Y0073758D01*
X0173821Y0072960D02*
X0169988Y0072960D01*
X0169872Y0072161D02*
X0173821Y0072161D01*
X0173821Y0071363D02*
X0169658Y0071363D01*
X0169444Y0070564D02*
X0173821Y0070564D01*
X0173821Y0069766D02*
X0169230Y0069766D01*
X0168769Y0068967D02*
X0173821Y0068967D01*
X0173821Y0068169D02*
X0168308Y0068169D01*
X0167847Y0067370D02*
X0173821Y0067370D01*
X0173821Y0066572D02*
X0167106Y0066572D01*
X0166307Y0065773D02*
X0173821Y0065773D01*
X0173821Y0064975D02*
X0165369Y0064975D01*
X0163986Y0064176D02*
X0173821Y0064176D01*
X0173821Y0063378D02*
X0161955Y0063378D01*
X0167786Y0120870D02*
X0173821Y0120870D01*
X0173821Y0121669D02*
X0169001Y0121669D01*
X0169800Y0122468D02*
X0173821Y0122468D01*
X0173821Y0123266D02*
X0170385Y0123266D01*
X0170716Y0124065D02*
X0173821Y0124065D01*
X0173821Y0124863D02*
X0171047Y0124863D01*
X0171175Y0125662D02*
X0173821Y0125662D01*
X0173821Y0126460D02*
X0171175Y0126460D01*
X0171175Y0127259D02*
X0173821Y0127259D01*
X0173821Y0128057D02*
X0170997Y0128057D01*
X0170666Y0128856D02*
X0173821Y0128856D01*
X0173821Y0129654D02*
X0170336Y0129654D01*
X0169680Y0130453D02*
X0173821Y0130453D01*
X0173821Y0131251D02*
X0168881Y0131251D01*
X0169382Y0132050D02*
X0173821Y0132050D01*
X0173821Y0132848D02*
X0170181Y0132848D01*
X0170543Y0133647D02*
X0173821Y0133647D01*
X0173821Y0134445D02*
X0170874Y0134445D01*
X0171175Y0135244D02*
X0173821Y0135244D01*
X0173821Y0136042D02*
X0171175Y0136042D01*
X0171175Y0136841D02*
X0173821Y0136841D01*
X0173821Y0137639D02*
X0171170Y0137639D01*
X0170839Y0138438D02*
X0173821Y0138438D01*
X0173821Y0139236D02*
X0170509Y0139236D01*
X0170098Y0140035D02*
X0173821Y0140035D01*
X0173821Y0140833D02*
X0169299Y0140833D01*
X0102788Y0080146D02*
X0097300Y0080146D01*
X0066261Y0126460D02*
X0061175Y0126460D01*
X0061175Y0127259D02*
X0065462Y0127259D01*
X0065106Y0128057D02*
X0060997Y0128057D01*
X0060666Y0128856D02*
X0064872Y0128856D01*
X0064766Y0129654D02*
X0060336Y0129654D01*
X0059680Y0130453D02*
X0063967Y0130453D01*
X0063169Y0131251D02*
X0058881Y0131251D01*
X0059382Y0132050D02*
X0062370Y0132050D01*
X0061572Y0132848D02*
X0060181Y0132848D01*
X0060543Y0133647D02*
X0060773Y0133647D01*
D19*
X0118750Y0105150D03*
X0135000Y0126400D03*
D20*
X0132500Y0106400D03*
X0075155Y0141400D03*
X0075000Y0141400D03*
D21*
X0109903Y0151774D03*
X0158876Y0074057D03*
X0060667Y0074057D03*
X0060667Y0278756D03*
X0109903Y0292719D03*
X0158876Y0278756D03*
M02*
