G75*
%MOIN*%
%OFA0B0*%
%FSLAX25Y25*%
%IPPOS*%
%LPD*%
%AMOC8*
5,1,8,0,0,1.08239X$1,22.5*
%
%ADD10C,0.00512*%
%ADD11C,0.00400*%
%ADD12R,0.04921X0.03937*%
%ADD13R,0.03937X0.04921*%
%ADD14R,0.02480X0.03268*%
%ADD15R,0.05000X0.05787*%
%ADD16C,0.07400*%
%ADD17R,0.03150X0.03543*%
%ADD18R,0.03937X0.05512*%
%ADD19R,0.04331X0.05512*%
%ADD20C,0.05150*%
%ADD21OC8,0.05150*%
%ADD22C,0.06000*%
%ADD23C,0.01600*%
%ADD24C,0.03200*%
%ADD25C,0.00800*%
%ADD26C,0.06299*%
D10*
X0017500Y0336400D02*
X0017500Y0369077D01*
X0017756Y0361400D02*
X0027736Y0360376D01*
X0027736Y0360143D02*
X0017756Y0361400D01*
X0027736Y0362424D01*
X0027736Y0362657D02*
X0027736Y0360143D01*
X0027736Y0360888D02*
X0017756Y0361400D01*
X0027736Y0361912D01*
X0027736Y0362657D02*
X0017756Y0361400D01*
X0212244Y0361400D01*
X0202264Y0360376D01*
X0202264Y0360143D02*
X0212244Y0361400D01*
X0202264Y0362424D01*
X0202264Y0362657D02*
X0202264Y0360143D01*
X0202264Y0360888D02*
X0212244Y0361400D01*
X0202264Y0361912D01*
X0202264Y0362657D02*
X0212244Y0361400D01*
X0212500Y0369077D02*
X0212500Y0336400D01*
D11*
X0125492Y0364129D02*
X0124725Y0363362D01*
X0123190Y0363362D01*
X0122423Y0364129D01*
X0120888Y0364129D02*
X0120121Y0363362D01*
X0118586Y0363362D01*
X0117819Y0364129D01*
X0116284Y0364129D02*
X0116284Y0363362D01*
X0115517Y0363362D01*
X0115517Y0364129D01*
X0116284Y0364129D01*
X0117819Y0365664D02*
X0119354Y0366431D01*
X0120121Y0366431D01*
X0120888Y0365664D01*
X0120888Y0364129D01*
X0117819Y0365664D02*
X0117819Y0367966D01*
X0120888Y0367966D01*
X0122423Y0367198D02*
X0123190Y0367966D01*
X0124725Y0367966D01*
X0125492Y0367198D01*
X0125492Y0366431D01*
X0124725Y0365664D01*
X0125492Y0364896D01*
X0125492Y0364129D01*
X0124725Y0365664D02*
X0123958Y0365664D01*
X0113982Y0365664D02*
X0111681Y0365664D01*
X0110913Y0366431D01*
X0110913Y0367198D01*
X0111681Y0367966D01*
X0113215Y0367966D01*
X0113982Y0367198D01*
X0113982Y0364129D01*
X0113215Y0363362D01*
X0111681Y0363362D01*
X0110913Y0364129D01*
X0109379Y0365664D02*
X0106309Y0365664D01*
X0108611Y0367966D01*
X0108611Y0363362D01*
D12*
X0066250Y0115337D03*
X0066250Y0107463D03*
D13*
X0081063Y0141400D03*
X0088937Y0141400D03*
X0106063Y0176400D03*
X0113937Y0176400D03*
D14*
X0089528Y0121400D03*
X0080472Y0121400D03*
X0136722Y0116400D03*
X0145778Y0116400D03*
D15*
X0088465Y0096400D03*
X0071535Y0096400D03*
D16*
X0080000Y0081400D03*
X0090000Y0081400D03*
D17*
X0111260Y0089963D03*
X0118740Y0089963D03*
X0115000Y0097837D03*
D18*
X0111260Y0112069D03*
X0118740Y0112069D03*
X0115000Y0120731D03*
D19*
X0137805Y0106400D03*
X0144695Y0106400D03*
X0144695Y0096400D03*
X0137805Y0096400D03*
X0088445Y0111400D03*
X0081555Y0111400D03*
X0081555Y0131400D03*
X0088445Y0131400D03*
X0088445Y0151400D03*
X0081555Y0151400D03*
X0106555Y0186400D03*
X0113445Y0186400D03*
D20*
X0115000Y0196400D03*
X0105000Y0196400D03*
X0125000Y0196400D03*
X0165000Y0196400D03*
X0165000Y0186400D03*
X0165000Y0176400D03*
X0165000Y0166400D03*
X0165000Y0156400D03*
X0165000Y0146400D03*
X0165000Y0136400D03*
X0165000Y0126400D03*
X0165000Y0116400D03*
X0165000Y0106400D03*
X0165000Y0206400D03*
X0165000Y0216400D03*
X0165000Y0226400D03*
X0165000Y0236400D03*
X0165000Y0246400D03*
X0055000Y0246400D03*
X0055000Y0236400D03*
X0055000Y0226400D03*
X0055000Y0216400D03*
X0055000Y0206400D03*
X0055000Y0196400D03*
X0055000Y0186400D03*
X0055000Y0176400D03*
X0055000Y0166400D03*
X0055000Y0156400D03*
X0055000Y0146400D03*
X0055000Y0136400D03*
X0055000Y0126400D03*
X0055000Y0116400D03*
X0055000Y0106400D03*
D21*
X0095000Y0196400D03*
D22*
X0058000Y0096400D02*
X0052000Y0096400D01*
X0052000Y0086400D02*
X0058000Y0086400D01*
D23*
X0088465Y0096400D02*
X0089902Y0097837D01*
X0111260Y0090160D02*
X0115000Y0093900D01*
X0123750Y0093900D01*
X0126250Y0096400D01*
X0132500Y0106400D02*
X0137805Y0106400D01*
X0136722Y0116400D02*
X0135000Y0116400D01*
X0144695Y0115317D02*
X0145778Y0116400D01*
X0115669Y0121400D02*
X0115000Y0120731D01*
X0089528Y0121400D02*
X0088445Y0122483D01*
X0081555Y0122483D02*
X0080472Y0121400D01*
X0081555Y0120317D01*
X0088445Y0140908D02*
X0088937Y0141400D01*
X0088937Y0150908D02*
X0088445Y0151400D01*
X0106063Y0176400D02*
X0106555Y0176892D01*
X0113445Y0186400D02*
X0113445Y0187955D01*
X0111260Y0090160D02*
X0111260Y0089963D01*
D24*
X0118740Y0089963D02*
X0118740Y0085140D01*
X0115000Y0081400D01*
X0090000Y0081400D01*
X0090000Y0076400D01*
X0087500Y0073900D01*
X0075000Y0073900D01*
X0072500Y0076400D01*
X0072500Y0081400D01*
X0057500Y0096400D01*
X0055000Y0096400D01*
X0055000Y0106400D02*
X0061535Y0106400D01*
X0065187Y0106400D01*
X0066250Y0107463D01*
X0061535Y0106400D02*
X0071535Y0096400D01*
X0080000Y0087935D01*
X0080000Y0081400D01*
X0087500Y0096400D02*
X0087500Y0106400D01*
X0088445Y0107345D01*
X0088445Y0111400D01*
X0081555Y0111400D02*
X0081555Y0120317D01*
X0081555Y0122483D02*
X0081555Y0131400D01*
X0067500Y0131400D01*
X0067500Y0166400D01*
X0137500Y0166400D01*
X0147500Y0156400D01*
X0165000Y0156400D01*
X0165000Y0166400D02*
X0150000Y0166400D01*
X0135000Y0181400D01*
X0135000Y0196400D01*
X0125000Y0206400D01*
X0110000Y0206400D01*
X0105000Y0201400D01*
X0105000Y0196400D01*
X0113445Y0187955D01*
X0106555Y0186400D02*
X0106555Y0176892D01*
X0087008Y0176892D01*
X0072500Y0191400D01*
X0072500Y0231400D01*
X0077500Y0236400D01*
X0137500Y0236400D01*
X0142500Y0231400D01*
X0142500Y0211400D01*
X0142500Y0206400D01*
X0152500Y0196400D01*
X0165000Y0196400D01*
X0165000Y0146400D02*
X0155000Y0146400D01*
X0135000Y0126400D01*
X0130000Y0121400D02*
X0126250Y0121400D01*
X0126250Y0096400D01*
X0131368Y0089963D02*
X0137805Y0096400D01*
X0144695Y0096400D02*
X0144695Y0106400D01*
X0144695Y0115317D01*
X0135000Y0116400D02*
X0130000Y0121400D01*
X0126250Y0121400D02*
X0115669Y0121400D01*
X0111260Y0112069D02*
X0099331Y0112069D01*
X0095000Y0121400D01*
X0089528Y0121400D01*
X0088445Y0122483D02*
X0088445Y0131400D01*
X0088445Y0140908D01*
X0088937Y0141400D02*
X0088937Y0150908D01*
X0105000Y0176400D02*
X0106063Y0176400D01*
X0105000Y0176400D02*
X0095000Y0186400D01*
X0095000Y0196400D01*
X0089902Y0097837D02*
X0087500Y0096400D01*
X0089902Y0097837D02*
X0115000Y0097837D01*
X0118740Y0089963D02*
X0131368Y0089963D01*
D25*
X0044900Y0053800D02*
X0044900Y0314906D01*
X0175021Y0314906D01*
X0175021Y0053800D01*
X0044900Y0053800D01*
X0044900Y0054594D02*
X0175021Y0054594D01*
X0175021Y0055393D02*
X0044900Y0055393D01*
X0044900Y0056191D02*
X0175021Y0056191D01*
X0175021Y0056990D02*
X0044900Y0056990D01*
X0044900Y0057788D02*
X0175021Y0057788D01*
X0175021Y0058587D02*
X0044900Y0058587D01*
X0044900Y0059385D02*
X0175021Y0059385D01*
X0175021Y0060184D02*
X0044900Y0060184D01*
X0044900Y0060982D02*
X0175021Y0060982D01*
X0175021Y0061781D02*
X0044900Y0061781D01*
X0044900Y0062579D02*
X0175021Y0062579D01*
X0175021Y0063378D02*
X0044900Y0063378D01*
X0044900Y0064176D02*
X0175021Y0064176D01*
X0175021Y0064975D02*
X0044900Y0064975D01*
X0044900Y0065773D02*
X0059037Y0065773D01*
X0059135Y0065732D02*
X0062439Y0065732D01*
X0065492Y0066997D01*
X0067828Y0069333D01*
X0069093Y0072386D01*
X0069093Y0074173D01*
X0069109Y0074134D01*
X0071609Y0071634D01*
X0072734Y0070509D01*
X0074204Y0069900D01*
X0088296Y0069900D01*
X0089766Y0070509D01*
X0092266Y0073009D01*
X0093391Y0074134D01*
X0094000Y0075604D01*
X0094000Y0076773D01*
X0094627Y0077400D01*
X0115796Y0077400D01*
X0117266Y0078009D01*
X0122131Y0082874D01*
X0122740Y0084345D01*
X0122740Y0085963D01*
X0132164Y0085963D01*
X0133634Y0086572D01*
X0138306Y0091244D01*
X0140448Y0091244D01*
X0141250Y0091576D01*
X0142052Y0091244D01*
X0147338Y0091244D01*
X0148220Y0091609D01*
X0148895Y0092285D01*
X0149260Y0093167D01*
X0149260Y0099633D01*
X0148895Y0100515D01*
X0148695Y0100715D01*
X0148695Y0102085D01*
X0148895Y0102285D01*
X0149260Y0103167D01*
X0149260Y0109633D01*
X0148895Y0110515D01*
X0148695Y0110715D01*
X0148695Y0113049D01*
X0149052Y0113407D01*
X0149418Y0114289D01*
X0149418Y0118511D01*
X0149052Y0119393D01*
X0148377Y0120068D01*
X0147495Y0120434D01*
X0144060Y0120434D01*
X0143178Y0120068D01*
X0142503Y0119393D01*
X0142137Y0118511D01*
X0142137Y0118417D01*
X0141304Y0117583D01*
X0140695Y0116113D01*
X0140695Y0111454D01*
X0140448Y0111556D01*
X0135162Y0111556D01*
X0134858Y0111430D01*
X0133604Y0111950D01*
X0131396Y0111950D01*
X0130250Y0111475D01*
X0130250Y0115493D01*
X0132734Y0113009D01*
X0134204Y0112400D01*
X0134923Y0112400D01*
X0135005Y0112366D01*
X0138440Y0112366D01*
X0139322Y0112732D01*
X0139997Y0113407D01*
X0140363Y0114289D01*
X0140363Y0118511D01*
X0139997Y0119393D01*
X0139322Y0120068D01*
X0138440Y0120434D01*
X0136623Y0120434D01*
X0136176Y0120880D01*
X0138144Y0121695D01*
X0139705Y0123256D01*
X0140550Y0125296D01*
X0140550Y0126293D01*
X0156657Y0142400D01*
X0161965Y0142400D01*
X0162182Y0142183D01*
X0164010Y0141425D01*
X0165990Y0141425D01*
X0167818Y0142183D01*
X0169217Y0143582D01*
X0169975Y0145410D01*
X0169975Y0147390D01*
X0169217Y0149218D01*
X0167818Y0150617D01*
X0165990Y0151375D01*
X0164010Y0151375D01*
X0162182Y0150617D01*
X0161965Y0150400D01*
X0154204Y0150400D01*
X0152734Y0149791D01*
X0134893Y0131950D01*
X0133896Y0131950D01*
X0131856Y0131105D01*
X0130295Y0129544D01*
X0129450Y0127504D01*
X0129450Y0125400D01*
X0118449Y0125400D01*
X0118328Y0125521D01*
X0117446Y0125887D01*
X0112554Y0125887D01*
X0111672Y0125521D01*
X0110997Y0124846D01*
X0110631Y0123964D01*
X0110631Y0117497D01*
X0110744Y0117225D01*
X0108814Y0117225D01*
X0107932Y0116860D01*
X0107257Y0116185D01*
X0107209Y0116069D01*
X0101884Y0116069D01*
X0098663Y0123008D01*
X0098391Y0123666D01*
X0098330Y0123727D01*
X0098293Y0123806D01*
X0097769Y0124288D01*
X0097266Y0124791D01*
X0097186Y0124824D01*
X0097122Y0124883D01*
X0096453Y0125128D01*
X0095796Y0125400D01*
X0095709Y0125400D01*
X0095628Y0125430D01*
X0094916Y0125400D01*
X0092445Y0125400D01*
X0092445Y0127085D01*
X0092645Y0127285D01*
X0093010Y0128167D01*
X0093010Y0134633D01*
X0092645Y0135515D01*
X0092445Y0135715D01*
X0092445Y0137085D01*
X0092940Y0137580D01*
X0093305Y0138462D01*
X0093305Y0144338D01*
X0092940Y0145220D01*
X0092937Y0145223D01*
X0092937Y0147990D01*
X0093010Y0148167D01*
X0093010Y0154633D01*
X0092645Y0155515D01*
X0091970Y0156191D01*
X0091088Y0156556D01*
X0085802Y0156556D01*
X0084920Y0156191D01*
X0084245Y0155515D01*
X0083880Y0154633D01*
X0083880Y0148167D01*
X0084245Y0147285D01*
X0084920Y0146609D01*
X0084937Y0146602D01*
X0084937Y0145223D01*
X0084934Y0145220D01*
X0084569Y0144338D01*
X0084569Y0142002D01*
X0084445Y0141704D01*
X0084445Y0136454D01*
X0084198Y0136556D01*
X0078912Y0136556D01*
X0078030Y0136191D01*
X0077355Y0135515D01*
X0077307Y0135400D01*
X0071500Y0135400D01*
X0071500Y0162400D01*
X0135843Y0162400D01*
X0145234Y0153009D01*
X0146704Y0152400D01*
X0161965Y0152400D01*
X0162182Y0152183D01*
X0164010Y0151425D01*
X0165990Y0151425D01*
X0167818Y0152183D01*
X0169217Y0153582D01*
X0169975Y0155410D01*
X0169975Y0157390D01*
X0169217Y0159218D01*
X0167818Y0160617D01*
X0165990Y0161375D01*
X0164010Y0161375D01*
X0162182Y0160617D01*
X0161965Y0160400D01*
X0149157Y0160400D01*
X0140891Y0168666D01*
X0139766Y0169791D01*
X0138296Y0170400D01*
X0066704Y0170400D01*
X0065234Y0169791D01*
X0064109Y0168666D01*
X0063500Y0167196D01*
X0063500Y0130604D01*
X0064109Y0129134D01*
X0065234Y0128009D01*
X0066704Y0127400D01*
X0077307Y0127400D01*
X0077355Y0127285D01*
X0077555Y0127085D01*
X0077555Y0124751D01*
X0077198Y0124393D01*
X0076832Y0123511D01*
X0076832Y0119289D01*
X0077198Y0118407D01*
X0077555Y0118049D01*
X0077555Y0115715D01*
X0077355Y0115515D01*
X0076990Y0114633D01*
X0076990Y0108167D01*
X0077355Y0107285D01*
X0078030Y0106609D01*
X0078912Y0106244D01*
X0083500Y0106244D01*
X0083500Y0096895D01*
X0083427Y0096603D01*
X0083500Y0096106D01*
X0083500Y0095604D01*
X0083565Y0095448D01*
X0083565Y0093029D01*
X0083930Y0092147D01*
X0084605Y0091472D01*
X0085487Y0091106D01*
X0091442Y0091106D01*
X0092324Y0091472D01*
X0092999Y0092147D01*
X0093365Y0093029D01*
X0093365Y0093837D01*
X0108489Y0093837D01*
X0108326Y0093769D01*
X0107650Y0093094D01*
X0107285Y0092212D01*
X0107285Y0087714D01*
X0107650Y0086832D01*
X0108326Y0086157D01*
X0109208Y0085791D01*
X0113312Y0085791D01*
X0114033Y0086090D01*
X0113343Y0085400D01*
X0094627Y0085400D01*
X0093455Y0086571D01*
X0091213Y0087500D01*
X0088787Y0087500D01*
X0086545Y0086571D01*
X0085000Y0085027D01*
X0084000Y0086027D01*
X0084000Y0088731D01*
X0083391Y0090201D01*
X0076435Y0097157D01*
X0076435Y0099771D01*
X0076070Y0100653D01*
X0075395Y0101328D01*
X0074513Y0101694D01*
X0071899Y0101694D01*
X0070101Y0103491D01*
X0070745Y0104135D01*
X0071111Y0105017D01*
X0071111Y0109909D01*
X0070745Y0110791D01*
X0070070Y0111466D01*
X0069188Y0111831D01*
X0063312Y0111831D01*
X0062430Y0111466D01*
X0061755Y0110791D01*
X0061593Y0110400D01*
X0058035Y0110400D01*
X0057818Y0110617D01*
X0055990Y0111375D01*
X0054010Y0111375D01*
X0052182Y0110617D01*
X0050783Y0109218D01*
X0050025Y0107390D01*
X0050025Y0105410D01*
X0050783Y0103582D01*
X0052182Y0102183D01*
X0053106Y0101800D01*
X0050926Y0101800D01*
X0048941Y0100978D01*
X0047422Y0099459D01*
X0046600Y0097474D01*
X0046600Y0095326D01*
X0047422Y0093341D01*
X0048941Y0091822D01*
X0050926Y0091000D01*
X0057243Y0091000D01*
X0068500Y0079743D01*
X0068500Y0077121D01*
X0067828Y0078742D01*
X0065492Y0081079D01*
X0062439Y0082343D01*
X0059135Y0082343D01*
X0056083Y0081079D01*
X0053746Y0078742D01*
X0052482Y0075690D01*
X0052482Y0072386D01*
X0053746Y0069333D01*
X0056083Y0066997D01*
X0059135Y0065732D01*
X0057109Y0066572D02*
X0044900Y0066572D01*
X0044900Y0067370D02*
X0055709Y0067370D01*
X0054911Y0068169D02*
X0044900Y0068169D01*
X0044900Y0068967D02*
X0054112Y0068967D01*
X0053567Y0069766D02*
X0044900Y0069766D01*
X0044900Y0070564D02*
X0053236Y0070564D01*
X0052906Y0071363D02*
X0044900Y0071363D01*
X0044900Y0072161D02*
X0052575Y0072161D01*
X0052482Y0072960D02*
X0044900Y0072960D01*
X0044900Y0073758D02*
X0052482Y0073758D01*
X0052482Y0074557D02*
X0044900Y0074557D01*
X0044900Y0075355D02*
X0052482Y0075355D01*
X0052674Y0076154D02*
X0044900Y0076154D01*
X0044900Y0076952D02*
X0053005Y0076952D01*
X0053336Y0077751D02*
X0044900Y0077751D01*
X0044900Y0078549D02*
X0053666Y0078549D01*
X0054352Y0079348D02*
X0044900Y0079348D01*
X0044900Y0080146D02*
X0055150Y0080146D01*
X0055949Y0080945D02*
X0044900Y0080945D01*
X0044900Y0081743D02*
X0057687Y0081743D01*
X0061709Y0086534D02*
X0044900Y0086534D01*
X0044900Y0085736D02*
X0062507Y0085736D01*
X0063306Y0084937D02*
X0044900Y0084937D01*
X0044900Y0084139D02*
X0064104Y0084139D01*
X0064903Y0083340D02*
X0044900Y0083340D01*
X0044900Y0082542D02*
X0065701Y0082542D01*
X0066500Y0081743D02*
X0063888Y0081743D01*
X0065626Y0080945D02*
X0067298Y0080945D01*
X0068097Y0080146D02*
X0066425Y0080146D01*
X0067223Y0079348D02*
X0068500Y0079348D01*
X0068500Y0078549D02*
X0067908Y0078549D01*
X0068239Y0077751D02*
X0068500Y0077751D01*
X0069093Y0073758D02*
X0069485Y0073758D01*
X0069093Y0072960D02*
X0070283Y0072960D01*
X0071082Y0072161D02*
X0069000Y0072161D01*
X0068669Y0071363D02*
X0071880Y0071363D01*
X0072679Y0070564D02*
X0068338Y0070564D01*
X0068008Y0069766D02*
X0151992Y0069766D01*
X0152172Y0069333D02*
X0154508Y0066997D01*
X0157561Y0065732D01*
X0160865Y0065732D01*
X0163917Y0066997D01*
X0166254Y0069333D01*
X0167518Y0072386D01*
X0167518Y0075690D01*
X0166254Y0078742D01*
X0163917Y0081079D01*
X0160865Y0082343D01*
X0157561Y0082343D01*
X0154508Y0081079D01*
X0152172Y0078742D01*
X0150907Y0075690D01*
X0150907Y0072386D01*
X0152172Y0069333D01*
X0152537Y0068967D02*
X0067463Y0068967D01*
X0066664Y0068169D02*
X0153336Y0068169D01*
X0154134Y0067370D02*
X0065866Y0067370D01*
X0064466Y0066572D02*
X0155534Y0066572D01*
X0157462Y0065773D02*
X0062538Y0065773D01*
X0060910Y0087333D02*
X0044900Y0087333D01*
X0044900Y0088132D02*
X0060112Y0088132D01*
X0059313Y0088930D02*
X0044900Y0088930D01*
X0044900Y0089729D02*
X0058515Y0089729D01*
X0057716Y0090527D02*
X0044900Y0090527D01*
X0044900Y0091326D02*
X0050140Y0091326D01*
X0048639Y0092124D02*
X0044900Y0092124D01*
X0044900Y0092923D02*
X0047841Y0092923D01*
X0047265Y0093721D02*
X0044900Y0093721D01*
X0044900Y0094520D02*
X0046934Y0094520D01*
X0046603Y0095318D02*
X0044900Y0095318D01*
X0044900Y0096117D02*
X0046600Y0096117D01*
X0046600Y0096915D02*
X0044900Y0096915D01*
X0044900Y0097714D02*
X0046699Y0097714D01*
X0047030Y0098512D02*
X0044900Y0098512D01*
X0044900Y0099311D02*
X0047361Y0099311D01*
X0048072Y0100109D02*
X0044900Y0100109D01*
X0044900Y0100908D02*
X0048871Y0100908D01*
X0050699Y0101706D02*
X0044900Y0101706D01*
X0044900Y0102505D02*
X0051860Y0102505D01*
X0051061Y0103303D02*
X0044900Y0103303D01*
X0044900Y0104102D02*
X0050567Y0104102D01*
X0050237Y0104900D02*
X0044900Y0104900D01*
X0044900Y0105699D02*
X0050025Y0105699D01*
X0050025Y0106497D02*
X0044900Y0106497D01*
X0044900Y0107296D02*
X0050025Y0107296D01*
X0050317Y0108094D02*
X0044900Y0108094D01*
X0044900Y0108893D02*
X0050648Y0108893D01*
X0051256Y0109691D02*
X0044900Y0109691D01*
X0044900Y0110490D02*
X0052054Y0110490D01*
X0052413Y0112087D02*
X0044900Y0112087D01*
X0044900Y0112885D02*
X0051479Y0112885D01*
X0050783Y0113582D02*
X0052182Y0112183D01*
X0054010Y0111425D01*
X0055990Y0111425D01*
X0057818Y0112183D01*
X0059217Y0113582D01*
X0059975Y0115410D01*
X0059975Y0117390D01*
X0059217Y0119218D01*
X0057818Y0120617D01*
X0055990Y0121375D01*
X0054010Y0121375D01*
X0052182Y0120617D01*
X0050783Y0119218D01*
X0050025Y0117390D01*
X0050025Y0115410D01*
X0050783Y0113582D01*
X0050740Y0113684D02*
X0044900Y0113684D01*
X0044900Y0114482D02*
X0050410Y0114482D01*
X0050079Y0115281D02*
X0044900Y0115281D01*
X0044900Y0116079D02*
X0050025Y0116079D01*
X0050025Y0116878D02*
X0044900Y0116878D01*
X0044900Y0117676D02*
X0050144Y0117676D01*
X0050475Y0118475D02*
X0044900Y0118475D01*
X0044900Y0119273D02*
X0050838Y0119273D01*
X0051637Y0120072D02*
X0044900Y0120072D01*
X0044900Y0120870D02*
X0052793Y0120870D01*
X0053422Y0121669D02*
X0044900Y0121669D01*
X0044900Y0122468D02*
X0051897Y0122468D01*
X0052182Y0122183D02*
X0054010Y0121425D01*
X0055990Y0121425D01*
X0057818Y0122183D01*
X0059217Y0123582D01*
X0059975Y0125410D01*
X0059975Y0127390D01*
X0059217Y0129218D01*
X0057818Y0130617D01*
X0055990Y0131375D01*
X0054010Y0131375D01*
X0052182Y0130617D01*
X0050783Y0129218D01*
X0050025Y0127390D01*
X0050025Y0125410D01*
X0050783Y0123582D01*
X0052182Y0122183D01*
X0051099Y0123266D02*
X0044900Y0123266D01*
X0044900Y0124065D02*
X0050583Y0124065D01*
X0050252Y0124863D02*
X0044900Y0124863D01*
X0044900Y0125662D02*
X0050025Y0125662D01*
X0050025Y0126460D02*
X0044900Y0126460D01*
X0044900Y0127259D02*
X0050025Y0127259D01*
X0050302Y0128057D02*
X0044900Y0128057D01*
X0044900Y0128856D02*
X0050632Y0128856D01*
X0051219Y0129654D02*
X0044900Y0129654D01*
X0044900Y0130453D02*
X0052017Y0130453D01*
X0052503Y0132050D02*
X0044900Y0132050D01*
X0044900Y0132848D02*
X0051516Y0132848D01*
X0052182Y0132183D02*
X0050783Y0133582D01*
X0050025Y0135410D01*
X0050025Y0137390D01*
X0050783Y0139218D01*
X0052182Y0140617D01*
X0054010Y0141375D01*
X0055990Y0141375D01*
X0057818Y0140617D01*
X0059217Y0139218D01*
X0059975Y0137390D01*
X0059975Y0135410D01*
X0059217Y0133582D01*
X0057818Y0132183D01*
X0055990Y0131425D01*
X0054010Y0131425D01*
X0052182Y0132183D01*
X0053712Y0131251D02*
X0044900Y0131251D01*
X0044900Y0133647D02*
X0050756Y0133647D01*
X0050425Y0134445D02*
X0044900Y0134445D01*
X0044900Y0135244D02*
X0050094Y0135244D01*
X0050025Y0136042D02*
X0044900Y0136042D01*
X0044900Y0136841D02*
X0050025Y0136841D01*
X0050129Y0137639D02*
X0044900Y0137639D01*
X0044900Y0138438D02*
X0050459Y0138438D01*
X0050801Y0139236D02*
X0044900Y0139236D01*
X0044900Y0140035D02*
X0051599Y0140035D01*
X0052703Y0140833D02*
X0044900Y0140833D01*
X0044900Y0141632D02*
X0053512Y0141632D01*
X0054010Y0141425D02*
X0055990Y0141425D01*
X0057818Y0142183D01*
X0059217Y0143582D01*
X0059975Y0145410D01*
X0059975Y0147390D01*
X0059217Y0149218D01*
X0057818Y0150617D01*
X0055990Y0151375D01*
X0054010Y0151375D01*
X0052182Y0150617D01*
X0050783Y0149218D01*
X0050025Y0147390D01*
X0050025Y0145410D01*
X0050783Y0143582D01*
X0052182Y0142183D01*
X0054010Y0141425D01*
X0051934Y0142430D02*
X0044900Y0142430D01*
X0044900Y0143229D02*
X0051136Y0143229D01*
X0050598Y0144027D02*
X0044900Y0144027D01*
X0044900Y0144826D02*
X0050267Y0144826D01*
X0050025Y0145624D02*
X0044900Y0145624D01*
X0044900Y0146423D02*
X0050025Y0146423D01*
X0050025Y0147221D02*
X0044900Y0147221D01*
X0044900Y0148020D02*
X0050286Y0148020D01*
X0050617Y0148818D02*
X0044900Y0148818D01*
X0044900Y0149617D02*
X0051181Y0149617D01*
X0051980Y0150415D02*
X0044900Y0150415D01*
X0044900Y0151214D02*
X0053622Y0151214D01*
X0054010Y0151425D02*
X0055990Y0151425D01*
X0057818Y0152183D01*
X0059217Y0153582D01*
X0059975Y0155410D01*
X0059975Y0157390D01*
X0059217Y0159218D01*
X0057818Y0160617D01*
X0055990Y0161375D01*
X0054010Y0161375D01*
X0052182Y0160617D01*
X0050783Y0159218D01*
X0050025Y0157390D01*
X0050025Y0155410D01*
X0050783Y0153582D01*
X0052182Y0152183D01*
X0054010Y0151425D01*
X0052593Y0152012D02*
X0044900Y0152012D01*
X0044900Y0152811D02*
X0051554Y0152811D01*
X0050771Y0153609D02*
X0044900Y0153609D01*
X0044900Y0154408D02*
X0050440Y0154408D01*
X0050110Y0155206D02*
X0044900Y0155206D01*
X0044900Y0156005D02*
X0050025Y0156005D01*
X0050025Y0156803D02*
X0044900Y0156803D01*
X0044900Y0157602D02*
X0050113Y0157602D01*
X0050444Y0158401D02*
X0044900Y0158401D01*
X0044900Y0159199D02*
X0050775Y0159199D01*
X0051562Y0159998D02*
X0044900Y0159998D01*
X0044900Y0160796D02*
X0052613Y0160796D01*
X0053602Y0161595D02*
X0044900Y0161595D01*
X0044900Y0162393D02*
X0051971Y0162393D01*
X0052182Y0162183D02*
X0054010Y0161425D01*
X0055990Y0161425D01*
X0057818Y0162183D01*
X0059217Y0163582D01*
X0059975Y0165410D01*
X0059975Y0167390D01*
X0059217Y0169218D01*
X0057818Y0170617D01*
X0055990Y0171375D01*
X0054010Y0171375D01*
X0052182Y0170617D01*
X0050783Y0169218D01*
X0050025Y0167390D01*
X0050025Y0165410D01*
X0050783Y0163582D01*
X0052182Y0162183D01*
X0051173Y0163192D02*
X0044900Y0163192D01*
X0044900Y0163990D02*
X0050614Y0163990D01*
X0050283Y0164789D02*
X0044900Y0164789D01*
X0044900Y0165587D02*
X0050025Y0165587D01*
X0050025Y0166386D02*
X0044900Y0166386D01*
X0044900Y0167184D02*
X0050025Y0167184D01*
X0050271Y0167983D02*
X0044900Y0167983D01*
X0044900Y0168781D02*
X0050602Y0168781D01*
X0051144Y0169580D02*
X0044900Y0169580D01*
X0044900Y0170378D02*
X0051943Y0170378D01*
X0052683Y0171975D02*
X0044900Y0171975D01*
X0044900Y0171177D02*
X0053532Y0171177D01*
X0054010Y0171425D02*
X0055990Y0171425D01*
X0057818Y0172183D01*
X0059217Y0173582D01*
X0059975Y0175410D01*
X0059975Y0177390D01*
X0059217Y0179218D01*
X0057818Y0180617D01*
X0055990Y0181375D01*
X0054010Y0181375D01*
X0052182Y0180617D01*
X0050783Y0179218D01*
X0050025Y0177390D01*
X0050025Y0175410D01*
X0050783Y0173582D01*
X0052182Y0172183D01*
X0054010Y0171425D01*
X0056468Y0171177D02*
X0139566Y0171177D01*
X0138768Y0171975D02*
X0109461Y0171975D01*
X0109391Y0171905D02*
X0110066Y0172580D01*
X0110431Y0173462D01*
X0110431Y0175798D01*
X0110555Y0176096D01*
X0110555Y0181346D01*
X0110802Y0181244D01*
X0116088Y0181244D01*
X0116970Y0181609D01*
X0117645Y0182285D01*
X0118010Y0183167D01*
X0118010Y0189633D01*
X0117645Y0190515D01*
X0116970Y0191191D01*
X0116196Y0191511D01*
X0117818Y0192183D01*
X0119217Y0193582D01*
X0119975Y0195410D01*
X0119975Y0197390D01*
X0119217Y0199218D01*
X0117818Y0200617D01*
X0115990Y0201375D01*
X0114010Y0201375D01*
X0112182Y0200617D01*
X0110783Y0199218D01*
X0110025Y0197390D01*
X0110025Y0197032D01*
X0109975Y0197082D01*
X0109975Y0197390D01*
X0109217Y0199218D01*
X0109000Y0199435D01*
X0109000Y0199743D01*
X0111657Y0202400D01*
X0123343Y0202400D01*
X0131000Y0194743D01*
X0131000Y0180604D01*
X0131609Y0179134D01*
X0132734Y0178009D01*
X0147734Y0163009D01*
X0149204Y0162400D01*
X0161965Y0162400D01*
X0162182Y0162183D01*
X0164010Y0161425D01*
X0165990Y0161425D01*
X0167818Y0162183D01*
X0169217Y0163582D01*
X0169975Y0165410D01*
X0169975Y0167390D01*
X0169217Y0169218D01*
X0167818Y0170617D01*
X0165990Y0171375D01*
X0164010Y0171375D01*
X0162182Y0170617D01*
X0161965Y0170400D01*
X0151657Y0170400D01*
X0139000Y0183057D01*
X0139000Y0197196D01*
X0138391Y0198666D01*
X0128391Y0208666D01*
X0127266Y0209791D01*
X0125796Y0210400D01*
X0109204Y0210400D01*
X0107734Y0209791D01*
X0102734Y0204791D01*
X0101609Y0203666D01*
X0101000Y0202196D01*
X0101000Y0199435D01*
X0100783Y0199218D01*
X0100025Y0197390D01*
X0100025Y0195410D01*
X0100783Y0193582D01*
X0102182Y0192183D01*
X0103804Y0191511D01*
X0103030Y0191191D01*
X0102355Y0190515D01*
X0101990Y0189633D01*
X0101990Y0185067D01*
X0099000Y0188057D01*
X0099000Y0193365D01*
X0099975Y0194339D01*
X0099975Y0198461D01*
X0097061Y0201375D01*
X0092939Y0201375D01*
X0090025Y0198461D01*
X0090025Y0194339D01*
X0091000Y0193365D01*
X0091000Y0185604D01*
X0091609Y0184134D01*
X0094851Y0180892D01*
X0088665Y0180892D01*
X0076500Y0193057D01*
X0076500Y0229743D01*
X0079157Y0232400D01*
X0135843Y0232400D01*
X0138500Y0229743D01*
X0138500Y0205604D01*
X0139109Y0204134D01*
X0140234Y0203009D01*
X0150234Y0193009D01*
X0151704Y0192400D01*
X0161965Y0192400D01*
X0162182Y0192183D01*
X0164010Y0191425D01*
X0165990Y0191425D01*
X0167818Y0192183D01*
X0169217Y0193582D01*
X0169975Y0195410D01*
X0169975Y0197390D01*
X0169217Y0199218D01*
X0167818Y0200617D01*
X0165990Y0201375D01*
X0164010Y0201375D01*
X0162182Y0200617D01*
X0161965Y0200400D01*
X0154157Y0200400D01*
X0146500Y0208057D01*
X0146500Y0232196D01*
X0145891Y0233666D01*
X0144766Y0234791D01*
X0139766Y0239791D01*
X0138296Y0240400D01*
X0076704Y0240400D01*
X0075234Y0239791D01*
X0074109Y0238666D01*
X0069109Y0233666D01*
X0068500Y0232196D01*
X0068500Y0190604D01*
X0069109Y0189134D01*
X0070234Y0188009D01*
X0070234Y0188009D01*
X0084742Y0173501D01*
X0086212Y0172892D01*
X0101931Y0172892D01*
X0102060Y0172580D01*
X0102735Y0171905D01*
X0103617Y0171539D01*
X0108509Y0171539D01*
X0109391Y0171905D01*
X0110146Y0172774D02*
X0137969Y0172774D01*
X0137171Y0173572D02*
X0110431Y0173572D01*
X0110431Y0174371D02*
X0136372Y0174371D01*
X0135574Y0175169D02*
X0110431Y0175169D01*
X0110502Y0175968D02*
X0134775Y0175968D01*
X0133977Y0176766D02*
X0110555Y0176766D01*
X0110555Y0177565D02*
X0133178Y0177565D01*
X0132380Y0178363D02*
X0110555Y0178363D01*
X0110555Y0179162D02*
X0131598Y0179162D01*
X0131267Y0179960D02*
X0110555Y0179960D01*
X0110555Y0180759D02*
X0131000Y0180759D01*
X0131000Y0181557D02*
X0116844Y0181557D01*
X0117674Y0182356D02*
X0131000Y0182356D01*
X0131000Y0183154D02*
X0118005Y0183154D01*
X0118010Y0183953D02*
X0131000Y0183953D01*
X0131000Y0184751D02*
X0118010Y0184751D01*
X0118010Y0185550D02*
X0131000Y0185550D01*
X0131000Y0186348D02*
X0118010Y0186348D01*
X0118010Y0187147D02*
X0131000Y0187147D01*
X0131000Y0187945D02*
X0118010Y0187945D01*
X0118010Y0188744D02*
X0131000Y0188744D01*
X0131000Y0189542D02*
X0118010Y0189542D01*
X0117717Y0190341D02*
X0131000Y0190341D01*
X0131000Y0191139D02*
X0117021Y0191139D01*
X0117228Y0191938D02*
X0131000Y0191938D01*
X0131000Y0192737D02*
X0118372Y0192737D01*
X0119170Y0193535D02*
X0131000Y0193535D01*
X0131000Y0194334D02*
X0119529Y0194334D01*
X0119859Y0195132D02*
X0130611Y0195132D01*
X0129813Y0195931D02*
X0119975Y0195931D01*
X0119975Y0196729D02*
X0129014Y0196729D01*
X0128216Y0197528D02*
X0119918Y0197528D01*
X0119587Y0198326D02*
X0127417Y0198326D01*
X0126619Y0199125D02*
X0119256Y0199125D01*
X0118512Y0199923D02*
X0125820Y0199923D01*
X0125022Y0200722D02*
X0117566Y0200722D01*
X0112434Y0200722D02*
X0109978Y0200722D01*
X0109180Y0199923D02*
X0111488Y0199923D01*
X0110744Y0199125D02*
X0109256Y0199125D01*
X0109587Y0198326D02*
X0110413Y0198326D01*
X0110082Y0197528D02*
X0109918Y0197528D01*
X0110777Y0201520D02*
X0124223Y0201520D01*
X0123424Y0202319D02*
X0111575Y0202319D01*
X0105053Y0207110D02*
X0076500Y0207110D01*
X0076500Y0207908D02*
X0105851Y0207908D01*
X0106650Y0208707D02*
X0076500Y0208707D01*
X0076500Y0209505D02*
X0107448Y0209505D01*
X0108972Y0210304D02*
X0076500Y0210304D01*
X0076500Y0211102D02*
X0138500Y0211102D01*
X0138500Y0210304D02*
X0126028Y0210304D01*
X0127552Y0209505D02*
X0138500Y0209505D01*
X0138500Y0208707D02*
X0128350Y0208707D01*
X0129149Y0207908D02*
X0138500Y0207908D01*
X0138500Y0207110D02*
X0129947Y0207110D01*
X0130746Y0206311D02*
X0138500Y0206311D01*
X0138538Y0205513D02*
X0131544Y0205513D01*
X0132343Y0204714D02*
X0138869Y0204714D01*
X0139327Y0203916D02*
X0133141Y0203916D01*
X0133940Y0203117D02*
X0140126Y0203117D01*
X0140924Y0202319D02*
X0134738Y0202319D01*
X0135537Y0201520D02*
X0141723Y0201520D01*
X0142522Y0200722D02*
X0136335Y0200722D01*
X0137134Y0199923D02*
X0143320Y0199923D01*
X0144119Y0199125D02*
X0137932Y0199125D01*
X0138532Y0198326D02*
X0144917Y0198326D01*
X0145716Y0197528D02*
X0138863Y0197528D01*
X0139000Y0196729D02*
X0146514Y0196729D01*
X0147313Y0195931D02*
X0139000Y0195931D01*
X0139000Y0195132D02*
X0148111Y0195132D01*
X0148910Y0194334D02*
X0139000Y0194334D01*
X0139000Y0193535D02*
X0149708Y0193535D01*
X0150892Y0192737D02*
X0139000Y0192737D01*
X0139000Y0191938D02*
X0162772Y0191938D01*
X0167228Y0191938D02*
X0175021Y0191938D01*
X0175021Y0192737D02*
X0168372Y0192737D01*
X0169170Y0193535D02*
X0175021Y0193535D01*
X0175021Y0194334D02*
X0169529Y0194334D01*
X0169859Y0195132D02*
X0175021Y0195132D01*
X0175021Y0195931D02*
X0169975Y0195931D01*
X0169975Y0196729D02*
X0175021Y0196729D01*
X0175021Y0197528D02*
X0169918Y0197528D01*
X0169587Y0198326D02*
X0175021Y0198326D01*
X0175021Y0199125D02*
X0169256Y0199125D01*
X0168512Y0199923D02*
X0175021Y0199923D01*
X0175021Y0200722D02*
X0167566Y0200722D01*
X0167818Y0202183D02*
X0169217Y0203582D01*
X0169975Y0205410D01*
X0169975Y0207390D01*
X0169217Y0209218D01*
X0167818Y0210617D01*
X0165990Y0211375D01*
X0164010Y0211375D01*
X0162182Y0210617D01*
X0160783Y0209218D01*
X0160025Y0207390D01*
X0160025Y0205410D01*
X0160783Y0203582D01*
X0162182Y0202183D01*
X0164010Y0201425D01*
X0165990Y0201425D01*
X0167818Y0202183D01*
X0167954Y0202319D02*
X0175021Y0202319D01*
X0175021Y0203117D02*
X0168753Y0203117D01*
X0169356Y0203916D02*
X0175021Y0203916D01*
X0175021Y0204714D02*
X0169686Y0204714D01*
X0169975Y0205513D02*
X0175021Y0205513D01*
X0175021Y0206311D02*
X0169975Y0206311D01*
X0169975Y0207110D02*
X0175021Y0207110D01*
X0175021Y0207908D02*
X0169760Y0207908D01*
X0169429Y0208707D02*
X0175021Y0208707D01*
X0175021Y0209505D02*
X0168930Y0209505D01*
X0168132Y0210304D02*
X0175021Y0210304D01*
X0175021Y0211102D02*
X0166647Y0211102D01*
X0165990Y0211425D02*
X0167818Y0212183D01*
X0169217Y0213582D01*
X0169975Y0215410D01*
X0169975Y0217390D01*
X0169217Y0219218D01*
X0167818Y0220617D01*
X0165990Y0221375D01*
X0164010Y0221375D01*
X0162182Y0220617D01*
X0160783Y0219218D01*
X0160025Y0217390D01*
X0160025Y0215410D01*
X0160783Y0213582D01*
X0162182Y0212183D01*
X0164010Y0211425D01*
X0165990Y0211425D01*
X0167138Y0211901D02*
X0175021Y0211901D01*
X0175021Y0212699D02*
X0168335Y0212699D01*
X0169133Y0213498D02*
X0175021Y0213498D01*
X0175021Y0214296D02*
X0169513Y0214296D01*
X0169844Y0215095D02*
X0175021Y0215095D01*
X0175021Y0215893D02*
X0169975Y0215893D01*
X0169975Y0216692D02*
X0175021Y0216692D01*
X0175021Y0217490D02*
X0169933Y0217490D01*
X0169602Y0218289D02*
X0175021Y0218289D01*
X0175021Y0219087D02*
X0169272Y0219087D01*
X0168550Y0219886D02*
X0175021Y0219886D01*
X0175021Y0220684D02*
X0167656Y0220684D01*
X0167818Y0222183D02*
X0169217Y0223582D01*
X0169975Y0225410D01*
X0169975Y0227390D01*
X0169217Y0229218D01*
X0167818Y0230617D01*
X0165990Y0231375D01*
X0164010Y0231375D01*
X0162182Y0230617D01*
X0160783Y0229218D01*
X0160025Y0227390D01*
X0160025Y0225410D01*
X0160783Y0223582D01*
X0162182Y0222183D01*
X0164010Y0221425D01*
X0165990Y0221425D01*
X0167818Y0222183D01*
X0167917Y0222281D02*
X0175021Y0222281D01*
X0175021Y0221483D02*
X0166129Y0221483D01*
X0163871Y0221483D02*
X0146500Y0221483D01*
X0146500Y0222281D02*
X0162083Y0222281D01*
X0161285Y0223080D02*
X0146500Y0223080D01*
X0146500Y0223878D02*
X0160660Y0223878D01*
X0160329Y0224677D02*
X0146500Y0224677D01*
X0146500Y0225475D02*
X0160025Y0225475D01*
X0160025Y0226274D02*
X0146500Y0226274D01*
X0146500Y0227072D02*
X0160025Y0227072D01*
X0160225Y0227871D02*
X0146500Y0227871D01*
X0146500Y0228670D02*
X0160555Y0228670D01*
X0161033Y0229468D02*
X0146500Y0229468D01*
X0146500Y0230267D02*
X0161831Y0230267D01*
X0163263Y0231065D02*
X0146500Y0231065D01*
X0146500Y0231864D02*
X0162952Y0231864D01*
X0162182Y0232183D02*
X0164010Y0231425D01*
X0165990Y0231425D01*
X0167818Y0232183D01*
X0169217Y0233582D01*
X0169975Y0235410D01*
X0169975Y0237390D01*
X0169217Y0239218D01*
X0167818Y0240617D01*
X0165990Y0241375D01*
X0164010Y0241375D01*
X0162182Y0240617D01*
X0160783Y0239218D01*
X0160025Y0237390D01*
X0160025Y0235410D01*
X0160783Y0233582D01*
X0162182Y0232183D01*
X0161702Y0232662D02*
X0146307Y0232662D01*
X0145976Y0233461D02*
X0160904Y0233461D01*
X0160502Y0234259D02*
X0145298Y0234259D01*
X0144499Y0235058D02*
X0160171Y0235058D01*
X0160025Y0235856D02*
X0143701Y0235856D01*
X0142902Y0236655D02*
X0160025Y0236655D01*
X0160052Y0237453D02*
X0142104Y0237453D01*
X0141305Y0238252D02*
X0160382Y0238252D01*
X0160713Y0239050D02*
X0140507Y0239050D01*
X0139627Y0239849D02*
X0161413Y0239849D01*
X0162254Y0240647D02*
X0057746Y0240647D01*
X0057818Y0240617D02*
X0055990Y0241375D01*
X0054010Y0241375D01*
X0052182Y0240617D01*
X0050783Y0239218D01*
X0050025Y0237390D01*
X0050025Y0235410D01*
X0050783Y0233582D01*
X0052182Y0232183D01*
X0054010Y0231425D01*
X0055990Y0231425D01*
X0057818Y0232183D01*
X0059217Y0233582D01*
X0059975Y0235410D01*
X0059975Y0237390D01*
X0059217Y0239218D01*
X0057818Y0240617D01*
X0058587Y0239849D02*
X0075373Y0239849D01*
X0074493Y0239050D02*
X0059287Y0239050D01*
X0059618Y0238252D02*
X0073695Y0238252D01*
X0072896Y0237453D02*
X0059948Y0237453D01*
X0059975Y0236655D02*
X0072098Y0236655D01*
X0071299Y0235856D02*
X0059975Y0235856D01*
X0059829Y0235058D02*
X0070501Y0235058D01*
X0069702Y0234259D02*
X0059498Y0234259D01*
X0059096Y0233461D02*
X0069024Y0233461D01*
X0068693Y0232662D02*
X0058297Y0232662D01*
X0057048Y0231864D02*
X0068500Y0231864D01*
X0068500Y0231065D02*
X0056737Y0231065D01*
X0055990Y0231375D02*
X0054010Y0231375D01*
X0052182Y0230617D01*
X0050783Y0229218D01*
X0050025Y0227390D01*
X0050025Y0225410D01*
X0050783Y0223582D01*
X0052182Y0222183D01*
X0054010Y0221425D01*
X0055990Y0221425D01*
X0057818Y0222183D01*
X0059217Y0223582D01*
X0059975Y0225410D01*
X0059975Y0227390D01*
X0059217Y0229218D01*
X0057818Y0230617D01*
X0055990Y0231375D01*
X0058169Y0230267D02*
X0068500Y0230267D01*
X0068500Y0229468D02*
X0058967Y0229468D01*
X0059445Y0228670D02*
X0068500Y0228670D01*
X0068500Y0227871D02*
X0059775Y0227871D01*
X0059975Y0227072D02*
X0068500Y0227072D01*
X0068500Y0226274D02*
X0059975Y0226274D01*
X0059975Y0225475D02*
X0068500Y0225475D01*
X0068500Y0224677D02*
X0059671Y0224677D01*
X0059340Y0223878D02*
X0068500Y0223878D01*
X0068500Y0223080D02*
X0058715Y0223080D01*
X0057917Y0222281D02*
X0068500Y0222281D01*
X0068500Y0221483D02*
X0056129Y0221483D01*
X0055990Y0221375D02*
X0054010Y0221375D01*
X0052182Y0220617D01*
X0050783Y0219218D01*
X0050025Y0217390D01*
X0050025Y0215410D01*
X0050783Y0213582D01*
X0052182Y0212183D01*
X0054010Y0211425D01*
X0055990Y0211425D01*
X0057818Y0212183D01*
X0059217Y0213582D01*
X0059975Y0215410D01*
X0059975Y0217390D01*
X0059217Y0219218D01*
X0057818Y0220617D01*
X0055990Y0221375D01*
X0057656Y0220684D02*
X0068500Y0220684D01*
X0068500Y0219886D02*
X0058550Y0219886D01*
X0059272Y0219087D02*
X0068500Y0219087D01*
X0068500Y0218289D02*
X0059602Y0218289D01*
X0059933Y0217490D02*
X0068500Y0217490D01*
X0068500Y0216692D02*
X0059975Y0216692D01*
X0059975Y0215893D02*
X0068500Y0215893D01*
X0068500Y0215095D02*
X0059844Y0215095D01*
X0059513Y0214296D02*
X0068500Y0214296D01*
X0068500Y0213498D02*
X0059133Y0213498D01*
X0058335Y0212699D02*
X0068500Y0212699D01*
X0068500Y0211901D02*
X0057138Y0211901D01*
X0056647Y0211102D02*
X0068500Y0211102D01*
X0068500Y0210304D02*
X0058132Y0210304D01*
X0057818Y0210617D02*
X0055990Y0211375D01*
X0054010Y0211375D01*
X0052182Y0210617D01*
X0050783Y0209218D01*
X0050025Y0207390D01*
X0050025Y0205410D01*
X0050783Y0203582D01*
X0052182Y0202183D01*
X0054010Y0201425D01*
X0055990Y0201425D01*
X0057818Y0202183D01*
X0059217Y0203582D01*
X0059975Y0205410D01*
X0059975Y0207390D01*
X0059217Y0209218D01*
X0057818Y0210617D01*
X0058930Y0209505D02*
X0068500Y0209505D01*
X0068500Y0208707D02*
X0059429Y0208707D01*
X0059760Y0207908D02*
X0068500Y0207908D01*
X0068500Y0207110D02*
X0059975Y0207110D01*
X0059975Y0206311D02*
X0068500Y0206311D01*
X0068500Y0205513D02*
X0059975Y0205513D01*
X0059686Y0204714D02*
X0068500Y0204714D01*
X0068500Y0203916D02*
X0059356Y0203916D01*
X0058753Y0203117D02*
X0068500Y0203117D01*
X0068500Y0202319D02*
X0057954Y0202319D01*
X0057566Y0200722D02*
X0068500Y0200722D01*
X0068500Y0201520D02*
X0056219Y0201520D01*
X0055990Y0201375D02*
X0054010Y0201375D01*
X0052182Y0200617D01*
X0050783Y0199218D01*
X0050025Y0197390D01*
X0050025Y0195410D01*
X0050783Y0193582D01*
X0052182Y0192183D01*
X0054010Y0191425D01*
X0055990Y0191425D01*
X0057818Y0192183D01*
X0059217Y0193582D01*
X0059975Y0195410D01*
X0059975Y0197390D01*
X0059217Y0199218D01*
X0057818Y0200617D01*
X0055990Y0201375D01*
X0053781Y0201520D02*
X0044900Y0201520D01*
X0044900Y0200722D02*
X0052434Y0200722D01*
X0051488Y0199923D02*
X0044900Y0199923D01*
X0044900Y0199125D02*
X0050744Y0199125D01*
X0050413Y0198326D02*
X0044900Y0198326D01*
X0044900Y0197528D02*
X0050082Y0197528D01*
X0050025Y0196729D02*
X0044900Y0196729D01*
X0044900Y0195931D02*
X0050025Y0195931D01*
X0050141Y0195132D02*
X0044900Y0195132D01*
X0044900Y0194334D02*
X0050471Y0194334D01*
X0050830Y0193535D02*
X0044900Y0193535D01*
X0044900Y0192737D02*
X0051628Y0192737D01*
X0052772Y0191938D02*
X0044900Y0191938D01*
X0044900Y0191139D02*
X0053442Y0191139D01*
X0054010Y0191375D02*
X0052182Y0190617D01*
X0050783Y0189218D01*
X0050025Y0187390D01*
X0050025Y0185410D01*
X0050783Y0183582D01*
X0052182Y0182183D01*
X0054010Y0181425D01*
X0055990Y0181425D01*
X0057818Y0182183D01*
X0059217Y0183582D01*
X0059975Y0185410D01*
X0059975Y0187390D01*
X0059217Y0189218D01*
X0057818Y0190617D01*
X0055990Y0191375D01*
X0054010Y0191375D01*
X0051906Y0190341D02*
X0044900Y0190341D01*
X0044900Y0189542D02*
X0051107Y0189542D01*
X0050586Y0188744D02*
X0044900Y0188744D01*
X0044900Y0187945D02*
X0050255Y0187945D01*
X0050025Y0187147D02*
X0044900Y0187147D01*
X0044900Y0186348D02*
X0050025Y0186348D01*
X0050025Y0185550D02*
X0044900Y0185550D01*
X0044900Y0184751D02*
X0050298Y0184751D01*
X0050629Y0183953D02*
X0044900Y0183953D01*
X0044900Y0183154D02*
X0051210Y0183154D01*
X0052009Y0182356D02*
X0044900Y0182356D01*
X0044900Y0181557D02*
X0053691Y0181557D01*
X0052523Y0180759D02*
X0044900Y0180759D01*
X0044900Y0179960D02*
X0051525Y0179960D01*
X0050759Y0179162D02*
X0044900Y0179162D01*
X0044900Y0178363D02*
X0050429Y0178363D01*
X0050098Y0177565D02*
X0044900Y0177565D01*
X0044900Y0176766D02*
X0050025Y0176766D01*
X0050025Y0175968D02*
X0044900Y0175968D01*
X0044900Y0175169D02*
X0050125Y0175169D01*
X0050456Y0174371D02*
X0044900Y0174371D01*
X0044900Y0173572D02*
X0050792Y0173572D01*
X0051591Y0172774D02*
X0044900Y0172774D01*
X0057317Y0171975D02*
X0102665Y0171975D01*
X0101980Y0172774D02*
X0058409Y0172774D01*
X0059208Y0173572D02*
X0084671Y0173572D01*
X0083872Y0174371D02*
X0059544Y0174371D01*
X0059875Y0175169D02*
X0083074Y0175169D01*
X0082275Y0175968D02*
X0059975Y0175968D01*
X0059975Y0176766D02*
X0081477Y0176766D01*
X0080678Y0177565D02*
X0059902Y0177565D01*
X0059571Y0178363D02*
X0079880Y0178363D01*
X0079081Y0179162D02*
X0059241Y0179162D01*
X0058475Y0179960D02*
X0078283Y0179960D01*
X0077484Y0180759D02*
X0057477Y0180759D01*
X0056309Y0181557D02*
X0076686Y0181557D01*
X0075887Y0182356D02*
X0057991Y0182356D01*
X0058790Y0183154D02*
X0075089Y0183154D01*
X0074290Y0183953D02*
X0059371Y0183953D01*
X0059702Y0184751D02*
X0073492Y0184751D01*
X0072693Y0185550D02*
X0059975Y0185550D01*
X0059975Y0186348D02*
X0071895Y0186348D01*
X0071096Y0187147D02*
X0059975Y0187147D01*
X0059745Y0187945D02*
X0070298Y0187945D01*
X0069499Y0188744D02*
X0059414Y0188744D01*
X0058893Y0189542D02*
X0068940Y0189542D01*
X0068609Y0190341D02*
X0058094Y0190341D01*
X0056558Y0191139D02*
X0068500Y0191139D01*
X0068500Y0191938D02*
X0057228Y0191938D01*
X0058372Y0192737D02*
X0068500Y0192737D01*
X0068500Y0193535D02*
X0059170Y0193535D01*
X0059529Y0194334D02*
X0068500Y0194334D01*
X0068500Y0195132D02*
X0059859Y0195132D01*
X0059975Y0195931D02*
X0068500Y0195931D01*
X0068500Y0196729D02*
X0059975Y0196729D01*
X0059918Y0197528D02*
X0068500Y0197528D01*
X0068500Y0198326D02*
X0059587Y0198326D01*
X0059256Y0199125D02*
X0068500Y0199125D01*
X0068500Y0199923D02*
X0058512Y0199923D01*
X0052046Y0202319D02*
X0044900Y0202319D01*
X0044900Y0203117D02*
X0051247Y0203117D01*
X0050644Y0203916D02*
X0044900Y0203916D01*
X0044900Y0204714D02*
X0050314Y0204714D01*
X0050025Y0205513D02*
X0044900Y0205513D01*
X0044900Y0206311D02*
X0050025Y0206311D01*
X0050025Y0207110D02*
X0044900Y0207110D01*
X0044900Y0207908D02*
X0050240Y0207908D01*
X0050571Y0208707D02*
X0044900Y0208707D01*
X0044900Y0209505D02*
X0051070Y0209505D01*
X0051868Y0210304D02*
X0044900Y0210304D01*
X0044900Y0211102D02*
X0053353Y0211102D01*
X0052862Y0211901D02*
X0044900Y0211901D01*
X0044900Y0212699D02*
X0051665Y0212699D01*
X0050867Y0213498D02*
X0044900Y0213498D01*
X0044900Y0214296D02*
X0050487Y0214296D01*
X0050156Y0215095D02*
X0044900Y0215095D01*
X0044900Y0215893D02*
X0050025Y0215893D01*
X0050025Y0216692D02*
X0044900Y0216692D01*
X0044900Y0217490D02*
X0050067Y0217490D01*
X0050398Y0218289D02*
X0044900Y0218289D01*
X0044900Y0219087D02*
X0050728Y0219087D01*
X0051450Y0219886D02*
X0044900Y0219886D01*
X0044900Y0220684D02*
X0052344Y0220684D01*
X0052083Y0222281D02*
X0044900Y0222281D01*
X0044900Y0221483D02*
X0053871Y0221483D01*
X0051285Y0223080D02*
X0044900Y0223080D01*
X0044900Y0223878D02*
X0050660Y0223878D01*
X0050329Y0224677D02*
X0044900Y0224677D01*
X0044900Y0225475D02*
X0050025Y0225475D01*
X0050025Y0226274D02*
X0044900Y0226274D01*
X0044900Y0227072D02*
X0050025Y0227072D01*
X0050225Y0227871D02*
X0044900Y0227871D01*
X0044900Y0228670D02*
X0050555Y0228670D01*
X0051033Y0229468D02*
X0044900Y0229468D01*
X0044900Y0230267D02*
X0051831Y0230267D01*
X0053263Y0231065D02*
X0044900Y0231065D01*
X0044900Y0231864D02*
X0052952Y0231864D01*
X0051702Y0232662D02*
X0044900Y0232662D01*
X0044900Y0233461D02*
X0050904Y0233461D01*
X0050502Y0234259D02*
X0044900Y0234259D01*
X0044900Y0235058D02*
X0050171Y0235058D01*
X0050025Y0235856D02*
X0044900Y0235856D01*
X0044900Y0236655D02*
X0050025Y0236655D01*
X0050052Y0237453D02*
X0044900Y0237453D01*
X0044900Y0238252D02*
X0050382Y0238252D01*
X0050713Y0239050D02*
X0044900Y0239050D01*
X0044900Y0239849D02*
X0051413Y0239849D01*
X0052254Y0240647D02*
X0044900Y0240647D01*
X0044900Y0241446D02*
X0053961Y0241446D01*
X0054010Y0241425D02*
X0055990Y0241425D01*
X0057818Y0242183D01*
X0059217Y0243582D01*
X0059975Y0245410D01*
X0059975Y0247390D01*
X0059217Y0249218D01*
X0057818Y0250617D01*
X0055990Y0251375D01*
X0054010Y0251375D01*
X0052182Y0250617D01*
X0050783Y0249218D01*
X0050025Y0247390D01*
X0050025Y0245410D01*
X0050783Y0243582D01*
X0052182Y0242183D01*
X0054010Y0241425D01*
X0056039Y0241446D02*
X0163961Y0241446D01*
X0164010Y0241425D02*
X0165990Y0241425D01*
X0167818Y0242183D01*
X0169217Y0243582D01*
X0169975Y0245410D01*
X0169975Y0247390D01*
X0169217Y0249218D01*
X0167818Y0250617D01*
X0165990Y0251375D01*
X0164010Y0251375D01*
X0162182Y0250617D01*
X0160783Y0249218D01*
X0160025Y0247390D01*
X0160025Y0245410D01*
X0160783Y0243582D01*
X0162182Y0242183D01*
X0164010Y0241425D01*
X0166039Y0241446D02*
X0175021Y0241446D01*
X0175021Y0242244D02*
X0167880Y0242244D01*
X0168678Y0243043D02*
X0175021Y0243043D01*
X0175021Y0243841D02*
X0169325Y0243841D01*
X0169656Y0244640D02*
X0175021Y0244640D01*
X0175021Y0245438D02*
X0169975Y0245438D01*
X0169975Y0246237D02*
X0175021Y0246237D01*
X0175021Y0247035D02*
X0169975Y0247035D01*
X0169791Y0247834D02*
X0175021Y0247834D01*
X0175021Y0248632D02*
X0169460Y0248632D01*
X0169005Y0249431D02*
X0175021Y0249431D01*
X0175021Y0250229D02*
X0168206Y0250229D01*
X0166827Y0251028D02*
X0175021Y0251028D01*
X0175021Y0251826D02*
X0044900Y0251826D01*
X0044900Y0251028D02*
X0053173Y0251028D01*
X0051794Y0250229D02*
X0044900Y0250229D01*
X0044900Y0249431D02*
X0050995Y0249431D01*
X0050540Y0248632D02*
X0044900Y0248632D01*
X0044900Y0247834D02*
X0050209Y0247834D01*
X0050025Y0247035D02*
X0044900Y0247035D01*
X0044900Y0246237D02*
X0050025Y0246237D01*
X0050025Y0245438D02*
X0044900Y0245438D01*
X0044900Y0244640D02*
X0050344Y0244640D01*
X0050675Y0243841D02*
X0044900Y0243841D01*
X0044900Y0243043D02*
X0051322Y0243043D01*
X0052120Y0242244D02*
X0044900Y0242244D01*
X0044900Y0252625D02*
X0175021Y0252625D01*
X0175021Y0253423D02*
X0044900Y0253423D01*
X0044900Y0254222D02*
X0175021Y0254222D01*
X0175021Y0255020D02*
X0044900Y0255020D01*
X0044900Y0255819D02*
X0175021Y0255819D01*
X0175021Y0256617D02*
X0044900Y0256617D01*
X0044900Y0257416D02*
X0175021Y0257416D01*
X0175021Y0258214D02*
X0044900Y0258214D01*
X0044900Y0259013D02*
X0175021Y0259013D01*
X0175021Y0259811D02*
X0044900Y0259811D01*
X0044900Y0260610D02*
X0175021Y0260610D01*
X0175021Y0261408D02*
X0044900Y0261408D01*
X0044900Y0262207D02*
X0175021Y0262207D01*
X0175021Y0263005D02*
X0044900Y0263005D01*
X0044900Y0263804D02*
X0175021Y0263804D01*
X0175021Y0264603D02*
X0044900Y0264603D01*
X0044900Y0265401D02*
X0175021Y0265401D01*
X0175021Y0266200D02*
X0044900Y0266200D01*
X0044900Y0266998D02*
X0175021Y0266998D01*
X0175021Y0267797D02*
X0044900Y0267797D01*
X0044900Y0268595D02*
X0175021Y0268595D01*
X0175021Y0269394D02*
X0044900Y0269394D01*
X0044900Y0270192D02*
X0175021Y0270192D01*
X0175021Y0270991D02*
X0162154Y0270991D01*
X0160865Y0270457D02*
X0157561Y0270457D01*
X0154508Y0271721D01*
X0152172Y0274058D01*
X0150907Y0277110D01*
X0150907Y0280414D01*
X0152172Y0283467D01*
X0154508Y0285803D01*
X0157561Y0287068D01*
X0160865Y0287068D01*
X0163917Y0285803D01*
X0166254Y0283467D01*
X0167518Y0280414D01*
X0167518Y0277110D01*
X0166254Y0274058D01*
X0163917Y0271721D01*
X0160865Y0270457D01*
X0163985Y0271789D02*
X0175021Y0271789D01*
X0175021Y0272588D02*
X0164784Y0272588D01*
X0165582Y0273386D02*
X0175021Y0273386D01*
X0175021Y0274185D02*
X0166306Y0274185D01*
X0166637Y0274983D02*
X0175021Y0274983D01*
X0175021Y0275782D02*
X0166968Y0275782D01*
X0167299Y0276580D02*
X0175021Y0276580D01*
X0175021Y0277379D02*
X0167518Y0277379D01*
X0167518Y0278177D02*
X0175021Y0278177D01*
X0175021Y0278976D02*
X0167518Y0278976D01*
X0167518Y0279774D02*
X0175021Y0279774D01*
X0175021Y0280573D02*
X0167452Y0280573D01*
X0167122Y0281371D02*
X0175021Y0281371D01*
X0175021Y0282170D02*
X0166791Y0282170D01*
X0166460Y0282968D02*
X0175021Y0282968D01*
X0175021Y0283767D02*
X0165954Y0283767D01*
X0165155Y0284565D02*
X0175021Y0284565D01*
X0175021Y0285364D02*
X0164357Y0285364D01*
X0163050Y0286162D02*
X0175021Y0286162D01*
X0175021Y0286961D02*
X0161123Y0286961D01*
X0157303Y0286961D02*
X0116546Y0286961D01*
X0117344Y0287759D02*
X0175021Y0287759D01*
X0175021Y0288558D02*
X0117742Y0288558D01*
X0117458Y0287873D02*
X0118798Y0291107D01*
X0118798Y0294607D01*
X0117458Y0297840D01*
X0114983Y0300315D01*
X0111750Y0301654D01*
X0108250Y0301654D01*
X0105017Y0300315D01*
X0102542Y0297840D01*
X0101202Y0294607D01*
X0101202Y0291107D01*
X0102542Y0287873D01*
X0105017Y0285398D01*
X0108250Y0284059D01*
X0111750Y0284059D01*
X0114983Y0285398D01*
X0117458Y0287873D01*
X0118073Y0289356D02*
X0175021Y0289356D01*
X0175021Y0290155D02*
X0118403Y0290155D01*
X0118734Y0290953D02*
X0175021Y0290953D01*
X0175021Y0291752D02*
X0118798Y0291752D01*
X0118798Y0292550D02*
X0175021Y0292550D01*
X0175021Y0293349D02*
X0118798Y0293349D01*
X0118798Y0294147D02*
X0175021Y0294147D01*
X0175021Y0294946D02*
X0118657Y0294946D01*
X0118326Y0295744D02*
X0175021Y0295744D01*
X0175021Y0296543D02*
X0117996Y0296543D01*
X0117665Y0297341D02*
X0175021Y0297341D01*
X0175021Y0298140D02*
X0117158Y0298140D01*
X0116360Y0298939D02*
X0175021Y0298939D01*
X0175021Y0299737D02*
X0115561Y0299737D01*
X0114451Y0300536D02*
X0175021Y0300536D01*
X0175021Y0301334D02*
X0112523Y0301334D01*
X0107477Y0301334D02*
X0044900Y0301334D01*
X0044900Y0300536D02*
X0105549Y0300536D01*
X0104439Y0299737D02*
X0044900Y0299737D01*
X0044900Y0298939D02*
X0103640Y0298939D01*
X0102842Y0298140D02*
X0044900Y0298140D01*
X0044900Y0297341D02*
X0102335Y0297341D01*
X0102004Y0296543D02*
X0044900Y0296543D01*
X0044900Y0295744D02*
X0101674Y0295744D01*
X0101343Y0294946D02*
X0044900Y0294946D01*
X0044900Y0294147D02*
X0101202Y0294147D01*
X0101202Y0293349D02*
X0044900Y0293349D01*
X0044900Y0292550D02*
X0101202Y0292550D01*
X0101202Y0291752D02*
X0044900Y0291752D01*
X0044900Y0290953D02*
X0101266Y0290953D01*
X0101597Y0290155D02*
X0044900Y0290155D01*
X0044900Y0289356D02*
X0101927Y0289356D01*
X0102258Y0288558D02*
X0044900Y0288558D01*
X0044900Y0287759D02*
X0102656Y0287759D01*
X0103454Y0286961D02*
X0062697Y0286961D01*
X0062439Y0287068D02*
X0059135Y0287068D01*
X0056083Y0285803D01*
X0053746Y0283467D01*
X0052482Y0280414D01*
X0052482Y0277110D01*
X0053746Y0274058D01*
X0056083Y0271721D01*
X0059135Y0270457D01*
X0062439Y0270457D01*
X0065492Y0271721D01*
X0067828Y0274058D01*
X0069093Y0277110D01*
X0069093Y0280414D01*
X0067828Y0283467D01*
X0065492Y0285803D01*
X0062439Y0287068D01*
X0064625Y0286162D02*
X0104253Y0286162D01*
X0105100Y0285364D02*
X0065932Y0285364D01*
X0066730Y0284565D02*
X0107028Y0284565D01*
X0112972Y0284565D02*
X0153270Y0284565D01*
X0152471Y0283767D02*
X0067529Y0283767D01*
X0068035Y0282968D02*
X0151965Y0282968D01*
X0151634Y0282170D02*
X0068366Y0282170D01*
X0068697Y0281371D02*
X0151303Y0281371D01*
X0150973Y0280573D02*
X0069027Y0280573D01*
X0069093Y0279774D02*
X0150907Y0279774D01*
X0150907Y0278976D02*
X0069093Y0278976D01*
X0069093Y0278177D02*
X0150907Y0278177D01*
X0150907Y0277379D02*
X0069093Y0277379D01*
X0068873Y0276580D02*
X0151127Y0276580D01*
X0151457Y0275782D02*
X0068543Y0275782D01*
X0068212Y0274983D02*
X0151788Y0274983D01*
X0152119Y0274185D02*
X0067881Y0274185D01*
X0067157Y0273386D02*
X0152843Y0273386D01*
X0153641Y0272588D02*
X0066359Y0272588D01*
X0065560Y0271789D02*
X0154440Y0271789D01*
X0156272Y0270991D02*
X0063728Y0270991D01*
X0057846Y0270991D02*
X0044900Y0270991D01*
X0044900Y0271789D02*
X0056015Y0271789D01*
X0055216Y0272588D02*
X0044900Y0272588D01*
X0044900Y0273386D02*
X0054418Y0273386D01*
X0053694Y0274185D02*
X0044900Y0274185D01*
X0044900Y0274983D02*
X0053363Y0274983D01*
X0053032Y0275782D02*
X0044900Y0275782D01*
X0044900Y0276580D02*
X0052701Y0276580D01*
X0052482Y0277379D02*
X0044900Y0277379D01*
X0044900Y0278177D02*
X0052482Y0278177D01*
X0052482Y0278976D02*
X0044900Y0278976D01*
X0044900Y0279774D02*
X0052482Y0279774D01*
X0052548Y0280573D02*
X0044900Y0280573D01*
X0044900Y0281371D02*
X0052878Y0281371D01*
X0053209Y0282170D02*
X0044900Y0282170D01*
X0044900Y0282968D02*
X0053540Y0282968D01*
X0054046Y0283767D02*
X0044900Y0283767D01*
X0044900Y0284565D02*
X0054845Y0284565D01*
X0055643Y0285364D02*
X0044900Y0285364D01*
X0044900Y0286162D02*
X0056950Y0286162D01*
X0058877Y0286961D02*
X0044900Y0286961D01*
X0044900Y0302133D02*
X0175021Y0302133D01*
X0175021Y0302931D02*
X0044900Y0302931D01*
X0044900Y0303730D02*
X0175021Y0303730D01*
X0175021Y0304528D02*
X0044900Y0304528D01*
X0044900Y0305327D02*
X0175021Y0305327D01*
X0175021Y0306125D02*
X0044900Y0306125D01*
X0044900Y0306924D02*
X0175021Y0306924D01*
X0175021Y0307722D02*
X0044900Y0307722D01*
X0044900Y0308521D02*
X0175021Y0308521D01*
X0175021Y0309319D02*
X0044900Y0309319D01*
X0044900Y0310118D02*
X0175021Y0310118D01*
X0175021Y0310916D02*
X0044900Y0310916D01*
X0044900Y0311715D02*
X0175021Y0311715D01*
X0175021Y0312513D02*
X0044900Y0312513D01*
X0044900Y0313312D02*
X0175021Y0313312D01*
X0175021Y0314110D02*
X0044900Y0314110D01*
X0056827Y0251028D02*
X0163173Y0251028D01*
X0161794Y0250229D02*
X0058206Y0250229D01*
X0059005Y0249431D02*
X0160995Y0249431D01*
X0160540Y0248632D02*
X0059460Y0248632D01*
X0059791Y0247834D02*
X0160209Y0247834D01*
X0160025Y0247035D02*
X0059975Y0247035D01*
X0059975Y0246237D02*
X0160025Y0246237D01*
X0160025Y0245438D02*
X0059975Y0245438D01*
X0059656Y0244640D02*
X0160344Y0244640D01*
X0160675Y0243841D02*
X0059325Y0243841D01*
X0058678Y0243043D02*
X0161322Y0243043D01*
X0162120Y0242244D02*
X0057880Y0242244D01*
X0077023Y0230267D02*
X0137977Y0230267D01*
X0138500Y0229468D02*
X0076500Y0229468D01*
X0076500Y0228670D02*
X0138500Y0228670D01*
X0138500Y0227871D02*
X0076500Y0227871D01*
X0076500Y0227072D02*
X0138500Y0227072D01*
X0138500Y0226274D02*
X0076500Y0226274D01*
X0076500Y0225475D02*
X0138500Y0225475D01*
X0138500Y0224677D02*
X0076500Y0224677D01*
X0076500Y0223878D02*
X0138500Y0223878D01*
X0138500Y0223080D02*
X0076500Y0223080D01*
X0076500Y0222281D02*
X0138500Y0222281D01*
X0138500Y0221483D02*
X0076500Y0221483D01*
X0076500Y0220684D02*
X0138500Y0220684D01*
X0138500Y0219886D02*
X0076500Y0219886D01*
X0076500Y0219087D02*
X0138500Y0219087D01*
X0138500Y0218289D02*
X0076500Y0218289D01*
X0076500Y0217490D02*
X0138500Y0217490D01*
X0138500Y0216692D02*
X0076500Y0216692D01*
X0076500Y0215893D02*
X0138500Y0215893D01*
X0138500Y0215095D02*
X0076500Y0215095D01*
X0076500Y0214296D02*
X0138500Y0214296D01*
X0138500Y0213498D02*
X0076500Y0213498D01*
X0076500Y0212699D02*
X0138500Y0212699D01*
X0138500Y0211901D02*
X0076500Y0211901D01*
X0076500Y0206311D02*
X0104254Y0206311D01*
X0103456Y0205513D02*
X0076500Y0205513D01*
X0076500Y0204714D02*
X0102657Y0204714D01*
X0101859Y0203916D02*
X0076500Y0203916D01*
X0076500Y0203117D02*
X0101382Y0203117D01*
X0101051Y0202319D02*
X0076500Y0202319D01*
X0076500Y0201520D02*
X0101000Y0201520D01*
X0101000Y0200722D02*
X0097714Y0200722D01*
X0098512Y0199923D02*
X0101000Y0199923D01*
X0100744Y0199125D02*
X0099311Y0199125D01*
X0099975Y0198326D02*
X0100413Y0198326D01*
X0100082Y0197528D02*
X0099975Y0197528D01*
X0099975Y0196729D02*
X0100025Y0196729D01*
X0100025Y0195931D02*
X0099975Y0195931D01*
X0099975Y0195132D02*
X0100141Y0195132D01*
X0099969Y0194334D02*
X0100471Y0194334D01*
X0100830Y0193535D02*
X0099170Y0193535D01*
X0099000Y0192737D02*
X0101628Y0192737D01*
X0102772Y0191938D02*
X0099000Y0191938D01*
X0099000Y0191139D02*
X0102979Y0191139D01*
X0102283Y0190341D02*
X0099000Y0190341D01*
X0099000Y0189542D02*
X0101990Y0189542D01*
X0101990Y0188744D02*
X0099000Y0188744D01*
X0099111Y0187945D02*
X0101990Y0187945D01*
X0101990Y0187147D02*
X0099910Y0187147D01*
X0100708Y0186348D02*
X0101990Y0186348D01*
X0101990Y0185550D02*
X0101507Y0185550D01*
X0094186Y0181557D02*
X0087999Y0181557D01*
X0087201Y0182356D02*
X0093387Y0182356D01*
X0092589Y0183154D02*
X0086402Y0183154D01*
X0085604Y0183953D02*
X0091790Y0183953D01*
X0091353Y0184751D02*
X0084805Y0184751D01*
X0084007Y0185550D02*
X0091023Y0185550D01*
X0091000Y0186348D02*
X0083208Y0186348D01*
X0082410Y0187147D02*
X0091000Y0187147D01*
X0091000Y0187945D02*
X0081611Y0187945D01*
X0080813Y0188744D02*
X0091000Y0188744D01*
X0091000Y0189542D02*
X0080014Y0189542D01*
X0079216Y0190341D02*
X0091000Y0190341D01*
X0091000Y0191139D02*
X0078417Y0191139D01*
X0077619Y0191938D02*
X0091000Y0191938D01*
X0091000Y0192737D02*
X0076820Y0192737D01*
X0076500Y0193535D02*
X0090830Y0193535D01*
X0090031Y0194334D02*
X0076500Y0194334D01*
X0076500Y0195132D02*
X0090025Y0195132D01*
X0090025Y0195931D02*
X0076500Y0195931D01*
X0076500Y0196729D02*
X0090025Y0196729D01*
X0090025Y0197528D02*
X0076500Y0197528D01*
X0076500Y0198326D02*
X0090025Y0198326D01*
X0090689Y0199125D02*
X0076500Y0199125D01*
X0076500Y0199923D02*
X0091488Y0199923D01*
X0092286Y0200722D02*
X0076500Y0200722D01*
X0077822Y0231065D02*
X0137178Y0231065D01*
X0136380Y0231864D02*
X0078620Y0231864D01*
X0114900Y0285364D02*
X0154068Y0285364D01*
X0155375Y0286162D02*
X0115747Y0286162D01*
X0167746Y0240647D02*
X0175021Y0240647D01*
X0175021Y0239849D02*
X0168587Y0239849D01*
X0169287Y0239050D02*
X0175021Y0239050D01*
X0175021Y0238252D02*
X0169618Y0238252D01*
X0169948Y0237453D02*
X0175021Y0237453D01*
X0175021Y0236655D02*
X0169975Y0236655D01*
X0169975Y0235856D02*
X0175021Y0235856D01*
X0175021Y0235058D02*
X0169829Y0235058D01*
X0169498Y0234259D02*
X0175021Y0234259D01*
X0175021Y0233461D02*
X0169096Y0233461D01*
X0168297Y0232662D02*
X0175021Y0232662D01*
X0175021Y0231864D02*
X0167048Y0231864D01*
X0166737Y0231065D02*
X0175021Y0231065D01*
X0175021Y0230267D02*
X0168169Y0230267D01*
X0168967Y0229468D02*
X0175021Y0229468D01*
X0175021Y0228670D02*
X0169445Y0228670D01*
X0169775Y0227871D02*
X0175021Y0227871D01*
X0175021Y0227072D02*
X0169975Y0227072D01*
X0169975Y0226274D02*
X0175021Y0226274D01*
X0175021Y0225475D02*
X0169975Y0225475D01*
X0169671Y0224677D02*
X0175021Y0224677D01*
X0175021Y0223878D02*
X0169340Y0223878D01*
X0168715Y0223080D02*
X0175021Y0223080D01*
X0162344Y0220684D02*
X0146500Y0220684D01*
X0146500Y0219886D02*
X0161450Y0219886D01*
X0160728Y0219087D02*
X0146500Y0219087D01*
X0146500Y0218289D02*
X0160398Y0218289D01*
X0160067Y0217490D02*
X0146500Y0217490D01*
X0146500Y0216692D02*
X0160025Y0216692D01*
X0160025Y0215893D02*
X0146500Y0215893D01*
X0146500Y0215095D02*
X0160156Y0215095D01*
X0160487Y0214296D02*
X0146500Y0214296D01*
X0146500Y0213498D02*
X0160867Y0213498D01*
X0161665Y0212699D02*
X0146500Y0212699D01*
X0146500Y0211901D02*
X0162862Y0211901D01*
X0163353Y0211102D02*
X0146500Y0211102D01*
X0146500Y0210304D02*
X0161868Y0210304D01*
X0161070Y0209505D02*
X0146500Y0209505D01*
X0146500Y0208707D02*
X0160571Y0208707D01*
X0160240Y0207908D02*
X0146649Y0207908D01*
X0147447Y0207110D02*
X0160025Y0207110D01*
X0160025Y0206311D02*
X0148246Y0206311D01*
X0149044Y0205513D02*
X0160025Y0205513D01*
X0160314Y0204714D02*
X0149843Y0204714D01*
X0150641Y0203916D02*
X0160644Y0203916D01*
X0161247Y0203117D02*
X0151440Y0203117D01*
X0152238Y0202319D02*
X0162046Y0202319D01*
X0162434Y0200722D02*
X0153835Y0200722D01*
X0153037Y0201520D02*
X0163781Y0201520D01*
X0166219Y0201520D02*
X0175021Y0201520D01*
X0175021Y0191139D02*
X0139000Y0191139D01*
X0139000Y0190341D02*
X0175021Y0190341D01*
X0175021Y0189542D02*
X0139000Y0189542D01*
X0139000Y0188744D02*
X0175021Y0188744D01*
X0175021Y0187945D02*
X0139000Y0187945D01*
X0139000Y0187147D02*
X0175021Y0187147D01*
X0175021Y0186348D02*
X0139000Y0186348D01*
X0139000Y0185550D02*
X0175021Y0185550D01*
X0175021Y0184751D02*
X0139000Y0184751D01*
X0139000Y0183953D02*
X0175021Y0183953D01*
X0175021Y0183154D02*
X0139000Y0183154D01*
X0139701Y0182356D02*
X0175021Y0182356D01*
X0175021Y0181557D02*
X0140499Y0181557D01*
X0141298Y0180759D02*
X0162523Y0180759D01*
X0162182Y0180617D02*
X0160783Y0179218D01*
X0160025Y0177390D01*
X0160025Y0175410D01*
X0160783Y0173582D01*
X0162182Y0172183D01*
X0164010Y0171425D01*
X0165990Y0171425D01*
X0167818Y0172183D01*
X0169217Y0173582D01*
X0169975Y0175410D01*
X0169975Y0177390D01*
X0169217Y0179218D01*
X0167818Y0180617D01*
X0165990Y0181375D01*
X0164010Y0181375D01*
X0162182Y0180617D01*
X0161525Y0179960D02*
X0142097Y0179960D01*
X0142895Y0179162D02*
X0160759Y0179162D01*
X0160429Y0178363D02*
X0143694Y0178363D01*
X0144492Y0177565D02*
X0160098Y0177565D01*
X0160025Y0176766D02*
X0145291Y0176766D01*
X0146089Y0175968D02*
X0160025Y0175968D01*
X0160125Y0175169D02*
X0146888Y0175169D01*
X0147686Y0174371D02*
X0160456Y0174371D01*
X0160792Y0173572D02*
X0148485Y0173572D01*
X0149283Y0172774D02*
X0161591Y0172774D01*
X0162683Y0171975D02*
X0150082Y0171975D01*
X0150880Y0171177D02*
X0163532Y0171177D01*
X0166468Y0171177D02*
X0175021Y0171177D01*
X0175021Y0171975D02*
X0167317Y0171975D01*
X0168409Y0172774D02*
X0175021Y0172774D01*
X0175021Y0173572D02*
X0169208Y0173572D01*
X0169544Y0174371D02*
X0175021Y0174371D01*
X0175021Y0175169D02*
X0169875Y0175169D01*
X0169975Y0175968D02*
X0175021Y0175968D01*
X0175021Y0176766D02*
X0169975Y0176766D01*
X0169902Y0177565D02*
X0175021Y0177565D01*
X0175021Y0178363D02*
X0169571Y0178363D01*
X0169241Y0179162D02*
X0175021Y0179162D01*
X0175021Y0179960D02*
X0168475Y0179960D01*
X0167477Y0180759D02*
X0175021Y0180759D01*
X0175021Y0170378D02*
X0168057Y0170378D01*
X0168856Y0169580D02*
X0175021Y0169580D01*
X0175021Y0168781D02*
X0169398Y0168781D01*
X0169729Y0167983D02*
X0175021Y0167983D01*
X0175021Y0167184D02*
X0169975Y0167184D01*
X0169975Y0166386D02*
X0175021Y0166386D01*
X0175021Y0165587D02*
X0169975Y0165587D01*
X0169717Y0164789D02*
X0175021Y0164789D01*
X0175021Y0163990D02*
X0169386Y0163990D01*
X0168827Y0163192D02*
X0175021Y0163192D01*
X0175021Y0162393D02*
X0168028Y0162393D01*
X0167387Y0160796D02*
X0175021Y0160796D01*
X0175021Y0159998D02*
X0168438Y0159998D01*
X0169225Y0159199D02*
X0175021Y0159199D01*
X0175021Y0158401D02*
X0169556Y0158401D01*
X0169887Y0157602D02*
X0175021Y0157602D01*
X0175021Y0156803D02*
X0169975Y0156803D01*
X0169975Y0156005D02*
X0175021Y0156005D01*
X0175021Y0155206D02*
X0169890Y0155206D01*
X0169560Y0154408D02*
X0175021Y0154408D01*
X0175021Y0153609D02*
X0169229Y0153609D01*
X0168446Y0152811D02*
X0175021Y0152811D01*
X0175021Y0152012D02*
X0167407Y0152012D01*
X0166378Y0151214D02*
X0175021Y0151214D01*
X0175021Y0150415D02*
X0168020Y0150415D01*
X0168819Y0149617D02*
X0175021Y0149617D01*
X0175021Y0148818D02*
X0169383Y0148818D01*
X0169714Y0148020D02*
X0175021Y0148020D01*
X0175021Y0147221D02*
X0169975Y0147221D01*
X0169975Y0146423D02*
X0175021Y0146423D01*
X0175021Y0145624D02*
X0169975Y0145624D01*
X0169733Y0144826D02*
X0175021Y0144826D01*
X0175021Y0144027D02*
X0169402Y0144027D01*
X0168864Y0143229D02*
X0175021Y0143229D01*
X0175021Y0142430D02*
X0168066Y0142430D01*
X0166488Y0141632D02*
X0175021Y0141632D01*
X0175021Y0140833D02*
X0167297Y0140833D01*
X0167818Y0140617D02*
X0165990Y0141375D01*
X0164010Y0141375D01*
X0162182Y0140617D01*
X0160783Y0139218D01*
X0160025Y0137390D01*
X0160025Y0135410D01*
X0160783Y0133582D01*
X0162182Y0132183D01*
X0164010Y0131425D01*
X0165990Y0131425D01*
X0167818Y0132183D01*
X0169217Y0133582D01*
X0169975Y0135410D01*
X0169975Y0137390D01*
X0169217Y0139218D01*
X0167818Y0140617D01*
X0168401Y0140035D02*
X0175021Y0140035D01*
X0175021Y0139236D02*
X0169199Y0139236D01*
X0169541Y0138438D02*
X0175021Y0138438D01*
X0175021Y0137639D02*
X0169871Y0137639D01*
X0169975Y0136841D02*
X0175021Y0136841D01*
X0175021Y0136042D02*
X0169975Y0136042D01*
X0169906Y0135244D02*
X0175021Y0135244D01*
X0175021Y0134445D02*
X0169575Y0134445D01*
X0169244Y0133647D02*
X0175021Y0133647D01*
X0175021Y0132848D02*
X0168484Y0132848D01*
X0167497Y0132050D02*
X0175021Y0132050D01*
X0175021Y0131251D02*
X0166288Y0131251D01*
X0165990Y0131375D02*
X0164010Y0131375D01*
X0162182Y0130617D01*
X0160783Y0129218D01*
X0160025Y0127390D01*
X0160025Y0125410D01*
X0160783Y0123582D01*
X0162182Y0122183D01*
X0164010Y0121425D01*
X0165990Y0121425D01*
X0167818Y0122183D01*
X0169217Y0123582D01*
X0169975Y0125410D01*
X0169975Y0127390D01*
X0169217Y0129218D01*
X0167818Y0130617D01*
X0165990Y0131375D01*
X0167983Y0130453D02*
X0175021Y0130453D01*
X0175021Y0129654D02*
X0168781Y0129654D01*
X0169368Y0128856D02*
X0175021Y0128856D01*
X0175021Y0128057D02*
X0169698Y0128057D01*
X0169975Y0127259D02*
X0175021Y0127259D01*
X0175021Y0126460D02*
X0169975Y0126460D01*
X0169975Y0125662D02*
X0175021Y0125662D01*
X0175021Y0124863D02*
X0169748Y0124863D01*
X0169417Y0124065D02*
X0175021Y0124065D01*
X0175021Y0123266D02*
X0168901Y0123266D01*
X0168103Y0122468D02*
X0175021Y0122468D01*
X0175021Y0121669D02*
X0166578Y0121669D01*
X0163422Y0121669D02*
X0138080Y0121669D01*
X0138916Y0122468D02*
X0161897Y0122468D01*
X0161099Y0123266D02*
X0139709Y0123266D01*
X0140039Y0124065D02*
X0160583Y0124065D01*
X0160252Y0124863D02*
X0140370Y0124863D01*
X0140550Y0125662D02*
X0160025Y0125662D01*
X0160025Y0126460D02*
X0140717Y0126460D01*
X0141515Y0127259D02*
X0160025Y0127259D01*
X0160302Y0128057D02*
X0142314Y0128057D01*
X0143112Y0128856D02*
X0160632Y0128856D01*
X0161219Y0129654D02*
X0143911Y0129654D01*
X0144709Y0130453D02*
X0162017Y0130453D01*
X0162503Y0132050D02*
X0146306Y0132050D01*
X0145508Y0131251D02*
X0163712Y0131251D01*
X0161516Y0132848D02*
X0147105Y0132848D01*
X0147904Y0133647D02*
X0160756Y0133647D01*
X0160425Y0134445D02*
X0148702Y0134445D01*
X0149501Y0135244D02*
X0160094Y0135244D01*
X0160025Y0136042D02*
X0150299Y0136042D01*
X0151098Y0136841D02*
X0160025Y0136841D01*
X0160129Y0137639D02*
X0151896Y0137639D01*
X0152695Y0138438D02*
X0160459Y0138438D01*
X0160801Y0139236D02*
X0153493Y0139236D01*
X0154292Y0140035D02*
X0161599Y0140035D01*
X0162703Y0140833D02*
X0155090Y0140833D01*
X0155889Y0141632D02*
X0163512Y0141632D01*
X0161980Y0150415D02*
X0120267Y0150415D01*
X0120274Y0150441D02*
X0119574Y0147828D01*
X0118221Y0145485D01*
X0116308Y0143572D01*
X0113966Y0142220D01*
X0111353Y0141520D01*
X0108647Y0141520D01*
X0106034Y0142220D01*
X0103692Y0143572D01*
X0101779Y0145485D01*
X0100426Y0147828D01*
X0099726Y0150441D01*
X0099726Y0153146D01*
X0100426Y0155759D01*
X0101779Y0158102D01*
X0103692Y0160015D01*
X0106034Y0161368D01*
X0108647Y0162068D01*
X0111353Y0162068D01*
X0113966Y0161368D01*
X0116308Y0160015D01*
X0118221Y0158102D01*
X0119574Y0155759D01*
X0120274Y0153146D01*
X0120274Y0150441D01*
X0120274Y0151214D02*
X0163622Y0151214D01*
X0162593Y0152012D02*
X0120274Y0152012D01*
X0120274Y0152811D02*
X0145712Y0152811D01*
X0144634Y0153609D02*
X0120150Y0153609D01*
X0119936Y0154408D02*
X0143835Y0154408D01*
X0143037Y0155206D02*
X0119722Y0155206D01*
X0119432Y0156005D02*
X0142238Y0156005D01*
X0141440Y0156803D02*
X0118971Y0156803D01*
X0118510Y0157602D02*
X0140641Y0157602D01*
X0139843Y0158401D02*
X0117923Y0158401D01*
X0117124Y0159199D02*
X0139044Y0159199D01*
X0138246Y0159998D02*
X0116326Y0159998D01*
X0114955Y0160796D02*
X0137447Y0160796D01*
X0136649Y0161595D02*
X0113118Y0161595D01*
X0106882Y0161595D02*
X0071500Y0161595D01*
X0071500Y0162393D02*
X0135850Y0162393D01*
X0143171Y0166386D02*
X0144358Y0166386D01*
X0143970Y0165587D02*
X0145156Y0165587D01*
X0144768Y0164789D02*
X0145955Y0164789D01*
X0145567Y0163990D02*
X0146753Y0163990D01*
X0146365Y0163192D02*
X0147552Y0163192D01*
X0147164Y0162393D02*
X0161971Y0162393D01*
X0162613Y0160796D02*
X0148761Y0160796D01*
X0147962Y0161595D02*
X0163602Y0161595D01*
X0166398Y0161595D02*
X0175021Y0161595D01*
X0152560Y0149617D02*
X0120053Y0149617D01*
X0119839Y0148818D02*
X0151762Y0148818D01*
X0150963Y0148020D02*
X0119625Y0148020D01*
X0119224Y0147221D02*
X0150165Y0147221D01*
X0149366Y0146423D02*
X0118763Y0146423D01*
X0118302Y0145624D02*
X0148567Y0145624D01*
X0147769Y0144826D02*
X0117562Y0144826D01*
X0116763Y0144027D02*
X0146970Y0144027D01*
X0146172Y0143229D02*
X0115713Y0143229D01*
X0114330Y0142430D02*
X0145373Y0142430D01*
X0144575Y0141632D02*
X0111771Y0141632D01*
X0108229Y0141632D02*
X0093305Y0141632D01*
X0093305Y0142430D02*
X0105670Y0142430D01*
X0104287Y0143229D02*
X0093305Y0143229D01*
X0093305Y0144027D02*
X0103237Y0144027D01*
X0102438Y0144826D02*
X0093103Y0144826D01*
X0092937Y0145624D02*
X0101698Y0145624D01*
X0101237Y0146423D02*
X0092937Y0146423D01*
X0092937Y0147221D02*
X0100776Y0147221D01*
X0100375Y0148020D02*
X0092949Y0148020D01*
X0093010Y0148818D02*
X0100161Y0148818D01*
X0099947Y0149617D02*
X0093010Y0149617D01*
X0093010Y0150415D02*
X0099733Y0150415D01*
X0099726Y0151214D02*
X0093010Y0151214D01*
X0093010Y0152012D02*
X0099726Y0152012D01*
X0099726Y0152811D02*
X0093010Y0152811D01*
X0093010Y0153609D02*
X0099850Y0153609D01*
X0100064Y0154408D02*
X0093010Y0154408D01*
X0092773Y0155206D02*
X0100278Y0155206D01*
X0100568Y0156005D02*
X0092155Y0156005D01*
X0084734Y0156005D02*
X0071500Y0156005D01*
X0071500Y0156803D02*
X0101029Y0156803D01*
X0101490Y0157602D02*
X0071500Y0157602D01*
X0071500Y0158401D02*
X0102077Y0158401D01*
X0102876Y0159199D02*
X0071500Y0159199D01*
X0071500Y0159998D02*
X0103674Y0159998D01*
X0105045Y0160796D02*
X0071500Y0160796D01*
X0071500Y0155206D02*
X0084117Y0155206D01*
X0083880Y0154408D02*
X0071500Y0154408D01*
X0071500Y0153609D02*
X0083880Y0153609D01*
X0083880Y0152811D02*
X0071500Y0152811D01*
X0071500Y0152012D02*
X0083880Y0152012D01*
X0083880Y0151214D02*
X0071500Y0151214D01*
X0071500Y0150415D02*
X0083880Y0150415D01*
X0083880Y0149617D02*
X0071500Y0149617D01*
X0071500Y0148818D02*
X0083880Y0148818D01*
X0083940Y0148020D02*
X0071500Y0148020D01*
X0071500Y0147221D02*
X0084308Y0147221D01*
X0084937Y0146423D02*
X0071500Y0146423D01*
X0071500Y0145624D02*
X0084937Y0145624D01*
X0084771Y0144826D02*
X0071500Y0144826D01*
X0071500Y0144027D02*
X0084569Y0144027D01*
X0084569Y0143229D02*
X0071500Y0143229D01*
X0071500Y0142430D02*
X0084569Y0142430D01*
X0084445Y0141632D02*
X0071500Y0141632D01*
X0071500Y0140833D02*
X0084445Y0140833D01*
X0084445Y0140035D02*
X0071500Y0140035D01*
X0071500Y0139236D02*
X0084445Y0139236D01*
X0084445Y0138438D02*
X0071500Y0138438D01*
X0071500Y0137639D02*
X0084445Y0137639D01*
X0084445Y0136841D02*
X0071500Y0136841D01*
X0071500Y0136042D02*
X0077882Y0136042D01*
X0077381Y0127259D02*
X0059975Y0127259D01*
X0059975Y0126460D02*
X0077555Y0126460D01*
X0077555Y0125662D02*
X0059975Y0125662D01*
X0059748Y0124863D02*
X0077555Y0124863D01*
X0077061Y0124065D02*
X0059417Y0124065D01*
X0058901Y0123266D02*
X0076832Y0123266D01*
X0076832Y0122468D02*
X0058103Y0122468D01*
X0056578Y0121669D02*
X0076832Y0121669D01*
X0076832Y0120870D02*
X0057207Y0120870D01*
X0058363Y0120072D02*
X0076832Y0120072D01*
X0076839Y0119273D02*
X0059162Y0119273D01*
X0059525Y0118475D02*
X0077169Y0118475D01*
X0077555Y0117676D02*
X0059856Y0117676D01*
X0059975Y0116878D02*
X0077555Y0116878D01*
X0077555Y0116079D02*
X0059975Y0116079D01*
X0059921Y0115281D02*
X0077258Y0115281D01*
X0076990Y0114482D02*
X0059590Y0114482D01*
X0059260Y0113684D02*
X0076990Y0113684D01*
X0076990Y0112885D02*
X0058521Y0112885D01*
X0057587Y0112087D02*
X0076990Y0112087D01*
X0076990Y0111288D02*
X0070248Y0111288D01*
X0070870Y0110490D02*
X0076990Y0110490D01*
X0076990Y0109691D02*
X0071111Y0109691D01*
X0071111Y0108893D02*
X0076990Y0108893D01*
X0077020Y0108094D02*
X0071111Y0108094D01*
X0071111Y0107296D02*
X0077351Y0107296D01*
X0078301Y0106497D02*
X0071111Y0106497D01*
X0071111Y0105699D02*
X0083500Y0105699D01*
X0083500Y0104900D02*
X0071062Y0104900D01*
X0070712Y0104102D02*
X0083500Y0104102D01*
X0083500Y0103303D02*
X0070289Y0103303D01*
X0071088Y0102505D02*
X0083500Y0102505D01*
X0083500Y0101706D02*
X0071886Y0101706D01*
X0075816Y0100908D02*
X0083500Y0100908D01*
X0083500Y0100109D02*
X0076295Y0100109D01*
X0076435Y0099311D02*
X0083500Y0099311D01*
X0083500Y0098512D02*
X0076435Y0098512D01*
X0076435Y0097714D02*
X0083500Y0097714D01*
X0083500Y0096915D02*
X0076677Y0096915D01*
X0077476Y0096117D02*
X0083498Y0096117D01*
X0083565Y0095318D02*
X0078274Y0095318D01*
X0079073Y0094520D02*
X0083565Y0094520D01*
X0083565Y0093721D02*
X0079871Y0093721D01*
X0080670Y0092923D02*
X0083609Y0092923D01*
X0083953Y0092124D02*
X0081468Y0092124D01*
X0082267Y0091326D02*
X0084958Y0091326D01*
X0083065Y0090527D02*
X0107285Y0090527D01*
X0107285Y0089729D02*
X0083587Y0089729D01*
X0083918Y0088930D02*
X0107285Y0088930D01*
X0107285Y0088132D02*
X0084000Y0088132D01*
X0084000Y0087333D02*
X0088384Y0087333D01*
X0086508Y0086534D02*
X0084000Y0086534D01*
X0084291Y0085736D02*
X0085709Y0085736D01*
X0091616Y0087333D02*
X0107443Y0087333D01*
X0107948Y0086534D02*
X0093492Y0086534D01*
X0094291Y0085736D02*
X0113679Y0085736D01*
X0119403Y0080146D02*
X0153575Y0080146D01*
X0152777Y0079348D02*
X0118605Y0079348D01*
X0117806Y0078549D02*
X0152092Y0078549D01*
X0151761Y0077751D02*
X0116643Y0077751D01*
X0120202Y0080945D02*
X0154374Y0080945D01*
X0156112Y0081743D02*
X0121000Y0081743D01*
X0121799Y0082542D02*
X0175021Y0082542D01*
X0175021Y0083340D02*
X0122324Y0083340D01*
X0122655Y0084139D02*
X0175021Y0084139D01*
X0175021Y0084937D02*
X0122740Y0084937D01*
X0122740Y0085736D02*
X0175021Y0085736D01*
X0175021Y0086534D02*
X0133544Y0086534D01*
X0134395Y0087333D02*
X0175021Y0087333D01*
X0175021Y0088132D02*
X0135193Y0088132D01*
X0135992Y0088930D02*
X0175021Y0088930D01*
X0175021Y0089729D02*
X0136791Y0089729D01*
X0137589Y0090527D02*
X0175021Y0090527D01*
X0175021Y0091326D02*
X0147534Y0091326D01*
X0148734Y0092124D02*
X0175021Y0092124D01*
X0175021Y0092923D02*
X0149159Y0092923D01*
X0149260Y0093721D02*
X0175021Y0093721D01*
X0175021Y0094520D02*
X0149260Y0094520D01*
X0149260Y0095318D02*
X0175021Y0095318D01*
X0175021Y0096117D02*
X0149260Y0096117D01*
X0149260Y0096915D02*
X0175021Y0096915D01*
X0175021Y0097714D02*
X0149260Y0097714D01*
X0149260Y0098512D02*
X0175021Y0098512D01*
X0175021Y0099311D02*
X0149260Y0099311D01*
X0149063Y0100109D02*
X0175021Y0100109D01*
X0175021Y0100908D02*
X0148695Y0100908D01*
X0148695Y0101706D02*
X0163332Y0101706D01*
X0164010Y0101425D02*
X0162182Y0102183D01*
X0160783Y0103582D01*
X0160025Y0105410D01*
X0160025Y0107390D01*
X0160783Y0109218D01*
X0162182Y0110617D01*
X0164010Y0111375D01*
X0165990Y0111375D01*
X0167818Y0110617D01*
X0169217Y0109218D01*
X0169975Y0107390D01*
X0169975Y0105410D01*
X0169217Y0103582D01*
X0167818Y0102183D01*
X0165990Y0101425D01*
X0164010Y0101425D01*
X0161860Y0102505D02*
X0148986Y0102505D01*
X0149260Y0103303D02*
X0161061Y0103303D01*
X0160567Y0104102D02*
X0149260Y0104102D01*
X0149260Y0104900D02*
X0160237Y0104900D01*
X0160025Y0105699D02*
X0149260Y0105699D01*
X0149260Y0106497D02*
X0160025Y0106497D01*
X0160025Y0107296D02*
X0149260Y0107296D01*
X0149260Y0108094D02*
X0160317Y0108094D01*
X0160648Y0108893D02*
X0149260Y0108893D01*
X0149236Y0109691D02*
X0161256Y0109691D01*
X0162054Y0110490D02*
X0148905Y0110490D01*
X0148695Y0111288D02*
X0163802Y0111288D01*
X0166198Y0111288D02*
X0175021Y0111288D01*
X0175021Y0110490D02*
X0167946Y0110490D01*
X0168744Y0109691D02*
X0175021Y0109691D01*
X0175021Y0108893D02*
X0169352Y0108893D01*
X0169683Y0108094D02*
X0175021Y0108094D01*
X0175021Y0107296D02*
X0169975Y0107296D01*
X0169975Y0106497D02*
X0175021Y0106497D01*
X0175021Y0105699D02*
X0169975Y0105699D01*
X0169763Y0104900D02*
X0175021Y0104900D01*
X0175021Y0104102D02*
X0169433Y0104102D01*
X0168939Y0103303D02*
X0175021Y0103303D01*
X0175021Y0102505D02*
X0168140Y0102505D01*
X0166668Y0101706D02*
X0175021Y0101706D01*
X0175021Y0112087D02*
X0148695Y0112087D01*
X0148695Y0112885D02*
X0175021Y0112885D01*
X0175021Y0113684D02*
X0149167Y0113684D01*
X0149418Y0114482D02*
X0175021Y0114482D01*
X0175021Y0115281D02*
X0149418Y0115281D01*
X0149418Y0116079D02*
X0175021Y0116079D01*
X0175021Y0116878D02*
X0149418Y0116878D01*
X0149418Y0117676D02*
X0175021Y0117676D01*
X0175021Y0118475D02*
X0149418Y0118475D01*
X0149102Y0119273D02*
X0175021Y0119273D01*
X0175021Y0120072D02*
X0148369Y0120072D01*
X0143186Y0120072D02*
X0139314Y0120072D01*
X0140047Y0119273D02*
X0142453Y0119273D01*
X0142137Y0118475D02*
X0140363Y0118475D01*
X0140363Y0117676D02*
X0141397Y0117676D01*
X0141012Y0116878D02*
X0140363Y0116878D01*
X0140363Y0116079D02*
X0140695Y0116079D01*
X0140695Y0115281D02*
X0140363Y0115281D01*
X0140363Y0114482D02*
X0140695Y0114482D01*
X0140695Y0113684D02*
X0140112Y0113684D01*
X0140695Y0112885D02*
X0139476Y0112885D01*
X0140695Y0112087D02*
X0130250Y0112087D01*
X0130250Y0112885D02*
X0133033Y0112885D01*
X0132059Y0113684D02*
X0130250Y0113684D01*
X0130250Y0114482D02*
X0131261Y0114482D01*
X0130462Y0115281D02*
X0130250Y0115281D01*
X0122250Y0115281D02*
X0115628Y0115281D01*
X0115628Y0115303D02*
X0115516Y0115575D01*
X0117446Y0115575D01*
X0118328Y0115940D01*
X0119003Y0116615D01*
X0119328Y0117400D01*
X0122250Y0117400D01*
X0122250Y0097100D01*
X0119000Y0097100D01*
X0119000Y0098633D01*
X0118975Y0098693D01*
X0118975Y0100086D01*
X0118609Y0100968D01*
X0117934Y0101643D01*
X0117052Y0102009D01*
X0112948Y0102009D01*
X0112533Y0101837D01*
X0091500Y0101837D01*
X0091500Y0104743D01*
X0091836Y0105079D01*
X0092445Y0106549D01*
X0092445Y0107085D01*
X0092645Y0107285D01*
X0093010Y0108167D01*
X0093010Y0114633D01*
X0092645Y0115515D01*
X0091970Y0116191D01*
X0091088Y0116556D01*
X0085802Y0116556D01*
X0085555Y0116454D01*
X0085555Y0119716D01*
X0085887Y0119383D01*
X0085887Y0119289D01*
X0086253Y0118407D01*
X0086928Y0117732D01*
X0087810Y0117366D01*
X0091245Y0117366D01*
X0091327Y0117400D01*
X0092447Y0117400D01*
X0095667Y0110461D01*
X0095940Y0109803D01*
X0096001Y0109742D01*
X0096037Y0109664D01*
X0096561Y0109182D01*
X0097065Y0108678D01*
X0097145Y0108645D01*
X0097209Y0108586D01*
X0097877Y0108342D01*
X0098535Y0108069D01*
X0098622Y0108069D01*
X0098703Y0108040D01*
X0099414Y0108069D01*
X0107209Y0108069D01*
X0107257Y0107954D01*
X0107932Y0107279D01*
X0108814Y0106913D01*
X0113706Y0106913D01*
X0114588Y0107279D01*
X0115263Y0107954D01*
X0115628Y0108836D01*
X0115628Y0115303D01*
X0115628Y0114482D02*
X0122250Y0114482D01*
X0122250Y0113684D02*
X0115628Y0113684D01*
X0115628Y0112885D02*
X0122250Y0112885D01*
X0122250Y0112087D02*
X0115628Y0112087D01*
X0115628Y0111288D02*
X0122250Y0111288D01*
X0122250Y0110490D02*
X0115628Y0110490D01*
X0115628Y0109691D02*
X0122250Y0109691D01*
X0122250Y0108893D02*
X0115628Y0108893D01*
X0115321Y0108094D02*
X0122250Y0108094D01*
X0122250Y0107296D02*
X0114605Y0107296D01*
X0117782Y0101706D02*
X0122250Y0101706D01*
X0122250Y0100908D02*
X0118634Y0100908D01*
X0118965Y0100109D02*
X0122250Y0100109D01*
X0122250Y0099311D02*
X0118975Y0099311D01*
X0119000Y0098512D02*
X0122250Y0098512D01*
X0122250Y0097714D02*
X0119000Y0097714D01*
X0122250Y0102505D02*
X0091500Y0102505D01*
X0091500Y0103303D02*
X0122250Y0103303D01*
X0122250Y0104102D02*
X0091500Y0104102D01*
X0091657Y0104900D02*
X0122250Y0104900D01*
X0122250Y0105699D02*
X0092093Y0105699D01*
X0092423Y0106497D02*
X0122250Y0106497D01*
X0122250Y0116079D02*
X0118467Y0116079D01*
X0119112Y0116878D02*
X0122250Y0116878D01*
X0117989Y0125662D02*
X0129450Y0125662D01*
X0129450Y0126460D02*
X0092445Y0126460D01*
X0092445Y0125662D02*
X0112011Y0125662D01*
X0111014Y0124863D02*
X0097144Y0124863D01*
X0098012Y0124065D02*
X0110673Y0124065D01*
X0110631Y0123266D02*
X0098557Y0123266D01*
X0098914Y0122468D02*
X0110631Y0122468D01*
X0110631Y0121669D02*
X0099285Y0121669D01*
X0099656Y0120870D02*
X0110631Y0120870D01*
X0110631Y0120072D02*
X0100026Y0120072D01*
X0100397Y0119273D02*
X0110631Y0119273D01*
X0110631Y0118475D02*
X0100767Y0118475D01*
X0101138Y0117676D02*
X0110631Y0117676D01*
X0107976Y0116878D02*
X0101509Y0116878D01*
X0101879Y0116079D02*
X0107213Y0116079D01*
X0098475Y0108094D02*
X0092980Y0108094D01*
X0093010Y0108893D02*
X0096850Y0108893D01*
X0096025Y0109691D02*
X0093010Y0109691D01*
X0093010Y0110490D02*
X0095654Y0110490D01*
X0095283Y0111288D02*
X0093010Y0111288D01*
X0093010Y0112087D02*
X0094913Y0112087D01*
X0094542Y0112885D02*
X0093010Y0112885D01*
X0093010Y0113684D02*
X0094171Y0113684D01*
X0093801Y0114482D02*
X0093010Y0114482D01*
X0092742Y0115281D02*
X0093430Y0115281D01*
X0093060Y0116079D02*
X0092081Y0116079D01*
X0092689Y0116878D02*
X0085555Y0116878D01*
X0085555Y0117676D02*
X0087061Y0117676D01*
X0086224Y0118475D02*
X0085555Y0118475D01*
X0085555Y0119273D02*
X0085894Y0119273D01*
X0092619Y0127259D02*
X0129450Y0127259D01*
X0129680Y0128057D02*
X0092965Y0128057D01*
X0093010Y0128856D02*
X0130010Y0128856D01*
X0130406Y0129654D02*
X0093010Y0129654D01*
X0093010Y0130453D02*
X0131204Y0130453D01*
X0132210Y0131251D02*
X0093010Y0131251D01*
X0093010Y0132050D02*
X0134993Y0132050D01*
X0135791Y0132848D02*
X0093010Y0132848D01*
X0093010Y0133647D02*
X0136590Y0133647D01*
X0137388Y0134445D02*
X0093010Y0134445D01*
X0092757Y0135244D02*
X0138187Y0135244D01*
X0138985Y0136042D02*
X0092445Y0136042D01*
X0092445Y0136841D02*
X0139784Y0136841D01*
X0140582Y0137639D02*
X0092965Y0137639D01*
X0093295Y0138438D02*
X0141381Y0138438D01*
X0142179Y0139236D02*
X0093305Y0139236D01*
X0093305Y0140035D02*
X0142978Y0140035D01*
X0143776Y0140833D02*
X0093305Y0140833D01*
X0065186Y0128057D02*
X0059698Y0128057D01*
X0059368Y0128856D02*
X0064388Y0128856D01*
X0063894Y0129654D02*
X0058781Y0129654D01*
X0057983Y0130453D02*
X0063563Y0130453D01*
X0063500Y0131251D02*
X0056288Y0131251D01*
X0057497Y0132050D02*
X0063500Y0132050D01*
X0063500Y0132848D02*
X0058484Y0132848D01*
X0059244Y0133647D02*
X0063500Y0133647D01*
X0063500Y0134445D02*
X0059575Y0134445D01*
X0059906Y0135244D02*
X0063500Y0135244D01*
X0063500Y0136042D02*
X0059975Y0136042D01*
X0059975Y0136841D02*
X0063500Y0136841D01*
X0063500Y0137639D02*
X0059871Y0137639D01*
X0059541Y0138438D02*
X0063500Y0138438D01*
X0063500Y0139236D02*
X0059199Y0139236D01*
X0058401Y0140035D02*
X0063500Y0140035D01*
X0063500Y0140833D02*
X0057297Y0140833D01*
X0056488Y0141632D02*
X0063500Y0141632D01*
X0063500Y0142430D02*
X0058066Y0142430D01*
X0058864Y0143229D02*
X0063500Y0143229D01*
X0063500Y0144027D02*
X0059402Y0144027D01*
X0059733Y0144826D02*
X0063500Y0144826D01*
X0063500Y0145624D02*
X0059975Y0145624D01*
X0059975Y0146423D02*
X0063500Y0146423D01*
X0063500Y0147221D02*
X0059975Y0147221D01*
X0059714Y0148020D02*
X0063500Y0148020D01*
X0063500Y0148818D02*
X0059383Y0148818D01*
X0058819Y0149617D02*
X0063500Y0149617D01*
X0063500Y0150415D02*
X0058020Y0150415D01*
X0057407Y0152012D02*
X0063500Y0152012D01*
X0063500Y0151214D02*
X0056378Y0151214D01*
X0058446Y0152811D02*
X0063500Y0152811D01*
X0063500Y0153609D02*
X0059229Y0153609D01*
X0059560Y0154408D02*
X0063500Y0154408D01*
X0063500Y0155206D02*
X0059890Y0155206D01*
X0059975Y0156005D02*
X0063500Y0156005D01*
X0063500Y0156803D02*
X0059975Y0156803D01*
X0059887Y0157602D02*
X0063500Y0157602D01*
X0063500Y0158401D02*
X0059556Y0158401D01*
X0059225Y0159199D02*
X0063500Y0159199D01*
X0063500Y0159998D02*
X0058438Y0159998D01*
X0057387Y0160796D02*
X0063500Y0160796D01*
X0063500Y0161595D02*
X0056398Y0161595D01*
X0058028Y0162393D02*
X0063500Y0162393D01*
X0063500Y0163192D02*
X0058827Y0163192D01*
X0059386Y0163990D02*
X0063500Y0163990D01*
X0063500Y0164789D02*
X0059717Y0164789D01*
X0059975Y0165587D02*
X0063500Y0165587D01*
X0063500Y0166386D02*
X0059975Y0166386D01*
X0059975Y0167184D02*
X0063500Y0167184D01*
X0063826Y0167983D02*
X0059729Y0167983D01*
X0059398Y0168781D02*
X0064224Y0168781D01*
X0065023Y0169580D02*
X0058856Y0169580D01*
X0058057Y0170378D02*
X0066652Y0170378D01*
X0062252Y0111288D02*
X0056198Y0111288D01*
X0057946Y0110490D02*
X0061630Y0110490D01*
X0053802Y0111288D02*
X0044900Y0111288D01*
X0089821Y0070564D02*
X0151662Y0070564D01*
X0151331Y0071363D02*
X0090620Y0071363D01*
X0091418Y0072161D02*
X0151000Y0072161D01*
X0150907Y0072960D02*
X0092217Y0072960D01*
X0093015Y0073758D02*
X0150907Y0073758D01*
X0150907Y0074557D02*
X0093566Y0074557D01*
X0093897Y0075355D02*
X0150907Y0075355D01*
X0151099Y0076154D02*
X0094000Y0076154D01*
X0094179Y0076952D02*
X0151430Y0076952D01*
X0162313Y0081743D02*
X0175021Y0081743D01*
X0175021Y0080945D02*
X0164051Y0080945D01*
X0164850Y0080146D02*
X0175021Y0080146D01*
X0175021Y0079348D02*
X0165648Y0079348D01*
X0166334Y0078549D02*
X0175021Y0078549D01*
X0175021Y0077751D02*
X0166664Y0077751D01*
X0166995Y0076952D02*
X0175021Y0076952D01*
X0175021Y0076154D02*
X0167326Y0076154D01*
X0167518Y0075355D02*
X0175021Y0075355D01*
X0175021Y0074557D02*
X0167518Y0074557D01*
X0167518Y0073758D02*
X0175021Y0073758D01*
X0175021Y0072960D02*
X0167518Y0072960D01*
X0167425Y0072161D02*
X0175021Y0072161D01*
X0175021Y0071363D02*
X0167094Y0071363D01*
X0166764Y0070564D02*
X0175021Y0070564D01*
X0175021Y0069766D02*
X0166433Y0069766D01*
X0165888Y0068967D02*
X0175021Y0068967D01*
X0175021Y0068169D02*
X0165089Y0068169D01*
X0164291Y0067370D02*
X0175021Y0067370D01*
X0175021Y0066572D02*
X0162891Y0066572D01*
X0160963Y0065773D02*
X0175021Y0065773D01*
X0141855Y0091326D02*
X0140645Y0091326D01*
X0136186Y0120870D02*
X0175021Y0120870D01*
X0143559Y0167184D02*
X0142373Y0167184D01*
X0142760Y0167983D02*
X0141574Y0167983D01*
X0141962Y0168781D02*
X0140776Y0168781D01*
X0141163Y0169580D02*
X0139977Y0169580D01*
X0140365Y0170378D02*
X0138348Y0170378D01*
X0107915Y0107296D02*
X0092649Y0107296D01*
X0093365Y0093721D02*
X0108277Y0093721D01*
X0107579Y0092923D02*
X0093321Y0092923D01*
X0092976Y0092124D02*
X0107285Y0092124D01*
X0107285Y0091326D02*
X0091971Y0091326D01*
D26*
X0118750Y0105150D03*
X0132500Y0106400D03*
X0135000Y0126400D03*
X0075000Y0141400D03*
M02*
