G75*
G70*
%OFA0B0*%
%FSLAX24Y24*%
%IPPOS*%
%LPD*%
%AMOC8*
5,1,8,0,0,1.08239X$1,22.5*
%
%ADD10R,0.0474X0.0572*%
%ADD11R,0.0572X0.0474*%
%ADD12R,0.1025X0.1025*%
%ADD13C,0.0820*%
%ADD14R,0.0867X0.0552*%
%ADD15R,0.0552X0.0867*%
%ADD16R,0.0434X0.0395*%
%ADD17R,0.0631X0.0474*%
%ADD18R,0.0631X0.0513*%
%ADD19R,0.0513X0.0631*%
%ADD20R,0.1104X0.0631*%
%ADD21R,0.1080X0.0580*%
%ADD22R,0.1340X0.0552*%
D10*
X016786Y017680D03*
X017574Y017680D03*
X009574Y024180D03*
X008786Y024180D03*
D11*
X016680Y026786D03*
X016680Y027574D03*
X022680Y007574D03*
X022680Y006786D03*
D12*
X016180Y023314D03*
X016180Y025046D03*
X014680Y028814D03*
X014680Y030546D03*
X010046Y026180D03*
X008314Y026180D03*
D13*
X007180Y028680D03*
X007180Y029680D03*
D14*
X014302Y014893D03*
X014302Y014105D03*
X014302Y013318D03*
X014302Y012530D03*
X014302Y011743D03*
X014302Y010956D03*
X014302Y010168D03*
X014302Y009381D03*
X020680Y009381D03*
X020680Y010168D03*
X020680Y010956D03*
X020680Y011743D03*
X020680Y012530D03*
X020680Y013318D03*
X020680Y014105D03*
X020680Y014893D03*
D15*
X019499Y015680D03*
X018711Y015680D03*
X017924Y015680D03*
X017137Y015680D03*
X016349Y015680D03*
X015562Y015680D03*
D16*
X013074Y026806D03*
X013074Y027554D03*
X012286Y027180D03*
D17*
X014747Y027180D03*
X015613Y026806D03*
X015613Y027554D03*
X007613Y031306D03*
X007613Y032054D03*
X006747Y031680D03*
D18*
X012680Y030024D03*
X012680Y029336D03*
X013680Y024524D03*
X013680Y023836D03*
X017680Y026836D03*
X017680Y027524D03*
X018180Y024524D03*
X018180Y023836D03*
D19*
X010524Y031680D03*
X009836Y031680D03*
X011336Y014680D03*
X012024Y014680D03*
X012024Y013180D03*
X011336Y013180D03*
X011336Y012180D03*
X012024Y012180D03*
X024836Y011180D03*
X025524Y011180D03*
D20*
X017987Y019680D03*
X016373Y019680D03*
D21*
X007680Y008180D03*
X007680Y009180D03*
X007680Y010180D03*
X007680Y011180D03*
X007680Y012180D03*
X007680Y013180D03*
D22*
X024841Y007967D03*
X024841Y006393D03*
X027519Y006393D03*
X027519Y007967D03*
M02*
