G75*
%MOIN*%
%OFA0B0*%
%FSLAX25Y25*%
%IPPOS*%
%LPD*%
%AMOC8*
5,1,8,0,0,1.08239X$1,22.5*
%
%ADD10C,0.16548*%
%ADD11R,0.05721X0.04737*%
%ADD12R,0.04737X0.05721*%
%ADD13R,0.03280X0.04068*%
%ADD14R,0.05800X0.06587*%
%ADD15C,0.08200*%
%ADD16R,0.03950X0.04343*%
%ADD17R,0.04737X0.06312*%
%ADD18R,0.05131X0.06312*%
%ADD19C,0.05950*%
%ADD20C,0.12611*%
%ADD21OC8,0.05950*%
%ADD22C,0.13595*%
%ADD23C,0.06800*%
%ADD24R,0.04762X0.04762*%
%ADD25C,0.07099*%
%ADD26R,0.07099X0.07099*%
%ADD27C,0.15824*%
D10*
X0110000Y0151794D03*
D11*
X0066250Y0115337D03*
X0066250Y0107463D03*
D12*
X0081063Y0141400D03*
X0088937Y0141400D03*
X0106063Y0176400D03*
X0113937Y0176400D03*
D13*
X0089528Y0121400D03*
X0080472Y0121400D03*
X0136722Y0116400D03*
X0145778Y0116400D03*
D14*
X0088465Y0096400D03*
X0071535Y0096400D03*
D15*
X0080000Y0081400D03*
X0090000Y0081400D03*
D16*
X0111260Y0089963D03*
X0118740Y0089963D03*
X0115000Y0097837D03*
D17*
X0111260Y0112069D03*
X0118740Y0112069D03*
X0115000Y0120731D03*
D18*
X0137805Y0106400D03*
X0144695Y0106400D03*
X0144695Y0096400D03*
X0137805Y0096400D03*
X0088445Y0111400D03*
X0081555Y0111400D03*
X0081555Y0131400D03*
X0088445Y0131400D03*
X0088445Y0151400D03*
X0081555Y0151400D03*
X0106555Y0186400D03*
X0113445Y0186400D03*
D19*
X0115000Y0196400D03*
X0105000Y0196400D03*
X0125000Y0196400D03*
X0165000Y0196400D03*
X0165000Y0186400D03*
X0165000Y0176400D03*
X0165000Y0166400D03*
X0165000Y0156400D03*
X0165000Y0146400D03*
X0165000Y0136400D03*
X0165000Y0126400D03*
X0165000Y0116400D03*
X0165000Y0106400D03*
X0165000Y0206400D03*
X0165000Y0216400D03*
X0165000Y0226400D03*
X0165000Y0236400D03*
X0165000Y0246400D03*
X0055000Y0246400D03*
X0055000Y0236400D03*
X0055000Y0226400D03*
X0055000Y0216400D03*
X0055000Y0206400D03*
X0055000Y0196400D03*
X0055000Y0186400D03*
X0055000Y0176400D03*
X0055000Y0166400D03*
X0055000Y0156400D03*
X0055000Y0146400D03*
X0055000Y0136400D03*
X0055000Y0126400D03*
X0055000Y0116400D03*
X0055000Y0106400D03*
D20*
X0060787Y0074038D03*
X0159213Y0074038D03*
X0159213Y0278762D03*
X0060787Y0278762D03*
D21*
X0095000Y0196400D03*
D22*
X0110000Y0292857D03*
D23*
X0058000Y0096400D02*
X0052000Y0096400D01*
X0052000Y0086400D02*
X0058000Y0086400D01*
D24*
X0070453Y0131321D03*
D25*
X0118750Y0105150D03*
X0135000Y0126400D03*
D26*
X0132500Y0106400D03*
X0075155Y0141400D03*
X0075000Y0141400D03*
D27*
X0060667Y0074057D03*
X0109903Y0151774D03*
X0158876Y0074057D03*
X0158876Y0278756D03*
X0109903Y0292719D03*
X0060667Y0278756D03*
M02*
