G75*
G70*
%OFA0B0*%
%FSLAX24Y24*%
%IPPOS*%
%LPD*%
%AMOC8*
5,1,8,0,0,1.08239X$1,22.5*
%
%ADD10R,0.0394X0.0492*%
%ADD11R,0.0492X0.0394*%
%ADD12R,0.0945X0.0945*%
%ADD13R,0.0787X0.0472*%
%ADD14R,0.0472X0.0787*%
%ADD15R,0.0354X0.0315*%
%ADD16R,0.0551X0.0394*%
%ADD17R,0.0551X0.0433*%
%ADD18R,0.0433X0.0551*%
%ADD19R,0.1024X0.0551*%
%ADD20R,0.1000X0.0500*%
%ADD21R,0.1260X0.0472*%
%ADD22R,0.0394X0.0551*%
D10*
X016786Y017680D03*
X017574Y017680D03*
X015074Y021680D03*
X014286Y021680D03*
D11*
X023680Y024786D03*
X023680Y025574D03*
X022680Y007574D03*
X022680Y006786D03*
D12*
X023180Y021314D03*
X023180Y023046D03*
X021680Y026814D03*
X021680Y028546D03*
X017046Y024180D03*
X015314Y024180D03*
D13*
X014302Y014893D03*
X014302Y014105D03*
X014302Y013318D03*
X014302Y012530D03*
X014302Y011743D03*
X014302Y010956D03*
X014302Y010168D03*
X014302Y009381D03*
X020680Y009381D03*
X020680Y010168D03*
X020680Y010956D03*
X020680Y011743D03*
X020680Y012530D03*
X020680Y013318D03*
X020680Y014105D03*
X020680Y014893D03*
D14*
X019499Y015680D03*
X018711Y015680D03*
X017924Y015680D03*
X017137Y015680D03*
X016349Y015680D03*
X015562Y015680D03*
D15*
X020074Y024806D03*
X020074Y025554D03*
X019286Y025180D03*
D16*
X021747Y025180D03*
X022613Y024806D03*
X022613Y025554D03*
X014613Y029306D03*
X014613Y030054D03*
X013747Y029680D03*
D17*
X019680Y028024D03*
X019680Y027336D03*
X024680Y025524D03*
X024680Y024836D03*
X025180Y022524D03*
X025180Y021836D03*
X020680Y021836D03*
X020680Y022524D03*
X009180Y017024D03*
X009180Y016336D03*
X007680Y016336D03*
X007680Y017024D03*
D18*
X011336Y014680D03*
X012024Y014680D03*
X012336Y016680D03*
X013024Y016680D03*
X012024Y012180D03*
X011336Y012180D03*
X024836Y011180D03*
X025524Y011180D03*
X017524Y029680D03*
X016836Y029680D03*
D19*
X016373Y019680D03*
X017987Y019680D03*
D20*
X007680Y008180D03*
X007680Y009180D03*
X007680Y010180D03*
X007680Y011180D03*
X007680Y012180D03*
X007680Y013180D03*
D21*
X024841Y007967D03*
X024841Y006393D03*
X027519Y006393D03*
X027519Y007967D03*
D22*
X009054Y018747D03*
X008306Y018747D03*
X008680Y019613D03*
X006554Y018747D03*
X005806Y018747D03*
X006180Y019613D03*
M02*
