G75*
G70*
%OFA0B0*%
%FSLAX24Y24*%
%IPPOS*%
%LPD*%
%AMOC8*
5,1,8,0,0,1.08239X$1,22.5*
%
%ADD10C,0.0060*%
%ADD11R,0.0250X0.0500*%
%ADD12R,0.0500X0.0250*%
%ADD13C,0.0040*%
%ADD14C,0.0080*%
%ADD15C,0.0050*%
%ADD16C,0.0010*%
%ADD17C,0.0030*%
D10*
X009848Y011810D02*
X009848Y012150D01*
X010019Y012150D01*
X010075Y012094D01*
X010075Y011980D01*
X010019Y011923D01*
X009848Y011923D01*
X009962Y011923D02*
X010075Y011810D01*
X010217Y011867D02*
X010273Y011810D01*
X010387Y011810D01*
X010444Y011867D01*
X010444Y011923D01*
X010387Y011980D01*
X010217Y011980D01*
X010217Y011867D01*
X010217Y011980D02*
X010330Y012094D01*
X010444Y012150D01*
X010387Y014310D02*
X010273Y014310D01*
X010217Y014367D01*
X010217Y014423D01*
X010273Y014480D01*
X010387Y014480D01*
X010444Y014423D01*
X010444Y014367D01*
X010387Y014310D01*
X010387Y014480D02*
X010444Y014537D01*
X010444Y014594D01*
X010387Y014650D01*
X010273Y014650D01*
X010217Y014594D01*
X010217Y014537D01*
X010273Y014480D01*
X010075Y014480D02*
X010019Y014423D01*
X009848Y014423D01*
X009848Y014310D02*
X009848Y014650D01*
X010019Y014650D01*
X010075Y014594D01*
X010075Y014480D01*
X009962Y014423D02*
X010075Y014310D01*
X009550Y014480D02*
X009210Y014480D01*
X009210Y014650D01*
X009266Y014707D01*
X009380Y014707D01*
X009437Y014650D01*
X009437Y014480D01*
X009437Y014593D02*
X009550Y014707D01*
X009550Y014848D02*
X009550Y015075D01*
X009550Y014962D02*
X009210Y014962D01*
X009323Y014848D01*
X009266Y015217D02*
X009210Y015273D01*
X009210Y015387D01*
X009266Y015444D01*
X009493Y015217D01*
X009550Y015273D01*
X009550Y015387D01*
X009493Y015444D01*
X009266Y015444D01*
X009266Y015217D02*
X009493Y015217D01*
X008050Y015217D02*
X008050Y015444D01*
X008050Y015330D02*
X007710Y015330D01*
X007823Y015217D01*
X008050Y015075D02*
X008050Y014848D01*
X008050Y014962D02*
X007710Y014962D01*
X007823Y014848D01*
X007766Y014707D02*
X007880Y014707D01*
X007937Y014650D01*
X007937Y014480D01*
X008050Y014480D02*
X007710Y014480D01*
X007710Y014650D01*
X007766Y014707D01*
X007937Y014593D02*
X008050Y014707D01*
X010848Y016310D02*
X010848Y016650D01*
X011019Y016650D01*
X011075Y016594D01*
X011075Y016480D01*
X011019Y016423D01*
X010848Y016423D01*
X010962Y016423D02*
X011075Y016310D01*
X011217Y016367D02*
X011273Y016310D01*
X011387Y016310D01*
X011444Y016367D01*
X011444Y016594D01*
X011387Y016650D01*
X011273Y016650D01*
X011217Y016594D01*
X011217Y016537D01*
X011273Y016480D01*
X011444Y016480D01*
X009243Y019118D02*
X009243Y019430D01*
X008993Y019430D01*
X008743Y018930D02*
X008618Y018930D01*
X008118Y019118D02*
X008118Y019430D01*
X008368Y019430D01*
X006743Y019430D02*
X006743Y019118D01*
X006743Y019430D02*
X006493Y019430D01*
X006243Y018930D02*
X006118Y018930D01*
X005618Y019118D02*
X005618Y019430D01*
X005868Y019430D01*
X010763Y021560D02*
X010990Y021560D01*
X010877Y021560D02*
X010877Y021900D01*
X010763Y021787D01*
X011132Y021844D02*
X011189Y021900D01*
X011302Y021900D01*
X011359Y021844D01*
X011132Y021617D01*
X011189Y021560D01*
X011302Y021560D01*
X011359Y021617D01*
X011359Y021844D01*
X011500Y021787D02*
X011500Y021617D01*
X011557Y021560D01*
X011727Y021560D01*
X011727Y021787D01*
X011868Y021730D02*
X011982Y021730D01*
X011868Y021560D02*
X011868Y021900D01*
X012095Y021900D01*
X012605Y021787D02*
X012718Y021900D01*
X012718Y021560D01*
X012605Y021560D02*
X012832Y021560D01*
X012973Y021617D02*
X013200Y021844D01*
X013200Y021617D01*
X013144Y021560D01*
X013030Y021560D01*
X012973Y021617D01*
X012973Y021844D01*
X013030Y021900D01*
X013144Y021900D01*
X013200Y021844D01*
X013342Y021900D02*
X013342Y021673D01*
X013455Y021560D01*
X013569Y021673D01*
X013569Y021900D01*
X013569Y021150D02*
X013455Y021094D01*
X013342Y020980D01*
X013512Y020980D01*
X013569Y020923D01*
X013569Y020867D01*
X013512Y020810D01*
X013398Y020810D01*
X013342Y020867D01*
X013342Y020980D01*
X013200Y020867D02*
X013144Y020810D01*
X013030Y020810D01*
X012973Y020867D01*
X012973Y021094D01*
X013030Y021150D01*
X013144Y021150D01*
X013200Y021094D01*
X011132Y021617D02*
X011132Y021844D01*
X015530Y017150D02*
X015473Y017094D01*
X015473Y016867D01*
X015530Y016810D01*
X015644Y016810D01*
X015700Y016867D01*
X015842Y016810D02*
X016069Y017037D01*
X016069Y017094D01*
X016012Y017150D01*
X015898Y017150D01*
X015842Y017094D01*
X015700Y017094D02*
X015644Y017150D01*
X015530Y017150D01*
X015842Y016810D02*
X016069Y016810D01*
X020310Y023335D02*
X020310Y023505D01*
X020366Y023562D01*
X020480Y023562D01*
X020537Y023505D01*
X020537Y023335D01*
X020650Y023335D02*
X020310Y023335D01*
X020537Y023448D02*
X020650Y023562D01*
X020650Y023703D02*
X020423Y023930D01*
X020366Y023930D01*
X020310Y023873D01*
X020310Y023760D01*
X020366Y023703D01*
X020650Y023703D02*
X020650Y023930D01*
X020810Y023930D02*
X020923Y023817D01*
X020810Y023703D01*
X021150Y023703D01*
X021150Y023562D02*
X021150Y023335D01*
X021150Y023448D02*
X020810Y023448D01*
X020923Y023335D01*
X020810Y023930D02*
X021150Y023930D01*
X020989Y024619D02*
X020348Y024619D01*
X020348Y024940D01*
X020455Y025046D01*
X020668Y025046D01*
X020775Y024940D01*
X020775Y024619D01*
X020668Y025264D02*
X020668Y025478D01*
X020348Y025264D02*
X020348Y025691D01*
X020348Y025909D02*
X020989Y025909D01*
X020989Y026336D01*
X020668Y026122D02*
X020668Y025909D01*
X020348Y025909D02*
X020348Y026336D01*
X020348Y026553D02*
X020348Y026980D01*
X020348Y026767D02*
X020989Y026767D01*
X020050Y026444D02*
X020050Y026217D01*
X020050Y026330D02*
X019710Y026330D01*
X019823Y026217D01*
X019766Y026075D02*
X019880Y026075D01*
X019937Y026019D01*
X019937Y025848D01*
X020050Y025848D02*
X019710Y025848D01*
X019710Y026019D01*
X019766Y026075D01*
X019937Y025962D02*
X020050Y026075D01*
X019550Y026080D02*
X019550Y025966D01*
X019493Y025910D01*
X019266Y026137D01*
X019493Y026137D01*
X019550Y026080D01*
X019493Y025910D02*
X019266Y025910D01*
X019210Y025966D01*
X019210Y026080D01*
X019266Y026137D01*
X019210Y026278D02*
X019550Y026278D01*
X019437Y026278D02*
X019323Y026448D01*
X019437Y026278D02*
X019550Y026448D01*
X019550Y025768D02*
X019550Y025541D01*
X019550Y025655D02*
X019210Y025655D01*
X019323Y025541D01*
X019020Y025438D02*
X018380Y025438D01*
X018593Y025225D01*
X018486Y025007D02*
X018913Y025007D01*
X019020Y024900D01*
X019020Y024687D01*
X018913Y024580D01*
X018486Y024580D01*
X018380Y024687D01*
X018380Y024900D01*
X018486Y025007D01*
X018807Y024794D02*
X019020Y025007D01*
X019020Y025225D02*
X019020Y025652D01*
X020348Y025264D02*
X020989Y025264D01*
X021930Y025493D02*
X021930Y025743D01*
X022243Y025743D01*
X022430Y025243D02*
X022430Y025118D01*
X022243Y024618D02*
X021930Y024618D01*
X021930Y024868D01*
X022866Y026210D02*
X023093Y026210D01*
X023150Y026267D01*
X023150Y026380D01*
X023093Y026437D01*
X023093Y026578D02*
X023150Y026578D01*
X023093Y026578D02*
X022866Y026805D01*
X022810Y026805D01*
X022810Y026578D01*
X022866Y026437D02*
X022810Y026380D01*
X022810Y026267D01*
X022866Y026210D01*
X023560Y026323D02*
X023900Y026323D01*
X023900Y026210D02*
X023900Y026437D01*
X023843Y026578D02*
X023616Y026805D01*
X023843Y026805D01*
X023900Y026748D01*
X023900Y026635D01*
X023843Y026578D01*
X023616Y026578D01*
X023560Y026635D01*
X023560Y026748D01*
X023616Y026805D01*
X023673Y026947D02*
X023843Y026947D01*
X023900Y027003D01*
X023900Y027173D01*
X023673Y027173D01*
X023730Y027315D02*
X023730Y027428D01*
X023900Y027315D02*
X023560Y027315D01*
X023560Y027542D01*
X023673Y028052D02*
X023560Y028165D01*
X023900Y028165D01*
X023900Y028052D02*
X023900Y028278D01*
X023843Y028420D02*
X023616Y028647D01*
X023843Y028647D01*
X023900Y028590D01*
X023900Y028477D01*
X023843Y028420D01*
X023616Y028420D01*
X023560Y028477D01*
X023560Y028590D01*
X023616Y028647D01*
X023560Y028788D02*
X023787Y028788D01*
X023900Y028902D01*
X023787Y029015D01*
X023560Y029015D01*
X023560Y026323D02*
X023673Y026210D01*
X024210Y023944D02*
X024550Y023944D01*
X024710Y023887D02*
X024880Y023717D01*
X024880Y023944D01*
X025050Y023887D02*
X024710Y023887D01*
X024550Y023717D02*
X024210Y023717D01*
X024323Y023830D01*
X024210Y023944D01*
X024550Y023575D02*
X024550Y023348D01*
X024550Y023462D02*
X024210Y023462D01*
X024323Y023348D01*
X024710Y023348D02*
X024710Y023519D01*
X024766Y023575D01*
X024880Y023575D01*
X024937Y023519D01*
X024937Y023348D01*
X025050Y023348D02*
X024710Y023348D01*
X024937Y023462D02*
X025050Y023575D01*
X025050Y020944D02*
X024937Y020830D01*
X024937Y020887D02*
X024937Y020717D01*
X025050Y020717D02*
X024710Y020717D01*
X024710Y020887D01*
X024766Y020944D01*
X024880Y020944D01*
X024937Y020887D01*
X025210Y020887D02*
X025266Y020944D01*
X025323Y020944D01*
X025380Y020887D01*
X025437Y020944D01*
X025493Y020944D01*
X025550Y020887D01*
X025550Y020773D01*
X025493Y020717D01*
X025550Y020575D02*
X025437Y020462D01*
X025437Y020519D02*
X025437Y020348D01*
X025550Y020348D02*
X025210Y020348D01*
X025210Y020519D01*
X025266Y020575D01*
X025380Y020575D01*
X025437Y020519D01*
X025266Y020717D02*
X025210Y020773D01*
X025210Y020887D01*
X025380Y020887D02*
X025380Y020830D01*
X025050Y020519D02*
X025050Y020405D01*
X024993Y020348D01*
X024766Y020575D01*
X024993Y020575D01*
X025050Y020519D01*
X024993Y020348D02*
X024766Y020348D01*
X024710Y020405D01*
X024710Y020519D01*
X024766Y020575D01*
X024766Y020207D02*
X024710Y020150D01*
X024710Y020037D01*
X024766Y019980D01*
X024993Y019980D01*
X024766Y020207D01*
X024993Y020207D01*
X025050Y020150D01*
X025050Y020037D01*
X024993Y019980D01*
X025050Y019839D02*
X025050Y019612D01*
X025050Y019725D02*
X024710Y019725D01*
X024823Y019612D01*
X023944Y011150D02*
X023717Y011150D01*
X023575Y011094D02*
X023575Y010980D01*
X023519Y010923D01*
X023348Y010923D01*
X023348Y010810D02*
X023348Y011150D01*
X023519Y011150D01*
X023575Y011094D01*
X023462Y010923D02*
X023575Y010810D01*
X023717Y010810D02*
X023717Y010867D01*
X023944Y011094D01*
X023944Y011150D01*
X022093Y008805D02*
X022150Y008748D01*
X022150Y008635D01*
X022093Y008578D01*
X022093Y008437D02*
X022150Y008380D01*
X022150Y008267D01*
X022093Y008210D01*
X021866Y008210D01*
X021810Y008267D01*
X021810Y008380D01*
X021866Y008437D01*
X021866Y008578D02*
X021810Y008635D01*
X021810Y008748D01*
X021866Y008805D01*
X021923Y008805D01*
X021980Y008748D01*
X022037Y008805D01*
X022093Y008805D01*
X021980Y008748D02*
X021980Y008692D01*
X015887Y029310D02*
X015773Y029310D01*
X015717Y029367D01*
X015717Y029480D02*
X015830Y029537D01*
X015887Y029537D01*
X015944Y029480D01*
X015944Y029367D01*
X015887Y029310D01*
X015717Y029480D02*
X015717Y029650D01*
X015944Y029650D01*
X015944Y029810D02*
X015830Y029923D01*
X015887Y029923D02*
X015717Y029923D01*
X015717Y029810D02*
X015717Y030150D01*
X015887Y030150D01*
X015944Y030094D01*
X015944Y029980D01*
X015887Y029923D01*
X015575Y029867D02*
X015519Y029810D01*
X015405Y029810D01*
X015348Y029867D01*
X015575Y030094D01*
X015575Y029867D01*
X015519Y029650D02*
X015575Y029594D01*
X015575Y029480D01*
X015519Y029423D01*
X015348Y029423D01*
X015348Y029310D02*
X015348Y029650D01*
X015519Y029650D01*
X015462Y029423D02*
X015575Y029310D01*
X015348Y029867D02*
X015348Y030094D01*
X015405Y030150D01*
X015519Y030150D01*
X015575Y030094D01*
X015207Y030094D02*
X015207Y029867D01*
X015150Y029810D01*
X015037Y029810D01*
X014980Y029867D01*
X015207Y030094D01*
X015150Y030150D01*
X015037Y030150D01*
X014980Y030094D01*
X014980Y029867D01*
X014839Y029810D02*
X014612Y029810D01*
X014725Y029810D02*
X014725Y030150D01*
X014612Y030037D01*
D11*
X014680Y021680D03*
X017180Y017680D03*
D12*
X023680Y025180D03*
X022680Y007180D03*
D13*
X022702Y008513D02*
X022396Y008513D01*
X022089Y008590D02*
X022089Y009050D01*
X022242Y009050D02*
X021935Y009050D01*
X021782Y008973D02*
X021705Y009050D01*
X021551Y009050D01*
X021475Y008973D01*
X021475Y008897D01*
X021551Y008820D01*
X021705Y008820D01*
X021782Y008743D01*
X021782Y008666D01*
X021705Y008590D01*
X021551Y008590D01*
X021475Y008666D01*
X021321Y008820D02*
X021245Y008743D01*
X021014Y008743D01*
X020861Y008743D02*
X020861Y008666D01*
X020784Y008590D01*
X020631Y008590D01*
X020554Y008666D01*
X020631Y008820D02*
X020784Y008820D01*
X020861Y008743D01*
X021014Y008590D02*
X021014Y009050D01*
X021245Y009050D01*
X021321Y008973D01*
X021321Y008820D01*
X020861Y008973D02*
X020784Y009050D01*
X020631Y009050D01*
X020554Y008973D01*
X020554Y008897D01*
X020631Y008820D01*
X022856Y009050D02*
X023163Y009050D01*
X023009Y009050D02*
X023009Y008590D01*
X023316Y008590D02*
X023316Y008897D01*
X023470Y009050D01*
X023623Y008897D01*
X023623Y008590D01*
X023777Y008666D02*
X023853Y008590D01*
X024007Y008590D01*
X024084Y008666D01*
X023777Y008666D02*
X023777Y008973D01*
X023853Y009050D01*
X024007Y009050D01*
X024084Y008973D01*
X024237Y009050D02*
X024544Y009050D01*
X024391Y009050D02*
X024391Y008590D01*
X024697Y008820D02*
X025004Y008820D01*
X025158Y008820D02*
X025311Y008820D01*
X025158Y009050D02*
X025158Y008590D01*
X025465Y008590D01*
X025618Y008743D02*
X025618Y009050D01*
X025465Y009050D02*
X025158Y009050D01*
X025618Y008743D02*
X025772Y008590D01*
X025925Y008743D01*
X025925Y009050D01*
X026079Y008973D02*
X026155Y009050D01*
X026309Y009050D01*
X026386Y008973D01*
X026386Y008666D01*
X026309Y008590D01*
X026155Y008590D01*
X026079Y008666D01*
X026079Y008973D01*
X026232Y008743D02*
X026386Y008590D01*
X026539Y008666D02*
X026616Y008590D01*
X026769Y008590D01*
X026846Y008666D01*
X026846Y008973D01*
X026769Y009050D01*
X026616Y009050D01*
X026539Y008973D01*
X026539Y008666D01*
X026693Y008743D02*
X026846Y008590D01*
X026999Y008590D02*
X027306Y008897D01*
X027306Y008973D01*
X027230Y009050D01*
X027076Y009050D01*
X026999Y008973D01*
X026999Y008590D02*
X027306Y008590D01*
X027074Y005782D02*
X027074Y005322D01*
X026921Y005322D02*
X027228Y005322D01*
X026921Y005629D02*
X027074Y005782D01*
X026767Y005782D02*
X026767Y005322D01*
X026614Y005476D01*
X026460Y005322D01*
X026460Y005782D01*
X026307Y005706D02*
X026230Y005782D01*
X026077Y005782D01*
X026000Y005706D01*
X026000Y005629D01*
X026077Y005552D01*
X026230Y005552D01*
X026307Y005476D01*
X026307Y005399D01*
X026230Y005322D01*
X026077Y005322D01*
X026000Y005399D01*
X023623Y008820D02*
X023316Y008820D01*
X018759Y011669D02*
X018452Y011669D01*
X018759Y011975D01*
X018759Y012052D01*
X018682Y012129D01*
X018529Y012129D01*
X018452Y012052D01*
X018299Y011669D02*
X017992Y011669D01*
X017992Y012129D01*
X017838Y012052D02*
X017762Y012129D01*
X017531Y012129D01*
X017531Y011669D01*
X017762Y011669D01*
X017838Y011745D01*
X017838Y012052D01*
X017378Y012129D02*
X017378Y011669D01*
X017071Y011669D02*
X017071Y012129D01*
X017224Y011975D01*
X017378Y012129D01*
X017504Y011286D02*
X017504Y010826D01*
X017657Y010826D02*
X017350Y010826D01*
X017197Y011056D02*
X016890Y011056D01*
X016736Y011056D02*
X016660Y010979D01*
X016430Y010979D01*
X016430Y010826D02*
X016430Y011286D01*
X016660Y011286D01*
X016736Y011210D01*
X016736Y011056D01*
X016276Y010979D02*
X016276Y010903D01*
X016199Y010826D01*
X016046Y010826D01*
X015969Y010903D01*
X016046Y011056D02*
X016199Y011056D01*
X016276Y010979D01*
X016276Y011210D02*
X016199Y011286D01*
X016046Y011286D01*
X015969Y011210D01*
X015969Y011133D01*
X016046Y011056D01*
X015816Y010826D02*
X015509Y010826D01*
X015509Y011286D01*
X015816Y011286D01*
X015662Y011056D02*
X015509Y011056D01*
X017350Y011133D02*
X017504Y011286D01*
X017811Y011210D02*
X017887Y011286D01*
X018041Y011286D01*
X018118Y011210D01*
X018118Y011133D01*
X017811Y010826D01*
X018118Y010826D01*
X018271Y010826D02*
X018578Y010826D01*
X018425Y011056D02*
X018271Y011056D01*
X018271Y011286D02*
X018271Y010826D01*
X018271Y011286D02*
X018578Y011286D01*
X017672Y018656D02*
X016156Y018656D01*
X016156Y019306D01*
X016156Y020054D02*
X016156Y020704D01*
X017672Y020704D01*
X018204Y020172D01*
X018204Y020054D01*
X018204Y019306D02*
X018204Y019188D01*
X017672Y018656D01*
X018085Y019345D02*
X018062Y019288D01*
X018035Y019233D01*
X018005Y019179D01*
X017971Y019127D01*
X017934Y019078D01*
X017894Y019031D01*
X017851Y018986D01*
X017805Y018945D01*
X017757Y018906D01*
X017706Y018871D01*
X017653Y018839D01*
X017598Y018810D01*
X017542Y018785D01*
X017484Y018764D01*
X017425Y018746D01*
X017364Y018733D01*
X017303Y018723D01*
X017242Y018717D01*
X017180Y018715D01*
X017118Y018717D01*
X017057Y018723D01*
X016996Y018733D01*
X016935Y018746D01*
X016876Y018764D01*
X016818Y018785D01*
X016762Y018810D01*
X016707Y018839D01*
X016654Y018871D01*
X016603Y018906D01*
X016555Y018945D01*
X016509Y018986D01*
X016466Y019031D01*
X016426Y019078D01*
X016389Y019127D01*
X016355Y019179D01*
X016325Y019233D01*
X016298Y019288D01*
X016275Y019345D01*
X016275Y020015D02*
X016298Y020072D01*
X016325Y020127D01*
X016355Y020181D01*
X016389Y020233D01*
X016426Y020282D01*
X016466Y020329D01*
X016509Y020374D01*
X016555Y020415D01*
X016603Y020454D01*
X016654Y020489D01*
X016707Y020521D01*
X016762Y020550D01*
X016818Y020575D01*
X016876Y020596D01*
X016935Y020614D01*
X016996Y020627D01*
X017057Y020637D01*
X017118Y020643D01*
X017180Y020645D01*
X017242Y020643D01*
X017303Y020637D01*
X017364Y020627D01*
X017425Y020614D01*
X017484Y020596D01*
X017542Y020575D01*
X017598Y020550D01*
X017653Y020521D01*
X017706Y020489D01*
X017757Y020454D01*
X017805Y020415D01*
X017851Y020374D01*
X017894Y020329D01*
X017934Y020282D01*
X017971Y020233D01*
X018005Y020181D01*
X018035Y020127D01*
X018062Y020072D01*
X018085Y020015D01*
X018059Y022850D02*
X017752Y022850D01*
X017905Y022850D02*
X017905Y023310D01*
X017752Y023157D01*
X017598Y023157D02*
X017522Y023080D01*
X017598Y023003D01*
X017598Y022927D01*
X017522Y022850D01*
X017368Y022850D01*
X017292Y022927D01*
X017138Y022927D02*
X017061Y022850D01*
X016908Y022850D01*
X016831Y022927D01*
X016908Y023080D02*
X017061Y023080D01*
X017138Y023003D01*
X017138Y022927D01*
X016908Y023080D02*
X016831Y023157D01*
X016831Y023234D01*
X016908Y023310D01*
X017061Y023310D01*
X017138Y023234D01*
X017292Y023234D02*
X017368Y023310D01*
X017522Y023310D01*
X017598Y023234D01*
X017598Y023157D01*
X017522Y023080D02*
X017445Y023080D01*
X017070Y023430D02*
X015290Y023430D01*
X015450Y023310D02*
X015680Y023310D01*
X015757Y023234D01*
X015757Y022927D01*
X015680Y022850D01*
X015450Y022850D01*
X015450Y023310D01*
X015910Y023310D02*
X015910Y022850D01*
X016141Y022850D01*
X016217Y022927D01*
X016217Y023003D01*
X016141Y023080D01*
X015910Y023080D01*
X015910Y023310D02*
X016141Y023310D01*
X016217Y023234D01*
X016217Y023157D01*
X016141Y023080D01*
X016371Y023234D02*
X016448Y023310D01*
X016601Y023310D01*
X016678Y023234D01*
X016678Y023157D01*
X016371Y022850D01*
X016678Y022850D01*
X018212Y022927D02*
X018289Y022850D01*
X018443Y022850D01*
X018519Y022927D01*
X018519Y023003D01*
X018443Y023080D01*
X018212Y023080D01*
X018212Y022927D01*
X018212Y023080D02*
X018366Y023234D01*
X018519Y023310D01*
X018673Y023234D02*
X018749Y023310D01*
X018903Y023310D01*
X018980Y023234D01*
X018673Y022927D01*
X018749Y022850D01*
X018903Y022850D01*
X018980Y022927D01*
X018980Y023234D01*
X019133Y023234D02*
X019133Y022927D01*
X019440Y023234D01*
X019440Y022927D01*
X019363Y022850D01*
X019210Y022850D01*
X019133Y022927D01*
X019133Y023234D02*
X019210Y023310D01*
X019363Y023310D01*
X019440Y023234D01*
X018673Y023234D02*
X018673Y022927D01*
X019424Y024609D02*
X019936Y024609D01*
X019936Y025042D02*
X019936Y025318D01*
X019936Y025751D02*
X019424Y025751D01*
X019424Y025416D01*
X019424Y024944D02*
X019424Y024609D01*
X017070Y024930D02*
X015290Y024930D01*
X015350Y025050D02*
X015580Y025050D01*
X015657Y025127D01*
X015657Y025434D01*
X015580Y025510D01*
X015350Y025510D01*
X015350Y025050D01*
X015810Y025127D02*
X015887Y025050D01*
X016041Y025050D01*
X016117Y025127D01*
X016117Y025280D01*
X016041Y025357D01*
X015964Y025357D01*
X015810Y025280D01*
X015810Y025510D01*
X016117Y025510D01*
X015410Y028950D02*
X014950Y028950D01*
X014950Y029180D01*
X015026Y029257D01*
X015333Y029257D01*
X015410Y029180D01*
X015410Y028950D01*
X015410Y029410D02*
X014950Y029410D01*
X014950Y029641D01*
X015026Y029717D01*
X015180Y029717D01*
X015257Y029641D01*
X015257Y029410D01*
X015257Y029564D02*
X015410Y029717D01*
X015257Y029871D02*
X015410Y030024D01*
X015257Y030178D01*
X014950Y030178D01*
X014950Y030331D02*
X015180Y030331D01*
X015103Y030485D01*
X015103Y030561D01*
X015180Y030638D01*
X015333Y030638D01*
X015410Y030561D01*
X015410Y030408D01*
X015333Y030331D01*
X014950Y030331D02*
X014950Y030638D01*
X015026Y030792D02*
X014950Y030868D01*
X014950Y031022D01*
X015026Y031098D01*
X015333Y030792D01*
X015410Y030868D01*
X015410Y031022D01*
X015333Y031098D01*
X015026Y031098D01*
X015026Y031252D02*
X014950Y031329D01*
X014950Y031482D01*
X015026Y031559D01*
X015103Y031559D01*
X015410Y031252D01*
X015410Y031559D01*
X015333Y031712D02*
X015410Y031789D01*
X015410Y031943D01*
X015333Y032019D01*
X015257Y032019D01*
X015180Y031943D01*
X015180Y031866D01*
X015180Y031943D02*
X015103Y032019D01*
X015026Y032019D01*
X014950Y031943D01*
X014950Y031789D01*
X015026Y031712D01*
X014950Y032173D02*
X014950Y032480D01*
X015103Y032633D02*
X014950Y032787D01*
X015103Y032940D01*
X015410Y032940D01*
X015333Y033094D02*
X015410Y033170D01*
X015410Y033324D01*
X015333Y033400D01*
X015026Y033400D01*
X014950Y033324D01*
X014950Y033170D01*
X015026Y033094D01*
X015333Y033094D01*
X015257Y033247D02*
X015410Y033400D01*
X015410Y033554D02*
X014950Y033554D01*
X014950Y033784D01*
X015026Y033861D01*
X015333Y033861D01*
X015410Y033784D01*
X015410Y033554D01*
X015410Y034014D02*
X014950Y034014D01*
X014950Y034245D01*
X015026Y034321D01*
X015103Y034321D01*
X015180Y034245D01*
X015180Y034014D01*
X015410Y034014D02*
X015410Y034245D01*
X015333Y034321D01*
X015257Y034321D01*
X015180Y034245D01*
X015333Y034475D02*
X015410Y034475D01*
X015410Y034782D01*
X015410Y034935D02*
X014950Y034935D01*
X014950Y035165D01*
X015026Y035242D01*
X015180Y035242D01*
X015257Y035165D01*
X015257Y034935D01*
X015257Y035089D02*
X015410Y035242D01*
X015026Y034782D02*
X015333Y034475D01*
X014950Y034475D02*
X014950Y034782D01*
X015026Y034782D01*
X015180Y032940D02*
X015180Y032633D01*
X015103Y032633D02*
X015410Y032633D01*
X015180Y032326D02*
X015180Y032173D01*
X015410Y032173D02*
X014950Y032173D01*
X015026Y030792D02*
X015333Y030792D01*
X015257Y029871D02*
X014950Y029871D01*
X013487Y029564D02*
X012873Y029564D01*
X012950Y029487D02*
X012950Y029641D01*
X013026Y029717D01*
X013180Y029641D02*
X013180Y029487D01*
X013103Y029410D01*
X013026Y029410D01*
X012950Y029487D01*
X012950Y029257D02*
X013333Y029257D01*
X013410Y029180D01*
X013410Y029027D01*
X013333Y028950D01*
X012950Y028950D01*
X013333Y029410D02*
X013410Y029487D01*
X013410Y029641D01*
X013333Y029717D01*
X013257Y029717D01*
X013180Y029641D01*
X013103Y029871D02*
X012950Y030024D01*
X013410Y030024D01*
X013410Y029871D02*
X013410Y030178D01*
X020930Y028570D02*
X020930Y026790D01*
X022430Y026790D02*
X022430Y028570D01*
X022550Y028320D02*
X022780Y028090D01*
X022780Y028397D01*
X023010Y028320D02*
X022550Y028320D01*
X022626Y027936D02*
X022550Y027859D01*
X022550Y027629D01*
X023010Y027629D01*
X023010Y027859D01*
X022933Y027936D01*
X022626Y027936D01*
X022430Y023070D02*
X022430Y021290D01*
X022310Y021350D02*
X022310Y021580D01*
X022233Y021657D01*
X021926Y021657D01*
X021850Y021580D01*
X021850Y021350D01*
X022310Y021350D01*
X022310Y021810D02*
X022310Y022117D01*
X022310Y021964D02*
X021850Y021964D01*
X022003Y021810D01*
X023930Y021290D02*
X023930Y023070D01*
D14*
X023574Y022433D02*
X022786Y022433D01*
X023180Y021893D01*
X023574Y022433D01*
X023574Y021893D02*
X022786Y021893D01*
X022074Y027427D02*
X021286Y027427D01*
X021680Y027967D01*
X022074Y027427D01*
X022074Y027967D02*
X021286Y027967D01*
X016433Y024574D02*
X016433Y023786D01*
X015893Y024180D01*
X016433Y024574D01*
X015893Y024574D02*
X015893Y023786D01*
X014430Y026180D02*
X013930Y026180D01*
X013680Y026430D01*
X013680Y026930D01*
X013930Y027180D01*
X013680Y027430D01*
X013680Y027930D01*
X013930Y028180D01*
X014430Y028180D01*
X014680Y027930D01*
X014680Y027430D01*
X014430Y027180D01*
X014680Y026930D01*
X014680Y026430D01*
X014430Y026180D01*
D15*
X003930Y013830D02*
X003930Y007530D01*
X006680Y007530D01*
X006680Y013830D02*
X003930Y013830D01*
X014302Y015680D02*
X014302Y006192D01*
X020680Y006192D01*
X020680Y015680D01*
X014302Y015680D01*
X024881Y008361D02*
X024881Y005999D01*
X027479Y005999D01*
X027479Y008361D01*
X024881Y008361D01*
X025786Y007180D02*
X025788Y007219D01*
X025794Y007258D01*
X025804Y007296D01*
X025817Y007333D01*
X025834Y007368D01*
X025854Y007402D01*
X025878Y007433D01*
X025905Y007462D01*
X025934Y007488D01*
X025966Y007511D01*
X026000Y007531D01*
X026036Y007547D01*
X026073Y007559D01*
X026112Y007568D01*
X026151Y007573D01*
X026190Y007574D01*
X026229Y007571D01*
X026268Y007564D01*
X026305Y007553D01*
X026342Y007539D01*
X026377Y007521D01*
X026410Y007500D01*
X026441Y007475D01*
X026469Y007448D01*
X026494Y007418D01*
X026516Y007385D01*
X026535Y007351D01*
X026550Y007315D01*
X026562Y007277D01*
X026570Y007239D01*
X026574Y007200D01*
X026574Y007160D01*
X026570Y007121D01*
X026562Y007083D01*
X026550Y007045D01*
X026535Y007009D01*
X026516Y006975D01*
X026494Y006942D01*
X026469Y006912D01*
X026441Y006885D01*
X026410Y006860D01*
X026377Y006839D01*
X026342Y006821D01*
X026305Y006807D01*
X026268Y006796D01*
X026229Y006789D01*
X026190Y006786D01*
X026151Y006787D01*
X026112Y006792D01*
X026073Y006801D01*
X026036Y006813D01*
X026000Y006829D01*
X025966Y006849D01*
X025934Y006872D01*
X025905Y006898D01*
X025878Y006927D01*
X025854Y006958D01*
X025834Y006992D01*
X025817Y007027D01*
X025804Y007064D01*
X025794Y007102D01*
X025788Y007141D01*
X025786Y007180D01*
X025588Y007180D02*
X025590Y007228D01*
X025596Y007276D01*
X025606Y007323D01*
X025619Y007370D01*
X025637Y007415D01*
X025658Y007458D01*
X025682Y007500D01*
X025710Y007540D01*
X025741Y007577D01*
X025774Y007611D01*
X025811Y007643D01*
X025850Y007671D01*
X025891Y007697D01*
X025934Y007719D01*
X025979Y007737D01*
X026025Y007751D01*
X026072Y007762D01*
X026120Y007769D01*
X026168Y007772D01*
X026216Y007771D01*
X026264Y007766D01*
X026312Y007757D01*
X026358Y007744D01*
X026404Y007728D01*
X026448Y007708D01*
X026490Y007684D01*
X026530Y007658D01*
X026568Y007627D01*
X026603Y007594D01*
X026635Y007558D01*
X026665Y007520D01*
X026691Y007479D01*
X026713Y007437D01*
X026733Y007393D01*
X026748Y007347D01*
X026760Y007300D01*
X026768Y007252D01*
X026772Y007204D01*
X026772Y007156D01*
X026768Y007108D01*
X026760Y007060D01*
X026748Y007013D01*
X026733Y006967D01*
X026713Y006923D01*
X026691Y006881D01*
X026665Y006840D01*
X026635Y006802D01*
X026603Y006766D01*
X026568Y006733D01*
X026530Y006702D01*
X026490Y006676D01*
X026448Y006652D01*
X026404Y006632D01*
X026358Y006616D01*
X026312Y006603D01*
X026264Y006594D01*
X026216Y006589D01*
X026168Y006588D01*
X026120Y006591D01*
X026072Y006598D01*
X026025Y006609D01*
X025979Y006623D01*
X025934Y006641D01*
X025891Y006663D01*
X025850Y006689D01*
X025811Y006717D01*
X025774Y006749D01*
X025741Y006783D01*
X025710Y006820D01*
X025682Y006860D01*
X025658Y006902D01*
X025637Y006945D01*
X025619Y006990D01*
X025606Y007037D01*
X025596Y007084D01*
X025590Y007132D01*
X025588Y007180D01*
X015300Y026854D02*
X015375Y026929D01*
X015375Y027004D01*
X015300Y027079D01*
X014925Y027079D01*
X014925Y027004D02*
X014925Y027154D01*
X014925Y027314D02*
X014925Y027539D01*
X015000Y027614D01*
X015150Y027614D01*
X015225Y027539D01*
X015225Y027314D01*
X015375Y027314D02*
X014925Y027314D01*
X014925Y027775D02*
X015150Y027775D01*
X015075Y027925D01*
X015075Y028000D01*
X015150Y028075D01*
X015300Y028075D01*
X015375Y028000D01*
X015375Y027850D01*
X015300Y027775D01*
X014925Y027775D02*
X014925Y028075D01*
D16*
X021225Y025057D02*
X021225Y025007D01*
X021250Y024982D01*
X021250Y024935D02*
X021350Y024935D01*
X021375Y024910D01*
X021375Y024860D01*
X021350Y024835D01*
X021250Y024835D01*
X021225Y024860D01*
X021225Y024910D01*
X021250Y024935D01*
X021325Y024885D02*
X021375Y024935D01*
X021375Y024982D02*
X021275Y025082D01*
X021250Y025082D01*
X021225Y025057D01*
X021375Y025082D02*
X021375Y024982D01*
X022100Y024932D02*
X022100Y025032D01*
X022100Y025080D02*
X022250Y025080D01*
X022250Y025180D01*
X022175Y025130D02*
X022175Y025080D01*
X022100Y025080D02*
X022100Y025180D01*
X022100Y025227D02*
X022100Y025327D01*
X022100Y025277D02*
X022250Y025277D01*
X022175Y024982D02*
X022175Y024932D01*
X022250Y024932D02*
X022100Y024932D01*
X022100Y024885D02*
X022250Y024885D01*
X022100Y024785D01*
X022250Y024785D01*
X009564Y019210D02*
X009564Y019110D01*
X009564Y019185D02*
X009464Y019185D01*
X009464Y019210D02*
X009514Y019260D01*
X009564Y019210D01*
X009464Y019210D02*
X009464Y019110D01*
X009416Y019110D02*
X009316Y019110D01*
X009416Y019210D01*
X009416Y019235D01*
X009391Y019260D01*
X009341Y019260D01*
X009316Y019235D01*
X009269Y019235D02*
X009244Y019260D01*
X009194Y019260D01*
X009169Y019235D01*
X009122Y019235D02*
X009097Y019260D01*
X009047Y019260D01*
X009022Y019235D01*
X008974Y019235D02*
X008949Y019260D01*
X008899Y019260D01*
X008874Y019235D01*
X008827Y019260D02*
X008727Y019260D01*
X008777Y019260D02*
X008777Y019110D01*
X008874Y019110D02*
X008974Y019210D01*
X008974Y019235D01*
X008974Y019110D02*
X008874Y019110D01*
X009022Y019110D02*
X009122Y019210D01*
X009122Y019235D01*
X009122Y019110D02*
X009022Y019110D01*
X009169Y019110D02*
X009269Y019210D01*
X009269Y019235D01*
X009269Y019110D02*
X009169Y019110D01*
X008680Y019135D02*
X008655Y019110D01*
X008580Y019110D01*
X008580Y019260D01*
X008655Y019260D01*
X008680Y019235D01*
X008680Y019210D01*
X008655Y019185D01*
X008580Y019185D01*
X008655Y019185D02*
X008680Y019160D01*
X008680Y019135D01*
X008532Y019110D02*
X008532Y019260D01*
X008482Y019210D01*
X008432Y019260D01*
X008432Y019110D01*
X008385Y019110D02*
X008385Y019260D01*
X008335Y019210D01*
X008285Y019260D01*
X008285Y019110D01*
X008360Y019985D02*
X008335Y020010D01*
X008335Y020110D01*
X008360Y020135D01*
X008410Y020135D01*
X008435Y020110D01*
X008435Y020010D01*
X008410Y019985D01*
X008360Y019985D01*
X008385Y020035D02*
X008435Y019985D01*
X008482Y020010D02*
X008507Y019985D01*
X008557Y019985D01*
X008582Y020010D01*
X008582Y020035D01*
X008557Y020060D01*
X008532Y020060D01*
X008557Y020060D02*
X008582Y020085D01*
X008582Y020110D01*
X008557Y020135D01*
X008507Y020135D01*
X008482Y020110D01*
X007064Y019210D02*
X007064Y019110D01*
X007064Y019185D02*
X006964Y019185D01*
X006964Y019210D02*
X007014Y019260D01*
X007064Y019210D01*
X006964Y019210D02*
X006964Y019110D01*
X006916Y019110D02*
X006816Y019110D01*
X006916Y019210D01*
X006916Y019235D01*
X006891Y019260D01*
X006841Y019260D01*
X006816Y019235D01*
X006769Y019235D02*
X006744Y019260D01*
X006694Y019260D01*
X006669Y019235D01*
X006622Y019235D02*
X006597Y019260D01*
X006547Y019260D01*
X006522Y019235D01*
X006474Y019235D02*
X006449Y019260D01*
X006399Y019260D01*
X006374Y019235D01*
X006327Y019260D02*
X006227Y019260D01*
X006277Y019260D02*
X006277Y019110D01*
X006374Y019110D02*
X006474Y019210D01*
X006474Y019235D01*
X006474Y019110D02*
X006374Y019110D01*
X006522Y019110D02*
X006622Y019210D01*
X006622Y019235D01*
X006622Y019110D02*
X006522Y019110D01*
X006669Y019110D02*
X006769Y019210D01*
X006769Y019235D01*
X006769Y019110D02*
X006669Y019110D01*
X006180Y019135D02*
X006155Y019110D01*
X006080Y019110D01*
X006080Y019260D01*
X006155Y019260D01*
X006180Y019235D01*
X006180Y019210D01*
X006155Y019185D01*
X006080Y019185D01*
X006155Y019185D02*
X006180Y019160D01*
X006180Y019135D01*
X006032Y019110D02*
X006032Y019260D01*
X005982Y019210D01*
X005932Y019260D01*
X005932Y019110D01*
X005885Y019110D02*
X005885Y019260D01*
X005835Y019210D01*
X005785Y019260D01*
X005785Y019110D01*
X005860Y019985D02*
X005835Y020010D01*
X005835Y020110D01*
X005860Y020135D01*
X005910Y020135D01*
X005935Y020110D01*
X005935Y020010D01*
X005910Y019985D01*
X005860Y019985D01*
X005885Y020035D02*
X005935Y019985D01*
X005982Y020060D02*
X006082Y020060D01*
X006057Y019985D02*
X006057Y020135D01*
X005982Y020060D01*
D17*
X016171Y020839D02*
X016233Y020778D01*
X016357Y020778D01*
X016418Y020839D01*
X016540Y020778D02*
X016787Y020778D01*
X016663Y020778D02*
X016663Y021148D01*
X016540Y021025D01*
X016418Y021086D02*
X016357Y021148D01*
X016233Y021148D01*
X016171Y021086D01*
X016171Y020839D01*
M02*
