G75*
%MOIN*%
%OFA0B0*%
%FSLAX25Y25*%
%IPPOS*%
%LPD*%
%AMOC8*
5,1,8,0,0,1.08239X$1,22.5*
%
%ADD10OC8,0.05950*%
%ADD11C,0.05950*%
%ADD12C,0.13595*%
%ADD13R,0.06312X0.04737*%
%ADD14R,0.06312X0.05131*%
%ADD15R,0.05131X0.06312*%
%ADD16R,0.03280X0.04068*%
%ADD17C,0.06800*%
%ADD18R,0.02769X0.03359*%
%ADD19C,0.04146*%
%ADD20C,0.08200*%
%ADD21C,0.07099*%
D10*
X0198900Y0183900D03*
D11*
X0208900Y0183900D03*
X0218900Y0183900D03*
X0228900Y0183900D03*
D12*
X0213900Y0280357D03*
D13*
X0137994Y0069136D03*
X0137994Y0061656D03*
X0146656Y0065396D03*
D14*
X0133900Y0085455D03*
X0133900Y0092345D03*
D15*
X0119845Y0231400D03*
X0112955Y0231400D03*
D16*
X0111872Y0221400D03*
X0111872Y0211400D03*
X0120928Y0211400D03*
X0120928Y0221400D03*
D17*
X0108900Y0091900D02*
X0108900Y0085900D01*
X0098900Y0085900D02*
X0098900Y0091900D01*
X0143900Y0091900D02*
X0143900Y0085900D01*
X0153900Y0085900D02*
X0153900Y0091900D01*
X0163900Y0091900D02*
X0163900Y0085900D01*
X0173900Y0085900D02*
X0173900Y0091900D01*
X0188900Y0091900D02*
X0188900Y0085900D01*
X0198900Y0085900D02*
X0198900Y0091900D01*
X0208900Y0091900D02*
X0208900Y0085900D01*
X0218900Y0085900D02*
X0218900Y0091900D01*
D18*
X0186124Y0106439D03*
X0182975Y0106439D03*
X0179825Y0106439D03*
X0176676Y0106439D03*
X0176676Y0111361D03*
X0179825Y0111361D03*
X0182975Y0111361D03*
X0186124Y0111361D03*
D19*
X0111380Y0062561D03*
X0096420Y0062561D03*
D20*
X0063900Y0063900D03*
X0073900Y0063900D03*
X0193506Y0118900D03*
X0193506Y0128900D03*
X0193506Y0138900D03*
X0193506Y0148900D03*
X0193506Y0158900D03*
X0193506Y0168900D03*
D21*
X0168900Y0193900D03*
X0158900Y0206400D03*
X0146400Y0191400D03*
X0146400Y0176400D03*
X0131400Y0176400D03*
X0118900Y0153900D03*
X0108900Y0183900D03*
X0098900Y0188900D03*
X0083900Y0183900D03*
X0061400Y0166400D03*
X0066400Y0141400D03*
X0106400Y0216400D03*
X0106400Y0231400D03*
X0126400Y0223900D03*
X0165150Y0172650D03*
X0178900Y0213900D03*
X0168900Y0233900D03*
X0133900Y0098900D03*
X0123900Y0078900D03*
X0133900Y0071400D03*
X0120150Y0063900D03*
M02*
