G75*
%MOIN*%
%OFA0B0*%
%FSLAX25Y25*%
%IPPOS*%
%LPD*%
%AMOC8*
5,1,8,0,0,1.08239X$1,22.5*
%
%ADD10R,0.06312X0.11036*%
%ADD11R,0.06700X0.08700*%
%ADD12R,0.15800X0.08700*%
%ADD13R,0.04737X0.05721*%
%ADD14OC8,0.05950*%
%ADD15C,0.05950*%
%ADD16C,0.13595*%
%ADD17R,0.05721X0.04737*%
%ADD18R,0.06587X0.05800*%
%ADD19R,0.04343X0.03950*%
%ADD20R,0.06312X0.05131*%
%ADD21R,0.04737X0.06312*%
%ADD22R,0.04068X0.03280*%
%ADD23R,0.06706X0.06706*%
%ADD24R,0.06312X0.04737*%
%ADD25R,0.05131X0.06312*%
%ADD26R,0.08674X0.05524*%
%ADD27R,0.05524X0.08674*%
%ADD28R,0.03300X0.05800*%
%ADD29C,0.06800*%
%ADD30R,0.02375X0.06312*%
%ADD31C,0.04146*%
%ADD32R,0.07874X0.06693*%
%ADD33R,0.10630X0.06693*%
%ADD34R,0.06312X0.05524*%
%ADD35R,0.05800X0.03300*%
%ADD36R,0.03359X0.02769*%
%ADD37C,0.08200*%
%ADD38C,0.07099*%
D10*
X0076400Y0140829D03*
X0076400Y0156971D03*
X0138900Y0156971D03*
X0138900Y0140829D03*
D11*
X0122800Y0166300D03*
X0113800Y0166300D03*
X0104800Y0166300D03*
D12*
X0113900Y0141500D03*
D13*
X0134963Y0111400D03*
X0142837Y0111400D03*
X0122837Y0176400D03*
X0114963Y0176400D03*
D14*
X0198900Y0183900D03*
D15*
X0208900Y0183900D03*
X0218900Y0183900D03*
X0228900Y0183900D03*
D16*
X0213900Y0280357D03*
D17*
X0093900Y0152837D03*
X0093900Y0144963D03*
X0073900Y0127837D03*
X0073900Y0119963D03*
D18*
X0117650Y0127365D03*
X0117650Y0110435D03*
X0178900Y0132935D03*
X0178900Y0149865D03*
D19*
X0104087Y0106400D03*
X0096213Y0102660D03*
X0096213Y0110140D03*
D20*
X0103900Y0120455D03*
X0103900Y0127345D03*
X0083900Y0127345D03*
X0083900Y0120455D03*
X0063900Y0120455D03*
X0063900Y0127345D03*
X0073900Y0087345D03*
X0073900Y0080455D03*
X0083900Y0080455D03*
X0083900Y0087345D03*
X0156400Y0140455D03*
X0156400Y0147345D03*
X0165150Y0147345D03*
X0165150Y0140455D03*
X0233900Y0082345D03*
X0233900Y0075455D03*
D21*
X0072640Y0108231D03*
X0068900Y0099569D03*
X0065160Y0108231D03*
D22*
X0083900Y0108428D03*
X0083900Y0099372D03*
X0093900Y0119372D03*
X0093900Y0128428D03*
D23*
X0069806Y0185120D03*
X0057994Y0185120D03*
X0057994Y0212680D03*
X0069806Y0212680D03*
D24*
X0152069Y0126400D03*
X0160731Y0122660D03*
X0160731Y0130140D03*
X0173231Y0160160D03*
X0173231Y0167640D03*
X0164569Y0163900D03*
D25*
X0069845Y0246400D03*
X0062955Y0246400D03*
X0062955Y0261400D03*
X0069845Y0261400D03*
D26*
X0083900Y0261892D03*
X0083900Y0254018D03*
X0083900Y0246144D03*
X0083900Y0238270D03*
X0083900Y0230396D03*
X0083900Y0222522D03*
X0083900Y0214648D03*
X0083900Y0206774D03*
X0147680Y0206774D03*
X0147680Y0214648D03*
X0147680Y0222522D03*
X0147680Y0230396D03*
X0147680Y0238270D03*
X0147680Y0246144D03*
X0147680Y0254018D03*
X0147680Y0261892D03*
D27*
X0135081Y0198900D03*
X0127207Y0198900D03*
X0119333Y0198900D03*
X0111459Y0198900D03*
X0103585Y0198900D03*
X0095711Y0198900D03*
D28*
X0160400Y0103900D03*
X0163900Y0103900D03*
X0167400Y0103900D03*
X0205400Y0103900D03*
X0208900Y0103900D03*
X0212400Y0103900D03*
D29*
X0208900Y0091900D02*
X0208900Y0085900D01*
X0198900Y0085900D02*
X0198900Y0091900D01*
X0188900Y0091900D02*
X0188900Y0085900D01*
X0173900Y0085900D02*
X0173900Y0091900D01*
X0163900Y0091900D02*
X0163900Y0085900D01*
X0153900Y0085900D02*
X0153900Y0091900D01*
X0143900Y0091900D02*
X0143900Y0085900D01*
X0108900Y0085900D02*
X0108900Y0091900D01*
X0098900Y0091900D02*
X0098900Y0085900D01*
X0218900Y0085900D02*
X0218900Y0091900D01*
D30*
X0109018Y0064530D03*
X0106459Y0064530D03*
X0103900Y0064530D03*
X0101341Y0064530D03*
X0098782Y0064530D03*
D31*
X0096420Y0062561D03*
X0111380Y0062561D03*
D32*
X0118404Y0053900D03*
X0089396Y0053900D03*
D33*
X0103900Y0053900D03*
D34*
X0233900Y0052994D03*
X0233900Y0064806D03*
D35*
X0233900Y0092128D03*
X0233900Y0095672D03*
D36*
X0171361Y0219176D03*
X0171361Y0222325D03*
X0171361Y0225475D03*
X0171361Y0228624D03*
X0166439Y0228624D03*
X0166439Y0225475D03*
X0166439Y0222325D03*
X0166439Y0219176D03*
X0166439Y0244176D03*
X0166439Y0247325D03*
X0166439Y0250475D03*
X0166439Y0253624D03*
X0171361Y0253624D03*
X0171361Y0250475D03*
X0171361Y0247325D03*
X0171361Y0244176D03*
D37*
X0063900Y0063900D03*
X0073900Y0063900D03*
X0193506Y0118900D03*
X0193506Y0128900D03*
X0193506Y0138900D03*
X0193506Y0148900D03*
X0193506Y0158900D03*
X0193506Y0168900D03*
D38*
X0168900Y0193900D03*
X0158900Y0206400D03*
X0146400Y0191400D03*
X0146400Y0176400D03*
X0131400Y0176400D03*
X0118900Y0153900D03*
X0108900Y0183900D03*
X0098900Y0188900D03*
X0083900Y0183900D03*
X0061400Y0166400D03*
X0066400Y0141400D03*
X0106400Y0216400D03*
X0106400Y0231400D03*
X0126400Y0223900D03*
X0165150Y0172650D03*
X0178900Y0213900D03*
X0168900Y0233900D03*
X0133900Y0098900D03*
X0123900Y0078900D03*
X0133900Y0071400D03*
X0120150Y0063900D03*
M02*
