G75*
%MOIN*%
%OFA0B0*%
%FSLAX25Y25*%
%IPPOS*%
%LPD*%
%AMOC8*
5,1,8,0,0,1.08239X$1,22.5*
%
%ADD10OC8,0.05150*%
%ADD11C,0.05150*%
%ADD12R,0.05512X0.03937*%
%ADD13R,0.05512X0.04331*%
%ADD14R,0.04331X0.05512*%
%ADD15R,0.02480X0.03268*%
%ADD16C,0.06000*%
%ADD17R,0.01969X0.02559*%
%ADD18C,0.07400*%
%ADD19C,0.00800*%
%ADD20C,0.06299*%
%ADD21C,0.01600*%
D10*
X0198900Y0183900D03*
D11*
X0208900Y0183900D03*
X0218900Y0183900D03*
X0228900Y0183900D03*
D12*
X0146656Y0065396D03*
X0137994Y0061656D03*
X0137994Y0069136D03*
D13*
X0133900Y0085455D03*
X0133900Y0092345D03*
D14*
X0119845Y0231400D03*
X0112955Y0231400D03*
D15*
X0111872Y0221400D03*
X0111872Y0211400D03*
X0120928Y0211400D03*
X0120928Y0221400D03*
D16*
X0108900Y0091900D02*
X0108900Y0085900D01*
X0098900Y0085900D02*
X0098900Y0091900D01*
X0143900Y0091900D02*
X0143900Y0085900D01*
X0153900Y0085900D02*
X0153900Y0091900D01*
X0163900Y0091900D02*
X0163900Y0085900D01*
X0173900Y0085900D02*
X0173900Y0091900D01*
X0188900Y0091900D02*
X0188900Y0085900D01*
X0198900Y0085900D02*
X0198900Y0091900D01*
X0208900Y0091900D02*
X0208900Y0085900D01*
X0218900Y0085900D02*
X0218900Y0091900D01*
D17*
X0186124Y0106439D03*
X0182975Y0106439D03*
X0179825Y0106439D03*
X0176676Y0106439D03*
X0176676Y0111361D03*
X0179825Y0111361D03*
X0182975Y0111361D03*
X0186124Y0111361D03*
D18*
X0193506Y0118900D03*
X0193506Y0128900D03*
X0193506Y0138900D03*
X0193506Y0148900D03*
X0193506Y0158900D03*
X0193506Y0168900D03*
X0073900Y0063900D03*
X0063900Y0063900D03*
D19*
X0050875Y0040875D02*
X0050875Y0263625D01*
X0151952Y0263625D01*
X0152972Y0264048D01*
X0181755Y0292831D01*
X0243776Y0292831D01*
X0243776Y0040875D01*
X0050875Y0040875D01*
X0050875Y0041296D02*
X0243776Y0041296D01*
X0243776Y0042094D02*
X0050875Y0042094D01*
X0050875Y0042893D02*
X0243776Y0042893D01*
X0243776Y0043691D02*
X0050875Y0043691D01*
X0050875Y0044490D02*
X0243776Y0044490D01*
X0243776Y0045288D02*
X0050875Y0045288D01*
X0050875Y0046087D02*
X0243776Y0046087D01*
X0243776Y0046885D02*
X0050875Y0046885D01*
X0050875Y0047684D02*
X0243776Y0047684D01*
X0243776Y0048482D02*
X0050875Y0048482D01*
X0050875Y0049281D02*
X0243776Y0049281D01*
X0243776Y0050079D02*
X0050875Y0050079D01*
X0050875Y0050878D02*
X0243776Y0050878D01*
X0243776Y0051676D02*
X0050875Y0051676D01*
X0050875Y0052475D02*
X0243776Y0052475D01*
X0243776Y0053273D02*
X0050875Y0053273D01*
X0050875Y0054072D02*
X0243776Y0054072D01*
X0243776Y0054870D02*
X0050875Y0054870D01*
X0050875Y0055669D02*
X0243776Y0055669D01*
X0243776Y0056467D02*
X0050875Y0056467D01*
X0050875Y0057266D02*
X0243776Y0057266D01*
X0243776Y0058064D02*
X0141920Y0058064D01*
X0141568Y0057713D02*
X0142725Y0058869D01*
X0142725Y0062662D01*
X0142780Y0062568D01*
X0143040Y0062307D01*
X0143360Y0062123D01*
X0143716Y0062028D01*
X0146256Y0062028D01*
X0146256Y0064996D01*
X0147056Y0064996D01*
X0147056Y0065796D01*
X0150812Y0065796D01*
X0150812Y0067549D01*
X0150716Y0067905D01*
X0150532Y0068224D01*
X0150271Y0068485D01*
X0149952Y0068669D01*
X0149596Y0068765D01*
X0147056Y0068765D01*
X0147056Y0065796D01*
X0146256Y0065796D01*
X0146256Y0068765D01*
X0143716Y0068765D01*
X0143360Y0068669D01*
X0143040Y0068485D01*
X0142780Y0068224D01*
X0142725Y0068130D01*
X0142725Y0071923D01*
X0141568Y0073080D01*
X0138751Y0073080D01*
X0138244Y0074303D01*
X0136803Y0075744D01*
X0136675Y0075797D01*
X0136675Y0081315D01*
X0137474Y0081315D01*
X0138631Y0082472D01*
X0138631Y0088438D01*
X0138169Y0088900D01*
X0138631Y0089362D01*
X0138631Y0095328D01*
X0138103Y0095856D01*
X0138244Y0095997D01*
X0139024Y0097881D01*
X0139024Y0099919D01*
X0138244Y0101803D01*
X0136803Y0103244D01*
X0134919Y0104024D01*
X0132881Y0104024D01*
X0130997Y0103244D01*
X0129556Y0101803D01*
X0128776Y0099919D01*
X0128776Y0097881D01*
X0129556Y0095997D01*
X0129697Y0095856D01*
X0129169Y0095328D01*
X0129169Y0089362D01*
X0129631Y0088900D01*
X0129169Y0088438D01*
X0129169Y0082472D01*
X0130326Y0081315D01*
X0131125Y0081315D01*
X0131125Y0075797D01*
X0130997Y0075744D01*
X0129556Y0074303D01*
X0128776Y0072419D01*
X0128776Y0070381D01*
X0129556Y0068497D01*
X0130997Y0067056D01*
X0132881Y0066276D01*
X0133338Y0066276D01*
X0134217Y0065396D01*
X0133264Y0064442D01*
X0133264Y0064431D01*
X0132293Y0064431D01*
X0121252Y0075472D01*
X0120472Y0076252D01*
X0119452Y0076675D01*
X0107549Y0076675D01*
X0102130Y0082094D01*
X0103117Y0083082D01*
X0103875Y0084910D01*
X0103875Y0092890D01*
X0103117Y0094718D01*
X0101718Y0096117D01*
X0099890Y0096875D01*
X0097910Y0096875D01*
X0096082Y0096117D01*
X0094683Y0094718D01*
X0093925Y0092890D01*
X0093925Y0084910D01*
X0094683Y0083082D01*
X0096082Y0081683D01*
X0096125Y0081665D01*
X0096125Y0080848D01*
X0096548Y0079828D01*
X0097328Y0079048D01*
X0104828Y0071548D01*
X0105848Y0071125D01*
X0117751Y0071125D01*
X0129572Y0059304D01*
X0130592Y0058881D01*
X0133264Y0058881D01*
X0133264Y0058869D01*
X0134421Y0057713D01*
X0141568Y0057713D01*
X0142719Y0058863D02*
X0243776Y0058863D01*
X0243776Y0059661D02*
X0142725Y0059661D01*
X0142725Y0060460D02*
X0243776Y0060460D01*
X0243776Y0061258D02*
X0142725Y0061258D01*
X0142725Y0062057D02*
X0143606Y0062057D01*
X0146256Y0062057D02*
X0147056Y0062057D01*
X0147056Y0062028D02*
X0149596Y0062028D01*
X0149952Y0062123D01*
X0150271Y0062307D01*
X0150532Y0062568D01*
X0150716Y0062887D01*
X0150812Y0063243D01*
X0150812Y0064996D01*
X0147056Y0064996D01*
X0147056Y0062028D01*
X0147056Y0062855D02*
X0146256Y0062855D01*
X0146256Y0063654D02*
X0147056Y0063654D01*
X0147056Y0064452D02*
X0146256Y0064452D01*
X0146256Y0064996D02*
X0142500Y0064996D01*
X0142500Y0064668D01*
X0141772Y0065396D01*
X0142500Y0066125D01*
X0142500Y0065796D01*
X0146256Y0065796D01*
X0146256Y0064996D01*
X0146256Y0065251D02*
X0141917Y0065251D01*
X0142425Y0066049D02*
X0142500Y0066049D01*
X0142725Y0068445D02*
X0143000Y0068445D01*
X0142725Y0069243D02*
X0243776Y0069243D01*
X0243776Y0068445D02*
X0150311Y0068445D01*
X0150786Y0067646D02*
X0243776Y0067646D01*
X0243776Y0066848D02*
X0150812Y0066848D01*
X0150812Y0066049D02*
X0243776Y0066049D01*
X0243776Y0065251D02*
X0147056Y0065251D01*
X0147056Y0066049D02*
X0146256Y0066049D01*
X0146256Y0066848D02*
X0147056Y0066848D01*
X0147056Y0067646D02*
X0146256Y0067646D01*
X0146256Y0068445D02*
X0147056Y0068445D01*
X0142725Y0070042D02*
X0243776Y0070042D01*
X0243776Y0070840D02*
X0142725Y0070840D01*
X0142725Y0071639D02*
X0243776Y0071639D01*
X0243776Y0072437D02*
X0142210Y0072437D01*
X0138686Y0073236D02*
X0243776Y0073236D01*
X0243776Y0074034D02*
X0138355Y0074034D01*
X0137714Y0074833D02*
X0243776Y0074833D01*
X0243776Y0075632D02*
X0136915Y0075632D01*
X0136675Y0076430D02*
X0243776Y0076430D01*
X0243776Y0077229D02*
X0136675Y0077229D01*
X0136675Y0078027D02*
X0243776Y0078027D01*
X0243776Y0078826D02*
X0136675Y0078826D01*
X0136675Y0079624D02*
X0243776Y0079624D01*
X0243776Y0080423D02*
X0136675Y0080423D01*
X0136675Y0081221D02*
X0142196Y0081221D01*
X0142910Y0080925D02*
X0144890Y0080925D01*
X0146718Y0081683D01*
X0148117Y0083082D01*
X0148875Y0084910D01*
X0148875Y0092890D01*
X0148117Y0094718D01*
X0147130Y0095706D01*
X0152549Y0101125D01*
X0154701Y0101125D01*
X0152328Y0098752D01*
X0151548Y0097972D01*
X0151125Y0096952D01*
X0151125Y0096135D01*
X0151082Y0096117D01*
X0149683Y0094718D01*
X0148925Y0092890D01*
X0148925Y0084910D01*
X0149683Y0083082D01*
X0151082Y0081683D01*
X0152910Y0080925D01*
X0154890Y0080925D01*
X0156718Y0081683D01*
X0158117Y0083082D01*
X0158875Y0084910D01*
X0158875Y0092890D01*
X0158117Y0094718D01*
X0157130Y0095706D01*
X0160049Y0098625D01*
X0176952Y0098625D01*
X0177972Y0099048D01*
X0178752Y0099828D01*
X0180346Y0101422D01*
X0180622Y0100753D01*
X0185670Y0095706D01*
X0184683Y0094718D01*
X0183925Y0092890D01*
X0183925Y0084910D01*
X0184683Y0083082D01*
X0186082Y0081683D01*
X0187910Y0080925D01*
X0189890Y0080925D01*
X0191718Y0081683D01*
X0193117Y0083082D01*
X0193875Y0084910D01*
X0193875Y0092501D01*
X0193925Y0092451D01*
X0193925Y0084910D01*
X0194683Y0083082D01*
X0196082Y0081683D01*
X0197910Y0080925D01*
X0199890Y0080925D01*
X0201718Y0081683D01*
X0203117Y0083082D01*
X0203875Y0084910D01*
X0203875Y0092890D01*
X0203117Y0094718D01*
X0201718Y0096117D01*
X0199890Y0096875D01*
X0197910Y0096875D01*
X0197514Y0096710D01*
X0189083Y0105141D01*
X0189083Y0108537D01*
X0188720Y0108900D01*
X0189083Y0109263D01*
X0189083Y0113458D01*
X0187927Y0114615D01*
X0174873Y0114615D01*
X0173717Y0113458D01*
X0173717Y0109263D01*
X0174080Y0108900D01*
X0173717Y0108537D01*
X0173717Y0107641D01*
X0172751Y0106675D01*
X0150848Y0106675D01*
X0149828Y0106252D01*
X0149048Y0105472D01*
X0141548Y0097972D01*
X0141125Y0096952D01*
X0141125Y0096135D01*
X0141082Y0096117D01*
X0139683Y0094718D01*
X0138925Y0092890D01*
X0138925Y0084910D01*
X0139683Y0083082D01*
X0141082Y0081683D01*
X0142910Y0080925D01*
X0140745Y0082020D02*
X0138179Y0082020D01*
X0138631Y0082818D02*
X0139946Y0082818D01*
X0139461Y0083617D02*
X0138631Y0083617D01*
X0138631Y0084415D02*
X0139130Y0084415D01*
X0138925Y0085214D02*
X0138631Y0085214D01*
X0138631Y0086012D02*
X0138925Y0086012D01*
X0138925Y0086811D02*
X0138631Y0086811D01*
X0138631Y0087609D02*
X0138925Y0087609D01*
X0138925Y0088408D02*
X0138631Y0088408D01*
X0138475Y0089206D02*
X0138925Y0089206D01*
X0138925Y0090005D02*
X0138631Y0090005D01*
X0138631Y0090803D02*
X0138925Y0090803D01*
X0138925Y0091602D02*
X0138631Y0091602D01*
X0138631Y0092400D02*
X0138925Y0092400D01*
X0139053Y0093199D02*
X0138631Y0093199D01*
X0138631Y0093997D02*
X0139384Y0093997D01*
X0139760Y0094796D02*
X0138631Y0094796D01*
X0138365Y0095594D02*
X0140559Y0095594D01*
X0141125Y0096393D02*
X0138408Y0096393D01*
X0138739Y0097191D02*
X0141224Y0097191D01*
X0141566Y0097990D02*
X0139024Y0097990D01*
X0139024Y0098788D02*
X0142364Y0098788D01*
X0143163Y0099587D02*
X0139024Y0099587D01*
X0138831Y0100385D02*
X0143961Y0100385D01*
X0144760Y0101184D02*
X0138501Y0101184D01*
X0138065Y0101982D02*
X0145558Y0101982D01*
X0146357Y0102781D02*
X0137266Y0102781D01*
X0135994Y0103579D02*
X0147155Y0103579D01*
X0147954Y0104378D02*
X0050875Y0104378D01*
X0050875Y0105176D02*
X0148752Y0105176D01*
X0149551Y0105975D02*
X0050875Y0105975D01*
X0050875Y0106773D02*
X0172849Y0106773D01*
X0173648Y0107572D02*
X0050875Y0107572D01*
X0050875Y0108370D02*
X0173717Y0108370D01*
X0173811Y0109169D02*
X0050875Y0109169D01*
X0050875Y0109968D02*
X0173717Y0109968D01*
X0173717Y0110766D02*
X0050875Y0110766D01*
X0050875Y0111565D02*
X0173717Y0111565D01*
X0173717Y0112363D02*
X0050875Y0112363D01*
X0050875Y0113162D02*
X0173717Y0113162D01*
X0174218Y0113960D02*
X0050875Y0113960D01*
X0050875Y0114759D02*
X0189622Y0114759D01*
X0190292Y0114089D02*
X0192377Y0113225D01*
X0194635Y0113225D01*
X0196721Y0114089D01*
X0198317Y0115685D01*
X0199181Y0117771D01*
X0199181Y0120029D01*
X0198317Y0122115D01*
X0196721Y0123711D01*
X0196264Y0123900D01*
X0196721Y0124089D01*
X0198317Y0125685D01*
X0199181Y0127771D01*
X0199181Y0130029D01*
X0198317Y0132115D01*
X0196721Y0133711D01*
X0196264Y0133900D01*
X0196721Y0134089D01*
X0198317Y0135685D01*
X0199181Y0137771D01*
X0199181Y0140029D01*
X0198317Y0142115D01*
X0196721Y0143711D01*
X0196264Y0143900D01*
X0196721Y0144089D01*
X0198317Y0145685D01*
X0199181Y0147771D01*
X0199181Y0150029D01*
X0198317Y0152115D01*
X0196721Y0153711D01*
X0196264Y0153900D01*
X0196721Y0154089D01*
X0198317Y0155685D01*
X0199181Y0157771D01*
X0199181Y0160029D01*
X0198317Y0162115D01*
X0196721Y0163711D01*
X0195527Y0164206D01*
X0196179Y0164538D01*
X0196829Y0165010D01*
X0197396Y0165578D01*
X0197868Y0166227D01*
X0198233Y0166942D01*
X0198481Y0167706D01*
X0198606Y0168499D01*
X0198606Y0168500D01*
X0193906Y0168500D01*
X0193906Y0169300D01*
X0193106Y0169300D01*
X0193106Y0168500D01*
X0188406Y0168500D01*
X0188406Y0168499D01*
X0188532Y0167706D01*
X0188780Y0166942D01*
X0189144Y0166227D01*
X0189616Y0165578D01*
X0190184Y0165010D01*
X0190833Y0164538D01*
X0191486Y0164206D01*
X0190292Y0163711D01*
X0188695Y0162115D01*
X0187831Y0160029D01*
X0187831Y0157771D01*
X0188695Y0155685D01*
X0190292Y0154089D01*
X0190748Y0153900D01*
X0190292Y0153711D01*
X0188695Y0152115D01*
X0187831Y0150029D01*
X0187831Y0147771D01*
X0188695Y0145685D01*
X0190292Y0144089D01*
X0190748Y0143900D01*
X0190292Y0143711D01*
X0188695Y0142115D01*
X0187831Y0140029D01*
X0187831Y0137771D01*
X0188695Y0135685D01*
X0190292Y0134089D01*
X0190748Y0133900D01*
X0190292Y0133711D01*
X0188695Y0132115D01*
X0187831Y0130029D01*
X0187831Y0127771D01*
X0188695Y0125685D01*
X0190292Y0124089D01*
X0190748Y0123900D01*
X0190292Y0123711D01*
X0188695Y0122115D01*
X0187831Y0120029D01*
X0187831Y0117771D01*
X0188695Y0115685D01*
X0190292Y0114089D01*
X0190603Y0113960D02*
X0188582Y0113960D01*
X0189083Y0113162D02*
X0243776Y0113162D01*
X0243776Y0113960D02*
X0196409Y0113960D01*
X0197390Y0114759D02*
X0243776Y0114759D01*
X0243776Y0115557D02*
X0198189Y0115557D01*
X0198595Y0116356D02*
X0243776Y0116356D01*
X0243776Y0117154D02*
X0198925Y0117154D01*
X0199181Y0117953D02*
X0243776Y0117953D01*
X0243776Y0118751D02*
X0199181Y0118751D01*
X0199181Y0119550D02*
X0243776Y0119550D01*
X0243776Y0120348D02*
X0199049Y0120348D01*
X0198718Y0121147D02*
X0243776Y0121147D01*
X0243776Y0121945D02*
X0198387Y0121945D01*
X0197688Y0122744D02*
X0243776Y0122744D01*
X0243776Y0123542D02*
X0196889Y0123542D01*
X0196972Y0124341D02*
X0243776Y0124341D01*
X0243776Y0125139D02*
X0197771Y0125139D01*
X0198422Y0125938D02*
X0243776Y0125938D01*
X0243776Y0126736D02*
X0198752Y0126736D01*
X0199083Y0127535D02*
X0243776Y0127535D01*
X0243776Y0128333D02*
X0199181Y0128333D01*
X0199181Y0129132D02*
X0243776Y0129132D01*
X0243776Y0129930D02*
X0199181Y0129930D01*
X0198891Y0130729D02*
X0243776Y0130729D01*
X0243776Y0131527D02*
X0198560Y0131527D01*
X0198106Y0132326D02*
X0243776Y0132326D01*
X0243776Y0133124D02*
X0197307Y0133124D01*
X0196319Y0133923D02*
X0243776Y0133923D01*
X0243776Y0134721D02*
X0197353Y0134721D01*
X0198152Y0135520D02*
X0243776Y0135520D01*
X0243776Y0136318D02*
X0198579Y0136318D01*
X0198910Y0137117D02*
X0243776Y0137117D01*
X0243776Y0137915D02*
X0199181Y0137915D01*
X0199181Y0138714D02*
X0243776Y0138714D01*
X0243776Y0139512D02*
X0199181Y0139512D01*
X0199064Y0140311D02*
X0243776Y0140311D01*
X0243776Y0141109D02*
X0198733Y0141109D01*
X0198403Y0141908D02*
X0243776Y0141908D01*
X0243776Y0142706D02*
X0197725Y0142706D01*
X0196927Y0143505D02*
X0243776Y0143505D01*
X0243776Y0144303D02*
X0196935Y0144303D01*
X0197734Y0145102D02*
X0243776Y0145102D01*
X0243776Y0145901D02*
X0198406Y0145901D01*
X0198737Y0146699D02*
X0243776Y0146699D01*
X0243776Y0147498D02*
X0199068Y0147498D01*
X0199181Y0148296D02*
X0243776Y0148296D01*
X0243776Y0149095D02*
X0199181Y0149095D01*
X0199181Y0149893D02*
X0243776Y0149893D01*
X0243776Y0150692D02*
X0198907Y0150692D01*
X0198576Y0151490D02*
X0243776Y0151490D01*
X0243776Y0152289D02*
X0198143Y0152289D01*
X0197345Y0153087D02*
X0243776Y0153087D01*
X0243776Y0153886D02*
X0196299Y0153886D01*
X0197316Y0154684D02*
X0243776Y0154684D01*
X0243776Y0155483D02*
X0198114Y0155483D01*
X0198564Y0156281D02*
X0243776Y0156281D01*
X0243776Y0157080D02*
X0198895Y0157080D01*
X0199181Y0157878D02*
X0243776Y0157878D01*
X0243776Y0158677D02*
X0199181Y0158677D01*
X0199181Y0159475D02*
X0243776Y0159475D01*
X0243776Y0160274D02*
X0199080Y0160274D01*
X0198749Y0161072D02*
X0243776Y0161072D01*
X0243776Y0161871D02*
X0198418Y0161871D01*
X0197762Y0162669D02*
X0243776Y0162669D01*
X0243776Y0163468D02*
X0196964Y0163468D01*
X0195646Y0164266D02*
X0243776Y0164266D01*
X0243776Y0165065D02*
X0196884Y0165065D01*
X0197604Y0165863D02*
X0243776Y0165863D01*
X0243776Y0166662D02*
X0198090Y0166662D01*
X0198401Y0167460D02*
X0243776Y0167460D01*
X0243776Y0168259D02*
X0198568Y0168259D01*
X0198606Y0169300D02*
X0198606Y0169301D01*
X0198481Y0170094D01*
X0198233Y0170858D01*
X0197868Y0171573D01*
X0197396Y0172222D01*
X0196829Y0172790D01*
X0196179Y0173262D01*
X0195464Y0173626D01*
X0194701Y0173874D01*
X0193908Y0174000D01*
X0193906Y0174000D01*
X0193906Y0169300D01*
X0198606Y0169300D01*
X0198518Y0169856D02*
X0243776Y0169856D01*
X0243776Y0170654D02*
X0198299Y0170654D01*
X0197929Y0171453D02*
X0243776Y0171453D01*
X0243776Y0172251D02*
X0197367Y0172251D01*
X0196471Y0173050D02*
X0243776Y0173050D01*
X0243776Y0173848D02*
X0194781Y0173848D01*
X0193906Y0173848D02*
X0193106Y0173848D01*
X0193105Y0174000D02*
X0192312Y0173874D01*
X0191549Y0173626D01*
X0190833Y0173262D01*
X0190184Y0172790D01*
X0189616Y0172222D01*
X0189144Y0171573D01*
X0188780Y0170858D01*
X0188532Y0170094D01*
X0188406Y0169301D01*
X0188406Y0169300D01*
X0193106Y0169300D01*
X0193106Y0174000D01*
X0193105Y0174000D01*
X0192232Y0173848D02*
X0170273Y0173848D01*
X0170221Y0173797D02*
X0171252Y0174828D01*
X0171675Y0175848D01*
X0171675Y0189503D01*
X0171803Y0189556D01*
X0173244Y0190997D01*
X0174024Y0192881D01*
X0174024Y0194919D01*
X0173244Y0196803D01*
X0171803Y0198244D01*
X0169919Y0199024D01*
X0167881Y0199024D01*
X0165997Y0198244D01*
X0164556Y0196803D01*
X0163776Y0194919D01*
X0163776Y0192881D01*
X0164556Y0190997D01*
X0165997Y0189556D01*
X0166125Y0189503D01*
X0166125Y0177774D01*
X0164131Y0177774D01*
X0162247Y0176994D01*
X0160806Y0175553D01*
X0160026Y0173669D01*
X0160026Y0171631D01*
X0160806Y0169747D01*
X0162247Y0168306D01*
X0164131Y0167526D01*
X0166169Y0167526D01*
X0168053Y0168306D01*
X0169494Y0169747D01*
X0170274Y0171631D01*
X0170274Y0173669D01*
X0170221Y0173797D01*
X0170274Y0173050D02*
X0190542Y0173050D01*
X0189645Y0172251D02*
X0170274Y0172251D01*
X0170201Y0171453D02*
X0189083Y0171453D01*
X0188714Y0170654D02*
X0169870Y0170654D01*
X0169539Y0169856D02*
X0188494Y0169856D01*
X0188444Y0168259D02*
X0167940Y0168259D01*
X0168804Y0169057D02*
X0193106Y0169057D01*
X0193106Y0169856D02*
X0193906Y0169856D01*
X0193906Y0170654D02*
X0193106Y0170654D01*
X0193106Y0171453D02*
X0193906Y0171453D01*
X0193906Y0172251D02*
X0193106Y0172251D01*
X0193106Y0173050D02*
X0193906Y0173050D01*
X0193906Y0169057D02*
X0243776Y0169057D01*
X0243776Y0174647D02*
X0171071Y0174647D01*
X0171508Y0175445D02*
X0243776Y0175445D01*
X0243776Y0176244D02*
X0171675Y0176244D01*
X0171675Y0177042D02*
X0243776Y0177042D01*
X0243776Y0177841D02*
X0171675Y0177841D01*
X0171675Y0178639D02*
X0243776Y0178639D01*
X0243776Y0179438D02*
X0220016Y0179438D01*
X0219805Y0179350D02*
X0221477Y0180043D01*
X0222757Y0181323D01*
X0223450Y0182995D01*
X0223450Y0184805D01*
X0222757Y0186477D01*
X0221477Y0187757D01*
X0219805Y0188450D01*
X0217995Y0188450D01*
X0216323Y0187757D01*
X0215043Y0186477D01*
X0214350Y0184805D01*
X0214350Y0182995D01*
X0215043Y0181323D01*
X0216323Y0180043D01*
X0217995Y0179350D01*
X0219805Y0179350D01*
X0217784Y0179438D02*
X0210016Y0179438D01*
X0209805Y0179350D02*
X0211477Y0180043D01*
X0212757Y0181323D01*
X0213450Y0182995D01*
X0213450Y0184805D01*
X0212757Y0186477D01*
X0211477Y0187757D01*
X0209805Y0188450D01*
X0207995Y0188450D01*
X0206323Y0187757D01*
X0205043Y0186477D01*
X0204350Y0184805D01*
X0204350Y0182995D01*
X0205043Y0181323D01*
X0206323Y0180043D01*
X0207995Y0179350D01*
X0209805Y0179350D01*
X0207784Y0179438D02*
X0200872Y0179438D01*
X0200784Y0179350D02*
X0203450Y0182015D01*
X0203450Y0185784D01*
X0200784Y0188450D01*
X0197015Y0188450D01*
X0194350Y0185784D01*
X0194350Y0182015D01*
X0197015Y0179350D01*
X0200784Y0179350D01*
X0201671Y0180237D02*
X0206129Y0180237D01*
X0205331Y0181035D02*
X0202469Y0181035D01*
X0203268Y0181834D02*
X0204831Y0181834D01*
X0204501Y0182632D02*
X0203450Y0182632D01*
X0203450Y0183431D02*
X0204350Y0183431D01*
X0204350Y0184229D02*
X0203450Y0184229D01*
X0203450Y0185028D02*
X0204443Y0185028D01*
X0204773Y0185826D02*
X0203408Y0185826D01*
X0202609Y0186625D02*
X0205190Y0186625D01*
X0205989Y0187423D02*
X0201811Y0187423D01*
X0201012Y0188222D02*
X0207445Y0188222D01*
X0210355Y0188222D02*
X0217445Y0188222D01*
X0215989Y0187423D02*
X0211811Y0187423D01*
X0212610Y0186625D02*
X0215190Y0186625D01*
X0214773Y0185826D02*
X0213027Y0185826D01*
X0213357Y0185028D02*
X0214443Y0185028D01*
X0214350Y0184229D02*
X0213450Y0184229D01*
X0213450Y0183431D02*
X0214350Y0183431D01*
X0214501Y0182632D02*
X0213299Y0182632D01*
X0212968Y0181834D02*
X0214831Y0181834D01*
X0215331Y0181035D02*
X0212469Y0181035D01*
X0211671Y0180237D02*
X0216129Y0180237D01*
X0221671Y0180237D02*
X0227358Y0180237D01*
X0227017Y0180378D02*
X0227741Y0180078D01*
X0228509Y0179925D01*
X0228513Y0179925D01*
X0228513Y0183513D01*
X0229287Y0183513D01*
X0229287Y0179925D01*
X0229291Y0179925D01*
X0230059Y0180078D01*
X0230783Y0180378D01*
X0231434Y0180813D01*
X0231987Y0181366D01*
X0232422Y0182017D01*
X0232722Y0182741D01*
X0232875Y0183509D01*
X0232875Y0183513D01*
X0229287Y0183513D01*
X0229287Y0184287D01*
X0232875Y0184287D01*
X0232875Y0184291D01*
X0232722Y0185059D01*
X0232422Y0185783D01*
X0231987Y0186434D01*
X0231434Y0186987D01*
X0230783Y0187422D01*
X0230059Y0187722D01*
X0229291Y0187875D01*
X0229287Y0187875D01*
X0229287Y0184287D01*
X0228513Y0184287D01*
X0228513Y0183513D01*
X0224925Y0183513D01*
X0224925Y0183509D01*
X0225078Y0182741D01*
X0225378Y0182017D01*
X0225813Y0181366D01*
X0226366Y0180813D01*
X0227017Y0180378D01*
X0226144Y0181035D02*
X0222469Y0181035D01*
X0222968Y0181834D02*
X0225500Y0181834D01*
X0225123Y0182632D02*
X0223299Y0182632D01*
X0223450Y0183431D02*
X0224941Y0183431D01*
X0224925Y0184287D02*
X0228513Y0184287D01*
X0228513Y0187875D01*
X0228509Y0187875D01*
X0227741Y0187722D01*
X0227017Y0187422D01*
X0226366Y0186987D01*
X0225813Y0186434D01*
X0225378Y0185783D01*
X0225078Y0185059D01*
X0224925Y0184291D01*
X0224925Y0184287D01*
X0225072Y0185028D02*
X0223357Y0185028D01*
X0223450Y0184229D02*
X0228513Y0184229D01*
X0229287Y0184229D02*
X0243776Y0184229D01*
X0243776Y0183431D02*
X0232859Y0183431D01*
X0232677Y0182632D02*
X0243776Y0182632D01*
X0243776Y0181834D02*
X0232300Y0181834D01*
X0231656Y0181035D02*
X0243776Y0181035D01*
X0243776Y0180237D02*
X0230442Y0180237D01*
X0229287Y0180237D02*
X0228513Y0180237D01*
X0228513Y0181035D02*
X0229287Y0181035D01*
X0229287Y0181834D02*
X0228513Y0181834D01*
X0228513Y0182632D02*
X0229287Y0182632D01*
X0229287Y0183431D02*
X0228513Y0183431D01*
X0228513Y0185028D02*
X0229287Y0185028D01*
X0229287Y0185826D02*
X0228513Y0185826D01*
X0228513Y0186625D02*
X0229287Y0186625D01*
X0229287Y0187423D02*
X0228513Y0187423D01*
X0227019Y0187423D02*
X0221811Y0187423D01*
X0222610Y0186625D02*
X0226003Y0186625D01*
X0225407Y0185826D02*
X0223027Y0185826D01*
X0220355Y0188222D02*
X0243776Y0188222D01*
X0243776Y0189020D02*
X0171675Y0189020D01*
X0171675Y0188222D02*
X0196788Y0188222D01*
X0195989Y0187423D02*
X0171675Y0187423D01*
X0171675Y0186625D02*
X0195190Y0186625D01*
X0194392Y0185826D02*
X0171675Y0185826D01*
X0171675Y0185028D02*
X0194350Y0185028D01*
X0194350Y0184229D02*
X0171675Y0184229D01*
X0171675Y0183431D02*
X0194350Y0183431D01*
X0194350Y0182632D02*
X0171675Y0182632D01*
X0171675Y0181834D02*
X0194532Y0181834D01*
X0195331Y0181035D02*
X0171675Y0181035D01*
X0171675Y0180237D02*
X0196129Y0180237D01*
X0196928Y0179438D02*
X0171675Y0179438D01*
X0166125Y0179438D02*
X0150609Y0179438D01*
X0150744Y0179303D02*
X0149303Y0180744D01*
X0149175Y0180797D01*
X0149175Y0187003D01*
X0149303Y0187056D01*
X0150744Y0188497D01*
X0151524Y0190381D01*
X0151524Y0192419D01*
X0150744Y0194303D01*
X0149303Y0195744D01*
X0147419Y0196524D01*
X0145381Y0196524D01*
X0143497Y0195744D01*
X0142056Y0194303D01*
X0141276Y0192419D01*
X0141276Y0190381D01*
X0142056Y0188497D01*
X0143497Y0187056D01*
X0143625Y0187003D01*
X0143625Y0180797D01*
X0143497Y0180744D01*
X0142056Y0179303D01*
X0141276Y0177419D01*
X0141276Y0175381D01*
X0142056Y0173497D01*
X0143497Y0172056D01*
X0145381Y0171276D01*
X0147419Y0171276D01*
X0149303Y0172056D01*
X0150744Y0173497D01*
X0151524Y0175381D01*
X0151524Y0177419D01*
X0150744Y0179303D01*
X0151019Y0178639D02*
X0166125Y0178639D01*
X0166125Y0177841D02*
X0151350Y0177841D01*
X0151524Y0177042D02*
X0162364Y0177042D01*
X0161497Y0176244D02*
X0151524Y0176244D01*
X0151524Y0175445D02*
X0160761Y0175445D01*
X0160431Y0174647D02*
X0151220Y0174647D01*
X0150890Y0173848D02*
X0160100Y0173848D01*
X0160026Y0173050D02*
X0150297Y0173050D01*
X0149498Y0172251D02*
X0160026Y0172251D01*
X0160099Y0171453D02*
X0147847Y0171453D01*
X0144953Y0171453D02*
X0121675Y0171453D01*
X0121675Y0172251D02*
X0143302Y0172251D01*
X0142503Y0173050D02*
X0121675Y0173050D01*
X0121675Y0173848D02*
X0141910Y0173848D01*
X0141580Y0174647D02*
X0121594Y0174647D01*
X0121675Y0174452D02*
X0121252Y0175472D01*
X0113971Y0182753D01*
X0114024Y0182881D01*
X0114024Y0184919D01*
X0113244Y0186803D01*
X0111803Y0188244D01*
X0109919Y0189024D01*
X0107881Y0189024D01*
X0105997Y0188244D01*
X0104556Y0186803D01*
X0103776Y0184919D01*
X0103776Y0182881D01*
X0104556Y0180997D01*
X0105997Y0179556D01*
X0107881Y0178776D01*
X0109919Y0178776D01*
X0110047Y0178829D01*
X0116125Y0172751D01*
X0116125Y0158297D01*
X0115997Y0158244D01*
X0114556Y0156803D01*
X0113776Y0154919D01*
X0113776Y0152881D01*
X0114556Y0150997D01*
X0115997Y0149556D01*
X0117881Y0148776D01*
X0119919Y0148776D01*
X0121803Y0149556D01*
X0123244Y0150997D01*
X0124024Y0152881D01*
X0124024Y0154919D01*
X0123244Y0156803D01*
X0121803Y0158244D01*
X0121675Y0158297D01*
X0121675Y0174452D01*
X0121263Y0175445D02*
X0141276Y0175445D01*
X0141276Y0176244D02*
X0120480Y0176244D01*
X0119682Y0177042D02*
X0141276Y0177042D01*
X0141450Y0177841D02*
X0118883Y0177841D01*
X0118085Y0178639D02*
X0141781Y0178639D01*
X0142191Y0179438D02*
X0117286Y0179438D01*
X0116488Y0180237D02*
X0142989Y0180237D01*
X0143625Y0181035D02*
X0115689Y0181035D01*
X0114891Y0181834D02*
X0143625Y0181834D01*
X0143625Y0182632D02*
X0114092Y0182632D01*
X0114024Y0183431D02*
X0143625Y0183431D01*
X0143625Y0184229D02*
X0114024Y0184229D01*
X0113980Y0185028D02*
X0143625Y0185028D01*
X0143625Y0185826D02*
X0113649Y0185826D01*
X0113318Y0186625D02*
X0143625Y0186625D01*
X0143130Y0187423D02*
X0112624Y0187423D01*
X0111825Y0188222D02*
X0142331Y0188222D01*
X0141839Y0189020D02*
X0109930Y0189020D01*
X0107870Y0189020D02*
X0104024Y0189020D01*
X0104024Y0188222D02*
X0105975Y0188222D01*
X0105176Y0187423D02*
X0103835Y0187423D01*
X0104024Y0187881D02*
X0103244Y0185997D01*
X0101803Y0184556D01*
X0099919Y0183776D01*
X0097881Y0183776D01*
X0095997Y0184556D01*
X0094556Y0185997D01*
X0094503Y0186125D01*
X0090049Y0186125D01*
X0088971Y0185047D01*
X0089024Y0184919D01*
X0089024Y0182881D01*
X0088244Y0180997D01*
X0086803Y0179556D01*
X0084919Y0178776D01*
X0082881Y0178776D01*
X0080997Y0179556D01*
X0079556Y0180997D01*
X0078776Y0182881D01*
X0078776Y0184919D01*
X0079556Y0186803D01*
X0080997Y0188244D01*
X0082881Y0189024D01*
X0084919Y0189024D01*
X0085047Y0188971D01*
X0087328Y0191252D01*
X0088348Y0191675D01*
X0094503Y0191675D01*
X0094556Y0191803D01*
X0095997Y0193244D01*
X0097881Y0194024D01*
X0099919Y0194024D01*
X0101803Y0193244D01*
X0103244Y0191803D01*
X0104024Y0189919D01*
X0104024Y0187881D01*
X0104482Y0186625D02*
X0103504Y0186625D01*
X0103073Y0185826D02*
X0104151Y0185826D01*
X0103820Y0185028D02*
X0102275Y0185028D01*
X0101014Y0184229D02*
X0103776Y0184229D01*
X0103776Y0183431D02*
X0089024Y0183431D01*
X0089024Y0184229D02*
X0096786Y0184229D01*
X0095525Y0185028D02*
X0088980Y0185028D01*
X0089750Y0185826D02*
X0094727Y0185826D01*
X0094967Y0192214D02*
X0050875Y0192214D01*
X0050875Y0191416D02*
X0087722Y0191416D01*
X0086693Y0190617D02*
X0050875Y0190617D01*
X0050875Y0189819D02*
X0085895Y0189819D01*
X0085096Y0189020D02*
X0084930Y0189020D01*
X0082870Y0189020D02*
X0050875Y0189020D01*
X0050875Y0188222D02*
X0080975Y0188222D01*
X0080176Y0187423D02*
X0050875Y0187423D01*
X0050875Y0186625D02*
X0079482Y0186625D01*
X0079151Y0185826D02*
X0050875Y0185826D01*
X0050875Y0185028D02*
X0078820Y0185028D01*
X0078776Y0184229D02*
X0050875Y0184229D01*
X0050875Y0183431D02*
X0078776Y0183431D01*
X0078879Y0182632D02*
X0050875Y0182632D01*
X0050875Y0181834D02*
X0079209Y0181834D01*
X0079540Y0181035D02*
X0050875Y0181035D01*
X0050875Y0180237D02*
X0080316Y0180237D01*
X0081281Y0179438D02*
X0050875Y0179438D01*
X0050875Y0178639D02*
X0110236Y0178639D01*
X0111035Y0177841D02*
X0050875Y0177841D01*
X0050875Y0177042D02*
X0111833Y0177042D01*
X0112632Y0176244D02*
X0050875Y0176244D01*
X0050875Y0175445D02*
X0113430Y0175445D01*
X0114229Y0174647D02*
X0050875Y0174647D01*
X0050875Y0173848D02*
X0115027Y0173848D01*
X0115826Y0173050D02*
X0050875Y0173050D01*
X0050875Y0172251D02*
X0116125Y0172251D01*
X0116125Y0171453D02*
X0050875Y0171453D01*
X0050875Y0170654D02*
X0116125Y0170654D01*
X0116125Y0169856D02*
X0050875Y0169856D01*
X0050875Y0169057D02*
X0116125Y0169057D01*
X0116125Y0168259D02*
X0050875Y0168259D01*
X0050875Y0167460D02*
X0116125Y0167460D01*
X0116125Y0166662D02*
X0050875Y0166662D01*
X0050875Y0165863D02*
X0116125Y0165863D01*
X0116125Y0165065D02*
X0050875Y0165065D01*
X0050875Y0164266D02*
X0116125Y0164266D01*
X0116125Y0163468D02*
X0050875Y0163468D01*
X0050875Y0162669D02*
X0116125Y0162669D01*
X0116125Y0161871D02*
X0050875Y0161871D01*
X0050875Y0161072D02*
X0116125Y0161072D01*
X0116125Y0160274D02*
X0050875Y0160274D01*
X0050875Y0159475D02*
X0116125Y0159475D01*
X0116125Y0158677D02*
X0050875Y0158677D01*
X0050875Y0157878D02*
X0115631Y0157878D01*
X0114833Y0157080D02*
X0050875Y0157080D01*
X0050875Y0156281D02*
X0114340Y0156281D01*
X0114009Y0155483D02*
X0050875Y0155483D01*
X0050875Y0154684D02*
X0113776Y0154684D01*
X0113776Y0153886D02*
X0050875Y0153886D01*
X0050875Y0153087D02*
X0113776Y0153087D01*
X0114021Y0152289D02*
X0050875Y0152289D01*
X0050875Y0151490D02*
X0114352Y0151490D01*
X0114861Y0150692D02*
X0050875Y0150692D01*
X0050875Y0149893D02*
X0115660Y0149893D01*
X0117111Y0149095D02*
X0050875Y0149095D01*
X0050875Y0148296D02*
X0187831Y0148296D01*
X0187831Y0149095D02*
X0120689Y0149095D01*
X0122140Y0149893D02*
X0187831Y0149893D01*
X0188106Y0150692D02*
X0122939Y0150692D01*
X0123448Y0151490D02*
X0188437Y0151490D01*
X0188870Y0152289D02*
X0123779Y0152289D01*
X0124024Y0153087D02*
X0189668Y0153087D01*
X0190714Y0153886D02*
X0124024Y0153886D01*
X0124024Y0154684D02*
X0189697Y0154684D01*
X0188898Y0155483D02*
X0123791Y0155483D01*
X0123460Y0156281D02*
X0188449Y0156281D01*
X0188118Y0157080D02*
X0122967Y0157080D01*
X0122169Y0157878D02*
X0187831Y0157878D01*
X0187831Y0158677D02*
X0121675Y0158677D01*
X0121675Y0159475D02*
X0187831Y0159475D01*
X0187933Y0160274D02*
X0121675Y0160274D01*
X0121675Y0161072D02*
X0188264Y0161072D01*
X0188594Y0161871D02*
X0121675Y0161871D01*
X0121675Y0162669D02*
X0189250Y0162669D01*
X0190049Y0163468D02*
X0121675Y0163468D01*
X0121675Y0164266D02*
X0191367Y0164266D01*
X0190129Y0165065D02*
X0121675Y0165065D01*
X0121675Y0165863D02*
X0189409Y0165863D01*
X0188923Y0166662D02*
X0121675Y0166662D01*
X0121675Y0167460D02*
X0188612Y0167460D01*
X0187945Y0147498D02*
X0050875Y0147498D01*
X0050875Y0146699D02*
X0188276Y0146699D01*
X0188606Y0145901D02*
X0050875Y0145901D01*
X0050875Y0145102D02*
X0189279Y0145102D01*
X0190077Y0144303D02*
X0050875Y0144303D01*
X0050875Y0143505D02*
X0190086Y0143505D01*
X0189287Y0142706D02*
X0050875Y0142706D01*
X0050875Y0141908D02*
X0188610Y0141908D01*
X0188279Y0141109D02*
X0050875Y0141109D01*
X0050875Y0140311D02*
X0187948Y0140311D01*
X0187831Y0139512D02*
X0050875Y0139512D01*
X0050875Y0138714D02*
X0187831Y0138714D01*
X0187831Y0137915D02*
X0050875Y0137915D01*
X0050875Y0137117D02*
X0188103Y0137117D01*
X0188433Y0136318D02*
X0050875Y0136318D01*
X0050875Y0135520D02*
X0188861Y0135520D01*
X0189660Y0134721D02*
X0050875Y0134721D01*
X0050875Y0133923D02*
X0190693Y0133923D01*
X0189705Y0133124D02*
X0050875Y0133124D01*
X0050875Y0132326D02*
X0188907Y0132326D01*
X0188452Y0131527D02*
X0050875Y0131527D01*
X0050875Y0130729D02*
X0188121Y0130729D01*
X0187831Y0129930D02*
X0050875Y0129930D01*
X0050875Y0129132D02*
X0187831Y0129132D01*
X0187831Y0128333D02*
X0050875Y0128333D01*
X0050875Y0127535D02*
X0187929Y0127535D01*
X0188260Y0126736D02*
X0050875Y0126736D01*
X0050875Y0125938D02*
X0188591Y0125938D01*
X0189242Y0125139D02*
X0050875Y0125139D01*
X0050875Y0124341D02*
X0190040Y0124341D01*
X0190123Y0123542D02*
X0050875Y0123542D01*
X0050875Y0122744D02*
X0189325Y0122744D01*
X0188625Y0121945D02*
X0050875Y0121945D01*
X0050875Y0121147D02*
X0188295Y0121147D01*
X0187964Y0120348D02*
X0050875Y0120348D01*
X0050875Y0119550D02*
X0187831Y0119550D01*
X0187831Y0118751D02*
X0050875Y0118751D01*
X0050875Y0117953D02*
X0187831Y0117953D01*
X0188087Y0117154D02*
X0050875Y0117154D01*
X0050875Y0116356D02*
X0188418Y0116356D01*
X0188824Y0115557D02*
X0050875Y0115557D01*
X0050875Y0103579D02*
X0131806Y0103579D01*
X0130534Y0102781D02*
X0050875Y0102781D01*
X0050875Y0101982D02*
X0129735Y0101982D01*
X0129299Y0101184D02*
X0050875Y0101184D01*
X0050875Y0100385D02*
X0128969Y0100385D01*
X0128776Y0099587D02*
X0050875Y0099587D01*
X0050875Y0098788D02*
X0128776Y0098788D01*
X0128776Y0097990D02*
X0050875Y0097990D01*
X0050875Y0097191D02*
X0129061Y0097191D01*
X0129392Y0096393D02*
X0101053Y0096393D01*
X0102241Y0095594D02*
X0106499Y0095594D01*
X0106594Y0095663D02*
X0106034Y0095256D01*
X0105544Y0094766D01*
X0105137Y0094206D01*
X0104822Y0093589D01*
X0104608Y0092930D01*
X0104500Y0092246D01*
X0104500Y0089300D01*
X0108500Y0089300D01*
X0108500Y0096291D01*
X0107870Y0096192D01*
X0107211Y0095978D01*
X0106594Y0095663D01*
X0105573Y0094796D02*
X0103040Y0094796D01*
X0103416Y0093997D02*
X0105030Y0093997D01*
X0104696Y0093199D02*
X0103747Y0093199D01*
X0103875Y0092400D02*
X0104524Y0092400D01*
X0104500Y0091602D02*
X0103875Y0091602D01*
X0103875Y0090803D02*
X0104500Y0090803D01*
X0104500Y0090005D02*
X0103875Y0090005D01*
X0103875Y0089206D02*
X0108500Y0089206D01*
X0108500Y0089300D02*
X0108500Y0088500D01*
X0109300Y0088500D01*
X0109300Y0089300D01*
X0113300Y0089300D01*
X0113300Y0092246D01*
X0113192Y0092930D01*
X0112978Y0093589D01*
X0112663Y0094206D01*
X0112256Y0094766D01*
X0111766Y0095256D01*
X0111206Y0095663D01*
X0110589Y0095978D01*
X0109930Y0096192D01*
X0109300Y0096291D01*
X0109300Y0089300D01*
X0108500Y0089300D01*
X0108500Y0090005D02*
X0109300Y0090005D01*
X0109300Y0090803D02*
X0108500Y0090803D01*
X0108500Y0091602D02*
X0109300Y0091602D01*
X0109300Y0092400D02*
X0108500Y0092400D01*
X0108500Y0093199D02*
X0109300Y0093199D01*
X0109300Y0093997D02*
X0108500Y0093997D01*
X0108500Y0094796D02*
X0109300Y0094796D01*
X0109300Y0095594D02*
X0108500Y0095594D01*
X0111301Y0095594D02*
X0129435Y0095594D01*
X0129169Y0094796D02*
X0112227Y0094796D01*
X0112770Y0093997D02*
X0129169Y0093997D01*
X0129169Y0093199D02*
X0113104Y0093199D01*
X0113276Y0092400D02*
X0129169Y0092400D01*
X0129169Y0091602D02*
X0113300Y0091602D01*
X0113300Y0090803D02*
X0129169Y0090803D01*
X0129169Y0090005D02*
X0113300Y0090005D01*
X0113300Y0088500D02*
X0109300Y0088500D01*
X0109300Y0081509D01*
X0109930Y0081608D01*
X0110589Y0081822D01*
X0111206Y0082137D01*
X0111766Y0082544D01*
X0112256Y0083034D01*
X0112663Y0083594D01*
X0112978Y0084211D01*
X0113192Y0084870D01*
X0113300Y0085554D01*
X0113300Y0088500D01*
X0113300Y0088408D02*
X0129169Y0088408D01*
X0129169Y0087609D02*
X0113300Y0087609D01*
X0113300Y0086811D02*
X0129169Y0086811D01*
X0129169Y0086012D02*
X0113300Y0086012D01*
X0113246Y0085214D02*
X0129169Y0085214D01*
X0129169Y0084415D02*
X0113044Y0084415D01*
X0112675Y0083617D02*
X0129169Y0083617D01*
X0129169Y0082818D02*
X0112041Y0082818D01*
X0110976Y0082020D02*
X0129621Y0082020D01*
X0131125Y0081221D02*
X0103003Y0081221D01*
X0103802Y0080423D02*
X0131125Y0080423D01*
X0131125Y0079624D02*
X0104600Y0079624D01*
X0105399Y0078826D02*
X0131125Y0078826D01*
X0131125Y0078027D02*
X0106197Y0078027D01*
X0106996Y0077229D02*
X0131125Y0077229D01*
X0131125Y0076430D02*
X0120043Y0076430D01*
X0121093Y0075632D02*
X0130885Y0075632D01*
X0130086Y0074833D02*
X0121891Y0074833D01*
X0122690Y0074034D02*
X0129445Y0074034D01*
X0129114Y0073236D02*
X0123488Y0073236D01*
X0124287Y0072437D02*
X0128783Y0072437D01*
X0128776Y0071639D02*
X0125085Y0071639D01*
X0125884Y0070840D02*
X0128776Y0070840D01*
X0128916Y0070042D02*
X0126682Y0070042D01*
X0127481Y0069243D02*
X0129247Y0069243D01*
X0129608Y0068445D02*
X0128279Y0068445D01*
X0129078Y0067646D02*
X0130407Y0067646D01*
X0129876Y0066848D02*
X0131499Y0066848D01*
X0130675Y0066049D02*
X0133564Y0066049D01*
X0134072Y0065251D02*
X0131473Y0065251D01*
X0132272Y0064452D02*
X0133274Y0064452D01*
X0129215Y0059661D02*
X0113639Y0059661D01*
X0113447Y0059469D02*
X0114473Y0060495D01*
X0115028Y0061836D01*
X0115028Y0063287D01*
X0114473Y0064628D01*
X0113447Y0065654D01*
X0112106Y0066209D01*
X0110655Y0066209D01*
X0109314Y0065654D01*
X0108288Y0064628D01*
X0107732Y0063287D01*
X0107732Y0061836D01*
X0108288Y0060495D01*
X0109314Y0059469D01*
X0110655Y0058913D01*
X0112106Y0058913D01*
X0113447Y0059469D01*
X0114438Y0060460D02*
X0128416Y0060460D01*
X0127618Y0061258D02*
X0114789Y0061258D01*
X0115028Y0062057D02*
X0126819Y0062057D01*
X0126020Y0062855D02*
X0115028Y0062855D01*
X0114876Y0063654D02*
X0125222Y0063654D01*
X0124423Y0064452D02*
X0114546Y0064452D01*
X0113850Y0065251D02*
X0123625Y0065251D01*
X0122826Y0066049D02*
X0112492Y0066049D01*
X0110268Y0066049D02*
X0097532Y0066049D01*
X0097145Y0066209D02*
X0098486Y0065654D01*
X0099512Y0064628D01*
X0100068Y0063287D01*
X0100068Y0061836D01*
X0099512Y0060495D01*
X0098486Y0059469D01*
X0097145Y0058913D01*
X0095694Y0058913D01*
X0094353Y0059469D01*
X0093327Y0060495D01*
X0092772Y0061836D01*
X0092772Y0063287D01*
X0093327Y0064628D01*
X0094353Y0065654D01*
X0095694Y0066209D01*
X0097145Y0066209D01*
X0095308Y0066049D02*
X0079152Y0066049D01*
X0079483Y0065251D02*
X0093950Y0065251D01*
X0093254Y0064452D02*
X0079575Y0064452D01*
X0079575Y0065029D02*
X0078711Y0067115D01*
X0077115Y0068711D01*
X0075029Y0069575D01*
X0072771Y0069575D01*
X0070685Y0068711D01*
X0069089Y0067115D01*
X0068900Y0066658D01*
X0068711Y0067115D01*
X0067115Y0068711D01*
X0065029Y0069575D01*
X0062771Y0069575D01*
X0060685Y0068711D01*
X0059089Y0067115D01*
X0058225Y0065029D01*
X0058225Y0062771D01*
X0059089Y0060685D01*
X0060685Y0059089D01*
X0062771Y0058225D01*
X0065029Y0058225D01*
X0067115Y0059089D01*
X0068711Y0060685D01*
X0068900Y0061142D01*
X0069089Y0060685D01*
X0070685Y0059089D01*
X0072771Y0058225D01*
X0075029Y0058225D01*
X0077115Y0059089D01*
X0078711Y0060685D01*
X0079575Y0062771D01*
X0079575Y0065029D01*
X0079575Y0063654D02*
X0092924Y0063654D01*
X0092772Y0062855D02*
X0079575Y0062855D01*
X0079279Y0062057D02*
X0092772Y0062057D01*
X0093011Y0061258D02*
X0078948Y0061258D01*
X0078485Y0060460D02*
X0093362Y0060460D01*
X0094161Y0059661D02*
X0077687Y0059661D01*
X0076568Y0058863D02*
X0133270Y0058863D01*
X0134069Y0058064D02*
X0050875Y0058064D01*
X0050875Y0058863D02*
X0061232Y0058863D01*
X0060113Y0059661D02*
X0050875Y0059661D01*
X0050875Y0060460D02*
X0059315Y0060460D01*
X0058852Y0061258D02*
X0050875Y0061258D01*
X0050875Y0062057D02*
X0058521Y0062057D01*
X0058225Y0062855D02*
X0050875Y0062855D01*
X0050875Y0063654D02*
X0058225Y0063654D01*
X0058225Y0064452D02*
X0050875Y0064452D01*
X0050875Y0065251D02*
X0058317Y0065251D01*
X0058648Y0066049D02*
X0050875Y0066049D01*
X0050875Y0066848D02*
X0058979Y0066848D01*
X0059621Y0067646D02*
X0050875Y0067646D01*
X0050875Y0068445D02*
X0060420Y0068445D01*
X0061971Y0069243D02*
X0050875Y0069243D01*
X0050875Y0070042D02*
X0118834Y0070042D01*
X0119632Y0069243D02*
X0075829Y0069243D01*
X0077380Y0068445D02*
X0120431Y0068445D01*
X0121229Y0067646D02*
X0078179Y0067646D01*
X0078821Y0066848D02*
X0122028Y0066848D01*
X0118035Y0070840D02*
X0050875Y0070840D01*
X0050875Y0071639D02*
X0104737Y0071639D01*
X0103938Y0072437D02*
X0050875Y0072437D01*
X0050875Y0073236D02*
X0103140Y0073236D01*
X0102341Y0074034D02*
X0050875Y0074034D01*
X0050875Y0074833D02*
X0101543Y0074833D01*
X0100744Y0075632D02*
X0050875Y0075632D01*
X0050875Y0076430D02*
X0099946Y0076430D01*
X0099147Y0077229D02*
X0050875Y0077229D01*
X0050875Y0078027D02*
X0098349Y0078027D01*
X0097550Y0078826D02*
X0050875Y0078826D01*
X0050875Y0079624D02*
X0096752Y0079624D01*
X0096301Y0080423D02*
X0050875Y0080423D01*
X0050875Y0081221D02*
X0096125Y0081221D01*
X0095745Y0082020D02*
X0050875Y0082020D01*
X0050875Y0082818D02*
X0094946Y0082818D01*
X0094461Y0083617D02*
X0050875Y0083617D01*
X0050875Y0084415D02*
X0094130Y0084415D01*
X0093925Y0085214D02*
X0050875Y0085214D01*
X0050875Y0086012D02*
X0093925Y0086012D01*
X0093925Y0086811D02*
X0050875Y0086811D01*
X0050875Y0087609D02*
X0093925Y0087609D01*
X0093925Y0088408D02*
X0050875Y0088408D01*
X0050875Y0089206D02*
X0093925Y0089206D01*
X0093925Y0090005D02*
X0050875Y0090005D01*
X0050875Y0090803D02*
X0093925Y0090803D01*
X0093925Y0091602D02*
X0050875Y0091602D01*
X0050875Y0092400D02*
X0093925Y0092400D01*
X0094053Y0093199D02*
X0050875Y0093199D01*
X0050875Y0093997D02*
X0094384Y0093997D01*
X0094760Y0094796D02*
X0050875Y0094796D01*
X0050875Y0095594D02*
X0095559Y0095594D01*
X0096747Y0096393D02*
X0050875Y0096393D01*
X0065829Y0069243D02*
X0071971Y0069243D01*
X0070420Y0068445D02*
X0067380Y0068445D01*
X0068179Y0067646D02*
X0069621Y0067646D01*
X0068979Y0066848D02*
X0068821Y0066848D01*
X0068485Y0060460D02*
X0069315Y0060460D01*
X0070113Y0059661D02*
X0067687Y0059661D01*
X0066568Y0058863D02*
X0071232Y0058863D01*
X0098679Y0059661D02*
X0109121Y0059661D01*
X0108323Y0060460D02*
X0099477Y0060460D01*
X0099829Y0061258D02*
X0107971Y0061258D01*
X0107732Y0062057D02*
X0100068Y0062057D01*
X0100068Y0062855D02*
X0107732Y0062855D01*
X0107884Y0063654D02*
X0099916Y0063654D01*
X0099585Y0064452D02*
X0108215Y0064452D01*
X0108911Y0065251D02*
X0098889Y0065251D01*
X0102205Y0082020D02*
X0106824Y0082020D01*
X0106594Y0082137D02*
X0107211Y0081822D01*
X0107870Y0081608D01*
X0108500Y0081509D01*
X0108500Y0088500D01*
X0104500Y0088500D01*
X0104500Y0085554D01*
X0104608Y0084870D01*
X0104822Y0084211D01*
X0105137Y0083594D01*
X0105544Y0083034D01*
X0106034Y0082544D01*
X0106594Y0082137D01*
X0105759Y0082818D02*
X0102854Y0082818D01*
X0103339Y0083617D02*
X0105125Y0083617D01*
X0104756Y0084415D02*
X0103670Y0084415D01*
X0103875Y0085214D02*
X0104554Y0085214D01*
X0104500Y0086012D02*
X0103875Y0086012D01*
X0103875Y0086811D02*
X0104500Y0086811D01*
X0104500Y0087609D02*
X0103875Y0087609D01*
X0103875Y0088408D02*
X0104500Y0088408D01*
X0108500Y0088408D02*
X0109300Y0088408D01*
X0109300Y0089206D02*
X0129325Y0089206D01*
X0145604Y0081221D02*
X0152196Y0081221D01*
X0150745Y0082020D02*
X0147055Y0082020D01*
X0147854Y0082818D02*
X0149946Y0082818D01*
X0149461Y0083617D02*
X0148339Y0083617D01*
X0148670Y0084415D02*
X0149130Y0084415D01*
X0148925Y0085214D02*
X0148875Y0085214D01*
X0148875Y0086012D02*
X0148925Y0086012D01*
X0148925Y0086811D02*
X0148875Y0086811D01*
X0148875Y0087609D02*
X0148925Y0087609D01*
X0148925Y0088408D02*
X0148875Y0088408D01*
X0148875Y0089206D02*
X0148925Y0089206D01*
X0148925Y0090005D02*
X0148875Y0090005D01*
X0148875Y0090803D02*
X0148925Y0090803D01*
X0148925Y0091602D02*
X0148875Y0091602D01*
X0148875Y0092400D02*
X0148925Y0092400D01*
X0149053Y0093199D02*
X0148747Y0093199D01*
X0148416Y0093997D02*
X0149384Y0093997D01*
X0149760Y0094796D02*
X0148040Y0094796D01*
X0147241Y0095594D02*
X0150559Y0095594D01*
X0151125Y0096393D02*
X0147817Y0096393D01*
X0148615Y0097191D02*
X0151224Y0097191D01*
X0151566Y0097990D02*
X0149414Y0097990D01*
X0150213Y0098788D02*
X0152364Y0098788D01*
X0153163Y0099587D02*
X0151011Y0099587D01*
X0151810Y0100385D02*
X0153961Y0100385D01*
X0157241Y0095594D02*
X0160559Y0095594D01*
X0161082Y0096117D02*
X0159683Y0094718D01*
X0158925Y0092890D01*
X0158925Y0084910D01*
X0159683Y0083082D01*
X0161082Y0081683D01*
X0162910Y0080925D01*
X0164890Y0080925D01*
X0166718Y0081683D01*
X0168117Y0083082D01*
X0168875Y0084910D01*
X0168875Y0092890D01*
X0168117Y0094718D01*
X0166718Y0096117D01*
X0164890Y0096875D01*
X0162910Y0096875D01*
X0161082Y0096117D01*
X0161747Y0096393D02*
X0157817Y0096393D01*
X0158615Y0097191D02*
X0184185Y0097191D01*
X0184983Y0096393D02*
X0166053Y0096393D01*
X0167241Y0095594D02*
X0171499Y0095594D01*
X0171594Y0095663D02*
X0171034Y0095256D01*
X0170544Y0094766D01*
X0170137Y0094206D01*
X0169822Y0093589D01*
X0169608Y0092930D01*
X0169500Y0092246D01*
X0169500Y0089300D01*
X0173500Y0089300D01*
X0173500Y0096291D01*
X0172870Y0096192D01*
X0172211Y0095978D01*
X0171594Y0095663D01*
X0170573Y0094796D02*
X0168040Y0094796D01*
X0168416Y0093997D02*
X0170030Y0093997D01*
X0169696Y0093199D02*
X0168747Y0093199D01*
X0168875Y0092400D02*
X0169524Y0092400D01*
X0169500Y0091602D02*
X0168875Y0091602D01*
X0168875Y0090803D02*
X0169500Y0090803D01*
X0169500Y0090005D02*
X0168875Y0090005D01*
X0168875Y0089206D02*
X0173500Y0089206D01*
X0173500Y0089300D02*
X0173500Y0088500D01*
X0174300Y0088500D01*
X0174300Y0089300D01*
X0178300Y0089300D01*
X0178300Y0092246D01*
X0178192Y0092930D01*
X0177978Y0093589D01*
X0177663Y0094206D01*
X0177256Y0094766D01*
X0176766Y0095256D01*
X0176206Y0095663D01*
X0175589Y0095978D01*
X0174930Y0096192D01*
X0174300Y0096291D01*
X0174300Y0089300D01*
X0173500Y0089300D01*
X0173500Y0090005D02*
X0174300Y0090005D01*
X0174300Y0090803D02*
X0173500Y0090803D01*
X0173500Y0091602D02*
X0174300Y0091602D01*
X0174300Y0092400D02*
X0173500Y0092400D01*
X0173500Y0093199D02*
X0174300Y0093199D01*
X0174300Y0093997D02*
X0173500Y0093997D01*
X0173500Y0094796D02*
X0174300Y0094796D01*
X0174300Y0095594D02*
X0173500Y0095594D01*
X0176301Y0095594D02*
X0185559Y0095594D01*
X0184760Y0094796D02*
X0177227Y0094796D01*
X0177770Y0093997D02*
X0184384Y0093997D01*
X0184053Y0093199D02*
X0178104Y0093199D01*
X0178276Y0092400D02*
X0183925Y0092400D01*
X0183925Y0091602D02*
X0178300Y0091602D01*
X0178300Y0090803D02*
X0183925Y0090803D01*
X0183925Y0090005D02*
X0178300Y0090005D01*
X0178300Y0088500D02*
X0174300Y0088500D01*
X0174300Y0081509D01*
X0174930Y0081608D01*
X0175589Y0081822D01*
X0176206Y0082137D01*
X0176766Y0082544D01*
X0177256Y0083034D01*
X0177663Y0083594D01*
X0177978Y0084211D01*
X0178192Y0084870D01*
X0178300Y0085554D01*
X0178300Y0088500D01*
X0178300Y0088408D02*
X0183925Y0088408D01*
X0183925Y0089206D02*
X0174300Y0089206D01*
X0174300Y0088408D02*
X0173500Y0088408D01*
X0173500Y0088500D02*
X0173500Y0081509D01*
X0172870Y0081608D01*
X0172211Y0081822D01*
X0171594Y0082137D01*
X0171034Y0082544D01*
X0170544Y0083034D01*
X0170137Y0083594D01*
X0169822Y0084211D01*
X0169608Y0084870D01*
X0169500Y0085554D01*
X0169500Y0088500D01*
X0173500Y0088500D01*
X0173500Y0087609D02*
X0174300Y0087609D01*
X0174300Y0086811D02*
X0173500Y0086811D01*
X0173500Y0086012D02*
X0174300Y0086012D01*
X0174300Y0085214D02*
X0173500Y0085214D01*
X0173500Y0084415D02*
X0174300Y0084415D01*
X0174300Y0083617D02*
X0173500Y0083617D01*
X0173500Y0082818D02*
X0174300Y0082818D01*
X0174300Y0082020D02*
X0173500Y0082020D01*
X0171824Y0082020D02*
X0167055Y0082020D01*
X0167854Y0082818D02*
X0170759Y0082818D01*
X0170125Y0083617D02*
X0168339Y0083617D01*
X0168670Y0084415D02*
X0169756Y0084415D01*
X0169554Y0085214D02*
X0168875Y0085214D01*
X0168875Y0086012D02*
X0169500Y0086012D01*
X0169500Y0086811D02*
X0168875Y0086811D01*
X0168875Y0087609D02*
X0169500Y0087609D01*
X0169500Y0088408D02*
X0168875Y0088408D01*
X0165604Y0081221D02*
X0187196Y0081221D01*
X0185745Y0082020D02*
X0175976Y0082020D01*
X0177041Y0082818D02*
X0184946Y0082818D01*
X0184461Y0083617D02*
X0177675Y0083617D01*
X0178044Y0084415D02*
X0184130Y0084415D01*
X0183925Y0085214D02*
X0178246Y0085214D01*
X0178300Y0086012D02*
X0183925Y0086012D01*
X0183925Y0086811D02*
X0178300Y0086811D01*
X0178300Y0087609D02*
X0183925Y0087609D01*
X0183386Y0097990D02*
X0159414Y0097990D01*
X0159760Y0094796D02*
X0158040Y0094796D01*
X0158416Y0093997D02*
X0159384Y0093997D01*
X0159053Y0093199D02*
X0158747Y0093199D01*
X0158875Y0092400D02*
X0158925Y0092400D01*
X0158925Y0091602D02*
X0158875Y0091602D01*
X0158875Y0090803D02*
X0158925Y0090803D01*
X0158925Y0090005D02*
X0158875Y0090005D01*
X0158875Y0089206D02*
X0158925Y0089206D01*
X0158925Y0088408D02*
X0158875Y0088408D01*
X0158875Y0087609D02*
X0158925Y0087609D01*
X0158925Y0086811D02*
X0158875Y0086811D01*
X0158875Y0086012D02*
X0158925Y0086012D01*
X0158925Y0085214D02*
X0158875Y0085214D01*
X0158670Y0084415D02*
X0159130Y0084415D01*
X0159461Y0083617D02*
X0158339Y0083617D01*
X0157854Y0082818D02*
X0159946Y0082818D01*
X0160745Y0082020D02*
X0157055Y0082020D01*
X0155604Y0081221D02*
X0162196Y0081221D01*
X0150812Y0064452D02*
X0243776Y0064452D01*
X0243776Y0063654D02*
X0150812Y0063654D01*
X0150698Y0062855D02*
X0243776Y0062855D01*
X0243776Y0062057D02*
X0149705Y0062057D01*
X0177346Y0098788D02*
X0182587Y0098788D01*
X0181789Y0099587D02*
X0178511Y0099587D01*
X0179310Y0100385D02*
X0180990Y0100385D01*
X0180444Y0101184D02*
X0180108Y0101184D01*
X0189083Y0105176D02*
X0243776Y0105176D01*
X0243776Y0104378D02*
X0189846Y0104378D01*
X0190645Y0103579D02*
X0243776Y0103579D01*
X0243776Y0102781D02*
X0191443Y0102781D01*
X0192242Y0101982D02*
X0243776Y0101982D01*
X0243776Y0101184D02*
X0193040Y0101184D01*
X0193839Y0100385D02*
X0243776Y0100385D01*
X0243776Y0099587D02*
X0194637Y0099587D01*
X0195436Y0098788D02*
X0243776Y0098788D01*
X0243776Y0097990D02*
X0196234Y0097990D01*
X0197033Y0097191D02*
X0243776Y0097191D01*
X0243776Y0096393D02*
X0211053Y0096393D01*
X0211718Y0096117D02*
X0209890Y0096875D01*
X0207910Y0096875D01*
X0206082Y0096117D01*
X0204683Y0094718D01*
X0203925Y0092890D01*
X0203925Y0084910D01*
X0204683Y0083082D01*
X0206082Y0081683D01*
X0207910Y0080925D01*
X0209890Y0080925D01*
X0211718Y0081683D01*
X0213117Y0083082D01*
X0213875Y0084910D01*
X0213875Y0092890D01*
X0213117Y0094718D01*
X0211718Y0096117D01*
X0212241Y0095594D02*
X0216499Y0095594D01*
X0216594Y0095663D02*
X0216034Y0095256D01*
X0215544Y0094766D01*
X0215137Y0094206D01*
X0214822Y0093589D01*
X0214608Y0092930D01*
X0214500Y0092246D01*
X0214500Y0089300D01*
X0218500Y0089300D01*
X0218500Y0096291D01*
X0217870Y0096192D01*
X0217211Y0095978D01*
X0216594Y0095663D01*
X0215573Y0094796D02*
X0213040Y0094796D01*
X0213416Y0093997D02*
X0215030Y0093997D01*
X0214696Y0093199D02*
X0213747Y0093199D01*
X0213875Y0092400D02*
X0214524Y0092400D01*
X0214500Y0091602D02*
X0213875Y0091602D01*
X0213875Y0090803D02*
X0214500Y0090803D01*
X0214500Y0090005D02*
X0213875Y0090005D01*
X0213875Y0089206D02*
X0218500Y0089206D01*
X0218500Y0089300D02*
X0218500Y0088500D01*
X0219300Y0088500D01*
X0219300Y0089300D01*
X0223300Y0089300D01*
X0223300Y0092246D01*
X0223192Y0092930D01*
X0222978Y0093589D01*
X0222663Y0094206D01*
X0222256Y0094766D01*
X0221766Y0095256D01*
X0221206Y0095663D01*
X0220589Y0095978D01*
X0219930Y0096192D01*
X0219300Y0096291D01*
X0219300Y0089300D01*
X0218500Y0089300D01*
X0218500Y0090005D02*
X0219300Y0090005D01*
X0219300Y0090803D02*
X0218500Y0090803D01*
X0218500Y0091602D02*
X0219300Y0091602D01*
X0219300Y0092400D02*
X0218500Y0092400D01*
X0218500Y0093199D02*
X0219300Y0093199D01*
X0219300Y0093997D02*
X0218500Y0093997D01*
X0218500Y0094796D02*
X0219300Y0094796D01*
X0219300Y0095594D02*
X0218500Y0095594D01*
X0221301Y0095594D02*
X0243776Y0095594D01*
X0243776Y0094796D02*
X0222227Y0094796D01*
X0222770Y0093997D02*
X0243776Y0093997D01*
X0243776Y0093199D02*
X0223104Y0093199D01*
X0223276Y0092400D02*
X0243776Y0092400D01*
X0243776Y0091602D02*
X0223300Y0091602D01*
X0223300Y0090803D02*
X0243776Y0090803D01*
X0243776Y0090005D02*
X0223300Y0090005D01*
X0223300Y0088500D02*
X0219300Y0088500D01*
X0219300Y0081509D01*
X0219930Y0081608D01*
X0220589Y0081822D01*
X0221206Y0082137D01*
X0221766Y0082544D01*
X0222256Y0083034D01*
X0222663Y0083594D01*
X0222978Y0084211D01*
X0223192Y0084870D01*
X0223300Y0085554D01*
X0223300Y0088500D01*
X0223300Y0088408D02*
X0243776Y0088408D01*
X0243776Y0089206D02*
X0219300Y0089206D01*
X0219300Y0088408D02*
X0218500Y0088408D01*
X0218500Y0088500D02*
X0218500Y0081509D01*
X0217870Y0081608D01*
X0217211Y0081822D01*
X0216594Y0082137D01*
X0216034Y0082544D01*
X0215544Y0083034D01*
X0215137Y0083594D01*
X0214822Y0084211D01*
X0214608Y0084870D01*
X0214500Y0085554D01*
X0214500Y0088500D01*
X0218500Y0088500D01*
X0218500Y0087609D02*
X0219300Y0087609D01*
X0219300Y0086811D02*
X0218500Y0086811D01*
X0218500Y0086012D02*
X0219300Y0086012D01*
X0219300Y0085214D02*
X0218500Y0085214D01*
X0218500Y0084415D02*
X0219300Y0084415D01*
X0219300Y0083617D02*
X0218500Y0083617D01*
X0218500Y0082818D02*
X0219300Y0082818D01*
X0219300Y0082020D02*
X0218500Y0082020D01*
X0216824Y0082020D02*
X0212055Y0082020D01*
X0212854Y0082818D02*
X0215759Y0082818D01*
X0215125Y0083617D02*
X0213339Y0083617D01*
X0213670Y0084415D02*
X0214756Y0084415D01*
X0214554Y0085214D02*
X0213875Y0085214D01*
X0213875Y0086012D02*
X0214500Y0086012D01*
X0214500Y0086811D02*
X0213875Y0086811D01*
X0213875Y0087609D02*
X0214500Y0087609D01*
X0214500Y0088408D02*
X0213875Y0088408D01*
X0210604Y0081221D02*
X0243776Y0081221D01*
X0243776Y0082020D02*
X0220976Y0082020D01*
X0222041Y0082818D02*
X0243776Y0082818D01*
X0243776Y0083617D02*
X0222675Y0083617D01*
X0223044Y0084415D02*
X0243776Y0084415D01*
X0243776Y0085214D02*
X0223246Y0085214D01*
X0223300Y0086012D02*
X0243776Y0086012D01*
X0243776Y0086811D02*
X0223300Y0086811D01*
X0223300Y0087609D02*
X0243776Y0087609D01*
X0243776Y0105975D02*
X0189083Y0105975D01*
X0189083Y0106773D02*
X0243776Y0106773D01*
X0243776Y0107572D02*
X0189083Y0107572D01*
X0189083Y0108370D02*
X0243776Y0108370D01*
X0243776Y0109169D02*
X0188989Y0109169D01*
X0189083Y0109968D02*
X0243776Y0109968D01*
X0243776Y0110766D02*
X0189083Y0110766D01*
X0189083Y0111565D02*
X0243776Y0111565D01*
X0243776Y0112363D02*
X0189083Y0112363D01*
X0201053Y0096393D02*
X0206747Y0096393D01*
X0205559Y0095594D02*
X0202241Y0095594D01*
X0203040Y0094796D02*
X0204760Y0094796D01*
X0204384Y0093997D02*
X0203416Y0093997D01*
X0203747Y0093199D02*
X0204053Y0093199D01*
X0203925Y0092400D02*
X0203875Y0092400D01*
X0203875Y0091602D02*
X0203925Y0091602D01*
X0203925Y0090803D02*
X0203875Y0090803D01*
X0203875Y0090005D02*
X0203925Y0090005D01*
X0203925Y0089206D02*
X0203875Y0089206D01*
X0203875Y0088408D02*
X0203925Y0088408D01*
X0203925Y0087609D02*
X0203875Y0087609D01*
X0203875Y0086811D02*
X0203925Y0086811D01*
X0203925Y0086012D02*
X0203875Y0086012D01*
X0203875Y0085214D02*
X0203925Y0085214D01*
X0204130Y0084415D02*
X0203670Y0084415D01*
X0203339Y0083617D02*
X0204461Y0083617D01*
X0204946Y0082818D02*
X0202854Y0082818D01*
X0202055Y0082020D02*
X0205745Y0082020D01*
X0207196Y0081221D02*
X0200604Y0081221D01*
X0197196Y0081221D02*
X0190604Y0081221D01*
X0192055Y0082020D02*
X0195745Y0082020D01*
X0194946Y0082818D02*
X0192854Y0082818D01*
X0193339Y0083617D02*
X0194461Y0083617D01*
X0194130Y0084415D02*
X0193670Y0084415D01*
X0193875Y0085214D02*
X0193925Y0085214D01*
X0193925Y0086012D02*
X0193875Y0086012D01*
X0193875Y0086811D02*
X0193925Y0086811D01*
X0193925Y0087609D02*
X0193875Y0087609D01*
X0193875Y0088408D02*
X0193925Y0088408D01*
X0193925Y0089206D02*
X0193875Y0089206D01*
X0193875Y0090005D02*
X0193925Y0090005D01*
X0193925Y0090803D02*
X0193875Y0090803D01*
X0193875Y0091602D02*
X0193925Y0091602D01*
X0193925Y0092400D02*
X0193875Y0092400D01*
X0162360Y0168259D02*
X0121675Y0168259D01*
X0121675Y0169057D02*
X0161496Y0169057D01*
X0160761Y0169856D02*
X0121675Y0169856D01*
X0121675Y0170654D02*
X0160430Y0170654D01*
X0166125Y0180237D02*
X0149810Y0180237D01*
X0149175Y0181035D02*
X0166125Y0181035D01*
X0166125Y0181834D02*
X0149175Y0181834D01*
X0149175Y0182632D02*
X0166125Y0182632D01*
X0166125Y0183431D02*
X0149175Y0183431D01*
X0149175Y0184229D02*
X0166125Y0184229D01*
X0166125Y0185028D02*
X0149175Y0185028D01*
X0149175Y0185826D02*
X0166125Y0185826D01*
X0166125Y0186625D02*
X0149175Y0186625D01*
X0149670Y0187423D02*
X0166125Y0187423D01*
X0166125Y0188222D02*
X0150469Y0188222D01*
X0150961Y0189020D02*
X0166125Y0189020D01*
X0165734Y0189819D02*
X0151292Y0189819D01*
X0151524Y0190617D02*
X0164936Y0190617D01*
X0164382Y0191416D02*
X0151524Y0191416D01*
X0151524Y0192214D02*
X0164052Y0192214D01*
X0163776Y0193013D02*
X0151279Y0193013D01*
X0150948Y0193811D02*
X0163776Y0193811D01*
X0163776Y0194610D02*
X0150437Y0194610D01*
X0149639Y0195408D02*
X0163978Y0195408D01*
X0164309Y0196207D02*
X0148186Y0196207D01*
X0144614Y0196207D02*
X0050875Y0196207D01*
X0050875Y0197005D02*
X0164758Y0197005D01*
X0165557Y0197804D02*
X0050875Y0197804D01*
X0050875Y0198602D02*
X0166862Y0198602D01*
X0170938Y0198602D02*
X0243776Y0198602D01*
X0243776Y0197804D02*
X0172243Y0197804D01*
X0173042Y0197005D02*
X0243776Y0197005D01*
X0243776Y0196207D02*
X0173491Y0196207D01*
X0173822Y0195408D02*
X0243776Y0195408D01*
X0243776Y0194610D02*
X0174024Y0194610D01*
X0174024Y0193811D02*
X0243776Y0193811D01*
X0243776Y0193013D02*
X0174024Y0193013D01*
X0173748Y0192214D02*
X0243776Y0192214D01*
X0243776Y0191416D02*
X0173418Y0191416D01*
X0172864Y0190617D02*
X0243776Y0190617D01*
X0243776Y0189819D02*
X0172066Y0189819D01*
X0177881Y0208776D02*
X0175997Y0209556D01*
X0174556Y0210997D01*
X0173776Y0212881D01*
X0173776Y0214919D01*
X0173829Y0215047D01*
X0166548Y0222328D01*
X0166125Y0223348D01*
X0166125Y0229503D01*
X0165997Y0229556D01*
X0164556Y0230997D01*
X0163776Y0232881D01*
X0163776Y0234919D01*
X0164556Y0236803D01*
X0165997Y0238244D01*
X0167881Y0239024D01*
X0169919Y0239024D01*
X0171803Y0238244D01*
X0173244Y0236803D01*
X0174024Y0234919D01*
X0174024Y0232881D01*
X0173244Y0230997D01*
X0171803Y0229556D01*
X0171675Y0229503D01*
X0171675Y0225049D01*
X0177753Y0218971D01*
X0177881Y0219024D01*
X0179919Y0219024D01*
X0181803Y0218244D01*
X0183244Y0216803D01*
X0184024Y0214919D01*
X0184024Y0212881D01*
X0183244Y0210997D01*
X0181803Y0209556D01*
X0179919Y0208776D01*
X0177881Y0208776D01*
X0177380Y0208983D02*
X0123332Y0208983D01*
X0123288Y0208907D02*
X0123472Y0209226D01*
X0123568Y0209582D01*
X0123568Y0211180D01*
X0121148Y0211180D01*
X0121148Y0211620D01*
X0123568Y0211620D01*
X0123568Y0213218D01*
X0123472Y0213574D01*
X0123288Y0213893D01*
X0123027Y0214154D01*
X0122708Y0214338D01*
X0122352Y0214434D01*
X0121148Y0214434D01*
X0121148Y0211620D01*
X0120707Y0211620D01*
X0120707Y0211180D01*
X0118287Y0211180D01*
X0118287Y0209582D01*
X0118383Y0209226D01*
X0118567Y0208907D01*
X0118828Y0208646D01*
X0119147Y0208462D01*
X0119503Y0208366D01*
X0120707Y0208366D01*
X0120707Y0211180D01*
X0121148Y0211180D01*
X0121148Y0208366D01*
X0122352Y0208366D01*
X0122708Y0208462D01*
X0123027Y0208646D01*
X0123288Y0208907D01*
X0123568Y0209781D02*
X0175772Y0209781D01*
X0174973Y0210580D02*
X0123568Y0210580D01*
X0123568Y0212177D02*
X0174067Y0212177D01*
X0173776Y0212975D02*
X0123568Y0212975D01*
X0123357Y0213774D02*
X0173776Y0213774D01*
X0173776Y0214572D02*
X0114647Y0214572D01*
X0114647Y0214292D02*
X0114647Y0218508D01*
X0115087Y0218948D01*
X0115087Y0220691D01*
X0115307Y0220911D01*
X0115730Y0221931D01*
X0115730Y0226669D01*
X0115938Y0226669D01*
X0116400Y0227131D01*
X0116862Y0226669D01*
X0118153Y0226669D01*
X0118153Y0224292D01*
X0117713Y0223852D01*
X0117713Y0218948D01*
X0118869Y0217791D01*
X0122986Y0217791D01*
X0123820Y0218625D01*
X0124452Y0218625D01*
X0125098Y0218893D01*
X0125381Y0218776D01*
X0127419Y0218776D01*
X0129303Y0219556D01*
X0130744Y0220997D01*
X0131524Y0222881D01*
X0131524Y0224919D01*
X0130744Y0226803D01*
X0129303Y0228244D01*
X0127419Y0229024D01*
X0125381Y0229024D01*
X0123985Y0228446D01*
X0123985Y0234974D01*
X0122828Y0236131D01*
X0116862Y0236131D01*
X0116400Y0235669D01*
X0115938Y0236131D01*
X0109972Y0236131D01*
X0109444Y0235603D01*
X0109303Y0235744D01*
X0107419Y0236524D01*
X0105381Y0236524D01*
X0103497Y0235744D01*
X0102056Y0234303D01*
X0101276Y0232419D01*
X0101276Y0230381D01*
X0102056Y0228497D01*
X0103497Y0227056D01*
X0105381Y0226276D01*
X0107419Y0226276D01*
X0109303Y0227056D01*
X0109444Y0227197D01*
X0109972Y0226669D01*
X0110180Y0226669D01*
X0110180Y0225009D01*
X0109814Y0225009D01*
X0108657Y0223852D01*
X0108657Y0221012D01*
X0107419Y0221524D01*
X0105381Y0221524D01*
X0103497Y0220744D01*
X0102056Y0219303D01*
X0101276Y0217419D01*
X0101276Y0215381D01*
X0102056Y0213497D01*
X0103497Y0212056D01*
X0105381Y0211276D01*
X0107419Y0211276D01*
X0108657Y0211788D01*
X0108657Y0208948D01*
X0109814Y0207791D01*
X0113931Y0207791D01*
X0115087Y0208948D01*
X0115087Y0213852D01*
X0114647Y0214292D01*
X0115087Y0213774D02*
X0118498Y0213774D01*
X0118567Y0213893D02*
X0118383Y0213574D01*
X0118287Y0213218D01*
X0118287Y0211620D01*
X0120707Y0211620D01*
X0120707Y0214434D01*
X0119503Y0214434D01*
X0119147Y0214338D01*
X0118828Y0214154D01*
X0118567Y0213893D01*
X0118287Y0212975D02*
X0115087Y0212975D01*
X0115087Y0212177D02*
X0118287Y0212177D01*
X0118287Y0210580D02*
X0115087Y0210580D01*
X0115087Y0211378D02*
X0120707Y0211378D01*
X0121148Y0211378D02*
X0174398Y0211378D01*
X0173505Y0215371D02*
X0114647Y0215371D01*
X0114647Y0216170D02*
X0172706Y0216170D01*
X0171908Y0216968D02*
X0114647Y0216968D01*
X0114647Y0217767D02*
X0171109Y0217767D01*
X0170311Y0218565D02*
X0123759Y0218565D01*
X0121148Y0213774D02*
X0120707Y0213774D01*
X0120707Y0212975D02*
X0121148Y0212975D01*
X0121148Y0212177D02*
X0120707Y0212177D01*
X0120707Y0210580D02*
X0121148Y0210580D01*
X0121148Y0209781D02*
X0120707Y0209781D01*
X0120707Y0208983D02*
X0121148Y0208983D01*
X0118523Y0208983D02*
X0115087Y0208983D01*
X0115087Y0209781D02*
X0118287Y0209781D01*
X0114324Y0208184D02*
X0243776Y0208184D01*
X0243776Y0207386D02*
X0050875Y0207386D01*
X0050875Y0208184D02*
X0109421Y0208184D01*
X0108657Y0208983D02*
X0050875Y0208983D01*
X0050875Y0209781D02*
X0108657Y0209781D01*
X0108657Y0210580D02*
X0050875Y0210580D01*
X0050875Y0211378D02*
X0105132Y0211378D01*
X0103376Y0212177D02*
X0050875Y0212177D01*
X0050875Y0212975D02*
X0102578Y0212975D01*
X0101941Y0213774D02*
X0050875Y0213774D01*
X0050875Y0214572D02*
X0101610Y0214572D01*
X0101280Y0215371D02*
X0050875Y0215371D01*
X0050875Y0216170D02*
X0101276Y0216170D01*
X0101276Y0216968D02*
X0050875Y0216968D01*
X0050875Y0217767D02*
X0101419Y0217767D01*
X0101750Y0218565D02*
X0050875Y0218565D01*
X0050875Y0219364D02*
X0102117Y0219364D01*
X0102915Y0220162D02*
X0050875Y0220162D01*
X0050875Y0220961D02*
X0104020Y0220961D01*
X0108657Y0221759D02*
X0050875Y0221759D01*
X0050875Y0222558D02*
X0108657Y0222558D01*
X0108657Y0223356D02*
X0050875Y0223356D01*
X0050875Y0224155D02*
X0108960Y0224155D01*
X0109759Y0224953D02*
X0050875Y0224953D01*
X0050875Y0225752D02*
X0110180Y0225752D01*
X0110180Y0226550D02*
X0108082Y0226550D01*
X0104718Y0226550D02*
X0050875Y0226550D01*
X0050875Y0227349D02*
X0103204Y0227349D01*
X0102406Y0228147D02*
X0050875Y0228147D01*
X0050875Y0228946D02*
X0101870Y0228946D01*
X0101539Y0229744D02*
X0050875Y0229744D01*
X0050875Y0230543D02*
X0101276Y0230543D01*
X0101276Y0231341D02*
X0050875Y0231341D01*
X0050875Y0232140D02*
X0101276Y0232140D01*
X0101491Y0232938D02*
X0050875Y0232938D01*
X0050875Y0233737D02*
X0101821Y0233737D01*
X0102288Y0234535D02*
X0050875Y0234535D01*
X0050875Y0235334D02*
X0103087Y0235334D01*
X0104434Y0236132D02*
X0050875Y0236132D01*
X0050875Y0236931D02*
X0164684Y0236931D01*
X0164278Y0236132D02*
X0108366Y0236132D01*
X0115730Y0226550D02*
X0118153Y0226550D01*
X0118153Y0225752D02*
X0115730Y0225752D01*
X0115730Y0224953D02*
X0118153Y0224953D01*
X0118015Y0224155D02*
X0115730Y0224155D01*
X0115730Y0223356D02*
X0117713Y0223356D01*
X0117713Y0222558D02*
X0115730Y0222558D01*
X0115659Y0221759D02*
X0117713Y0221759D01*
X0117713Y0220961D02*
X0115328Y0220961D01*
X0115087Y0220162D02*
X0117713Y0220162D01*
X0117713Y0219364D02*
X0115087Y0219364D01*
X0114704Y0218565D02*
X0118096Y0218565D01*
X0108657Y0211378D02*
X0107668Y0211378D01*
X0100434Y0193811D02*
X0141852Y0193811D01*
X0141521Y0193013D02*
X0102034Y0193013D01*
X0102833Y0192214D02*
X0141276Y0192214D01*
X0141276Y0191416D02*
X0103405Y0191416D01*
X0103735Y0190617D02*
X0141276Y0190617D01*
X0141508Y0189819D02*
X0104024Y0189819D01*
X0103879Y0182632D02*
X0088921Y0182632D01*
X0088591Y0181834D02*
X0104209Y0181834D01*
X0104540Y0181035D02*
X0088260Y0181035D01*
X0087484Y0180237D02*
X0105316Y0180237D01*
X0106281Y0179438D02*
X0086518Y0179438D01*
X0095766Y0193013D02*
X0050875Y0193013D01*
X0050875Y0193811D02*
X0097366Y0193811D01*
X0123985Y0228946D02*
X0125191Y0228946D01*
X0123985Y0229744D02*
X0165809Y0229744D01*
X0166125Y0228946D02*
X0127609Y0228946D01*
X0129400Y0228147D02*
X0166125Y0228147D01*
X0166125Y0227349D02*
X0130198Y0227349D01*
X0130849Y0226550D02*
X0166125Y0226550D01*
X0166125Y0225752D02*
X0131180Y0225752D01*
X0131510Y0224953D02*
X0166125Y0224953D01*
X0166125Y0224155D02*
X0131524Y0224155D01*
X0131524Y0223356D02*
X0166125Y0223356D01*
X0166453Y0222558D02*
X0131391Y0222558D01*
X0131060Y0221759D02*
X0167117Y0221759D01*
X0167915Y0220961D02*
X0130708Y0220961D01*
X0129909Y0220162D02*
X0168714Y0220162D01*
X0169512Y0219364D02*
X0128839Y0219364D01*
X0123985Y0230543D02*
X0165010Y0230543D01*
X0164413Y0231341D02*
X0123985Y0231341D01*
X0123985Y0232140D02*
X0164082Y0232140D01*
X0163776Y0232938D02*
X0123985Y0232938D01*
X0123985Y0233737D02*
X0163776Y0233737D01*
X0163776Y0234535D02*
X0123985Y0234535D01*
X0123625Y0235334D02*
X0163947Y0235334D01*
X0165482Y0237729D02*
X0050875Y0237729D01*
X0050875Y0238528D02*
X0166682Y0238528D01*
X0171118Y0238528D02*
X0243776Y0238528D01*
X0243776Y0239326D02*
X0050875Y0239326D01*
X0050875Y0240125D02*
X0243776Y0240125D01*
X0243776Y0240923D02*
X0050875Y0240923D01*
X0050875Y0241722D02*
X0243776Y0241722D01*
X0243776Y0242520D02*
X0050875Y0242520D01*
X0050875Y0243319D02*
X0243776Y0243319D01*
X0243776Y0244117D02*
X0050875Y0244117D01*
X0050875Y0244916D02*
X0243776Y0244916D01*
X0243776Y0245714D02*
X0050875Y0245714D01*
X0050875Y0246513D02*
X0243776Y0246513D01*
X0243776Y0247311D02*
X0050875Y0247311D01*
X0050875Y0248110D02*
X0243776Y0248110D01*
X0243776Y0248908D02*
X0050875Y0248908D01*
X0050875Y0249707D02*
X0243776Y0249707D01*
X0243776Y0250505D02*
X0050875Y0250505D01*
X0050875Y0251304D02*
X0243776Y0251304D01*
X0243776Y0252103D02*
X0050875Y0252103D01*
X0050875Y0252901D02*
X0243776Y0252901D01*
X0243776Y0253700D02*
X0050875Y0253700D01*
X0050875Y0254498D02*
X0243776Y0254498D01*
X0243776Y0255297D02*
X0050875Y0255297D01*
X0050875Y0256095D02*
X0243776Y0256095D01*
X0243776Y0256894D02*
X0050875Y0256894D01*
X0050875Y0257692D02*
X0243776Y0257692D01*
X0243776Y0258491D02*
X0050875Y0258491D01*
X0050875Y0259289D02*
X0243776Y0259289D01*
X0243776Y0260088D02*
X0050875Y0260088D01*
X0050875Y0260886D02*
X0243776Y0260886D01*
X0243776Y0261685D02*
X0050875Y0261685D01*
X0050875Y0262483D02*
X0243776Y0262483D01*
X0243776Y0263282D02*
X0050875Y0263282D01*
X0050875Y0206587D02*
X0243776Y0206587D01*
X0243776Y0205789D02*
X0050875Y0205789D01*
X0050875Y0204990D02*
X0243776Y0204990D01*
X0243776Y0204192D02*
X0050875Y0204192D01*
X0050875Y0203393D02*
X0243776Y0203393D01*
X0243776Y0202595D02*
X0050875Y0202595D01*
X0050875Y0201796D02*
X0243776Y0201796D01*
X0243776Y0200998D02*
X0050875Y0200998D01*
X0050875Y0200199D02*
X0243776Y0200199D01*
X0243776Y0199401D02*
X0050875Y0199401D01*
X0050875Y0195408D02*
X0143161Y0195408D01*
X0142363Y0194610D02*
X0050875Y0194610D01*
X0108500Y0087609D02*
X0109300Y0087609D01*
X0109300Y0086811D02*
X0108500Y0086811D01*
X0108500Y0086012D02*
X0109300Y0086012D01*
X0109300Y0085214D02*
X0108500Y0085214D01*
X0108500Y0084415D02*
X0109300Y0084415D01*
X0109300Y0083617D02*
X0108500Y0083617D01*
X0108500Y0082818D02*
X0109300Y0082818D01*
X0109300Y0082020D02*
X0108500Y0082020D01*
X0180420Y0208983D02*
X0243776Y0208983D01*
X0243776Y0209781D02*
X0182028Y0209781D01*
X0182827Y0210580D02*
X0243776Y0210580D01*
X0243776Y0211378D02*
X0183402Y0211378D01*
X0183733Y0212177D02*
X0243776Y0212177D01*
X0243776Y0212975D02*
X0184024Y0212975D01*
X0184024Y0213774D02*
X0243776Y0213774D01*
X0243776Y0214572D02*
X0184024Y0214572D01*
X0183837Y0215371D02*
X0243776Y0215371D01*
X0243776Y0216170D02*
X0183507Y0216170D01*
X0183079Y0216968D02*
X0243776Y0216968D01*
X0243776Y0217767D02*
X0182280Y0217767D01*
X0181028Y0218565D02*
X0243776Y0218565D01*
X0243776Y0219364D02*
X0177361Y0219364D01*
X0176562Y0220162D02*
X0243776Y0220162D01*
X0243776Y0220961D02*
X0175764Y0220961D01*
X0174965Y0221759D02*
X0243776Y0221759D01*
X0243776Y0222558D02*
X0174167Y0222558D01*
X0173368Y0223356D02*
X0243776Y0223356D01*
X0243776Y0224155D02*
X0172570Y0224155D01*
X0171771Y0224953D02*
X0243776Y0224953D01*
X0243776Y0225752D02*
X0171675Y0225752D01*
X0171675Y0226550D02*
X0243776Y0226550D01*
X0243776Y0227349D02*
X0171675Y0227349D01*
X0171675Y0228147D02*
X0243776Y0228147D01*
X0243776Y0228946D02*
X0171675Y0228946D01*
X0171991Y0229744D02*
X0243776Y0229744D01*
X0243776Y0230543D02*
X0172790Y0230543D01*
X0173387Y0231341D02*
X0243776Y0231341D01*
X0243776Y0232140D02*
X0173717Y0232140D01*
X0174024Y0232938D02*
X0243776Y0232938D01*
X0243776Y0233737D02*
X0174024Y0233737D01*
X0174024Y0234535D02*
X0243776Y0234535D01*
X0243776Y0235334D02*
X0173853Y0235334D01*
X0173522Y0236132D02*
X0243776Y0236132D01*
X0243776Y0236931D02*
X0173116Y0236931D01*
X0172318Y0237729D02*
X0243776Y0237729D01*
X0243776Y0264080D02*
X0153004Y0264080D01*
X0153803Y0264879D02*
X0243776Y0264879D01*
X0243776Y0265677D02*
X0154601Y0265677D01*
X0155400Y0266476D02*
X0243776Y0266476D01*
X0243776Y0267274D02*
X0156198Y0267274D01*
X0156997Y0268073D02*
X0243776Y0268073D01*
X0243776Y0268871D02*
X0157795Y0268871D01*
X0158594Y0269670D02*
X0243776Y0269670D01*
X0243776Y0270468D02*
X0159392Y0270468D01*
X0160191Y0271267D02*
X0243776Y0271267D01*
X0243776Y0272065D02*
X0215761Y0272065D01*
X0215565Y0271984D02*
X0218643Y0273259D01*
X0220998Y0275614D01*
X0222272Y0278691D01*
X0222272Y0282022D01*
X0220998Y0285099D01*
X0218643Y0287454D01*
X0215565Y0288729D01*
X0212235Y0288729D01*
X0209157Y0287454D01*
X0206802Y0285099D01*
X0205528Y0282022D01*
X0205528Y0278691D01*
X0206802Y0275614D01*
X0209157Y0273259D01*
X0212235Y0271984D01*
X0215565Y0271984D01*
X0217689Y0272864D02*
X0243776Y0272864D01*
X0243776Y0273662D02*
X0219046Y0273662D01*
X0219845Y0274461D02*
X0243776Y0274461D01*
X0243776Y0275259D02*
X0220643Y0275259D01*
X0221182Y0276058D02*
X0243776Y0276058D01*
X0243776Y0276856D02*
X0221512Y0276856D01*
X0221843Y0277655D02*
X0243776Y0277655D01*
X0243776Y0278453D02*
X0222174Y0278453D01*
X0222272Y0279252D02*
X0243776Y0279252D01*
X0243776Y0280050D02*
X0222272Y0280050D01*
X0222272Y0280849D02*
X0243776Y0280849D01*
X0243776Y0281647D02*
X0222272Y0281647D01*
X0222097Y0282446D02*
X0243776Y0282446D01*
X0243776Y0283244D02*
X0221766Y0283244D01*
X0221435Y0284043D02*
X0243776Y0284043D01*
X0243776Y0284841D02*
X0221105Y0284841D01*
X0220457Y0285640D02*
X0243776Y0285640D01*
X0243776Y0286439D02*
X0219659Y0286439D01*
X0218860Y0287237D02*
X0243776Y0287237D01*
X0243776Y0288036D02*
X0217240Y0288036D01*
X0210560Y0288036D02*
X0176960Y0288036D01*
X0177758Y0288834D02*
X0243776Y0288834D01*
X0243776Y0289633D02*
X0178557Y0289633D01*
X0179355Y0290431D02*
X0243776Y0290431D01*
X0243776Y0291230D02*
X0180154Y0291230D01*
X0180952Y0292028D02*
X0243776Y0292028D01*
X0243776Y0292827D02*
X0181751Y0292827D01*
X0176161Y0287237D02*
X0208940Y0287237D01*
X0208141Y0286439D02*
X0175363Y0286439D01*
X0174564Y0285640D02*
X0207343Y0285640D01*
X0206695Y0284841D02*
X0173766Y0284841D01*
X0172967Y0284043D02*
X0206365Y0284043D01*
X0206034Y0283244D02*
X0172169Y0283244D01*
X0171370Y0282446D02*
X0205703Y0282446D01*
X0205528Y0281647D02*
X0170572Y0281647D01*
X0169773Y0280849D02*
X0205528Y0280849D01*
X0205528Y0280050D02*
X0168975Y0280050D01*
X0168176Y0279252D02*
X0205528Y0279252D01*
X0205626Y0278453D02*
X0167378Y0278453D01*
X0166579Y0277655D02*
X0205957Y0277655D01*
X0206288Y0276856D02*
X0165781Y0276856D01*
X0164982Y0276058D02*
X0206618Y0276058D01*
X0207157Y0275259D02*
X0164184Y0275259D01*
X0163385Y0274461D02*
X0207955Y0274461D01*
X0208754Y0273662D02*
X0162586Y0273662D01*
X0161788Y0272864D02*
X0210111Y0272864D01*
X0212039Y0272065D02*
X0160989Y0272065D01*
X0230781Y0187423D02*
X0243776Y0187423D01*
X0243776Y0186625D02*
X0231797Y0186625D01*
X0232393Y0185826D02*
X0243776Y0185826D01*
X0243776Y0185028D02*
X0232728Y0185028D01*
D20*
X0178900Y0213900D03*
X0168900Y0193900D03*
X0158900Y0206400D03*
X0146400Y0191400D03*
X0146400Y0176400D03*
X0131400Y0176400D03*
X0118900Y0153900D03*
X0108900Y0183900D03*
X0098900Y0188900D03*
X0083900Y0183900D03*
X0061400Y0166400D03*
X0066400Y0141400D03*
X0106400Y0216400D03*
X0106400Y0231400D03*
X0126400Y0223900D03*
X0165150Y0172650D03*
X0168900Y0233900D03*
X0133900Y0098900D03*
X0123900Y0078900D03*
X0133900Y0071400D03*
X0120150Y0063900D03*
D21*
X0118900Y0073900D02*
X0106400Y0073900D01*
X0098900Y0081400D01*
X0098900Y0088900D01*
X0118900Y0073900D02*
X0131144Y0061656D01*
X0137994Y0061656D01*
X0137994Y0069136D02*
X0136164Y0069136D01*
X0133900Y0071400D01*
X0133900Y0073900D02*
X0133900Y0085455D01*
X0133900Y0092345D02*
X0133900Y0098900D01*
X0143900Y0096400D02*
X0143900Y0088900D01*
X0143900Y0096400D02*
X0151400Y0103900D01*
X0173900Y0103900D01*
X0176439Y0106439D01*
X0176676Y0106439D01*
X0179825Y0106439D02*
X0179825Y0104825D01*
X0176400Y0101400D01*
X0158900Y0101400D01*
X0153900Y0096400D01*
X0153900Y0088900D01*
X0137994Y0069806D02*
X0133900Y0073900D01*
X0137994Y0069806D02*
X0137994Y0069136D01*
X0182975Y0102325D02*
X0188900Y0096400D01*
X0188900Y0088900D01*
X0182975Y0102325D02*
X0182975Y0106439D01*
X0186124Y0106439D02*
X0186124Y0104176D01*
X0198900Y0091400D01*
X0198900Y0088900D01*
X0165150Y0172650D02*
X0168900Y0176400D01*
X0168900Y0193900D01*
X0178900Y0213900D02*
X0168900Y0223900D01*
X0168900Y0233900D01*
X0146400Y0191400D02*
X0146400Y0176400D01*
X0118900Y0173900D02*
X0118900Y0153900D01*
X0118900Y0173900D02*
X0108900Y0183900D01*
X0098900Y0188900D02*
X0088900Y0188900D01*
X0083900Y0183900D01*
X0106400Y0216400D02*
X0111872Y0216400D01*
X0111872Y0211400D01*
X0111872Y0216400D02*
X0111872Y0221400D01*
X0112955Y0222483D01*
X0112955Y0231400D01*
X0106400Y0231400D01*
X0119845Y0231400D02*
X0120928Y0230317D01*
X0120928Y0221400D01*
X0123900Y0221400D01*
X0126400Y0223900D01*
M02*
