G75*
%MOIN*%
%OFA0B0*%
%FSLAX25Y25*%
%IPPOS*%
%LPD*%
%AMOC8*
5,1,8,0,0,1.08239X$1,22.5*
%
%ADD10C,0.00000*%
%ADD11C,0.00400*%
%ADD12C,0.00300*%
%ADD13C,0.00600*%
%ADD14C,0.00500*%
%ADD15R,0.02500X0.05000*%
%ADD16R,0.05000X0.02500*%
%ADD17C,0.00800*%
%ADD18C,0.00100*%
%ADD19C,0.00700*%
%ADD20C,0.01000*%
%ADD21C,0.01200*%
D10*
X0048900Y0038900D02*
X0048900Y0294806D01*
X0245750Y0294806D01*
X0245750Y0038900D01*
X0048900Y0038900D01*
X0094747Y0062561D02*
X0094749Y0062642D01*
X0094755Y0062724D01*
X0094765Y0062805D01*
X0094779Y0062885D01*
X0094796Y0062964D01*
X0094818Y0063043D01*
X0094843Y0063120D01*
X0094872Y0063197D01*
X0094905Y0063271D01*
X0094942Y0063344D01*
X0094981Y0063415D01*
X0095025Y0063484D01*
X0095071Y0063551D01*
X0095121Y0063615D01*
X0095174Y0063677D01*
X0095230Y0063737D01*
X0095288Y0063793D01*
X0095350Y0063847D01*
X0095414Y0063898D01*
X0095480Y0063945D01*
X0095548Y0063989D01*
X0095619Y0064030D01*
X0095691Y0064067D01*
X0095766Y0064101D01*
X0095841Y0064131D01*
X0095919Y0064157D01*
X0095997Y0064180D01*
X0096076Y0064198D01*
X0096156Y0064213D01*
X0096237Y0064224D01*
X0096318Y0064231D01*
X0096400Y0064234D01*
X0096481Y0064233D01*
X0096562Y0064228D01*
X0096643Y0064219D01*
X0096724Y0064206D01*
X0096804Y0064189D01*
X0096882Y0064169D01*
X0096960Y0064144D01*
X0097037Y0064116D01*
X0097112Y0064084D01*
X0097185Y0064049D01*
X0097256Y0064010D01*
X0097326Y0063967D01*
X0097393Y0063922D01*
X0097459Y0063873D01*
X0097521Y0063821D01*
X0097581Y0063765D01*
X0097638Y0063707D01*
X0097693Y0063647D01*
X0097744Y0063583D01*
X0097792Y0063518D01*
X0097837Y0063450D01*
X0097879Y0063380D01*
X0097917Y0063308D01*
X0097952Y0063234D01*
X0097983Y0063159D01*
X0098010Y0063082D01*
X0098033Y0063004D01*
X0098053Y0062925D01*
X0098069Y0062845D01*
X0098081Y0062764D01*
X0098089Y0062683D01*
X0098093Y0062602D01*
X0098093Y0062520D01*
X0098089Y0062439D01*
X0098081Y0062358D01*
X0098069Y0062277D01*
X0098053Y0062197D01*
X0098033Y0062118D01*
X0098010Y0062040D01*
X0097983Y0061963D01*
X0097952Y0061888D01*
X0097917Y0061814D01*
X0097879Y0061742D01*
X0097837Y0061672D01*
X0097792Y0061604D01*
X0097744Y0061539D01*
X0097693Y0061475D01*
X0097638Y0061415D01*
X0097581Y0061357D01*
X0097521Y0061301D01*
X0097459Y0061249D01*
X0097393Y0061200D01*
X0097326Y0061155D01*
X0097257Y0061112D01*
X0097185Y0061073D01*
X0097112Y0061038D01*
X0097037Y0061006D01*
X0096960Y0060978D01*
X0096882Y0060953D01*
X0096804Y0060933D01*
X0096724Y0060916D01*
X0096643Y0060903D01*
X0096562Y0060894D01*
X0096481Y0060889D01*
X0096400Y0060888D01*
X0096318Y0060891D01*
X0096237Y0060898D01*
X0096156Y0060909D01*
X0096076Y0060924D01*
X0095997Y0060942D01*
X0095919Y0060965D01*
X0095841Y0060991D01*
X0095766Y0061021D01*
X0095691Y0061055D01*
X0095619Y0061092D01*
X0095548Y0061133D01*
X0095480Y0061177D01*
X0095414Y0061224D01*
X0095350Y0061275D01*
X0095288Y0061329D01*
X0095230Y0061385D01*
X0095174Y0061445D01*
X0095121Y0061507D01*
X0095071Y0061571D01*
X0095025Y0061638D01*
X0094981Y0061707D01*
X0094942Y0061778D01*
X0094905Y0061851D01*
X0094872Y0061925D01*
X0094843Y0062002D01*
X0094818Y0062079D01*
X0094796Y0062158D01*
X0094779Y0062237D01*
X0094765Y0062317D01*
X0094755Y0062398D01*
X0094749Y0062480D01*
X0094747Y0062561D01*
X0109707Y0062561D02*
X0109709Y0062642D01*
X0109715Y0062724D01*
X0109725Y0062805D01*
X0109739Y0062885D01*
X0109756Y0062964D01*
X0109778Y0063043D01*
X0109803Y0063120D01*
X0109832Y0063197D01*
X0109865Y0063271D01*
X0109902Y0063344D01*
X0109941Y0063415D01*
X0109985Y0063484D01*
X0110031Y0063551D01*
X0110081Y0063615D01*
X0110134Y0063677D01*
X0110190Y0063737D01*
X0110248Y0063793D01*
X0110310Y0063847D01*
X0110374Y0063898D01*
X0110440Y0063945D01*
X0110508Y0063989D01*
X0110579Y0064030D01*
X0110651Y0064067D01*
X0110726Y0064101D01*
X0110801Y0064131D01*
X0110879Y0064157D01*
X0110957Y0064180D01*
X0111036Y0064198D01*
X0111116Y0064213D01*
X0111197Y0064224D01*
X0111278Y0064231D01*
X0111360Y0064234D01*
X0111441Y0064233D01*
X0111522Y0064228D01*
X0111603Y0064219D01*
X0111684Y0064206D01*
X0111764Y0064189D01*
X0111842Y0064169D01*
X0111920Y0064144D01*
X0111997Y0064116D01*
X0112072Y0064084D01*
X0112145Y0064049D01*
X0112216Y0064010D01*
X0112286Y0063967D01*
X0112353Y0063922D01*
X0112419Y0063873D01*
X0112481Y0063821D01*
X0112541Y0063765D01*
X0112598Y0063707D01*
X0112653Y0063647D01*
X0112704Y0063583D01*
X0112752Y0063518D01*
X0112797Y0063450D01*
X0112839Y0063380D01*
X0112877Y0063308D01*
X0112912Y0063234D01*
X0112943Y0063159D01*
X0112970Y0063082D01*
X0112993Y0063004D01*
X0113013Y0062925D01*
X0113029Y0062845D01*
X0113041Y0062764D01*
X0113049Y0062683D01*
X0113053Y0062602D01*
X0113053Y0062520D01*
X0113049Y0062439D01*
X0113041Y0062358D01*
X0113029Y0062277D01*
X0113013Y0062197D01*
X0112993Y0062118D01*
X0112970Y0062040D01*
X0112943Y0061963D01*
X0112912Y0061888D01*
X0112877Y0061814D01*
X0112839Y0061742D01*
X0112797Y0061672D01*
X0112752Y0061604D01*
X0112704Y0061539D01*
X0112653Y0061475D01*
X0112598Y0061415D01*
X0112541Y0061357D01*
X0112481Y0061301D01*
X0112419Y0061249D01*
X0112353Y0061200D01*
X0112286Y0061155D01*
X0112217Y0061112D01*
X0112145Y0061073D01*
X0112072Y0061038D01*
X0111997Y0061006D01*
X0111920Y0060978D01*
X0111842Y0060953D01*
X0111764Y0060933D01*
X0111684Y0060916D01*
X0111603Y0060903D01*
X0111522Y0060894D01*
X0111441Y0060889D01*
X0111360Y0060888D01*
X0111278Y0060891D01*
X0111197Y0060898D01*
X0111116Y0060909D01*
X0111036Y0060924D01*
X0110957Y0060942D01*
X0110879Y0060965D01*
X0110801Y0060991D01*
X0110726Y0061021D01*
X0110651Y0061055D01*
X0110579Y0061092D01*
X0110508Y0061133D01*
X0110440Y0061177D01*
X0110374Y0061224D01*
X0110310Y0061275D01*
X0110248Y0061329D01*
X0110190Y0061385D01*
X0110134Y0061445D01*
X0110081Y0061507D01*
X0110031Y0061571D01*
X0109985Y0061638D01*
X0109941Y0061707D01*
X0109902Y0061778D01*
X0109865Y0061851D01*
X0109832Y0061925D01*
X0109803Y0062002D01*
X0109778Y0062079D01*
X0109756Y0062158D01*
X0109739Y0062237D01*
X0109725Y0062317D01*
X0109715Y0062398D01*
X0109709Y0062480D01*
X0109707Y0062561D01*
X0207502Y0280357D02*
X0207504Y0280517D01*
X0207510Y0280676D01*
X0207520Y0280835D01*
X0207534Y0280994D01*
X0207552Y0281153D01*
X0207573Y0281311D01*
X0207599Y0281468D01*
X0207629Y0281625D01*
X0207662Y0281781D01*
X0207700Y0281936D01*
X0207741Y0282090D01*
X0207786Y0282243D01*
X0207835Y0282395D01*
X0207888Y0282545D01*
X0207944Y0282694D01*
X0208004Y0282842D01*
X0208068Y0282988D01*
X0208136Y0283133D01*
X0208207Y0283276D01*
X0208281Y0283417D01*
X0208359Y0283556D01*
X0208441Y0283693D01*
X0208526Y0283828D01*
X0208614Y0283961D01*
X0208705Y0284092D01*
X0208800Y0284220D01*
X0208898Y0284346D01*
X0208999Y0284470D01*
X0209103Y0284590D01*
X0209210Y0284709D01*
X0209320Y0284824D01*
X0209433Y0284937D01*
X0209548Y0285047D01*
X0209667Y0285154D01*
X0209787Y0285258D01*
X0209911Y0285359D01*
X0210037Y0285457D01*
X0210165Y0285552D01*
X0210296Y0285643D01*
X0210429Y0285731D01*
X0210564Y0285816D01*
X0210701Y0285898D01*
X0210840Y0285976D01*
X0210981Y0286050D01*
X0211124Y0286121D01*
X0211269Y0286189D01*
X0211415Y0286253D01*
X0211563Y0286313D01*
X0211712Y0286369D01*
X0211862Y0286422D01*
X0212014Y0286471D01*
X0212167Y0286516D01*
X0212321Y0286557D01*
X0212476Y0286595D01*
X0212632Y0286628D01*
X0212789Y0286658D01*
X0212946Y0286684D01*
X0213104Y0286705D01*
X0213263Y0286723D01*
X0213422Y0286737D01*
X0213581Y0286747D01*
X0213740Y0286753D01*
X0213900Y0286755D01*
X0214060Y0286753D01*
X0214219Y0286747D01*
X0214378Y0286737D01*
X0214537Y0286723D01*
X0214696Y0286705D01*
X0214854Y0286684D01*
X0215011Y0286658D01*
X0215168Y0286628D01*
X0215324Y0286595D01*
X0215479Y0286557D01*
X0215633Y0286516D01*
X0215786Y0286471D01*
X0215938Y0286422D01*
X0216088Y0286369D01*
X0216237Y0286313D01*
X0216385Y0286253D01*
X0216531Y0286189D01*
X0216676Y0286121D01*
X0216819Y0286050D01*
X0216960Y0285976D01*
X0217099Y0285898D01*
X0217236Y0285816D01*
X0217371Y0285731D01*
X0217504Y0285643D01*
X0217635Y0285552D01*
X0217763Y0285457D01*
X0217889Y0285359D01*
X0218013Y0285258D01*
X0218133Y0285154D01*
X0218252Y0285047D01*
X0218367Y0284937D01*
X0218480Y0284824D01*
X0218590Y0284709D01*
X0218697Y0284590D01*
X0218801Y0284470D01*
X0218902Y0284346D01*
X0219000Y0284220D01*
X0219095Y0284092D01*
X0219186Y0283961D01*
X0219274Y0283828D01*
X0219359Y0283693D01*
X0219441Y0283556D01*
X0219519Y0283417D01*
X0219593Y0283276D01*
X0219664Y0283133D01*
X0219732Y0282988D01*
X0219796Y0282842D01*
X0219856Y0282694D01*
X0219912Y0282545D01*
X0219965Y0282395D01*
X0220014Y0282243D01*
X0220059Y0282090D01*
X0220100Y0281936D01*
X0220138Y0281781D01*
X0220171Y0281625D01*
X0220201Y0281468D01*
X0220227Y0281311D01*
X0220248Y0281153D01*
X0220266Y0280994D01*
X0220280Y0280835D01*
X0220290Y0280676D01*
X0220296Y0280517D01*
X0220298Y0280357D01*
X0220296Y0280197D01*
X0220290Y0280038D01*
X0220280Y0279879D01*
X0220266Y0279720D01*
X0220248Y0279561D01*
X0220227Y0279403D01*
X0220201Y0279246D01*
X0220171Y0279089D01*
X0220138Y0278933D01*
X0220100Y0278778D01*
X0220059Y0278624D01*
X0220014Y0278471D01*
X0219965Y0278319D01*
X0219912Y0278169D01*
X0219856Y0278020D01*
X0219796Y0277872D01*
X0219732Y0277726D01*
X0219664Y0277581D01*
X0219593Y0277438D01*
X0219519Y0277297D01*
X0219441Y0277158D01*
X0219359Y0277021D01*
X0219274Y0276886D01*
X0219186Y0276753D01*
X0219095Y0276622D01*
X0219000Y0276494D01*
X0218902Y0276368D01*
X0218801Y0276244D01*
X0218697Y0276124D01*
X0218590Y0276005D01*
X0218480Y0275890D01*
X0218367Y0275777D01*
X0218252Y0275667D01*
X0218133Y0275560D01*
X0218013Y0275456D01*
X0217889Y0275355D01*
X0217763Y0275257D01*
X0217635Y0275162D01*
X0217504Y0275071D01*
X0217371Y0274983D01*
X0217236Y0274898D01*
X0217099Y0274816D01*
X0216960Y0274738D01*
X0216819Y0274664D01*
X0216676Y0274593D01*
X0216531Y0274525D01*
X0216385Y0274461D01*
X0216237Y0274401D01*
X0216088Y0274345D01*
X0215938Y0274292D01*
X0215786Y0274243D01*
X0215633Y0274198D01*
X0215479Y0274157D01*
X0215324Y0274119D01*
X0215168Y0274086D01*
X0215011Y0274056D01*
X0214854Y0274030D01*
X0214696Y0274009D01*
X0214537Y0273991D01*
X0214378Y0273977D01*
X0214219Y0273967D01*
X0214060Y0273961D01*
X0213900Y0273959D01*
X0213740Y0273961D01*
X0213581Y0273967D01*
X0213422Y0273977D01*
X0213263Y0273991D01*
X0213104Y0274009D01*
X0212946Y0274030D01*
X0212789Y0274056D01*
X0212632Y0274086D01*
X0212476Y0274119D01*
X0212321Y0274157D01*
X0212167Y0274198D01*
X0212014Y0274243D01*
X0211862Y0274292D01*
X0211712Y0274345D01*
X0211563Y0274401D01*
X0211415Y0274461D01*
X0211269Y0274525D01*
X0211124Y0274593D01*
X0210981Y0274664D01*
X0210840Y0274738D01*
X0210701Y0274816D01*
X0210564Y0274898D01*
X0210429Y0274983D01*
X0210296Y0275071D01*
X0210165Y0275162D01*
X0210037Y0275257D01*
X0209911Y0275355D01*
X0209787Y0275456D01*
X0209667Y0275560D01*
X0209548Y0275667D01*
X0209433Y0275777D01*
X0209320Y0275890D01*
X0209210Y0276005D01*
X0209103Y0276124D01*
X0208999Y0276244D01*
X0208898Y0276368D01*
X0208800Y0276494D01*
X0208705Y0276622D01*
X0208614Y0276753D01*
X0208526Y0276886D01*
X0208441Y0277021D01*
X0208359Y0277158D01*
X0208281Y0277297D01*
X0208207Y0277438D01*
X0208136Y0277581D01*
X0208068Y0277726D01*
X0208004Y0277872D01*
X0207944Y0278020D01*
X0207888Y0278169D01*
X0207835Y0278319D01*
X0207786Y0278471D01*
X0207741Y0278624D01*
X0207700Y0278778D01*
X0207662Y0278933D01*
X0207629Y0279089D01*
X0207599Y0279246D01*
X0207573Y0279403D01*
X0207552Y0279561D01*
X0207534Y0279720D01*
X0207520Y0279879D01*
X0207510Y0280038D01*
X0207504Y0280197D01*
X0207502Y0280357D01*
D11*
X0193700Y0211773D02*
X0193700Y0208704D01*
X0193700Y0210239D02*
X0189096Y0210239D01*
X0190631Y0208704D01*
X0189096Y0207169D02*
X0192933Y0207169D01*
X0193700Y0206402D01*
X0193700Y0204867D01*
X0192933Y0204100D01*
X0189096Y0204100D01*
X0160433Y0164273D02*
X0161200Y0163506D01*
X0161200Y0161971D01*
X0160433Y0161204D01*
X0160433Y0159669D02*
X0161200Y0158902D01*
X0161200Y0157367D01*
X0160433Y0156600D01*
X0157363Y0156600D01*
X0156596Y0157367D01*
X0156596Y0158902D01*
X0157363Y0159669D01*
X0160433Y0159669D01*
X0161200Y0159669D02*
X0159665Y0158135D01*
X0157363Y0161204D02*
X0156596Y0161971D01*
X0156596Y0163506D01*
X0157363Y0164273D01*
X0158131Y0164273D01*
X0158898Y0163506D01*
X0159665Y0164273D01*
X0160433Y0164273D01*
X0158898Y0163506D02*
X0158898Y0162739D01*
X0149136Y0153821D02*
X0149136Y0138664D01*
X0142640Y0138664D01*
X0142247Y0139845D02*
X0142466Y0139929D01*
X0142683Y0140018D01*
X0142898Y0140113D01*
X0143111Y0140213D01*
X0143321Y0140318D01*
X0143528Y0140428D01*
X0143733Y0140543D01*
X0143935Y0140663D01*
X0144134Y0140788D01*
X0144330Y0140918D01*
X0144523Y0141052D01*
X0144712Y0141191D01*
X0144898Y0141335D01*
X0145080Y0141483D01*
X0145259Y0141636D01*
X0145434Y0141793D01*
X0145605Y0141954D01*
X0145772Y0142119D01*
X0145935Y0142288D01*
X0146093Y0142461D01*
X0146248Y0142638D01*
X0146398Y0142819D01*
X0146544Y0143003D01*
X0146685Y0143191D01*
X0146822Y0143382D01*
X0146954Y0143577D01*
X0147081Y0143774D01*
X0147203Y0143975D01*
X0147320Y0144178D01*
X0147433Y0144385D01*
X0147540Y0144594D01*
X0147642Y0144805D01*
X0147740Y0145019D01*
X0147831Y0145235D01*
X0147918Y0145454D01*
X0147999Y0145674D01*
X0148075Y0145896D01*
X0148145Y0146121D01*
X0148210Y0146346D01*
X0148270Y0146574D01*
X0148323Y0146802D01*
X0148372Y0147032D01*
X0148414Y0147263D01*
X0148451Y0147495D01*
X0148483Y0147728D01*
X0148508Y0147962D01*
X0148528Y0148196D01*
X0148543Y0148430D01*
X0148551Y0148665D01*
X0148554Y0148900D01*
X0148551Y0149135D01*
X0148543Y0149370D01*
X0148528Y0149604D01*
X0148508Y0149838D01*
X0148483Y0150072D01*
X0148451Y0150305D01*
X0148414Y0150537D01*
X0148372Y0150768D01*
X0148323Y0150998D01*
X0148270Y0151226D01*
X0148210Y0151454D01*
X0148145Y0151679D01*
X0148075Y0151904D01*
X0147999Y0152126D01*
X0147918Y0152346D01*
X0147831Y0152565D01*
X0147740Y0152781D01*
X0147642Y0152995D01*
X0147540Y0153206D01*
X0147433Y0153415D01*
X0147320Y0153622D01*
X0147203Y0153825D01*
X0147081Y0154026D01*
X0146954Y0154223D01*
X0146822Y0154418D01*
X0146685Y0154609D01*
X0146544Y0154797D01*
X0146398Y0154981D01*
X0146248Y0155162D01*
X0146093Y0155339D01*
X0145935Y0155512D01*
X0145772Y0155681D01*
X0145605Y0155846D01*
X0145434Y0156007D01*
X0145259Y0156164D01*
X0145080Y0156317D01*
X0144898Y0156465D01*
X0144712Y0156609D01*
X0144523Y0156748D01*
X0144330Y0156882D01*
X0144134Y0157012D01*
X0143935Y0157137D01*
X0143733Y0157257D01*
X0143528Y0157372D01*
X0143321Y0157482D01*
X0143111Y0157587D01*
X0142898Y0157687D01*
X0142683Y0157782D01*
X0142466Y0157871D01*
X0142247Y0157955D01*
X0142640Y0159136D02*
X0143821Y0159136D01*
X0149136Y0153821D01*
X0135553Y0157955D02*
X0135334Y0157871D01*
X0135117Y0157782D01*
X0134902Y0157687D01*
X0134689Y0157587D01*
X0134479Y0157482D01*
X0134272Y0157372D01*
X0134067Y0157257D01*
X0133865Y0157137D01*
X0133666Y0157012D01*
X0133470Y0156882D01*
X0133277Y0156748D01*
X0133088Y0156609D01*
X0132902Y0156465D01*
X0132720Y0156317D01*
X0132541Y0156164D01*
X0132366Y0156007D01*
X0132195Y0155846D01*
X0132028Y0155681D01*
X0131865Y0155512D01*
X0131707Y0155339D01*
X0131552Y0155162D01*
X0131402Y0154981D01*
X0131256Y0154797D01*
X0131115Y0154609D01*
X0130978Y0154418D01*
X0130846Y0154223D01*
X0130719Y0154026D01*
X0130597Y0153825D01*
X0130480Y0153622D01*
X0130367Y0153415D01*
X0130260Y0153206D01*
X0130158Y0152995D01*
X0130060Y0152781D01*
X0129969Y0152565D01*
X0129882Y0152346D01*
X0129801Y0152126D01*
X0129725Y0151904D01*
X0129655Y0151679D01*
X0129590Y0151454D01*
X0129530Y0151226D01*
X0129477Y0150998D01*
X0129428Y0150768D01*
X0129386Y0150537D01*
X0129349Y0150305D01*
X0129317Y0150072D01*
X0129292Y0149838D01*
X0129272Y0149604D01*
X0129257Y0149370D01*
X0129249Y0149135D01*
X0129246Y0148900D01*
X0129249Y0148665D01*
X0129257Y0148430D01*
X0129272Y0148196D01*
X0129292Y0147962D01*
X0129317Y0147728D01*
X0129349Y0147495D01*
X0129386Y0147263D01*
X0129428Y0147032D01*
X0129477Y0146802D01*
X0129530Y0146574D01*
X0129590Y0146346D01*
X0129655Y0146121D01*
X0129725Y0145896D01*
X0129801Y0145674D01*
X0129882Y0145454D01*
X0129969Y0145235D01*
X0130060Y0145019D01*
X0130158Y0144805D01*
X0130260Y0144594D01*
X0130367Y0144385D01*
X0130480Y0144178D01*
X0130597Y0143975D01*
X0130719Y0143774D01*
X0130846Y0143577D01*
X0130978Y0143382D01*
X0131115Y0143191D01*
X0131256Y0143003D01*
X0131402Y0142819D01*
X0131552Y0142638D01*
X0131707Y0142461D01*
X0131865Y0142288D01*
X0132028Y0142119D01*
X0132195Y0141954D01*
X0132366Y0141793D01*
X0132541Y0141636D01*
X0132720Y0141483D01*
X0132902Y0141335D01*
X0133088Y0141191D01*
X0133277Y0141052D01*
X0133470Y0140918D01*
X0133666Y0140788D01*
X0133865Y0140663D01*
X0134067Y0140543D01*
X0134272Y0140428D01*
X0134479Y0140318D01*
X0134689Y0140213D01*
X0134902Y0140113D01*
X0135117Y0140018D01*
X0135334Y0139929D01*
X0135553Y0139845D01*
X0135160Y0138664D02*
X0128664Y0138664D01*
X0128664Y0153821D01*
X0133979Y0159136D01*
X0135160Y0159136D01*
X0146398Y0126773D02*
X0146398Y0123704D01*
X0144096Y0126006D01*
X0148700Y0126006D01*
X0148700Y0122169D02*
X0147165Y0120635D01*
X0147933Y0122169D02*
X0144863Y0122169D01*
X0144096Y0121402D01*
X0144096Y0119867D01*
X0144863Y0119100D01*
X0147933Y0119100D01*
X0148700Y0119867D01*
X0148700Y0121402D01*
X0147933Y0122169D01*
X0173329Y0100309D02*
X0174530Y0100309D01*
X0173929Y0100309D02*
X0173929Y0097306D01*
X0173329Y0096706D01*
X0172728Y0096706D01*
X0172128Y0097306D01*
X0175811Y0098507D02*
X0178213Y0098507D01*
X0177612Y0096706D02*
X0177612Y0100309D01*
X0175811Y0098507D01*
X0217128Y0097306D02*
X0217728Y0096706D01*
X0218329Y0096706D01*
X0218929Y0097306D01*
X0218929Y0100309D01*
X0218329Y0100309D02*
X0219530Y0100309D01*
X0220811Y0099708D02*
X0221411Y0100309D01*
X0222612Y0100309D01*
X0223213Y0099708D01*
X0223213Y0099108D01*
X0222612Y0098507D01*
X0223213Y0097907D01*
X0223213Y0097306D01*
X0222612Y0096706D01*
X0221411Y0096706D01*
X0220811Y0097306D01*
X0222012Y0098507D02*
X0222612Y0098507D01*
X0134478Y0242840D02*
X0131409Y0242840D01*
X0131409Y0247444D01*
X0134478Y0247444D01*
X0132943Y0245142D02*
X0131409Y0245142D01*
X0129874Y0245909D02*
X0129874Y0246677D01*
X0129107Y0247444D01*
X0127572Y0247444D01*
X0126805Y0246677D01*
X0129874Y0245909D02*
X0126805Y0242840D01*
X0129874Y0242840D01*
X0125270Y0242840D02*
X0122201Y0242840D01*
X0123735Y0242840D02*
X0123735Y0247444D01*
X0122201Y0245909D01*
X0120666Y0245142D02*
X0117597Y0245142D01*
X0116062Y0245142D02*
X0115295Y0244375D01*
X0112993Y0244375D01*
X0111458Y0244375D02*
X0111458Y0243607D01*
X0110691Y0242840D01*
X0109156Y0242840D01*
X0108389Y0243607D01*
X0106854Y0242840D02*
X0103785Y0242840D01*
X0103785Y0247444D01*
X0106854Y0247444D01*
X0108389Y0246677D02*
X0108389Y0245909D01*
X0109156Y0245142D01*
X0110691Y0245142D01*
X0111458Y0244375D01*
X0112993Y0242840D02*
X0112993Y0247444D01*
X0115295Y0247444D01*
X0116062Y0246677D01*
X0116062Y0245142D01*
X0116553Y0239019D02*
X0115786Y0238252D01*
X0116553Y0239019D02*
X0118088Y0239019D01*
X0118855Y0238252D01*
X0118855Y0237484D01*
X0115786Y0234415D01*
X0118855Y0234415D01*
X0114251Y0234415D02*
X0111182Y0234415D01*
X0111182Y0239019D01*
X0109647Y0238252D02*
X0109647Y0235182D01*
X0108880Y0234415D01*
X0106578Y0234415D01*
X0106578Y0239019D01*
X0108880Y0239019D01*
X0109647Y0238252D01*
X0105320Y0245142D02*
X0103785Y0245142D01*
X0105043Y0239019D02*
X0105043Y0234415D01*
X0101974Y0234415D02*
X0101974Y0239019D01*
X0103509Y0237484D01*
X0105043Y0239019D01*
X0108389Y0246677D02*
X0109156Y0247444D01*
X0110691Y0247444D01*
X0111458Y0246677D01*
X0081321Y0159136D02*
X0086636Y0153821D01*
X0086636Y0138664D01*
X0080140Y0138664D01*
X0079747Y0139845D02*
X0079966Y0139929D01*
X0080183Y0140018D01*
X0080398Y0140113D01*
X0080611Y0140213D01*
X0080821Y0140318D01*
X0081028Y0140428D01*
X0081233Y0140543D01*
X0081435Y0140663D01*
X0081634Y0140788D01*
X0081830Y0140918D01*
X0082023Y0141052D01*
X0082212Y0141191D01*
X0082398Y0141335D01*
X0082580Y0141483D01*
X0082759Y0141636D01*
X0082934Y0141793D01*
X0083105Y0141954D01*
X0083272Y0142119D01*
X0083435Y0142288D01*
X0083593Y0142461D01*
X0083748Y0142638D01*
X0083898Y0142819D01*
X0084044Y0143003D01*
X0084185Y0143191D01*
X0084322Y0143382D01*
X0084454Y0143577D01*
X0084581Y0143774D01*
X0084703Y0143975D01*
X0084820Y0144178D01*
X0084933Y0144385D01*
X0085040Y0144594D01*
X0085142Y0144805D01*
X0085240Y0145019D01*
X0085331Y0145235D01*
X0085418Y0145454D01*
X0085499Y0145674D01*
X0085575Y0145896D01*
X0085645Y0146121D01*
X0085710Y0146346D01*
X0085770Y0146574D01*
X0085823Y0146802D01*
X0085872Y0147032D01*
X0085914Y0147263D01*
X0085951Y0147495D01*
X0085983Y0147728D01*
X0086008Y0147962D01*
X0086028Y0148196D01*
X0086043Y0148430D01*
X0086051Y0148665D01*
X0086054Y0148900D01*
X0086051Y0149135D01*
X0086043Y0149370D01*
X0086028Y0149604D01*
X0086008Y0149838D01*
X0085983Y0150072D01*
X0085951Y0150305D01*
X0085914Y0150537D01*
X0085872Y0150768D01*
X0085823Y0150998D01*
X0085770Y0151226D01*
X0085710Y0151454D01*
X0085645Y0151679D01*
X0085575Y0151904D01*
X0085499Y0152126D01*
X0085418Y0152346D01*
X0085331Y0152565D01*
X0085240Y0152781D01*
X0085142Y0152995D01*
X0085040Y0153206D01*
X0084933Y0153415D01*
X0084820Y0153622D01*
X0084703Y0153825D01*
X0084581Y0154026D01*
X0084454Y0154223D01*
X0084322Y0154418D01*
X0084185Y0154609D01*
X0084044Y0154797D01*
X0083898Y0154981D01*
X0083748Y0155162D01*
X0083593Y0155339D01*
X0083435Y0155512D01*
X0083272Y0155681D01*
X0083105Y0155846D01*
X0082934Y0156007D01*
X0082759Y0156164D01*
X0082580Y0156317D01*
X0082398Y0156465D01*
X0082212Y0156609D01*
X0082023Y0156748D01*
X0081830Y0156882D01*
X0081634Y0157012D01*
X0081435Y0157137D01*
X0081233Y0157257D01*
X0081028Y0157372D01*
X0080821Y0157482D01*
X0080611Y0157587D01*
X0080398Y0157687D01*
X0080183Y0157782D01*
X0079966Y0157871D01*
X0079747Y0157955D01*
X0080140Y0159136D02*
X0081321Y0159136D01*
X0072660Y0159136D02*
X0071479Y0159136D01*
X0066164Y0153821D01*
X0066164Y0138664D01*
X0072660Y0138664D01*
X0073053Y0139845D02*
X0072834Y0139929D01*
X0072617Y0140018D01*
X0072402Y0140113D01*
X0072189Y0140213D01*
X0071979Y0140318D01*
X0071772Y0140428D01*
X0071567Y0140543D01*
X0071365Y0140663D01*
X0071166Y0140788D01*
X0070970Y0140918D01*
X0070777Y0141052D01*
X0070588Y0141191D01*
X0070402Y0141335D01*
X0070220Y0141483D01*
X0070041Y0141636D01*
X0069866Y0141793D01*
X0069695Y0141954D01*
X0069528Y0142119D01*
X0069365Y0142288D01*
X0069207Y0142461D01*
X0069052Y0142638D01*
X0068902Y0142819D01*
X0068756Y0143003D01*
X0068615Y0143191D01*
X0068478Y0143382D01*
X0068346Y0143577D01*
X0068219Y0143774D01*
X0068097Y0143975D01*
X0067980Y0144178D01*
X0067867Y0144385D01*
X0067760Y0144594D01*
X0067658Y0144805D01*
X0067560Y0145019D01*
X0067469Y0145235D01*
X0067382Y0145454D01*
X0067301Y0145674D01*
X0067225Y0145896D01*
X0067155Y0146121D01*
X0067090Y0146346D01*
X0067030Y0146574D01*
X0066977Y0146802D01*
X0066928Y0147032D01*
X0066886Y0147263D01*
X0066849Y0147495D01*
X0066817Y0147728D01*
X0066792Y0147962D01*
X0066772Y0148196D01*
X0066757Y0148430D01*
X0066749Y0148665D01*
X0066746Y0148900D01*
X0066749Y0149135D01*
X0066757Y0149370D01*
X0066772Y0149604D01*
X0066792Y0149838D01*
X0066817Y0150072D01*
X0066849Y0150305D01*
X0066886Y0150537D01*
X0066928Y0150768D01*
X0066977Y0150998D01*
X0067030Y0151226D01*
X0067090Y0151454D01*
X0067155Y0151679D01*
X0067225Y0151904D01*
X0067301Y0152126D01*
X0067382Y0152346D01*
X0067469Y0152565D01*
X0067560Y0152781D01*
X0067658Y0152995D01*
X0067760Y0153206D01*
X0067867Y0153415D01*
X0067980Y0153622D01*
X0068097Y0153825D01*
X0068219Y0154026D01*
X0068346Y0154223D01*
X0068478Y0154418D01*
X0068615Y0154609D01*
X0068756Y0154797D01*
X0068902Y0154981D01*
X0069052Y0155162D01*
X0069207Y0155339D01*
X0069365Y0155512D01*
X0069528Y0155681D01*
X0069695Y0155846D01*
X0069866Y0156007D01*
X0070041Y0156164D01*
X0070220Y0156317D01*
X0070402Y0156465D01*
X0070588Y0156609D01*
X0070777Y0156748D01*
X0070970Y0156882D01*
X0071166Y0157012D01*
X0071365Y0157137D01*
X0071567Y0157257D01*
X0071772Y0157372D01*
X0071979Y0157482D01*
X0072189Y0157587D01*
X0072402Y0157687D01*
X0072617Y0157782D01*
X0072834Y0157871D01*
X0073053Y0157955D01*
X0097591Y0112109D02*
X0102709Y0112109D01*
X0102709Y0108762D01*
X0102709Y0104038D02*
X0102709Y0100691D01*
X0097591Y0100691D01*
X0097591Y0105022D02*
X0097591Y0107778D01*
X0107128Y0097306D02*
X0107728Y0096706D01*
X0108329Y0096706D01*
X0108929Y0097306D01*
X0108929Y0100309D01*
X0108329Y0100309D02*
X0109530Y0100309D01*
X0110811Y0100309D02*
X0110811Y0098507D01*
X0112012Y0099108D01*
X0112612Y0099108D01*
X0113213Y0098507D01*
X0113213Y0097306D01*
X0112612Y0096706D01*
X0111411Y0096706D01*
X0110811Y0097306D01*
X0110811Y0100309D02*
X0113213Y0100309D01*
D12*
X0094993Y0129225D02*
X0093858Y0129225D01*
X0094426Y0129225D02*
X0094426Y0130926D01*
X0093858Y0130359D01*
X0093151Y0130643D02*
X0093151Y0129509D01*
X0092868Y0129225D01*
X0092017Y0129225D01*
X0092017Y0130926D01*
X0092868Y0130926D01*
X0093151Y0130643D01*
X0065423Y0139431D02*
X0065423Y0140665D01*
X0064806Y0141283D01*
X0065423Y0142497D02*
X0065423Y0144966D01*
X0065423Y0143731D02*
X0061720Y0143731D01*
X0062954Y0142497D01*
X0062337Y0141283D02*
X0061720Y0140665D01*
X0061720Y0139431D01*
X0062337Y0138814D01*
X0064806Y0138814D01*
X0065423Y0139431D01*
X0124220Y0139431D02*
X0124837Y0138814D01*
X0127306Y0138814D01*
X0127923Y0139431D01*
X0127923Y0140665D01*
X0127306Y0141283D01*
X0127923Y0142497D02*
X0125454Y0144966D01*
X0124837Y0144966D01*
X0124220Y0144348D01*
X0124220Y0143114D01*
X0124837Y0142497D01*
X0124837Y0141283D02*
X0124220Y0140665D01*
X0124220Y0139431D01*
X0127923Y0142497D02*
X0127923Y0144966D01*
D13*
X0126199Y0147085D02*
X0101601Y0147085D01*
X0101601Y0160707D01*
X0126199Y0160707D01*
X0126199Y0147085D01*
X0116033Y0120535D02*
X0114899Y0120535D01*
X0114331Y0119968D01*
X0114331Y0119401D01*
X0114899Y0118267D01*
X0113197Y0118267D01*
X0113197Y0120535D01*
X0116033Y0120535D02*
X0116600Y0119968D01*
X0116600Y0118834D01*
X0116033Y0118267D01*
X0116033Y0116852D02*
X0113764Y0116852D01*
X0113197Y0116285D01*
X0113197Y0114584D01*
X0116600Y0114584D01*
X0116600Y0116285D01*
X0116033Y0116852D01*
X0122401Y0106103D02*
X0121834Y0105536D01*
X0121834Y0103267D01*
X0122401Y0102700D01*
X0123535Y0102700D01*
X0124102Y0103267D01*
X0125517Y0104401D02*
X0127785Y0104401D01*
X0127218Y0102700D02*
X0127218Y0106103D01*
X0125517Y0104401D01*
X0124102Y0105536D02*
X0123535Y0106103D01*
X0122401Y0106103D01*
X0152697Y0155450D02*
X0152697Y0157151D01*
X0153264Y0157719D01*
X0154399Y0157719D01*
X0154966Y0157151D01*
X0154966Y0155450D01*
X0156100Y0155450D02*
X0152697Y0155450D01*
X0154966Y0156584D02*
X0156100Y0157719D01*
X0156100Y0159133D02*
X0156100Y0161402D01*
X0156100Y0160267D02*
X0152697Y0160267D01*
X0153831Y0159133D01*
X0153831Y0162816D02*
X0152697Y0163951D01*
X0156100Y0163951D01*
X0156100Y0165085D02*
X0156100Y0162816D01*
X0135152Y0182267D02*
X0134585Y0181700D01*
X0133450Y0181700D01*
X0132883Y0182267D01*
X0132883Y0183401D02*
X0134017Y0183969D01*
X0134585Y0183969D01*
X0135152Y0183401D01*
X0135152Y0182267D01*
X0132883Y0183401D02*
X0132883Y0185103D01*
X0135152Y0185103D01*
X0131469Y0184536D02*
X0130901Y0185103D01*
X0129767Y0185103D01*
X0129200Y0184536D01*
X0129200Y0182267D01*
X0129767Y0181700D01*
X0130901Y0181700D01*
X0131469Y0182267D01*
X0166014Y0131535D02*
X0165447Y0130968D01*
X0165447Y0129834D01*
X0166014Y0129267D01*
X0168283Y0129267D01*
X0166014Y0131535D01*
X0168283Y0131535D01*
X0168850Y0130968D01*
X0168850Y0129834D01*
X0168283Y0129267D01*
X0168850Y0127852D02*
X0168850Y0125584D01*
X0168850Y0126718D02*
X0165447Y0126718D01*
X0166581Y0125584D01*
X0166014Y0124169D02*
X0167149Y0124169D01*
X0167716Y0123602D01*
X0167716Y0121901D01*
X0167716Y0123035D02*
X0168850Y0124169D01*
X0168850Y0121901D02*
X0165447Y0121901D01*
X0165447Y0123602D01*
X0166014Y0124169D01*
X0168900Y0107900D02*
X0158900Y0107900D01*
X0158840Y0107898D01*
X0158779Y0107893D01*
X0158720Y0107884D01*
X0158661Y0107871D01*
X0158602Y0107855D01*
X0158545Y0107835D01*
X0158490Y0107812D01*
X0158435Y0107785D01*
X0158383Y0107756D01*
X0158332Y0107723D01*
X0158283Y0107687D01*
X0158237Y0107649D01*
X0158193Y0107607D01*
X0158151Y0107563D01*
X0158113Y0107517D01*
X0158077Y0107468D01*
X0158044Y0107417D01*
X0158015Y0107365D01*
X0157988Y0107310D01*
X0157965Y0107255D01*
X0157945Y0107198D01*
X0157929Y0107139D01*
X0157916Y0107080D01*
X0157907Y0107021D01*
X0157902Y0106960D01*
X0157900Y0106900D01*
X0157900Y0100900D01*
X0157902Y0100840D01*
X0157907Y0100779D01*
X0157916Y0100720D01*
X0157929Y0100661D01*
X0157945Y0100602D01*
X0157965Y0100545D01*
X0157988Y0100490D01*
X0158015Y0100435D01*
X0158044Y0100383D01*
X0158077Y0100332D01*
X0158113Y0100283D01*
X0158151Y0100237D01*
X0158193Y0100193D01*
X0158237Y0100151D01*
X0158283Y0100113D01*
X0158332Y0100077D01*
X0158383Y0100044D01*
X0158435Y0100015D01*
X0158490Y0099988D01*
X0158545Y0099965D01*
X0158602Y0099945D01*
X0158661Y0099929D01*
X0158720Y0099916D01*
X0158779Y0099907D01*
X0158840Y0099902D01*
X0158900Y0099900D01*
X0168900Y0099900D01*
X0168960Y0099902D01*
X0169021Y0099907D01*
X0169080Y0099916D01*
X0169139Y0099929D01*
X0169198Y0099945D01*
X0169255Y0099965D01*
X0169310Y0099988D01*
X0169365Y0100015D01*
X0169417Y0100044D01*
X0169468Y0100077D01*
X0169517Y0100113D01*
X0169563Y0100151D01*
X0169607Y0100193D01*
X0169649Y0100237D01*
X0169687Y0100283D01*
X0169723Y0100332D01*
X0169756Y0100383D01*
X0169785Y0100435D01*
X0169812Y0100490D01*
X0169835Y0100545D01*
X0169855Y0100602D01*
X0169871Y0100661D01*
X0169884Y0100720D01*
X0169893Y0100779D01*
X0169898Y0100840D01*
X0169900Y0100900D01*
X0169900Y0106900D01*
X0169898Y0106960D01*
X0169893Y0107021D01*
X0169884Y0107080D01*
X0169871Y0107139D01*
X0169855Y0107198D01*
X0169835Y0107255D01*
X0169812Y0107310D01*
X0169785Y0107365D01*
X0169756Y0107417D01*
X0169723Y0107468D01*
X0169687Y0107517D01*
X0169649Y0107563D01*
X0169607Y0107607D01*
X0169563Y0107649D01*
X0169517Y0107687D01*
X0169468Y0107723D01*
X0169417Y0107756D01*
X0169365Y0107785D01*
X0169310Y0107812D01*
X0169255Y0107835D01*
X0169198Y0107855D01*
X0169139Y0107871D01*
X0169080Y0107884D01*
X0169021Y0107893D01*
X0168960Y0107898D01*
X0168900Y0107900D01*
X0202900Y0106900D02*
X0202900Y0100900D01*
X0202902Y0100840D01*
X0202907Y0100779D01*
X0202916Y0100720D01*
X0202929Y0100661D01*
X0202945Y0100602D01*
X0202965Y0100545D01*
X0202988Y0100490D01*
X0203015Y0100435D01*
X0203044Y0100383D01*
X0203077Y0100332D01*
X0203113Y0100283D01*
X0203151Y0100237D01*
X0203193Y0100193D01*
X0203237Y0100151D01*
X0203283Y0100113D01*
X0203332Y0100077D01*
X0203383Y0100044D01*
X0203435Y0100015D01*
X0203490Y0099988D01*
X0203545Y0099965D01*
X0203602Y0099945D01*
X0203661Y0099929D01*
X0203720Y0099916D01*
X0203779Y0099907D01*
X0203840Y0099902D01*
X0203900Y0099900D01*
X0213900Y0099900D01*
X0213960Y0099902D01*
X0214021Y0099907D01*
X0214080Y0099916D01*
X0214139Y0099929D01*
X0214198Y0099945D01*
X0214255Y0099965D01*
X0214310Y0099988D01*
X0214365Y0100015D01*
X0214417Y0100044D01*
X0214468Y0100077D01*
X0214517Y0100113D01*
X0214563Y0100151D01*
X0214607Y0100193D01*
X0214649Y0100237D01*
X0214687Y0100283D01*
X0214723Y0100332D01*
X0214756Y0100383D01*
X0214785Y0100435D01*
X0214812Y0100490D01*
X0214835Y0100545D01*
X0214855Y0100602D01*
X0214871Y0100661D01*
X0214884Y0100720D01*
X0214893Y0100779D01*
X0214898Y0100840D01*
X0214900Y0100900D01*
X0214900Y0106900D01*
X0214898Y0106960D01*
X0214893Y0107021D01*
X0214884Y0107080D01*
X0214871Y0107139D01*
X0214855Y0107198D01*
X0214835Y0107255D01*
X0214812Y0107310D01*
X0214785Y0107365D01*
X0214756Y0107417D01*
X0214723Y0107468D01*
X0214687Y0107517D01*
X0214649Y0107563D01*
X0214607Y0107607D01*
X0214563Y0107649D01*
X0214517Y0107687D01*
X0214468Y0107723D01*
X0214417Y0107756D01*
X0214365Y0107785D01*
X0214310Y0107812D01*
X0214255Y0107835D01*
X0214198Y0107855D01*
X0214139Y0107871D01*
X0214080Y0107884D01*
X0214021Y0107893D01*
X0213960Y0107898D01*
X0213900Y0107900D01*
X0203900Y0107900D01*
X0203840Y0107898D01*
X0203779Y0107893D01*
X0203720Y0107884D01*
X0203661Y0107871D01*
X0203602Y0107855D01*
X0203545Y0107835D01*
X0203490Y0107812D01*
X0203435Y0107785D01*
X0203383Y0107756D01*
X0203332Y0107723D01*
X0203283Y0107687D01*
X0203237Y0107649D01*
X0203193Y0107607D01*
X0203151Y0107563D01*
X0203113Y0107517D01*
X0203077Y0107468D01*
X0203044Y0107417D01*
X0203015Y0107365D01*
X0202988Y0107310D01*
X0202965Y0107255D01*
X0202945Y0107198D01*
X0202929Y0107139D01*
X0202916Y0107080D01*
X0202907Y0107021D01*
X0202902Y0106960D01*
X0202900Y0106900D01*
X0230197Y0099518D02*
X0230197Y0098383D01*
X0230764Y0097816D01*
X0231331Y0097816D01*
X0231899Y0098383D01*
X0231899Y0099518D01*
X0232466Y0100085D01*
X0233033Y0100085D01*
X0233600Y0099518D01*
X0233600Y0098383D01*
X0233033Y0097816D01*
X0232466Y0097816D01*
X0231899Y0098383D01*
X0231899Y0099518D02*
X0231331Y0100085D01*
X0230764Y0100085D01*
X0230197Y0099518D01*
X0230197Y0095267D02*
X0233600Y0095267D01*
X0233600Y0094133D02*
X0233600Y0096402D01*
X0231331Y0094133D02*
X0230197Y0095267D01*
X0230764Y0092719D02*
X0231899Y0092719D01*
X0232466Y0092151D01*
X0232466Y0090450D01*
X0233600Y0090450D02*
X0230197Y0090450D01*
X0230197Y0092151D01*
X0230764Y0092719D01*
X0232466Y0091584D02*
X0233600Y0092719D01*
X0083335Y0246700D02*
X0082200Y0246700D01*
X0081633Y0247267D01*
X0081633Y0247834D01*
X0082200Y0248401D01*
X0083335Y0248401D01*
X0083902Y0247834D01*
X0083902Y0247267D01*
X0083335Y0246700D01*
X0083335Y0248401D02*
X0083902Y0248969D01*
X0083902Y0249536D01*
X0083335Y0250103D01*
X0082200Y0250103D01*
X0081633Y0249536D01*
X0081633Y0248969D01*
X0082200Y0248401D01*
X0080219Y0248401D02*
X0080219Y0249536D01*
X0079651Y0250103D01*
X0077950Y0250103D01*
X0077950Y0246700D01*
X0077950Y0247834D02*
X0079651Y0247834D01*
X0080219Y0248401D01*
X0079084Y0247834D02*
X0080219Y0246700D01*
X0080219Y0261700D02*
X0079084Y0262834D01*
X0079651Y0262834D02*
X0077950Y0262834D01*
X0077950Y0261700D02*
X0077950Y0265103D01*
X0079651Y0265103D01*
X0080219Y0264536D01*
X0080219Y0263401D01*
X0079651Y0262834D01*
X0081633Y0262267D02*
X0082200Y0261700D01*
X0083335Y0261700D01*
X0083902Y0262267D01*
X0083902Y0264536D01*
X0083335Y0265103D01*
X0082200Y0265103D01*
X0081633Y0264536D01*
X0081633Y0263969D01*
X0082200Y0263401D01*
X0083902Y0263401D01*
X0065899Y0111535D02*
X0065899Y0109267D01*
X0064197Y0110968D01*
X0067600Y0110968D01*
X0067600Y0107852D02*
X0066466Y0106718D01*
X0066466Y0107285D02*
X0066466Y0105584D01*
X0067600Y0105584D02*
X0064197Y0105584D01*
X0064197Y0107285D01*
X0064764Y0107852D01*
X0065899Y0107852D01*
X0066466Y0107285D01*
X0068275Y0106400D02*
X0069525Y0106400D01*
X0072025Y0101400D02*
X0074525Y0101400D01*
X0074525Y0104525D01*
X0065775Y0101400D02*
X0063275Y0101400D01*
X0063275Y0104525D01*
D14*
X0073398Y0098639D02*
X0073398Y0097805D01*
X0073815Y0097388D01*
X0073815Y0096293D02*
X0075483Y0096293D01*
X0075900Y0095876D01*
X0075900Y0095042D01*
X0075483Y0094625D01*
X0073815Y0094625D01*
X0073398Y0095042D01*
X0073398Y0095876D01*
X0073815Y0096293D01*
X0075066Y0095459D02*
X0075900Y0096293D01*
X0075900Y0097388D02*
X0074232Y0099056D01*
X0073815Y0099056D01*
X0073398Y0098639D01*
X0075900Y0099056D02*
X0075900Y0097388D01*
X0073888Y0113650D02*
X0073888Y0114067D01*
X0075556Y0115735D01*
X0075556Y0116152D01*
X0073888Y0116152D01*
X0072793Y0115735D02*
X0072376Y0116152D01*
X0071542Y0116152D01*
X0071125Y0115735D01*
X0071125Y0114067D01*
X0071542Y0113650D01*
X0072376Y0113650D01*
X0072793Y0114067D01*
X0081125Y0129900D02*
X0081125Y0132402D01*
X0082376Y0132402D01*
X0082793Y0131985D01*
X0082793Y0131151D01*
X0082376Y0130734D01*
X0081125Y0130734D01*
X0081959Y0130734D02*
X0082793Y0129900D01*
X0083888Y0130317D02*
X0084305Y0129900D01*
X0085139Y0129900D01*
X0085556Y0130317D01*
X0085556Y0130734D01*
X0085139Y0131151D01*
X0084722Y0131151D01*
X0085139Y0131151D02*
X0085556Y0131568D01*
X0085556Y0131985D01*
X0085139Y0132402D01*
X0084305Y0132402D01*
X0083888Y0131985D01*
X0091650Y0138942D02*
X0092067Y0138525D01*
X0092901Y0138525D01*
X0093318Y0138942D01*
X0094412Y0138942D02*
X0094829Y0138525D01*
X0095663Y0138525D01*
X0096080Y0138942D01*
X0096080Y0139359D01*
X0095663Y0139776D01*
X0094412Y0139776D01*
X0094412Y0138942D01*
X0094412Y0139776D02*
X0095246Y0140610D01*
X0096080Y0141027D01*
X0093318Y0140610D02*
X0092901Y0141027D01*
X0092067Y0141027D01*
X0091650Y0140610D01*
X0091650Y0138942D01*
X0101125Y0132402D02*
X0101125Y0129900D01*
X0101125Y0130734D02*
X0102376Y0130734D01*
X0102793Y0131151D01*
X0102793Y0131985D01*
X0102376Y0132402D01*
X0101125Y0132402D01*
X0101959Y0130734D02*
X0102793Y0129900D01*
X0103888Y0129900D02*
X0105556Y0131568D01*
X0105556Y0131985D01*
X0105139Y0132402D01*
X0104305Y0132402D01*
X0103888Y0131985D01*
X0103888Y0129900D02*
X0105556Y0129900D01*
X0111873Y0132150D02*
X0113374Y0132150D01*
X0112623Y0132150D02*
X0112623Y0136654D01*
X0111873Y0136654D02*
X0113374Y0136654D01*
X0114942Y0135903D02*
X0114942Y0132901D01*
X0115693Y0132150D01*
X0117194Y0132150D01*
X0117945Y0132901D01*
X0119546Y0132150D02*
X0122549Y0132150D01*
X0121047Y0132150D02*
X0121047Y0136654D01*
X0119546Y0135153D01*
X0117945Y0135903D02*
X0117194Y0136654D01*
X0115693Y0136654D01*
X0114942Y0135903D01*
X0110449Y0107480D02*
X0110449Y0105812D01*
X0110449Y0106646D02*
X0107947Y0106646D01*
X0108781Y0105812D01*
X0108364Y0104718D02*
X0110032Y0104718D01*
X0110449Y0104301D01*
X0110449Y0103467D01*
X0110032Y0103049D01*
X0108364Y0103049D01*
X0107947Y0103467D01*
X0107947Y0104301D01*
X0108364Y0104718D01*
X0109615Y0103884D02*
X0110449Y0104718D01*
X0084097Y0077402D02*
X0084097Y0074900D01*
X0083263Y0074900D02*
X0084931Y0074900D01*
X0083263Y0076568D02*
X0084097Y0077402D01*
X0082168Y0076985D02*
X0082168Y0076151D01*
X0081751Y0075734D01*
X0080500Y0075734D01*
X0080500Y0074900D02*
X0080500Y0077402D01*
X0081751Y0077402D01*
X0082168Y0076985D01*
X0081334Y0075734D02*
X0082168Y0074900D01*
X0075556Y0075942D02*
X0075139Y0075525D01*
X0074305Y0075525D01*
X0073888Y0075942D01*
X0073888Y0076776D02*
X0074722Y0077193D01*
X0075139Y0077193D01*
X0075556Y0076776D01*
X0075556Y0075942D01*
X0073888Y0076776D02*
X0073888Y0078027D01*
X0075556Y0078027D01*
X0072793Y0077610D02*
X0072793Y0076776D01*
X0072376Y0076359D01*
X0071125Y0076359D01*
X0071125Y0075525D02*
X0071125Y0078027D01*
X0072376Y0078027D01*
X0072793Y0077610D01*
X0071959Y0076359D02*
X0072793Y0075525D01*
X0072494Y0056454D02*
X0070242Y0056454D01*
X0070242Y0051950D01*
X0070242Y0053451D02*
X0072494Y0053451D01*
X0073245Y0054202D01*
X0073245Y0055703D01*
X0072494Y0056454D01*
X0074846Y0056454D02*
X0074846Y0054202D01*
X0076347Y0054953D01*
X0077098Y0054953D01*
X0077849Y0054202D01*
X0077849Y0052701D01*
X0077098Y0051950D01*
X0075597Y0051950D01*
X0074846Y0052701D01*
X0074846Y0056454D02*
X0077849Y0056454D01*
X0068641Y0056454D02*
X0067139Y0056454D01*
X0067890Y0056454D02*
X0067890Y0052701D01*
X0067139Y0051950D01*
X0066389Y0051950D01*
X0065638Y0052701D01*
X0072758Y0190042D02*
X0055042Y0190042D01*
X0055042Y0207758D01*
X0072758Y0207758D01*
X0072758Y0190042D01*
X0058979Y0198900D02*
X0058981Y0199040D01*
X0058987Y0199180D01*
X0058997Y0199319D01*
X0059011Y0199458D01*
X0059029Y0199597D01*
X0059050Y0199735D01*
X0059076Y0199873D01*
X0059106Y0200010D01*
X0059139Y0200145D01*
X0059177Y0200280D01*
X0059218Y0200414D01*
X0059263Y0200547D01*
X0059311Y0200678D01*
X0059364Y0200807D01*
X0059420Y0200936D01*
X0059479Y0201062D01*
X0059543Y0201187D01*
X0059609Y0201310D01*
X0059680Y0201431D01*
X0059753Y0201550D01*
X0059830Y0201667D01*
X0059911Y0201781D01*
X0059994Y0201893D01*
X0060081Y0202003D01*
X0060171Y0202111D01*
X0060263Y0202215D01*
X0060359Y0202317D01*
X0060458Y0202417D01*
X0060559Y0202513D01*
X0060663Y0202607D01*
X0060770Y0202697D01*
X0060879Y0202784D01*
X0060991Y0202869D01*
X0061105Y0202950D01*
X0061221Y0203028D01*
X0061339Y0203102D01*
X0061460Y0203173D01*
X0061582Y0203241D01*
X0061707Y0203305D01*
X0061833Y0203366D01*
X0061960Y0203423D01*
X0062090Y0203476D01*
X0062221Y0203526D01*
X0062353Y0203571D01*
X0062486Y0203614D01*
X0062621Y0203652D01*
X0062756Y0203686D01*
X0062893Y0203717D01*
X0063030Y0203744D01*
X0063168Y0203766D01*
X0063307Y0203785D01*
X0063446Y0203800D01*
X0063585Y0203811D01*
X0063725Y0203818D01*
X0063865Y0203821D01*
X0064005Y0203820D01*
X0064145Y0203815D01*
X0064284Y0203806D01*
X0064424Y0203793D01*
X0064563Y0203776D01*
X0064701Y0203755D01*
X0064839Y0203731D01*
X0064976Y0203702D01*
X0065112Y0203670D01*
X0065247Y0203633D01*
X0065381Y0203593D01*
X0065514Y0203549D01*
X0065645Y0203501D01*
X0065775Y0203450D01*
X0065904Y0203395D01*
X0066031Y0203336D01*
X0066156Y0203273D01*
X0066279Y0203208D01*
X0066401Y0203138D01*
X0066520Y0203065D01*
X0066638Y0202989D01*
X0066753Y0202910D01*
X0066866Y0202827D01*
X0066976Y0202741D01*
X0067084Y0202652D01*
X0067189Y0202560D01*
X0067292Y0202465D01*
X0067392Y0202367D01*
X0067489Y0202267D01*
X0067583Y0202163D01*
X0067675Y0202057D01*
X0067763Y0201949D01*
X0067848Y0201838D01*
X0067930Y0201724D01*
X0068009Y0201608D01*
X0068084Y0201491D01*
X0068156Y0201371D01*
X0068224Y0201249D01*
X0068289Y0201125D01*
X0068351Y0200999D01*
X0068409Y0200872D01*
X0068463Y0200743D01*
X0068514Y0200612D01*
X0068560Y0200480D01*
X0068603Y0200347D01*
X0068643Y0200213D01*
X0068678Y0200078D01*
X0068710Y0199941D01*
X0068737Y0199804D01*
X0068761Y0199666D01*
X0068781Y0199528D01*
X0068797Y0199389D01*
X0068809Y0199249D01*
X0068817Y0199110D01*
X0068821Y0198970D01*
X0068821Y0198830D01*
X0068817Y0198690D01*
X0068809Y0198551D01*
X0068797Y0198411D01*
X0068781Y0198272D01*
X0068761Y0198134D01*
X0068737Y0197996D01*
X0068710Y0197859D01*
X0068678Y0197722D01*
X0068643Y0197587D01*
X0068603Y0197453D01*
X0068560Y0197320D01*
X0068514Y0197188D01*
X0068463Y0197057D01*
X0068409Y0196928D01*
X0068351Y0196801D01*
X0068289Y0196675D01*
X0068224Y0196551D01*
X0068156Y0196429D01*
X0068084Y0196309D01*
X0068009Y0196192D01*
X0067930Y0196076D01*
X0067848Y0195962D01*
X0067763Y0195851D01*
X0067675Y0195743D01*
X0067583Y0195637D01*
X0067489Y0195533D01*
X0067392Y0195433D01*
X0067292Y0195335D01*
X0067189Y0195240D01*
X0067084Y0195148D01*
X0066976Y0195059D01*
X0066866Y0194973D01*
X0066753Y0194890D01*
X0066638Y0194811D01*
X0066520Y0194735D01*
X0066401Y0194662D01*
X0066279Y0194592D01*
X0066156Y0194527D01*
X0066031Y0194464D01*
X0065904Y0194405D01*
X0065775Y0194350D01*
X0065645Y0194299D01*
X0065514Y0194251D01*
X0065381Y0194207D01*
X0065247Y0194167D01*
X0065112Y0194130D01*
X0064976Y0194098D01*
X0064839Y0194069D01*
X0064701Y0194045D01*
X0064563Y0194024D01*
X0064424Y0194007D01*
X0064284Y0193994D01*
X0064145Y0193985D01*
X0064005Y0193980D01*
X0063865Y0193979D01*
X0063725Y0193982D01*
X0063585Y0193989D01*
X0063446Y0194000D01*
X0063307Y0194015D01*
X0063168Y0194034D01*
X0063030Y0194056D01*
X0062893Y0194083D01*
X0062756Y0194114D01*
X0062621Y0194148D01*
X0062486Y0194186D01*
X0062353Y0194229D01*
X0062221Y0194274D01*
X0062090Y0194324D01*
X0061960Y0194377D01*
X0061833Y0194434D01*
X0061707Y0194495D01*
X0061582Y0194559D01*
X0061460Y0194627D01*
X0061339Y0194698D01*
X0061221Y0194772D01*
X0061105Y0194850D01*
X0060991Y0194931D01*
X0060879Y0195016D01*
X0060770Y0195103D01*
X0060663Y0195193D01*
X0060559Y0195287D01*
X0060458Y0195383D01*
X0060359Y0195483D01*
X0060263Y0195585D01*
X0060171Y0195689D01*
X0060081Y0195797D01*
X0059994Y0195907D01*
X0059911Y0196019D01*
X0059830Y0196133D01*
X0059753Y0196250D01*
X0059680Y0196369D01*
X0059609Y0196490D01*
X0059543Y0196613D01*
X0059479Y0196738D01*
X0059420Y0196864D01*
X0059364Y0196993D01*
X0059311Y0197122D01*
X0059263Y0197253D01*
X0059218Y0197386D01*
X0059177Y0197520D01*
X0059139Y0197655D01*
X0059106Y0197790D01*
X0059076Y0197927D01*
X0059050Y0198065D01*
X0059029Y0198203D01*
X0059011Y0198342D01*
X0058997Y0198481D01*
X0058987Y0198620D01*
X0058981Y0198760D01*
X0058979Y0198900D01*
X0083900Y0198900D02*
X0147680Y0198900D01*
X0147680Y0293782D01*
X0083900Y0293782D01*
X0083900Y0198900D01*
X0159146Y0217838D02*
X0159146Y0220090D01*
X0159897Y0220841D01*
X0161398Y0220841D01*
X0162149Y0220090D01*
X0162149Y0217838D01*
X0163650Y0217838D02*
X0159146Y0217838D01*
X0162149Y0219339D02*
X0163650Y0220841D01*
X0163650Y0222442D02*
X0159146Y0222442D01*
X0163650Y0225445D01*
X0159146Y0225445D01*
X0159897Y0227046D02*
X0159146Y0227797D01*
X0159146Y0229298D01*
X0159897Y0230049D01*
X0160647Y0230049D01*
X0161398Y0229298D01*
X0162149Y0230049D01*
X0162899Y0230049D01*
X0163650Y0229298D01*
X0163650Y0227797D01*
X0162899Y0227046D01*
X0161398Y0228547D02*
X0161398Y0229298D01*
X0162149Y0242838D02*
X0162149Y0245090D01*
X0161398Y0245841D01*
X0159897Y0245841D01*
X0159146Y0245090D01*
X0159146Y0242838D01*
X0163650Y0242838D01*
X0162149Y0244339D02*
X0163650Y0245841D01*
X0163650Y0247442D02*
X0159146Y0247442D01*
X0163650Y0250445D01*
X0159146Y0250445D01*
X0161398Y0252046D02*
X0159897Y0253547D01*
X0159146Y0255049D01*
X0161398Y0254298D02*
X0161398Y0252046D01*
X0162899Y0252046D01*
X0163650Y0252797D01*
X0163650Y0254298D01*
X0162899Y0255049D01*
X0162149Y0255049D01*
X0161398Y0254298D01*
X0184176Y0272483D02*
X0193231Y0290593D01*
X0234569Y0290593D01*
X0243624Y0272483D01*
X0184176Y0272483D01*
X0184176Y0193743D01*
X0243624Y0193743D01*
X0243624Y0272483D01*
X0228900Y0193900D02*
X0228900Y0188900D01*
X0218900Y0188900D02*
X0218900Y0193900D01*
X0208900Y0193900D02*
X0208900Y0188900D01*
X0198900Y0188900D02*
X0198900Y0193900D01*
X0183804Y0136060D02*
X0183804Y0133058D01*
X0181552Y0135310D01*
X0186056Y0135310D01*
X0183804Y0131456D02*
X0184555Y0130706D01*
X0184555Y0128454D01*
X0186056Y0128454D02*
X0181552Y0128454D01*
X0181552Y0130706D01*
X0182303Y0131456D01*
X0183804Y0131456D01*
X0181552Y0126853D02*
X0181552Y0125351D01*
X0181552Y0126102D02*
X0185306Y0126102D01*
X0186056Y0125351D01*
X0186056Y0124601D01*
X0185306Y0123850D01*
D15*
X0138900Y0111400D03*
X0118900Y0176400D03*
D16*
X0093900Y0148900D03*
X0073900Y0123900D03*
D17*
X0081341Y0107443D02*
X0081341Y0101931D01*
X0086459Y0101931D01*
X0086459Y0107443D01*
X0086459Y0101931D02*
X0086459Y0100357D01*
X0081341Y0100357D02*
X0081341Y0101931D01*
X0091341Y0120357D02*
X0091341Y0125869D01*
X0096459Y0125869D01*
X0096459Y0120357D01*
X0096459Y0125869D02*
X0096459Y0127443D01*
X0091341Y0127443D02*
X0091341Y0125869D01*
X0111941Y0127955D02*
X0111941Y0109845D01*
X0113713Y0109845D01*
X0121587Y0109845D02*
X0123359Y0109845D01*
X0123359Y0127955D01*
X0121587Y0127955D01*
X0121587Y0122837D02*
X0113713Y0122837D01*
X0113713Y0127955D02*
X0111941Y0127955D01*
X0076400Y0068900D02*
X0071400Y0068900D01*
X0068900Y0066400D01*
X0066400Y0068900D01*
X0061400Y0068900D01*
X0058900Y0066400D01*
X0058900Y0061400D01*
X0061400Y0058900D01*
X0066400Y0058900D01*
X0068900Y0061400D01*
X0071400Y0058900D01*
X0076400Y0058900D01*
X0078900Y0061400D01*
X0078900Y0066400D01*
X0076400Y0068900D01*
X0173191Y0132345D02*
X0173191Y0150455D01*
X0174963Y0150455D01*
X0174963Y0145337D02*
X0182837Y0145337D01*
X0182837Y0150455D02*
X0184609Y0150455D01*
X0184609Y0132345D01*
X0182837Y0132345D01*
X0188506Y0131400D02*
X0188506Y0126400D01*
X0191006Y0123900D01*
X0188506Y0121400D01*
X0188506Y0116400D01*
X0191006Y0113900D01*
X0196006Y0113900D01*
X0198506Y0116400D01*
X0198506Y0121400D01*
X0196006Y0123900D01*
X0198506Y0126400D01*
X0198506Y0131400D01*
X0196006Y0133900D01*
X0198506Y0136400D01*
X0198506Y0141400D01*
X0196006Y0143900D01*
X0198506Y0146400D01*
X0198506Y0151400D01*
X0196006Y0153900D01*
X0198506Y0156400D01*
X0198506Y0161400D01*
X0196006Y0163900D01*
X0198506Y0166400D01*
X0198506Y0171400D01*
X0196006Y0173900D01*
X0191006Y0173900D01*
X0188506Y0171400D01*
X0188506Y0166400D01*
X0191006Y0163900D01*
X0188506Y0161400D01*
X0188506Y0156400D01*
X0191006Y0153900D01*
X0188506Y0151400D01*
X0188506Y0146400D01*
X0191006Y0143900D01*
X0188506Y0141400D01*
X0188506Y0136400D01*
X0191006Y0133900D01*
X0188506Y0131400D01*
X0174963Y0132345D02*
X0173191Y0132345D01*
X0229963Y0097050D02*
X0229963Y0090750D01*
X0229962Y0090750D02*
X0229977Y0090689D01*
X0229995Y0090628D01*
X0230017Y0090569D01*
X0230042Y0090511D01*
X0230072Y0090456D01*
X0230104Y0090402D01*
X0230140Y0090350D01*
X0230179Y0090300D01*
X0230221Y0090253D01*
X0230266Y0090209D01*
X0230314Y0090168D01*
X0230364Y0090130D01*
X0230417Y0090095D01*
X0230471Y0090063D01*
X0230528Y0090035D01*
X0230586Y0090010D01*
X0230645Y0089989D01*
X0230706Y0089972D01*
X0230768Y0089959D01*
X0230830Y0089950D01*
X0230893Y0089944D01*
X0230956Y0089943D01*
X0231019Y0089946D01*
X0231082Y0089952D01*
X0231144Y0089962D01*
X0229962Y0097050D02*
X0229977Y0097111D01*
X0229995Y0097172D01*
X0230017Y0097231D01*
X0230042Y0097289D01*
X0230072Y0097344D01*
X0230104Y0097398D01*
X0230140Y0097450D01*
X0230179Y0097500D01*
X0230221Y0097547D01*
X0230266Y0097591D01*
X0230314Y0097632D01*
X0230364Y0097670D01*
X0230417Y0097705D01*
X0230471Y0097737D01*
X0230528Y0097765D01*
X0230586Y0097790D01*
X0230645Y0097811D01*
X0230706Y0097828D01*
X0230768Y0097841D01*
X0230830Y0097850D01*
X0230893Y0097856D01*
X0230956Y0097857D01*
X0231019Y0097854D01*
X0231082Y0097848D01*
X0231144Y0097838D01*
X0236656Y0097838D02*
X0236716Y0097848D01*
X0236776Y0097854D01*
X0236837Y0097857D01*
X0236897Y0097856D01*
X0236958Y0097852D01*
X0237018Y0097843D01*
X0237077Y0097832D01*
X0237136Y0097816D01*
X0237194Y0097797D01*
X0237250Y0097775D01*
X0237305Y0097749D01*
X0237358Y0097720D01*
X0237410Y0097688D01*
X0237459Y0097653D01*
X0237507Y0097615D01*
X0237551Y0097574D01*
X0237594Y0097531D01*
X0237633Y0097485D01*
X0237670Y0097437D01*
X0237704Y0097386D01*
X0237734Y0097334D01*
X0237762Y0097280D01*
X0237786Y0097224D01*
X0237807Y0097167D01*
X0237824Y0097109D01*
X0237838Y0097050D01*
X0237837Y0097050D02*
X0237837Y0090750D01*
X0237838Y0090750D02*
X0237824Y0090691D01*
X0237807Y0090633D01*
X0237786Y0090576D01*
X0237762Y0090520D01*
X0237734Y0090466D01*
X0237704Y0090414D01*
X0237670Y0090363D01*
X0237633Y0090315D01*
X0237594Y0090269D01*
X0237551Y0090226D01*
X0237507Y0090185D01*
X0237459Y0090147D01*
X0237410Y0090112D01*
X0237358Y0090080D01*
X0237305Y0090051D01*
X0237250Y0090025D01*
X0237194Y0090003D01*
X0237136Y0089984D01*
X0237077Y0089968D01*
X0237018Y0089957D01*
X0236958Y0089948D01*
X0236897Y0089944D01*
X0236837Y0089943D01*
X0236776Y0089946D01*
X0236716Y0089952D01*
X0236656Y0089962D01*
X0237837Y0068349D02*
X0229963Y0068349D01*
X0229963Y0062837D01*
X0231538Y0060081D02*
X0233900Y0057719D01*
X0236262Y0060081D01*
X0231538Y0060081D01*
X0231144Y0057719D02*
X0233900Y0057719D01*
X0236656Y0057719D01*
X0237837Y0054963D02*
X0237837Y0049451D01*
X0229963Y0049451D01*
X0229963Y0054963D01*
X0237837Y0062837D02*
X0237837Y0068349D01*
D18*
X0239449Y0061477D02*
X0240950Y0061477D01*
X0240950Y0060977D02*
X0240950Y0061978D01*
X0239949Y0060977D02*
X0239449Y0061477D01*
X0239699Y0060504D02*
X0239449Y0060254D01*
X0239449Y0059503D01*
X0240950Y0059503D01*
X0240950Y0060254D01*
X0240700Y0060504D01*
X0239699Y0060504D01*
X0239449Y0059031D02*
X0239449Y0058030D01*
X0240950Y0058030D01*
X0240950Y0059031D01*
X0240199Y0058531D02*
X0240199Y0058030D01*
X0240950Y0057558D02*
X0240950Y0056557D01*
X0239449Y0056557D01*
X0228600Y0090375D02*
X0228850Y0090625D01*
X0228850Y0090876D01*
X0228600Y0091126D01*
X0227349Y0091126D01*
X0227349Y0090876D02*
X0227349Y0091376D01*
X0227349Y0091848D02*
X0227349Y0092599D01*
X0227599Y0092849D01*
X0228099Y0092849D01*
X0228350Y0092599D01*
X0228350Y0091848D01*
X0228850Y0091848D02*
X0227349Y0091848D01*
X0228099Y0093322D02*
X0228099Y0094072D01*
X0228350Y0094323D01*
X0228600Y0094323D01*
X0228850Y0094072D01*
X0228850Y0093572D01*
X0228600Y0093322D01*
X0228099Y0093322D01*
X0227599Y0093822D01*
X0227349Y0094323D01*
X0207897Y0108950D02*
X0206897Y0108950D01*
X0207897Y0109951D01*
X0207897Y0110201D01*
X0207647Y0110451D01*
X0207147Y0110451D01*
X0206897Y0110201D01*
X0206424Y0110201D02*
X0206424Y0109701D01*
X0206174Y0109450D01*
X0205423Y0109450D01*
X0205423Y0108950D02*
X0205423Y0110451D01*
X0206174Y0110451D01*
X0206424Y0110201D01*
X0204951Y0110451D02*
X0204450Y0110451D01*
X0204701Y0110451D02*
X0204701Y0109200D01*
X0204450Y0108950D01*
X0204200Y0108950D01*
X0203950Y0109200D01*
X0172350Y0132450D02*
X0172350Y0133201D01*
X0172100Y0133451D01*
X0171099Y0133451D01*
X0170849Y0133201D01*
X0170849Y0132450D01*
X0172350Y0132450D01*
X0172100Y0133923D02*
X0172350Y0134173D01*
X0172350Y0134674D01*
X0172100Y0134924D01*
X0171850Y0134924D01*
X0171599Y0134674D01*
X0171599Y0133923D01*
X0172100Y0133923D01*
X0171599Y0133923D02*
X0171099Y0134424D01*
X0170849Y0134924D01*
X0162647Y0110451D02*
X0162897Y0110201D01*
X0162897Y0109951D01*
X0162647Y0109701D01*
X0162897Y0109450D01*
X0162897Y0109200D01*
X0162647Y0108950D01*
X0162147Y0108950D01*
X0161897Y0109200D01*
X0161424Y0109701D02*
X0161174Y0109450D01*
X0160423Y0109450D01*
X0160423Y0108950D02*
X0160423Y0110451D01*
X0161174Y0110451D01*
X0161424Y0110201D01*
X0161424Y0109701D01*
X0161897Y0110201D02*
X0162147Y0110451D01*
X0162647Y0110451D01*
X0162647Y0109701D02*
X0162397Y0109701D01*
X0159951Y0110451D02*
X0159450Y0110451D01*
X0159701Y0110451D02*
X0159701Y0109200D01*
X0159450Y0108950D01*
X0159200Y0108950D01*
X0158950Y0109200D01*
X0079850Y0102674D02*
X0078349Y0102674D01*
X0079099Y0101923D01*
X0079099Y0102924D01*
X0078599Y0101451D02*
X0078349Y0101201D01*
X0078349Y0100450D01*
X0079850Y0100450D01*
X0079850Y0101201D01*
X0079600Y0101451D01*
X0078599Y0101451D01*
X0080350Y0052897D02*
X0080350Y0051897D01*
X0080350Y0052397D02*
X0078849Y0052397D01*
X0079349Y0051897D01*
X0079099Y0051424D02*
X0079599Y0051424D01*
X0079850Y0051174D01*
X0079850Y0050423D01*
X0080350Y0050423D02*
X0078849Y0050423D01*
X0078849Y0051174D01*
X0079099Y0051424D01*
X0078849Y0049951D02*
X0078849Y0049450D01*
X0078849Y0049701D02*
X0080100Y0049701D01*
X0080350Y0049450D01*
X0080350Y0049200D01*
X0080100Y0048950D01*
D19*
X0098258Y0071752D02*
X0097540Y0072469D01*
X0097540Y0073904D01*
X0098258Y0074621D01*
X0098975Y0074621D01*
X0101844Y0071752D01*
X0101844Y0074621D01*
X0107340Y0072687D02*
X0111644Y0072687D01*
X0111644Y0074121D02*
X0111644Y0071252D01*
X0108775Y0071252D02*
X0107340Y0072687D01*
X0142540Y0073904D02*
X0144692Y0071752D01*
X0144692Y0074621D01*
X0146844Y0073904D02*
X0142540Y0073904D01*
X0172340Y0072687D02*
X0176644Y0072687D01*
X0176644Y0074121D02*
X0176644Y0071252D01*
X0173775Y0071252D02*
X0172340Y0072687D01*
X0187540Y0073904D02*
X0189692Y0071752D01*
X0189692Y0074621D01*
X0191844Y0073904D02*
X0187540Y0073904D01*
X0217340Y0072687D02*
X0221644Y0072687D01*
X0221644Y0074121D02*
X0221644Y0071252D01*
X0218775Y0071252D02*
X0217340Y0072687D01*
X0077393Y0196625D02*
X0076842Y0196075D01*
X0077393Y0196625D02*
X0077393Y0197726D01*
X0076842Y0198276D01*
X0076292Y0198276D01*
X0075741Y0197726D01*
X0075741Y0196625D01*
X0075191Y0196075D01*
X0074640Y0196075D01*
X0074090Y0196625D01*
X0074090Y0197726D01*
X0074640Y0198276D01*
X0074090Y0199758D02*
X0077393Y0199758D01*
X0076292Y0200859D01*
X0077393Y0201960D01*
X0074090Y0201960D01*
X0075191Y0203441D02*
X0074090Y0204542D01*
X0077393Y0204542D01*
X0077393Y0203441D02*
X0077393Y0205643D01*
D20*
X0093900Y0081400D02*
X0093900Y0068900D01*
X0097400Y0068900D01*
X0097400Y0044400D01*
X0098700Y0043000D01*
X0098900Y0037400D02*
X0099900Y0035400D01*
X0103700Y0035400D01*
X0104100Y0035400D01*
X0103700Y0035400D02*
X0107900Y0035400D01*
X0108900Y0037400D01*
X0108900Y0068900D01*
X0113900Y0068900D01*
X0113900Y0081400D01*
X0111400Y0081400D01*
X0111400Y0078900D01*
X0106400Y0078900D01*
X0106400Y0081400D01*
X0101400Y0081400D01*
X0101400Y0078900D01*
X0096400Y0078900D01*
X0096400Y0081400D01*
X0093900Y0081400D01*
X0097400Y0068900D02*
X0108900Y0068900D01*
X0110400Y0068900D02*
X0110400Y0044400D01*
X0109100Y0043000D01*
X0098900Y0037400D02*
X0098900Y0068900D01*
X0138900Y0068900D02*
X0142400Y0068900D01*
X0142400Y0044400D01*
X0143700Y0043000D01*
X0143900Y0037400D02*
X0144900Y0035400D01*
X0159100Y0035400D01*
X0158700Y0035400D02*
X0172900Y0035400D01*
X0173900Y0037400D01*
X0173900Y0068900D01*
X0178900Y0068900D01*
X0178900Y0081400D01*
X0176400Y0081400D01*
X0176400Y0078900D01*
X0171400Y0078900D01*
X0171400Y0081400D01*
X0166400Y0081400D01*
X0166400Y0078900D01*
X0161400Y0078900D01*
X0161400Y0081400D01*
X0156400Y0081400D01*
X0156400Y0078900D01*
X0151400Y0078900D01*
X0151400Y0081400D01*
X0146400Y0081400D01*
X0146400Y0078900D01*
X0141400Y0078900D01*
X0141400Y0081400D01*
X0138900Y0081400D01*
X0138900Y0068900D01*
X0142400Y0068900D02*
X0173900Y0068900D01*
X0175400Y0068900D02*
X0175400Y0044400D01*
X0174100Y0043000D01*
X0187400Y0044400D02*
X0188700Y0043000D01*
X0187400Y0044400D02*
X0187400Y0068900D01*
X0218900Y0068900D01*
X0218900Y0037400D01*
X0217900Y0035400D01*
X0203700Y0035400D01*
X0204100Y0035400D02*
X0189900Y0035400D01*
X0188900Y0037400D01*
X0188900Y0068900D01*
X0187400Y0068900D02*
X0183900Y0068900D01*
X0183900Y0081400D01*
X0186400Y0081400D01*
X0186400Y0078900D01*
X0191400Y0078900D01*
X0191400Y0081400D01*
X0196400Y0081400D01*
X0196400Y0078900D01*
X0201400Y0078900D01*
X0201400Y0081400D01*
X0206400Y0081400D01*
X0206400Y0078900D01*
X0211400Y0078900D01*
X0211400Y0081400D01*
X0216400Y0081400D01*
X0216400Y0078900D01*
X0221400Y0078900D01*
X0221400Y0081400D01*
X0223900Y0081400D01*
X0223900Y0068900D01*
X0218900Y0068900D01*
X0220400Y0068900D02*
X0220400Y0044400D01*
X0219100Y0043000D01*
X0143900Y0037400D02*
X0143900Y0068900D01*
D21*
X0119648Y0065711D02*
X0119648Y0061774D01*
X0119648Y0065711D02*
X0115711Y0065711D01*
X0119648Y0049963D02*
X0119648Y0046026D01*
X0092089Y0065711D02*
X0088152Y0065711D01*
X0088180Y0065640D02*
X0088180Y0061774D01*
X0088152Y0061774D01*
X0088152Y0049963D02*
X0088152Y0046026D01*
M02*
